<svg width="513" height="513" viewBox="0 0 513 513" fill="none" xmlns="http://www.w3.org/2000/svg">
<g clip-path="url(#clip0_221_30)">
<path d="M20.0841 43.9825C20.807 43.9754 21.5299 43.9684 22.2747 43.9612C24.6432 43.9437 27.0104 43.9552 29.3788 43.9688C31.0359 43.9661 32.6931 43.9622 34.3502 43.9572C37.8142 43.9513 41.2779 43.9598 44.7418 43.9786C49.1727 44.0014 53.6026 43.9882 58.0334 43.9643C61.4522 43.9498 64.8708 43.9544 68.2896 43.9648C69.923 43.9674 71.5564 43.9642 73.1898 43.9549C75.4754 43.9446 77.7595 43.9602 80.0451 43.9825C81.343 43.9856 82.6409 43.9888 83.9782 43.9921C88.3651 44.6248 91.3588 46.359 94.4999 49.5C97.2773 49.611 100.034 49.6617 102.812 49.6758C104.545 49.699 106.279 49.7232 108.012 49.7481C110.746 49.783 113.479 49.8124 116.213 49.826C118.851 49.8416 121.487 49.8819 124.125 49.9258C124.928 49.9239 125.732 49.922 126.56 49.92C135.152 50.1024 142.392 53.4436 148.58 59.3812C154.726 66.1641 156.861 75.4191 159.051 84.0704C159.354 85.2326 159.658 86.3948 159.971 87.5923C160.929 91.2673 161.871 94.946 162.812 98.625C163.463 101.133 164.115 103.641 164.767 106.148C166.357 112.263 167.933 118.38 169.5 124.5C170.695 124.514 170.695 124.514 171.915 124.528C175.527 124.582 179.138 124.666 182.75 124.75C184.004 124.764 185.258 124.778 186.551 124.793C187.756 124.825 188.961 124.857 190.203 124.891C191.313 124.912 192.423 124.933 193.567 124.954C197.137 125.619 198.339 126.623 200.5 129.5C201 133 201 133 200.5 136.5C198.281 139.407 196.98 140.34 193.5 141.5C191.951 141.614 190.398 141.676 188.845 141.705C187.434 141.735 187.434 141.735 185.994 141.766C184.982 141.783 183.969 141.799 182.926 141.816C181.887 141.837 180.848 141.858 179.777 141.879C176.456 141.945 173.134 142.004 169.812 142.063C167.562 142.106 165.311 142.149 163.06 142.193C157.54 142.301 152.02 142.402 146.5 142.5C146.821 143.736 146.821 143.736 147.149 144.996C149.742 154.968 152.332 164.939 154.92 174.912C155.622 177.616 156.325 180.32 157.027 183.024C162.37 203.595 167.685 224.172 172.922 244.77C173.682 247.759 174.442 250.747 175.203 253.735C177.4 262.369 179.595 271.004 181.778 279.642C182.68 283.208 183.586 286.773 184.494 290.338C184.914 291.991 185.332 293.645 185.748 295.299C186.318 297.566 186.895 299.831 187.473 302.096C187.794 303.364 188.115 304.632 188.445 305.938C190.388 312.498 192.219 318.055 198.5 321.5C201.868 322.215 205.156 322.18 208.589 322.142C209.602 322.15 210.615 322.159 211.659 322.167C215.051 322.19 218.443 322.176 221.836 322.163C224.268 322.171 226.701 322.182 229.134 322.194C235.055 322.219 240.976 322.219 246.898 322.208C251.711 322.2 256.524 322.201 261.338 322.208C262.366 322.21 262.366 322.21 263.415 322.211C264.807 322.213 266.2 322.216 267.593 322.218C280.647 322.237 293.702 322.225 306.757 322.203C317.953 322.185 329.148 322.196 340.344 322.227C353.351 322.264 366.358 322.281 379.365 322.268C380.753 322.267 382.141 322.265 383.528 322.264C384.211 322.263 384.894 322.263 385.597 322.262C390.403 322.259 395.209 322.27 400.015 322.287C406.487 322.31 412.958 322.301 419.43 322.27C421.806 322.264 424.182 322.268 426.557 322.283C429.8 322.301 433.041 322.283 436.283 322.255C437.224 322.269 438.164 322.283 439.133 322.298C444.91 322.198 447.992 321.075 452.194 317.063C454.107 314.773 454.876 312.655 455.574 309.77C455.987 308.195 455.987 308.195 456.408 306.588C456.665 305.507 456.922 304.426 457.187 303.313C457.72 301.149 458.265 298.989 458.824 296.832C459.052 295.88 459.28 294.929 459.514 293.949C460.692 291.023 461.775 290.039 464.5 288.5C468.38 288.015 470.576 287.932 473.937 290C476.487 294.08 475.901 298.399 475.028 302.974C474.376 305.651 473.642 308.291 472.875 310.938C472.639 311.828 472.403 312.718 472.16 313.635C469.885 321.621 466.304 329.496 458.937 333.938C458.214 334.39 457.491 334.842 456.746 335.309C452.62 337.497 449.234 338.75 444.534 338.753C443.554 338.759 442.573 338.765 441.563 338.77C440.494 338.766 439.424 338.762 438.323 338.758C437.181 338.762 436.039 338.766 434.862 338.769C431.027 338.779 427.191 338.775 423.356 338.771C420.61 338.775 417.863 338.781 415.117 338.787C409.198 338.799 403.28 338.804 397.361 338.805C388.795 338.806 380.229 338.821 371.662 338.84C357.753 338.871 343.843 338.896 329.933 338.913C329.101 338.914 328.268 338.916 327.411 338.917C318.125 338.928 308.84 338.939 299.555 338.947C296.189 338.95 292.823 338.953 289.458 338.956C288.627 338.957 287.797 338.958 286.941 338.959C273.087 338.972 259.233 338.996 245.378 339.03C236.836 339.05 228.293 339.061 219.75 339.058C213.894 339.057 208.038 339.067 202.183 339.085C198.806 339.095 195.429 339.098 192.051 339.092C188.387 339.086 184.723 339.098 181.058 339.115C179.464 339.105 179.464 339.105 177.838 339.096C171.693 339.147 167.074 339.847 161.5 342.5C158 346.09 156.629 348.786 156.25 353.813C156.611 359.138 158.085 362.191 162 365.813C165.675 368.293 168.391 368.625 172.719 368.628C174.351 368.632 174.351 368.632 176.016 368.637C177.816 368.634 177.816 368.634 179.652 368.631C181.558 368.634 181.558 368.635 183.503 368.638C186.299 368.642 189.095 368.644 191.891 368.643C196.44 368.641 200.989 368.646 205.538 368.652C212.143 368.661 218.748 368.665 225.354 368.669C235.795 368.674 246.236 368.691 256.677 368.71C260.248 368.716 263.819 368.723 267.391 368.729C268.283 368.731 269.176 368.732 270.096 368.734C280.26 368.752 290.424 368.768 300.588 368.783C301.981 368.785 301.981 368.785 303.404 368.787C318.458 368.809 333.513 368.82 348.568 368.827C364.023 368.835 379.477 368.859 394.931 368.895C404.464 368.917 413.997 368.927 423.53 368.921C430.065 368.918 436.6 368.929 443.135 368.952C446.905 368.964 450.675 368.971 454.445 368.959C458.535 368.947 462.624 368.966 466.713 368.988C467.902 368.979 469.091 368.971 470.315 368.962C478.043 369.038 483.503 370.051 489.523 375.246C494.172 381.063 495.999 385.394 495.808 392.941C494.993 399.701 491.489 404.029 486.379 408.273C482.462 410.83 478.84 411.751 474.199 411.914C473.223 411.953 472.246 411.991 471.24 412.031C469.729 412.078 469.729 412.078 468.187 412.125C467.161 412.164 466.134 412.202 465.076 412.242C462.551 412.336 460.026 412.422 457.5 412.5C457.778 413.165 458.057 413.829 458.344 414.514C458.889 415.839 458.889 415.839 459.445 417.191C459.806 418.062 460.167 418.933 460.539 419.83C463.67 428.533 462.827 437.748 459.391 446.242C454.616 456.175 447.797 463.185 437.437 467.438C428.142 470.084 416.372 469.989 407.637 465.762C398.008 460.076 391.188 453.206 387.5 442.5C386.594 438.797 386.277 435.246 386.187 431.438C386.15 430.415 386.113 429.393 386.074 428.34C386.5 424.5 386.5 424.5 390.5 412.5C339.02 412.5 287.54 412.5 234.5 412.5C236.48 417.945 236.48 417.945 238.5 423.5C240.015 434.606 238.442 444.655 231.785 453.875C226 460.761 218.593 466.885 209.5 468.5C197.383 469.149 187.24 469.158 177.414 461.23C169.756 454.307 163.978 446.525 163.262 435.996C163.032 427.381 163.733 420.437 167.5 412.5C166.628 412.341 165.757 412.183 164.859 412.02C149.664 409.043 138.106 403.966 127.5 392.5C127.031 392.036 126.561 391.572 126.078 391.094C114.902 379.342 112.888 364.141 113.191 348.711C113.84 333.735 121.129 320.851 131.894 310.688C142.01 302.194 155.181 296.396 168.5 296.5C155.854 246.88 143.149 197.275 130.27 147.715C129.48 144.675 128.69 141.635 127.901 138.595C127.712 137.865 127.522 137.136 127.327 136.385C126.95 134.931 126.572 133.478 126.195 132.025C125.038 127.568 123.878 123.112 122.717 118.657C121.957 115.738 121.199 112.818 120.441 109.898C120.085 108.528 119.728 107.158 119.371 105.789C118.883 103.921 118.398 102.052 117.914 100.182C117.639 99.1285 117.365 98.0745 117.083 96.9886C116.5 94.5 116.5 94.5 116.5 92.5C112.957 92.5522 109.417 92.6473 105.875 92.75C104.876 92.7642 103.877 92.7784 102.848 92.793C96.7072 92.9963 93.2774 93.6117 88.4999 97.5C85.0687 98.6438 82.3885 98.6481 78.7687 98.677C77.7486 98.6869 77.7486 98.6869 76.7078 98.697C74.4575 98.7167 72.2073 98.7283 69.9569 98.7383C68.8011 98.7444 68.8011 98.7444 67.6218 98.7507C63.5408 98.7715 59.4597 98.7858 55.3786 98.7952C51.1765 98.8062 46.9751 98.8406 42.7733 98.8804C39.5312 98.9066 36.2892 98.9149 33.047 98.9185C31.499 98.9233 29.9509 98.9349 28.4029 98.9535C13.2605 99.1242 13.2605 99.1242 6.49989 94.5C-0.0282059 88.0554 0.226659 82.8192 0.149792 73.9712C0.133316 72.5843 0.106137 71.1975 0.0677608 69.8111C-0.310913 56.0438 -0.310913 56.0438 3.73573 50.1001C8.85736 45.4548 13.232 43.9992 20.0841 43.9825ZM16.4999 60.5C15.2667 64.1995 15.3158 67.6477 15.3124 71.5C15.3001 72.2245 15.2879 72.9489 15.2753 73.6953C15.2647 77.507 15.3356 79.2537 17.4999 82.5C20.3211 82.9471 20.3211 82.9471 23.6779 82.8565C24.9758 82.8595 26.2738 82.8625 27.6111 82.8656C29.0337 82.8536 30.4562 82.8411 31.8788 82.8282C33.3309 82.8251 34.7829 82.8232 36.235 82.8225C39.279 82.8179 42.3228 82.8034 45.3668 82.7813C49.2768 82.753 53.1865 82.7421 57.0965 82.7376C60.0947 82.7335 63.0929 82.7236 66.0911 82.7117C67.5332 82.706 68.9754 82.7013 70.4176 82.6975C72.4288 82.6906 74.4401 82.6761 76.4513 82.6612C77.5978 82.6543 78.7442 82.6475 79.9254 82.6405C82.4314 82.791 82.4314 82.7911 83.4999 81.5C83.7775 78.1956 83.7316 74.8772 83.7499 71.5625C83.7705 70.6299 83.7911 69.6973 83.8124 68.7364C83.8176 67.845 83.8227 66.9536 83.828 66.0352C83.8374 65.2141 83.8467 64.3931 83.8563 63.5472C83.6799 62.5338 83.6799 62.5338 83.4999 61.5C80.0275 59.1851 78.7025 59.2517 74.6073 59.2571C72.7903 59.2525 72.7903 59.2525 70.9365 59.2478C69.6271 59.255 68.3177 59.2622 66.9686 59.2696C65.6125 59.2708 64.2563 59.2712 62.9002 59.271C60.0588 59.2725 57.2176 59.2808 54.3764 59.2942C50.7346 59.3112 47.0929 59.315 43.4511 59.3143C40.651 59.3146 37.8509 59.32 35.0508 59.3273C33.055 59.332 31.0591 59.3337 29.0632 59.3354C27.8519 59.3418 26.6405 59.3482 25.3925 59.3548C23.7905 59.3605 23.7905 59.3605 22.1563 59.3663C19.3941 59.3864 19.3941 59.3864 16.4999 60.5ZM99.4999 65.5C99.4999 69.13 99.4999 72.76 99.4999 76.5C100.302 76.5146 101.104 76.5292 101.931 76.5442C105.558 76.6186 109.185 76.7153 112.812 76.8125C114.706 76.8464 114.706 76.8464 116.639 76.8809C118.451 76.9341 118.451 76.9341 120.301 76.9883C121.416 77.0145 122.532 77.0407 123.681 77.0677C126.907 77.5625 127.503 78.0254 129.5 80.5C130.316 82.5692 130.316 82.5692 130.942 84.9715C131.182 85.8722 131.422 86.7729 131.669 87.7009C131.916 88.6697 132.163 89.6386 132.418 90.6368C132.68 91.6313 132.942 92.6259 133.212 93.6506C134.047 96.8272 134.867 100.007 135.687 103.188C136.251 105.342 136.815 107.496 137.381 109.65C138.765 114.931 140.136 120.215 141.5 125.5C145.13 125.5 148.76 125.5 152.5 125.5C149.98 114.647 147.411 103.809 144.628 93.0208C144.246 91.5306 143.871 90.0386 143.503 88.5452C142.956 86.3345 142.388 84.1301 141.816 81.9258C141.658 81.2664 141.499 80.607 141.336 79.9276C139.877 74.4594 137.408 70.3144 132.52 67.2644C125.679 65.1008 119.064 65.1587 111.937 65.3125C110.738 65.3261 109.538 65.3396 108.303 65.3536C105.368 65.3886 102.434 65.4424 99.4999 65.5ZM139.027 326.656C130.527 336.917 128.461 347.379 129.288 360.491C130.159 368.759 134.104 375.376 139.5 381.5C140.025 382.117 140.549 382.735 141.09 383.371C147.558 390.448 156.809 395.106 166.431 395.673C169.852 395.733 173.266 395.724 176.687 395.688C177.862 395.687 179.037 395.686 180.248 395.686C186.947 395.678 186.947 395.678 193.5 394.5C195.998 394.406 198.5 394.37 201 394.375C202.964 394.371 202.964 394.371 204.969 394.367C208.5 394.5 208.5 394.5 210.215 395C213.651 395.752 217.085 395.637 220.585 395.627C221.406 395.629 222.228 395.63 223.074 395.632C225.83 395.636 228.586 395.633 231.342 395.629C233.316 395.631 235.29 395.633 237.265 395.635C242.63 395.639 247.996 395.638 253.361 395.634C258.972 395.632 264.582 395.634 270.192 395.636C279.614 395.638 289.036 395.635 298.458 395.63C309.358 395.625 320.257 395.627 331.157 395.632C340.508 395.637 349.859 395.637 359.211 395.635C364.799 395.633 370.387 395.633 375.975 395.636C381.228 395.639 386.481 395.637 391.734 395.631C393.664 395.63 395.594 395.63 397.524 395.633C400.155 395.635 402.785 395.632 405.415 395.627C406.183 395.629 406.95 395.632 407.741 395.634C411.159 395.621 414.219 395.465 417.5 394.5C419.832 394.407 422.166 394.37 424.5 394.375C425.717 394.372 426.934 394.37 428.187 394.367C431.5 394.5 431.5 394.5 433.446 394.998C435.592 395.522 437.464 395.64 439.67 395.661C440.481 395.671 441.292 395.68 442.127 395.69C442.994 395.695 443.861 395.699 444.754 395.703C445.651 395.709 446.548 395.715 447.473 395.72C449.366 395.73 451.26 395.736 453.154 395.74C456.055 395.75 458.956 395.781 461.857 395.813C463.698 395.819 465.538 395.824 467.379 395.828C468.248 395.841 469.116 395.853 470.011 395.866C470.819 395.863 471.627 395.86 472.459 395.856C473.169 395.86 473.878 395.864 474.609 395.868C477.084 395.386 477.997 394.492 479.5 392.5C479.255 389.158 478.894 387.895 476.5 385.5C474.179 385.196 474.179 385.196 471.44 385.247C470.363 385.241 469.285 385.235 468.175 385.23C466.384 385.236 466.384 385.236 464.558 385.242C463.297 385.238 462.037 385.234 460.738 385.231C457.227 385.221 453.717 385.223 450.206 385.227C446.424 385.23 442.642 385.221 438.86 385.213C432.301 385.201 425.742 385.196 419.183 385.195C409.689 385.194 400.195 385.179 390.702 385.16C375.285 385.129 359.869 385.105 344.452 385.087C343.529 385.086 342.605 385.085 341.654 385.083C331.361 385.072 321.067 385.061 310.774 385.053C307.046 385.05 303.319 385.047 299.591 385.044C298.671 385.043 297.751 385.042 296.803 385.041C281.456 385.028 266.108 385.004 250.76 384.97C241.293 384.95 231.827 384.939 222.361 384.942C215.868 384.943 209.376 384.933 202.883 384.915C199.139 384.905 195.395 384.9 191.651 384.908C187.587 384.917 183.522 384.902 179.458 384.885C177.694 384.895 177.694 384.895 175.895 384.904C163.558 384.812 155.087 381.905 146.25 373.313C141.46 365.615 139.25 357.528 140.5 348.5C142.525 340.083 145.759 333.622 153.062 328.813C160.629 324.627 167.943 323.234 176.5 322.5C175.51 319.2 174.52 315.9 173.5 312.5C160.14 311.744 148.148 316.87 139.027 326.656ZM182.691 418.621C179.055 424.356 178.765 429.876 179.5 436.5C181.288 442.754 185.223 446.866 190.5 450.5C195.372 453.2 200.09 453.995 205.562 452.813C212.242 450.865 216.474 446.98 220.5 441.5C223.256 435.68 223.624 429.43 221.848 423.219C219.106 417.1 214.627 412.996 208.625 410.125C198.117 408.023 189.607 410.129 182.691 418.621ZM407.574 416.73C403.34 422.924 401.671 428.008 402.5 435.5C404.307 442.131 407.689 446.815 413.5 450.5C419.058 453.169 424.444 453.256 430.5 452.5C433.661 451.322 435.977 449.719 438.5 447.5C439.077 446.992 439.655 446.484 440.25 445.961C444.669 441.478 446.206 436.742 446.5 430.5C445.943 424.205 443.364 418.971 438.566 414.832C428.878 407.348 416.153 406.794 407.574 416.73Z" fill="#053553"/>
<path d="M228.11 125.12C229.538 125.107 229.538 125.107 230.995 125.094C232.567 125.103 232.567 125.103 234.171 125.112C235.283 125.107 236.394 125.102 237.54 125.096C241.285 125.082 245.029 125.089 248.774 125.096C251.451 125.09 254.128 125.083 256.805 125.075C263.335 125.058 269.864 125.057 276.394 125.062C281.702 125.066 287.01 125.065 292.319 125.06C293.074 125.059 293.829 125.058 294.607 125.057C296.14 125.056 297.674 125.054 299.207 125.053C313.601 125.039 327.994 125.044 342.388 125.056C355.551 125.066 368.715 125.053 381.878 125.029C395.393 125.005 408.908 124.995 422.423 125.002C430.011 125.005 437.599 125.003 445.187 124.985C451.65 124.971 458.112 124.97 464.575 124.987C467.871 124.996 471.167 124.996 474.463 124.983C478.04 124.97 481.617 124.981 485.194 124.999C486.231 124.989 487.268 124.98 488.336 124.97C495.57 125.043 500.98 126.463 506.523 131.246C506.969 131.804 507.415 132.362 507.875 132.938C508.567 133.771 508.567 133.771 509.273 134.621C514.409 142.488 513.352 151.822 511.51 160.616C510.12 166.708 508.537 172.749 506.953 178.793C506.378 181.033 505.805 183.274 505.233 185.515C504.036 190.189 502.828 194.861 501.611 199.531C500.058 205.492 498.525 211.457 496.998 217.425C495.532 223.153 494.055 228.879 492.578 234.606C492.301 235.684 492.024 236.763 491.738 237.875C490.945 240.955 490.144 244.033 489.341 247.11C489.112 248.002 488.883 248.895 488.648 249.814C487.434 254.432 486.083 258.994 484.572 263.524C484.273 264.428 483.974 265.332 483.666 266.264C482.27 268.94 481.341 269.575 478.5 270.5C474.819 270.371 472.428 270.279 469.562 267.875C467.161 262.508 468.714 256.788 470.117 251.313C470.376 250.288 470.376 250.288 470.64 249.244C471.21 246.994 471.793 244.747 472.375 242.5C472.783 240.903 473.189 239.306 473.595 237.708C474.67 233.49 475.755 229.274 476.841 225.059C477.915 220.889 478.978 216.716 480.043 212.543C480.882 209.258 481.722 205.973 482.562 202.688C482.873 201.473 482.873 201.473 483.19 200.235C485.205 192.364 487.227 184.495 489.32 176.644C490.081 173.788 490.836 170.93 491.591 168.072C492.108 166.126 492.636 164.184 493.164 162.241C494.761 156.195 496.142 150.764 495.5 144.5C493.058 142.058 492.446 142.249 489.098 142.247C488.167 142.241 487.236 142.235 486.277 142.23C484.732 142.236 484.732 142.236 483.157 142.242C482.068 142.238 480.98 142.234 479.858 142.231C476.186 142.221 472.514 142.225 468.842 142.229C466.22 142.224 463.597 142.219 460.974 142.213C455.314 142.201 449.654 142.196 443.994 142.195C435.805 142.194 427.616 142.179 419.427 142.16C406.134 142.129 392.842 142.105 379.549 142.087C378.355 142.085 378.355 142.085 377.137 142.083C368.257 142.072 359.377 142.061 350.498 142.053C347.279 142.05 344.061 142.047 340.842 142.044C340.048 142.043 339.254 142.042 338.435 142.041C325.197 142.028 311.959 142.004 298.721 141.97C290.552 141.95 282.383 141.939 274.214 141.942C267.956 141.943 261.697 141.929 255.438 141.909C252.868 141.904 250.298 141.903 247.728 141.908C244.227 141.914 240.726 141.902 237.224 141.885C235.69 141.895 235.69 141.895 234.124 141.904C225.411 141.828 225.411 141.828 221.5 138.5C219.5 135.5 219.5 135.5 219.687 132C220.921 126.688 222.688 125.126 228.11 125.12Z" fill="#053553"/>
<path d="M435.59 173.062C437.5 173.5 437.5 173.5 440.062 175.437C443.001 181.698 440.201 189.449 438.598 195.938C438.408 196.728 438.217 197.518 438.021 198.331C437.397 200.912 436.765 203.491 436.133 206.07C435.693 207.879 435.253 209.688 434.813 211.497C433.894 215.275 432.971 219.052 432.044 222.828C430.861 227.656 429.688 232.486 428.518 237.317C427.613 241.048 426.702 244.778 425.789 248.507C425.355 250.287 424.922 252.068 424.491 253.849C423.886 256.341 423.275 258.831 422.661 261.321C422.486 262.048 422.311 262.776 422.131 263.525C420.995 268.089 419.567 272.266 417.5 276.5C414.274 278.113 410.989 278.078 407.5 277.5C404.938 275.625 404.938 275.625 403.5 272.5C403.817 262.468 406.662 252.769 409.051 243.07C409.511 241.188 409.971 239.306 410.43 237.425C411.391 233.498 412.358 229.573 413.328 225.649C414.57 220.622 415.792 215.591 417.009 210.558C417.951 206.678 418.905 202.801 419.864 198.925C420.32 197.071 420.772 195.215 421.219 193.359C421.844 190.768 422.487 188.183 423.134 185.598C423.314 184.833 423.495 184.069 423.681 183.281C425.489 176.214 428.195 172.62 435.59 173.062Z" fill="#053553"/>
<path d="M214.5 173.5C217.746 175.803 218.292 178.577 219.214 182.334C219.515 183.538 219.816 184.742 220.125 185.982C220.444 187.304 220.763 188.627 221.082 189.949C221.421 191.322 221.761 192.695 222.102 194.068C223.002 197.702 223.889 201.338 224.773 204.975C225.652 208.581 226.542 212.184 227.432 215.787C228.475 220.013 229.516 224.241 230.545 228.47C232.1 234.854 233.677 241.23 235.349 247.584C235.631 248.669 235.914 249.753 236.204 250.87C236.721 252.844 237.246 254.815 237.783 256.783C239.281 262.543 240.572 268.555 239.5 274.5C237.805 276.649 237.056 277.397 234.344 277.898C233.57 277.89 232.797 277.883 232 277.875C230.84 277.886 230.84 277.886 229.656 277.898C226.903 277.39 226.243 276.677 224.5 274.5C223.572 271.878 223.572 271.878 222.786 268.681C222.485 267.481 222.184 266.28 221.874 265.043C221.555 263.724 221.237 262.405 220.918 261.086C220.579 259.715 220.239 258.344 219.898 256.974C218.998 253.346 218.111 249.715 217.227 246.083C216.349 242.487 215.458 238.894 214.568 235.301C213.015 229.018 211.479 222.732 209.951 216.444C208.87 211.997 207.765 207.556 206.651 203.118C206.097 200.883 205.542 198.649 204.988 196.414C204.734 195.417 204.479 194.42 204.217 193.393C200.948 180.086 200.948 180.086 204 175C207.756 172.746 210.146 173.016 214.5 173.5Z" fill="#053553"/>
<path d="M358.937 173.188C360.111 173.162 360.111 173.162 361.308 173.137C363.5 173.5 363.5 173.5 365.12 174.548C367.23 177.533 366.865 180.575 366.765 184.09C366.753 184.844 366.742 185.598 366.73 186.375C366.56 194.628 365.942 202.843 365.258 211.066C365.128 212.682 364.998 214.298 364.868 215.913C364.599 219.262 364.324 222.611 364.046 225.959C363.692 230.232 363.35 234.505 363.011 238.779C362.747 242.1 362.476 245.421 362.203 248.741C362.074 250.317 361.947 251.893 361.823 253.469C360.527 269.748 360.527 269.748 358.5 275.5C355.309 277.627 353.298 277.834 349.535 278.059C346.273 277.163 345.285 275.302 343.5 272.5C343.279 269.821 343.31 267.665 343.566 265.023C343.656 263.824 343.656 263.824 343.747 262.601C343.892 260.699 344.048 258.798 344.212 256.898C344.543 252.997 344.837 249.093 345.128 245.188C345.732 237.174 346.375 229.163 347.029 221.152C347.373 216.929 347.708 212.705 348.041 208.48C348.3 205.201 348.567 201.922 348.836 198.644C348.963 197.085 349.087 195.526 349.208 193.967C349.377 191.8 349.556 189.634 349.738 187.467C349.887 185.625 349.887 185.625 350.038 183.745C350.908 177.632 352.21 173.221 358.937 173.188Z" fill="#053553"/>
<path d="M286.5 172.934C289.52 173.789 290.574 175.005 292.5 177.5C293.272 180.447 293.455 183.401 293.66 186.434C293.773 187.774 293.773 187.774 293.888 189.141C294.13 192.072 294.346 195.004 294.562 197.938C294.725 199.968 294.888 201.999 295.054 204.03C295.388 208.171 295.713 212.314 296.03 216.457C296.46 222.047 296.932 227.633 297.418 233.219C297.629 235.681 297.84 238.143 298.05 240.605C298.181 242.136 298.314 243.667 298.447 245.197C299.083 252.551 299.611 259.906 299.828 267.285C299.863 268.389 299.898 269.492 299.935 270.629C299.396 274.184 298.297 275.319 295.5 277.5C292.592 278.209 290.557 277.84 287.5 277.5C284.826 275.688 284.541 274.622 283.5 271.5C283.208 268.826 282.959 266.164 282.744 263.484C282.675 262.667 282.607 261.85 282.536 261.009C282.311 258.304 282.091 255.6 281.871 252.895C281.716 251.012 281.56 249.13 281.404 247.248C281.079 243.298 280.755 239.348 280.434 235.397C280.023 230.348 279.605 225.298 279.186 220.249C278.864 216.359 278.545 212.468 278.226 208.578C278.074 206.717 277.92 204.856 277.766 202.996C277.55 200.385 277.338 197.774 277.127 195.163C277.063 194.402 276.999 193.641 276.933 192.856C275.888 179.724 275.888 179.724 278 175.5C281.033 173.074 282.726 172.941 286.5 172.934Z" fill="#053553"/>
</g>
<defs>
<clipPath id="clip0_221_30">
<rect width="512" height="512" fill="white" transform="translate(0.5 0.5)"/>
</clipPath>
</defs>
</svg>
