<svg width="513" height="513" viewBox="0 0 513 513" fill="none" xmlns="http://www.w3.org/2000/svg">
<g clip-path="url(#clip0_221_101)">
<path d="M98.3929 50.2124C99.3847 50.2058 100.376 50.1991 101.398 50.1923C104.719 50.1726 108.04 50.1672 111.361 50.1619C113.743 50.151 116.125 50.1393 118.507 50.127C125.65 50.0933 132.793 50.0766 139.937 50.0628C143.304 50.0559 146.671 50.0467 150.038 50.0377C161.235 50.0085 172.431 49.9837 183.628 49.9731C184.702 49.9721 184.702 49.9721 185.797 49.971C186.515 49.9703 187.233 49.9696 187.972 49.9689C189.426 49.9675 190.88 49.9661 192.334 49.9647C193.055 49.9639 193.776 49.9632 194.52 49.9625C206.209 49.9503 217.897 49.9075 229.586 49.8517C241.596 49.7949 253.606 49.7645 265.616 49.7601C272.356 49.757 279.095 49.7426 285.835 49.6988C292.173 49.6591 298.511 49.6526 304.849 49.6717C307.175 49.673 309.5 49.6623 311.825 49.6387C315.002 49.6083 318.176 49.6212 321.353 49.6448C322.73 49.6163 322.73 49.6163 324.135 49.5872C330.321 49.6964 333.394 51.3526 337.788 55.6931C338.353 56.2894 338.918 56.8857 339.5 57.5001C340.585 58.547 341.672 59.5911 342.764 60.6307C343.837 61.695 344.908 62.7618 345.976 63.8309C346.569 64.4204 347.162 65.01 347.773 65.6174C349.703 67.5379 351.629 69.4621 353.555 71.3868C354.906 72.7349 356.257 74.0829 357.609 75.4309C360.426 78.2423 363.242 81.0557 366.056 83.8704C369.662 87.4768 373.275 91.0762 376.89 94.674C379.676 97.4492 382.458 100.229 385.239 103.01C386.569 104.34 387.902 105.668 389.236 106.994C391.096 108.844 392.949 110.7 394.8 112.557C395.351 113.102 395.902 113.647 396.469 114.209C401.206 118.986 402.723 121.534 402.749 128.328C402.742 129.1 402.734 129.871 402.727 130.665C402.727 131.485 402.728 132.305 402.728 133.15C402.727 135.855 402.711 138.56 402.695 141.266C402.692 143.143 402.689 145.021 402.687 146.898C402.679 151.837 402.659 156.775 402.637 161.714C402.617 166.755 402.608 171.795 402.598 176.836C402.576 186.724 402.542 196.612 402.5 206.5C403.166 206.559 403.833 206.618 404.519 206.679C405.404 206.762 406.289 206.844 407.201 206.929C408.073 207.009 408.946 207.089 409.845 207.171C414.072 207.695 418.06 208.819 422.125 210.063C422.986 210.324 423.847 210.586 424.734 210.856C457.841 221.366 484.166 245.731 500.017 276.183C504.1 284.358 507.086 292.699 509.5 301.5C509.839 302.674 510.178 303.849 510.527 305.059C515.313 325.196 514.29 349.712 508.5 369.5C508.187 370.59 508.187 370.59 507.867 371.701C497.995 404.857 474.569 431.944 444.5 448.625C438.565 451.781 432.42 454.149 426.062 456.313C425.254 456.591 424.445 456.868 423.611 457.155C410.468 461.402 397.55 462.951 383.793 462.888C382.282 462.892 380.77 462.897 379.259 462.904C375.154 462.918 371.05 462.914 366.946 462.907C362.501 462.902 358.056 462.915 353.611 462.925C344.924 462.942 336.237 462.943 327.549 462.938C320.488 462.934 313.426 462.935 306.364 462.94C305.356 462.941 304.349 462.942 303.31 462.943C301.263 462.944 299.215 462.946 297.168 462.947C278.006 462.961 258.843 462.956 239.681 462.944C222.162 462.934 204.643 462.947 187.124 462.971C169.109 462.995 151.095 463.005 133.081 462.998C122.978 462.995 112.874 462.997 102.77 463.015C94.1751 463.029 85.5798 463.03 76.9843 463.013C72.6021 463.004 68.2201 463.002 63.8379 463.017C59.8218 463.031 55.8061 463.026 51.79 463.007C50.3421 463.003 48.8942 463.006 47.4464 463.017C33.6698 463.109 22.5819 459.983 12.3398 450.5C5.80666 443.662 0.386659 434.541 0.365768 424.867C0.361311 423.91 0.356857 422.953 0.352264 421.966C0.352449 420.913 0.352631 419.859 0.352821 418.773C0.349145 417.655 0.345471 416.538 0.341682 415.386C0.330623 411.621 0.326795 407.855 0.32299 404.09C0.316727 401.398 0.310094 398.706 0.303078 396.014C0.283312 387.92 0.273247 379.827 0.264351 371.733C0.259967 367.92 0.254598 364.107 0.249359 360.294C0.232345 347.615 0.217851 334.936 0.210609 322.257C0.2087 318.966 0.206782 315.676 0.204826 312.385C0.204343 311.567 0.20386 310.75 0.203362 309.907C0.195067 296.668 0.169739 283.429 0.137245 270.19C0.104144 256.592 0.0861623 242.995 0.0829697 229.397C0.0808071 221.765 0.072096 214.133 0.0465088 206.5C0.02476 199.998 0.0167702 193.496 0.026474 186.993C0.0310072 183.678 0.0269917 180.364 0.00971222 177.049C-0.00801177 173.447 -0.000896763 169.845 0.0122452 166.243C0.00127593 165.207 -0.00969444 164.171 -0.0209961 163.104C0.0735006 152.334 3.40193 143.578 10.5 135.5C11.0014 134.894 11.5029 134.288 12.0195 133.664C19.7044 125.1 30.259 121.316 41.5 120.5C45.3051 120.428 49.1084 120.441 52.9141 120.461C53.9335 120.464 54.9529 120.467 56.0032 120.47C58.5021 120.477 61.001 120.487 63.5 120.5C63.479 119.184 63.4581 117.868 63.4365 116.512C63.3637 111.598 63.3181 106.683 63.2803 101.768C63.2602 99.6472 63.233 97.5261 63.1982 95.4051C63.1493 92.3442 63.1269 89.284 63.1094 86.2227C63.0887 85.2848 63.0681 84.347 63.0468 83.3807C63.0436 73.6897 66.8159 65.5088 73.5 58.5001C81.4016 52.1022 88.3823 50.201 98.3929 50.2124ZM82.6601 71.3165C82.2979 71.8927 81.9357 72.4689 81.5625 73.0626C81.1822 73.6413 80.8019 74.2201 80.4101 74.8165C78.7967 77.801 78.3762 80.2798 78.3865 83.6043C78.3865 84.4249 78.3866 85.2455 78.3867 86.091C78.3919 86.9724 78.397 87.8537 78.4023 88.7618C78.4037 89.6676 78.4052 90.5734 78.4066 91.5066C78.4122 94.4003 78.4248 97.2939 78.4375 100.188C78.4425 102.149 78.4471 104.111 78.4512 106.072C78.4622 110.882 78.4795 115.691 78.5 120.5C79.8208 120.505 79.8208 120.505 81.1683 120.51C102.628 120.591 124.088 120.684 145.547 120.788C155.925 120.838 166.303 120.884 176.681 120.922C185.73 120.955 194.779 120.995 203.828 121.043C208.616 121.068 213.404 121.09 218.192 121.103C222.707 121.116 227.221 121.138 231.735 121.167C233.385 121.176 235.034 121.182 236.684 121.184C252.925 121.208 267.838 122.054 280.375 133.625C293.165 147.529 292.789 164.965 292.914 182.711C292.933 184.417 292.952 186.124 292.973 187.83C293.024 192.272 293.063 196.714 293.101 201.156C293.141 205.708 293.192 210.26 293.242 214.813C293.338 223.708 293.423 232.604 293.5 241.5C293.966 241.098 294.432 240.697 294.912 240.283C295.531 239.75 296.15 239.218 296.787 238.669C297.398 238.144 298.008 237.619 298.636 237.077C324.975 214.785 353.037 208.192 387.5 204.5C387.5 180.74 387.5 156.98 387.5 132.5C375.445 132.291 375.445 132.291 363.389 132.112C350.757 131.877 339.581 130.814 329.812 121.973C320.008 111.556 320.849 98.7794 320.75 85.3751C320.722 83.4453 320.692 81.5156 320.66 79.586C320.587 74.8907 320.537 70.1957 320.5 65.5001C291.59 65.4088 262.681 65.338 233.771 65.2958C230.356 65.2908 226.942 65.2856 223.527 65.2803C222.848 65.2793 222.168 65.2782 221.467 65.2771C210.467 65.2597 199.466 65.2282 188.466 65.1914C177.174 65.154 165.883 65.1321 154.592 65.1237C148.252 65.1185 141.911 65.1062 135.57 65.0771C129.602 65.05 123.633 65.0416 117.664 65.0476C115.475 65.0465 113.285 65.0386 111.095 65.0232C108.102 65.0033 105.111 65.0081 102.118 65.019C100.822 65.0016 100.822 65.0016 99.5001 64.9837C92.963 65.048 87.4095 66.6276 82.6601 71.3165ZM335.5 81.5001C335.383 84.8331 335.312 88.1656 335.25 91.5001C335.216 92.4346 335.183 93.3692 335.148 94.3321C335.037 102.311 336.703 107.576 342.25 113.375C348.601 117.527 355.139 117.791 362.5 117.625C363.662 117.612 363.662 117.612 364.848 117.598C366.732 117.574 368.616 117.539 370.5 117.5C365.304 111.254 359.658 105.594 353.865 99.9044C350.365 96.4418 346.979 92.9573 343.777 89.2149C341.249 86.2655 338.657 83.7957 335.5 81.5001ZM20.5 147.5C17.366 152.339 15.3786 157.234 15.3658 163.014C15.3613 163.944 15.3569 164.875 15.3523 165.834C15.3524 166.858 15.3526 167.882 15.3528 168.937C15.3491 170.023 15.3455 171.11 15.3417 172.229C15.3306 175.889 15.3268 179.548 15.323 183.208C15.3167 185.824 15.3101 188.44 15.3031 191.057C15.2833 198.922 15.2732 206.787 15.2644 214.653C15.26 218.357 15.2546 222.062 15.2494 225.767C15.2323 238.084 15.2179 250.401 15.2106 262.718C15.2087 265.914 15.2068 269.11 15.2048 272.307C15.2043 273.101 15.2039 273.896 15.2034 274.714C15.1951 287.579 15.1697 300.445 15.1372 313.31C15.1042 326.521 15.0862 339.732 15.083 352.943C15.0808 360.36 15.0721 367.776 15.0465 375.193C15.0225 382.171 15.019 389.149 15.0293 396.128C15.0298 398.688 15.0234 401.248 15.0097 403.808C14.992 407.306 14.9991 410.804 15.0122 414.302C15.0013 415.312 14.9903 416.323 14.979 417.364C15.0648 426.824 18.1605 433.847 24.5625 440.773C30.8742 446.398 37.8175 447.649 46.0316 447.647C46.9133 447.651 47.7949 447.655 48.7033 447.658C51.6694 447.669 54.6356 447.673 57.6018 447.677C59.7239 447.683 61.846 447.69 63.9682 447.697C69.7433 447.714 75.5184 447.725 81.2935 447.733C84.9019 447.738 88.5103 447.744 92.1187 447.751C103.409 447.77 114.7 447.784 125.991 447.792C139.022 447.802 152.053 447.828 165.084 447.869C175.156 447.899 185.229 447.914 195.301 447.917C201.316 447.919 207.332 447.928 213.347 447.954C219.01 447.977 224.672 447.981 230.335 447.971C232.409 447.97 234.484 447.977 236.558 447.99C249.808 448.073 260.637 447.972 270.809 438.438C278.091 430.096 278.58 419.491 277.864 408.909C277.012 403.276 273.697 398.889 270.595 394.242C254.697 368.941 252.197 334.284 258.5 305.715C260.391 297.824 262.802 290.16 265.812 282.625C266.06 281.997 266.307 281.368 266.561 280.721C267.911 277.522 269.259 274.806 271.426 272.06C279.364 261.492 278.6 250.793 278.422 238.016C278.417 235.747 278.415 233.477 278.416 231.208C278.41 226.474 278.377 221.741 278.323 217.007C278.255 210.956 278.24 204.906 278.243 198.854C278.242 194.177 278.22 189.5 278.191 184.822C278.178 182.592 278.17 180.36 278.167 178.129C278.159 175.009 278.124 171.89 278.081 168.771C278.084 167.405 278.084 167.405 278.087 166.012C277.904 156.831 274.571 149.91 268.367 143.227C261.842 137.193 255.379 136.351 246.797 136.36C245.909 136.357 245.021 136.354 244.106 136.351C241.124 136.342 238.143 136.34 235.161 136.339C233.026 136.334 230.89 136.329 228.755 136.324C222.949 136.311 217.143 136.304 211.337 136.3C207.71 136.297 204.083 136.293 200.456 136.288C189.109 136.275 177.762 136.265 166.415 136.261C153.314 136.257 140.214 136.239 127.114 136.21C116.989 136.189 106.864 136.178 96.7392 136.177C90.6915 136.176 84.6439 136.17 78.5963 136.152C72.9065 136.136 67.217 136.134 61.5272 136.142C59.4407 136.143 57.3541 136.139 55.2676 136.129C52.4153 136.116 49.5636 136.122 46.7112 136.133C45.889 136.125 45.0668 136.116 44.2197 136.108C34.2357 136.193 27.1691 140.122 20.5 147.5ZM324.5 236.5C323.429 237.183 322.358 237.866 321.254 238.57C295.278 255.814 278.67 281.823 271.938 312.021C267.221 335.401 270.387 360.007 280.5 381.5C280.933 382.425 280.933 382.425 281.375 383.369C294.384 410.696 318.018 431.351 346.5 441.5C376.043 451.235 407.53 449.635 435.485 435.681C462.9 421.271 483.038 397.448 492.621 368.063C493.67 364.559 494.615 361.049 495.5 357.5C495.728 356.605 495.956 355.711 496.191 354.789C502.122 326.505 495.298 295.964 479.812 271.895C464.661 249.251 443.843 233.858 418.25 225.125C417.554 224.886 416.858 224.647 416.142 224.401C386.475 214.845 350.71 219.747 324.5 236.5ZM292.5 425.5C292.269 426.25 292.039 427.001 291.801 427.773C291.475 428.797 291.149 429.821 290.812 430.875C290.499 431.873 290.186 432.871 289.863 433.898C288.091 438.58 285.739 443.023 283.5 447.5C296.04 447.5 308.58 447.5 321.5 447.5C317.816 444.553 314.217 441.924 310.312 439.313C304.915 435.655 300.078 431.634 295.328 427.152C293.787 425.388 293.787 425.388 292.5 425.5Z" fill="black"/>
<path d="M448.5 250.5C451.926 253.408 455.23 256.419 458.5 259.5C459.116 260.052 459.732 260.603 460.367 261.172C476.423 276.118 487.493 300.659 488.661 322.513C489.045 351.491 485.032 377.733 465.5 400.5C464.5 401.699 464.5 401.699 463.48 402.922C446.406 422.734 423.321 434.689 397.5 438.5C364.267 440.547 336.002 432.353 310.812 410.129C290.381 390.687 279.624 364.058 278.539 336.094C277.972 307.958 288.402 281.229 307.718 260.762C344.531 223.125 406.728 216.955 448.5 250.5ZM319.5 271.5C318.698 272.28 317.896 273.06 317.07 273.863C300.914 290.494 294.056 313.361 294.207 336.102C294.653 361.632 305.604 382.731 323.5 400.5C340.982 417.132 364.683 424.131 388.367 423.781C412.445 422.87 434.952 411.026 451.25 393.625C468.365 373.826 475.25 349.298 473.5 323.5C470.569 299.514 458.227 279.086 439.992 263.438C403.269 234.888 352.01 238.666 319.5 271.5Z" fill="black"/>
<path d="M63.0705 153.366C63.8125 153.364 64.5545 153.362 65.3189 153.359C67.7945 153.353 70.2699 153.354 72.7455 153.355C74.5248 153.352 76.3042 153.348 78.0836 153.345C82.9101 153.336 87.7366 153.333 92.5632 153.333C95.5808 153.332 98.5984 153.33 101.616 153.327C112.15 153.318 122.683 153.314 133.217 153.315C143.026 153.315 152.835 153.305 162.644 153.289C171.074 153.276 179.503 153.27 187.933 153.271C192.964 153.271 197.995 153.269 203.026 153.258C207.76 153.248 212.493 153.248 217.227 153.255C218.96 153.257 220.693 153.254 222.426 153.248C244.77 153.175 244.77 153.175 252.5 159.5C259.172 166.475 259.814 172.634 259.836 181.867C259.846 183.357 259.846 183.357 259.856 184.878C259.866 186.974 259.871 189.07 259.871 191.166C259.875 194.358 259.911 197.547 259.949 200.738C259.955 202.781 259.959 204.824 259.961 206.867C259.975 207.813 259.99 208.759 260.005 209.734C259.953 217.302 258.034 222.403 253.25 228.25C247.377 233.056 241.948 235.103 234.303 235.008C233.518 235.014 232.732 235.02 231.923 235.027C229.313 235.043 226.704 235.03 224.094 235.018C222.214 235.023 220.334 235.03 218.454 235.039C213.364 235.057 208.273 235.05 203.182 235.037C197.847 235.027 192.513 235.037 187.178 235.043C178.22 235.05 169.263 235.041 160.305 235.021C149.957 235 139.61 235.007 129.263 235.029C120.369 235.047 111.475 235.049 102.582 235.039C97.2742 235.033 91.9667 235.032 86.6591 235.045C81.6685 235.057 76.6783 235.049 71.6877 235.026C69.8592 235.02 68.0307 235.022 66.2022 235.031C63.7001 235.042 61.1994 235.028 58.6974 235.008C57.6199 235.021 57.6199 235.021 56.5207 235.035C49.7852 234.932 44.8612 232.432 39.7501 228.25C34.2135 221.483 32.8942 215.613 32.9689 206.973C32.965 205.984 32.9612 204.996 32.9573 203.978C32.9546 201.898 32.9619 199.818 32.9786 197.738C33 194.575 32.9788 191.415 32.9532 188.252C32.9559 186.221 32.961 184.191 32.9689 182.16C32.9608 181.225 32.9527 180.291 32.9443 179.328C33.0432 172.317 34.3504 165.909 39.2405 160.617C46.2439 154.203 53.8297 153.345 63.0705 153.366ZM49.5001 172.5C48.2269 176.32 48.2986 179.947 48.2618 183.93C48.2538 184.757 48.2457 185.584 48.2374 186.437C48.2236 188.187 48.2128 189.937 48.205 191.687C48.1877 194.358 48.1438 197.028 48.0997 199.699C48.0896 201.401 48.0811 203.103 48.0743 204.805C48.0568 205.601 48.0393 206.397 48.0213 207.217C48.0367 211.177 48.2161 213.055 50.4017 216.481C53.9905 219.934 56.9486 219.648 61.6923 219.647C62.4419 219.651 63.1914 219.654 63.9637 219.658C66.4886 219.669 69.0135 219.673 71.5385 219.677C73.3434 219.683 75.1484 219.69 76.9534 219.697C81.8666 219.714 86.7799 219.725 91.6932 219.733C94.761 219.738 97.8288 219.744 100.897 219.751C110.49 219.77 120.083 219.784 129.676 219.792C140.76 219.802 151.844 219.828 162.927 219.869C171.488 219.899 180.048 219.914 188.609 219.917C193.725 219.919 198.841 219.928 203.957 219.953C208.769 219.977 213.581 219.981 218.393 219.971C220.16 219.97 221.927 219.977 223.694 219.99C226.105 220.008 228.516 220.001 230.927 219.988C231.627 219.999 232.327 220.01 233.048 220.021C237.785 219.958 240.169 218.839 243.5 215.5C245.117 212.266 244.684 208.722 244.703 205.168C244.709 204.339 244.715 203.51 244.721 202.657C244.73 200.901 244.737 199.144 244.74 197.388C244.75 194.708 244.781 192.029 244.813 189.35C244.819 187.643 244.824 185.937 244.828 184.23C244.847 183.032 244.847 183.032 244.866 181.809C244.847 177.217 244.472 174.236 241.5 170.5C238.524 169.012 235.488 169.356 232.225 169.36C231.088 169.355 231.088 169.355 229.927 169.351C227.372 169.342 224.817 169.34 222.262 169.339C220.436 169.334 218.61 169.329 216.783 169.324C211.812 169.311 206.841 169.304 201.87 169.3C198.767 169.297 195.664 169.293 192.56 169.288C182.858 169.275 173.155 169.265 163.452 169.261C152.239 169.257 141.026 169.239 129.812 169.21C121.153 169.188 112.494 169.178 103.835 169.177C98.6596 169.176 93.484 169.17 88.3084 169.152C83.4411 169.136 78.574 169.134 73.7066 169.142C71.9184 169.143 70.1301 169.139 68.3419 169.129C65.904 169.116 63.4668 169.122 61.029 169.132C60.3183 169.124 59.6076 169.116 58.8753 169.108C54.8218 169.149 52.3528 169.517 49.5001 172.5Z" fill="black"/>
<path d="M389.5 255.5C391.925 259.137 391.887 261.357 392.125 265.688C392.2 266.96 392.275 268.232 392.352 269.543C392.401 270.519 392.45 271.495 392.5 272.5C393.118 272.696 393.735 272.892 394.371 273.094C404.351 276.618 411.856 282.901 416.5 292.5C418.788 298.275 419.432 304.352 418.5 310.5C416.438 313.25 416.438 313.25 413.5 314.5C410.072 314.441 407.64 314.347 404.84 312.266C403.082 309.949 402.992 308.189 402.688 305.313C401.742 299.463 399.832 295.572 395.5 291.5C390.343 288.386 385.398 287.588 379.5 288.5C373.142 290.59 369.503 293.895 366.25 299.75C364.739 305.292 364.749 310.475 367 315.813C371.908 324.119 384.02 325.496 392.656 327.768C402.148 330.386 409.965 334.051 415.5 342.5C420.221 350.944 419.97 362.84 417.586 372.02C413.579 382.295 407.606 388.909 397.5 393.5C395.512 393.899 393.512 394.249 391.5 394.5C391.546 395.536 391.593 396.573 391.641 397.641C391.678 399.01 391.715 400.38 391.75 401.75C391.8 402.773 391.8 402.773 391.852 403.816C391.918 407.258 391.762 409.142 389.703 411.953C386.488 414.211 384.332 414.048 380.5 413.5C378.297 411.953 378.297 411.953 376.5 409.5C376.209 406.763 376.117 404.461 376.25 401.75C376.268 401.053 376.286 400.355 376.305 399.637C376.352 397.924 376.423 396.212 376.5 394.5C375.613 394.389 374.726 394.278 373.813 394.164C365.763 392.551 359.013 387.249 354.5 380.5C350.113 372.981 348.57 366.253 349.5 357.5C351.063 354.813 351.063 354.813 353.5 353.5C357.258 352.963 359.486 352.924 362.813 354.813C364.621 357.693 364.935 359.487 365.438 362.813C366.27 368.103 367.432 371.875 371.5 375.5C376.557 378.688 381.504 380.447 387.5 379.5C393.5 377.62 397.575 375.311 400.625 369.688C403.181 363.547 403.59 358.623 401.125 352.313C396.455 344.191 386.323 342.791 377.938 340.5C377.051 340.275 376.165 340.05 375.252 339.818C366.033 337.39 357.78 333.775 352.5 325.5C347.676 317.003 348.283 304.803 350.086 295.465C353.322 286.098 360.769 278.787 369.457 274.34C371.456 273.518 373.391 272.96 375.5 272.5C375.537 271.536 375.575 270.572 375.613 269.578C375.679 268.315 375.745 267.052 375.813 265.75C375.871 264.497 375.929 263.244 375.988 261.953C376.508 258.446 377.055 256.994 379.5 254.5C383.134 252.746 385.941 253.953 389.5 255.5Z" fill="black"/>
<path d="M241.355 328.598C248.15 333.75 250.756 340.325 252.116 348.445C252.759 353.559 252.785 358.633 252.766 363.781C252.768 365.483 252.768 365.483 252.771 367.22C252.773 369.603 252.769 371.987 252.761 374.37C252.75 377.99 252.761 381.61 252.773 385.231C252.772 387.56 252.769 389.889 252.766 392.219C252.77 393.287 252.774 394.355 252.778 395.455C252.712 406.233 252.074 416.235 244.5 424.5C237.391 430.426 230.632 433.005 221.379 432.817C214.039 432.01 207.596 428.834 202.5 423.5C198.546 417.408 196.385 412.477 196.323 405.152C196.304 403.184 196.304 403.184 196.284 401.176C196.276 399.74 196.268 398.303 196.262 396.867C196.258 396.142 196.254 395.417 196.249 394.67C196.228 390.827 196.214 386.985 196.205 383.143C196.194 379.192 196.159 375.242 196.12 371.291C196.093 368.238 196.085 365.186 196.081 362.133C196.077 360.678 196.065 359.223 196.046 357.768C195.93 348.042 196.99 341.016 202.25 332.75C213.33 321.67 228.112 320.763 241.355 328.598ZM214.125 343.5C211.345 346.922 211.367 349.926 211.339 354.177C211.329 355.342 211.32 356.507 211.31 357.707C211.305 358.967 211.301 360.226 211.297 361.524C211.291 362.817 211.285 364.11 211.28 365.443C211.269 368.182 211.263 370.921 211.26 373.659C211.254 377.162 211.23 380.664 211.202 384.167C211.179 387.515 211.177 390.863 211.172 394.211C211.159 395.466 211.147 396.722 211.134 398.015C211.137 399.186 211.14 400.357 211.143 401.564C211.14 402.592 211.136 403.62 211.132 404.679C211.709 409.104 213.666 411.688 216.812 414.75C219.987 416.818 221.699 417.5 225.5 417.5C229.527 416.199 232.586 414.772 235.09 411.286C236.705 408.096 236.88 406.079 236.888 402.52C236.898 401.338 236.907 400.157 236.917 398.94C236.908 397.038 236.908 397.038 236.898 395.098C236.901 393.787 236.904 392.477 236.907 391.127C236.911 388.357 236.905 385.587 236.891 382.818C236.874 379.279 236.884 375.741 236.902 372.203C236.915 368.814 236.906 365.425 236.898 362.035C236.904 360.77 236.911 359.504 236.917 358.2C236.907 357.015 236.898 355.83 236.888 354.61C236.886 353.572 236.883 352.535 236.881 351.466C236.428 347.942 235.309 345.543 233.5 342.5C226.615 337.246 220.763 337.91 214.125 343.5Z" fill="black"/>
<path d="M117.079 81.1257C118.189 81.1187 119.299 81.1117 120.443 81.1045C122.256 81.116 122.256 81.116 124.105 81.1277C125.386 81.124 126.666 81.1204 127.985 81.1166C131.489 81.1072 134.993 81.1166 138.497 81.1299C142.167 81.1413 145.838 81.1371 149.508 81.1352C155.672 81.1343 161.835 81.1454 167.999 81.1638C175.121 81.185 182.242 81.1885 189.363 81.1822C196.22 81.1765 203.076 81.1822 209.932 81.1934C212.848 81.198 215.763 81.1989 218.678 81.1968C222.75 81.1946 226.822 81.2091 230.894 81.2253C232.103 81.2228 233.311 81.2204 234.557 81.2178C236.222 81.2284 236.222 81.2284 237.921 81.2393C239.365 81.2424 239.365 81.2424 240.837 81.2455C243.773 81.5261 245.88 82.1517 248.5 83.5C250.988 87.2325 251.042 89.0844 250.5 93.5C248.001 96.0216 246.307 97.35 242.79 98.0033C241.314 98.0056 241.314 98.0056 239.807 98.0079C238.104 98.0248 238.104 98.0248 236.366 98.0421C235.13 98.034 233.893 98.0259 232.619 98.0175C230.655 98.0281 230.655 98.0281 228.651 98.0388C225.066 98.057 221.482 98.05 217.897 98.0373C214.143 98.0271 210.388 98.0365 206.633 98.0428C200.329 98.0501 194.024 98.0405 187.719 98.0215C180.434 97.9997 173.149 98.0067 165.864 98.0288C159.605 98.0469 153.346 98.0495 147.086 98.039C143.35 98.0328 139.614 98.0319 135.877 98.0452C131.711 98.0589 127.547 98.0398 123.381 98.0175C122.144 98.0256 120.908 98.0337 119.634 98.0421C118.498 98.0308 117.363 98.0195 116.193 98.0079C115.208 98.0064 114.224 98.0049 113.21 98.0033C109.735 97.3578 108.038 95.9074 105.5 93.5C104.237 90.8906 104.436 89.7623 105.125 86.9375C107.838 82.1283 111.814 81.1248 117.079 81.1257Z" fill="black"/>
<path d="M84.6641 380.719C90.8943 384.919 94.1503 390.451 96.5001 397.5C97.327 408.047 96.1698 415.048 90.3126 423.75C84.3521 429.578 77.6758 432.583 69.3751 432.813C61.2445 432.715 53.9563 429.962 48.0391 424.297C41.8861 417.113 40.5189 409.596 41.0196 400.352C41.9021 393.277 44.5456 388.048 49.6876 383.125C60.4244 374.945 72.9647 374.13 84.6641 380.719ZM59.1251 396.563C56.4352 399.77 56.1431 402.207 56.2344 406.402C56.6969 410.054 57.9811 411.858 60.5001 414.5C65.0442 417.062 68.2424 417.851 73.3126 416.438C78.4601 413.498 78.4601 413.498 81.0665 408.418C81.6513 404.706 81.7847 402.212 80.3751 398.688C77.6311 395.486 75.0822 393.125 71.1251 391.563C66.3264 391.448 62.6846 393.471 59.1251 396.563Z" fill="black"/>
<path d="M159.063 253.687C166.007 257.734 170.851 263.213 173.75 270.75C175.68 280.398 174.486 288.098 169.25 296.508C164.558 302.665 157.607 306.266 150 307.437C141.931 307.892 135.104 306.09 128.543 301.34C122.924 296.28 119.017 289.586 118.25 282.039C117.884 273.876 120.007 267.719 124.125 260.75C133.569 251.803 146.851 247.821 159.063 253.687ZM136.25 271.875C134.357 274.715 133.579 276.097 133.5 279.5C134.437 284.003 135.795 286.845 139.188 290C143.221 291.826 146.154 292.324 150.5 291.5C154.899 289.591 156.809 287.542 158.563 283.187C159.569 279.59 159.489 278.461 158.438 274.687C155.498 269.54 155.498 269.54 150.418 266.934C143.928 265.911 140.808 267.063 136.25 271.875Z" fill="black"/>
<path d="M160.5 379.5C167.851 384.658 172.683 390.635 174.5 399.5C175.335 408.804 173.844 416.06 167.812 423.313C162.653 428.757 156.762 432.027 149.238 432.703C139.282 432.896 132.738 430.599 125.449 423.692C119.835 417.379 118.151 410.425 118.297 402.149C118.972 393.339 122.956 387.321 129.5 381.5C138.777 375.41 150.52 374.284 160.5 379.5ZM138.5 394.5C135.018 397.89 133.597 400.619 133.5 405.5C135.093 410.635 136.867 413.699 141.5 416.5C145.375 417.764 147.203 417.592 151.125 416.375C155.671 413.85 157.822 411.58 159.437 406.625C159.52 402.507 158.493 400.089 156.5 396.5C150.747 390.592 145.542 390.588 138.5 394.5Z" fill="black"/>
<path d="M166.32 321.035C171.582 326.628 174.635 333.77 175 341.438C174.671 348.897 172.08 357.361 166.5 362.5C157.394 368.606 150.56 370.552 139.5 369.5C130.838 366.753 125.026 361.303 120.5 353.5C117.643 346.072 117.399 338.787 120.125 331.313C124.124 322.454 129.491 318.056 138.5 314.5C148.249 311.657 158.666 314.58 166.32 321.035ZM136.5 333.5C134.283 336.825 133.729 338.537 133.5 342.5C135.112 347.695 136.978 350.485 141.5 353.5C144.366 354.933 146.313 354.806 149.5 354.5C154.265 351.884 157.534 349.325 159.313 344.125C159.558 340.69 158.936 338.632 157.5 335.5C153.93 331.484 152.141 329.637 146.75 329.188C142.361 329.235 139.892 330.673 136.5 333.5Z" fill="black"/>
<path d="M87.4064 320.004C92.9599 325.075 96.0836 330.372 96.8439 337.906C97.1115 348.342 95.5975 355.039 88.4728 362.738C81.821 368.679 74.4367 369.818 65.7853 369.703C57.0265 369.161 51.3035 364.965 45.5001 358.5C40.3335 351.422 40.6129 342.914 41.5001 334.5C43.3266 326.978 48.0418 321.337 54.5196 317.215C65.3258 311.45 77.7858 312.414 87.4064 320.004ZM57.5001 335.5C56.2937 339.119 56.1774 341.692 56.5001 345.5C58.3224 349.144 59.9221 351.093 63.2501 353.437C67.3592 354.781 70.375 354.75 74.5001 353.5C78.4397 351.102 80.3295 348.97 81.5001 344.5C82.0004 340.581 81.6784 338.837 79.8126 335.312C76.3192 331.064 74.0958 329.732 68.6251 328.937C63.7016 329.106 60.5792 331.832 57.5001 335.5Z" fill="black"/>
<path d="M85.5858 255.906C92.0973 261.038 95.8881 266.846 96.9764 275.125C97.3348 284.479 96.0033 291.535 89.6327 298.559C83.292 304.492 76.2264 307.663 67.4999 307.5C57.9393 306.518 51.6959 302.795 45.4999 295.5C40.3443 288.448 40.487 279.899 41.4999 271.5C43.8601 263.31 49.1079 257.712 56.3358 253.406C65.6043 249.183 77.2534 250.289 85.5858 255.906ZM57.6249 272.812C56.1487 276.339 56.0337 278.704 56.4999 282.5C58.7532 286.84 60.9535 289.597 65.4999 291.5C69.7603 292.042 71.9208 291.801 75.7499 289.812C79.7195 286.474 81.2782 284.242 81.9374 279.062C81.4087 274.757 80.3265 272.773 77.4999 269.5C69.8084 264.484 63.4238 265.66 57.6249 272.812Z" fill="black"/>
<path d="M238.5 254.5C244.81 258.98 249.789 263.776 251.5 271.5C252.563 280.8 252.239 288.847 246.5 296.5C240.72 303.389 234.481 306.713 225.5 307.5C216.826 307.221 210.065 304.857 203.785 298.863C197.024 291.507 195.859 285.118 196.094 275.23C196.904 267.791 199.933 262.666 205.312 257.562C214.445 250.365 228.183 248.2 238.5 254.5ZM213.125 272.25C211.195 276.111 210.891 278.234 211.5 282.5C213.753 286.84 215.954 289.597 220.5 291.5C224.245 291.901 226.706 291.832 230.187 290.375C234.206 287.117 236.263 284.159 237 279C236.26 273.82 234.205 270.846 230.125 267.625C223.378 264.733 217.792 266.846 213.125 272.25Z" fill="black"/>
</g>
<defs>
<clipPath id="clip0_221_101">
<rect width="512" height="512" fill="white" transform="translate(0.5 0.5)"/>
</clipPath>
</defs>
</svg>
