<?xml version="1.0" encoding="UTF-8"?>
<!DOCTYPE svg PUBLIC "-//W3C//DTD SVG 1.1//EN" "http://www.w3.org/Graphics/SVG/1.1/DTD/svg11.dtd">
<svg xmlns="http://www.w3.org/2000/svg" version="1.1" width="512px" height="512px" style="shape-rendering:geometricPrecision; text-rendering:geometricPrecision; image-rendering:optimizeQuality; fill-rule:evenodd; clip-rule:evenodd" xmlns:xlink="http://www.w3.org/1999/xlink">
<g><path style="opacity:0.936" fill="#000000" d="M 511.5,316.5 C 511.5,327.167 511.5,337.833 511.5,348.5C 500.69,408.813 465.357,445.98 405.5,460C 281.525,461.654 157.525,461.987 33.5,461C 16.0925,456.424 4.75921,445.591 -0.5,428.5C -0.5,336.833 -0.5,245.167 -0.5,153.5C 4.651,136.85 15.651,126.016 32.5,121C 42.4593,119.744 52.4593,119.244 62.5,119.5C 62.3334,104.496 62.5001,89.4963 63,74.5C 66.5,61.6667 74.6667,53.5 87.5,50C 168.5,49.3333 249.5,49.3333 330.5,50C 353.639,72.1382 376.472,94.6382 399,117.5C 399.667,118.833 400.333,120.167 401,121.5C 401.5,149.498 401.667,177.498 401.5,205.5C 448.718,213.213 482.218,238.879 502,282.5C 506.331,293.64 509.498,304.974 511.5,316.5 Z M 91.5,64.5 C 167.5,64.5 243.5,64.5 319.5,64.5C 310.091,118.424 332.424,140.758 386.5,131.5C 386.5,155.5 386.5,179.5 386.5,203.5C 350.165,203.214 318.998,215.547 293,240.5C 292.913,211.477 292.247,182.477 291,153.5C 285.039,133.204 271.539,122.038 250.5,120C 192.834,119.5 135.168,119.333 77.5,119.5C 77.3334,105.829 77.5001,92.1626 78,78.5C 80.0166,71.3185 84.5166,66.6518 91.5,64.5 Z M 334.5,80.5 C 345.937,92.4383 357.604,104.272 369.5,116C 341.61,120.276 329.943,108.443 334.5,80.5 Z M 36.5,135.5 C 109.167,135.333 181.834,135.5 254.5,136C 265.658,139.158 272.825,146.325 276,157.5C 276.667,191.833 276.667,226.167 276,260.5C 246.006,308.796 246.006,357.129 276,405.5C 279.33,419.497 275.83,431.33 265.5,441C 261.719,443.225 257.719,444.891 253.5,446C 181.167,446.667 108.833,446.667 36.5,446C 25.3333,442.833 18.1667,435.667 15,424.5C 14.3333,335.5 14.3333,246.5 15,157.5C 18.3588,146.309 25.5255,138.976 36.5,135.5 Z M 52.5,168.5 C 114.501,168.333 176.501,168.5 238.5,169C 241.102,169.935 242.602,171.768 243,174.5C 243.667,187.167 243.667,199.833 243,212.5C 241.833,215 240,216.833 237.5,218C 176.167,218.667 114.833,218.667 53.5,218C 51,216.833 49.1667,215 48,212.5C 47.3333,199.833 47.3333,187.167 48,174.5C 48.5985,171.746 50.0985,169.746 52.5,168.5 Z M 369.5,219.5 C 416.932,216.301 453.766,234.301 480,273.5C 501.628,312.273 501.962,351.273 481,390.5C 450.635,435.858 408.468,453.358 354.5,443C 305.983,428.131 277.817,395.631 270,345.5C 267.136,289.706 290.969,250.206 341.5,227C 350.716,223.532 360.049,221.032 369.5,219.5 Z M 371.5,243.5 C 418.164,241.232 450.33,261.566 468,304.5C 479.479,349.079 466.313,384.245 428.5,410C 386.154,431.189 348.321,425.023 315,391.5C 292.158,362.609 287.491,330.942 301,296.5C 315.533,266.788 339.033,249.122 371.5,243.5 Z M 64.5,265.5 C 78.2729,266.065 82.7729,272.731 78,285.5C 73.3465,290.547 67.8465,291.714 61.5,289C 52.8302,279.859 53.8302,272.026 64.5,265.5 Z M 142.5,265.5 C 151.177,265.339 156.51,269.506 158.5,278C 155.002,290.416 147.669,293.416 136.5,287C 130.766,277.775 132.766,270.608 142.5,265.5 Z M 220.5,265.5 C 233.574,266.652 237.74,273.319 233,285.5C 227.873,290.994 222.039,291.828 215.5,288C 207.713,278.317 209.38,270.817 220.5,265.5 Z M 63.5,328.5 C 76.4728,327.964 81.6395,333.964 79,346.5C 72.7719,354.877 65.7719,355.543 58,348.5C 53.6423,340.079 55.4756,333.412 63.5,328.5 Z M 141.5,328.5 C 154.053,327.873 159.22,333.539 157,345.5C 150.478,355.254 143.145,355.921 135,347.5C 131.233,339.191 133.4,332.858 141.5,328.5 Z M 222.5,337.5 C 228.618,338.457 232.785,341.79 235,347.5C 235.667,367.5 235.667,387.5 235,407.5C 230.783,415.461 224.616,417.627 216.5,414C 213.865,412.039 212.031,409.539 211,406.5C 210.333,386.833 210.333,367.167 211,347.5C 213.185,342.14 217.019,338.807 222.5,337.5 Z M 67.5,390.5 C 78.2557,392.738 82.0891,399.072 79,409.5C 73.1452,416.806 66.4785,417.806 59,412.5C 52.6406,401.558 55.4739,394.225 67.5,390.5 Z M 144.5,390.5 C 156.416,392.676 160.25,399.342 156,410.5C 149,418.5 142,418.5 135,410.5C 130.895,400.377 134.062,393.71 144.5,390.5 Z M 291.5,424.5 C 300.424,432.633 310.091,439.799 320.5,446C 307.833,446.667 295.167,446.667 282.5,446C 287.292,439.583 290.292,432.417 291.5,424.5 Z"/></g>
<g><path style="opacity:0.893" fill="#000000" d="M 110.5,80.5 C 154.501,80.3333 198.501,80.5 242.5,81C 248.63,82.4135 250.796,86.2469 249,92.5C 247.786,94.0488 246.286,95.2155 244.5,96C 199.5,96.6667 154.5,96.6667 109.5,96C 104.42,93.4107 102.92,89.5774 105,84.5C 106.5,82.5313 108.333,81.198 110.5,80.5 Z"/></g>
<g><path style="opacity:0.929" fill="#000000" d="M 54.5,152.5 C 117.199,152.022 179.865,152.522 242.5,154C 250.766,156.599 255.932,162.099 258,170.5C 258.667,185.833 258.667,201.167 258,216.5C 255.5,225 250,230.5 241.5,233C 177.5,233.667 113.5,233.667 49.5,233C 41,230.5 35.5,225 33,216.5C 32.3333,201.167 32.3333,185.833 33,170.5C 36.1176,159.541 43.2843,153.541 54.5,152.5 Z M 52.5,168.5 C 50.0985,169.746 48.5985,171.746 48,174.5C 47.3333,187.167 47.3333,199.833 48,212.5C 49.1667,215 51,216.833 53.5,218C 114.833,218.667 176.167,218.667 237.5,218C 240,216.833 241.833,215 243,212.5C 243.667,199.833 243.667,187.167 243,174.5C 242.602,171.768 241.102,169.935 238.5,169C 176.501,168.5 114.501,168.333 52.5,168.5 Z"/></g>
<g><path style="opacity:0.924" fill="#000000" d="M 377.5,227.5 C 429.263,228.13 464.43,252.463 483,300.5C 495.848,351.976 480.681,392.81 437.5,423C 401.167,442.333 364.833,442.333 328.5,423C 289.007,396.165 272.841,358.998 280,311.5C 293.603,261.388 326.103,233.388 377.5,227.5 Z M 371.5,243.5 C 339.033,249.122 315.533,266.788 301,296.5C 287.491,330.942 292.158,362.609 315,391.5C 348.321,425.023 386.154,431.189 428.5,410C 466.313,384.245 479.479,349.079 468,304.5C 450.33,261.566 418.164,241.232 371.5,243.5 Z"/></g>
<g><path style="opacity:0.928" fill="#000000" d="M 61.5,250.5 C 85.8117,249.644 96.9784,261.311 95,285.5C 90.6937,298.467 81.6937,305.467 68,306.5C 47.2245,303.385 38.2245,291.385 41,270.5C 44.4529,260.212 51.2863,253.545 61.5,250.5 Z M 64.5,265.5 C 53.8302,272.026 52.8302,279.859 61.5,289C 67.8465,291.714 73.3465,290.547 78,285.5C 82.7729,272.731 78.2729,266.065 64.5,265.5 Z"/></g>
<g><path style="opacity:0.922" fill="#000000" d="M 138.5,250.5 C 162.118,249.031 173.618,260.031 173,283.5C 169.46,297.858 160.294,305.525 145.5,306.5C 125.661,303.829 116.494,292.496 118,272.5C 119.472,265.044 123.305,259.21 129.5,255C 132.592,253.454 135.592,251.954 138.5,250.5 Z M 142.5,265.5 C 132.766,270.608 130.766,277.775 136.5,287C 147.669,293.416 155.002,290.416 158.5,278C 156.51,269.506 151.177,265.339 142.5,265.5 Z"/></g>
<g><path style="opacity:0.929" fill="#000000" d="M 216.5,250.5 C 240.812,249.644 251.978,261.311 250,285.5C 245.669,298.497 236.669,305.497 223,306.5C 202.192,303.358 193.192,291.358 196,270.5C 199.453,260.212 206.286,253.545 216.5,250.5 Z M 220.5,265.5 C 209.38,270.817 207.713,278.317 215.5,288C 222.039,291.828 227.873,290.994 233,285.5C 237.74,273.319 233.574,266.652 220.5,265.5 Z"/></g>
<g><path style="opacity:0.925" fill="#000000" d="M 382.5,252.5 C 386.024,252.667 388.524,254.333 390,257.5C 390.333,262.167 390.667,266.833 391,271.5C 409.201,277.692 417.867,290.359 417,309.5C 412.333,314.833 407.667,314.833 403,309.5C 400.843,289.343 390.343,282.843 371.5,290C 362.148,298.833 361.148,308.5 368.5,319C 370.167,320 371.833,321 373.5,322C 384.872,324.592 395.872,328.259 406.5,333C 416.4,342.41 419.9,353.91 417,367.5C 413.573,381.761 404.74,390.428 390.5,393.5C 390.666,398.511 390.499,403.511 390,408.5C 386.623,412.749 382.457,413.582 377.5,411C 376.874,410.25 376.374,409.416 376,408.5C 375.501,403.511 375.334,398.511 375.5,393.5C 361.239,390.406 352.405,381.739 349,367.5C 348.133,363.044 348.466,358.711 350,354.5C 354.962,351.351 359.295,352.018 363,356.5C 363.89,373.74 372.723,380.906 389.5,378C 398.986,373.534 403.152,366.034 402,355.5C 400.088,347.923 395.254,343.423 387.5,342C 377.298,340.044 367.631,336.711 358.5,332C 350.959,325.219 347.625,316.719 348.5,306.5C 348.778,288.385 357.612,276.718 375,271.5C 375.333,266.833 375.667,262.167 376,257.5C 377.272,254.508 379.438,252.841 382.5,252.5 Z"/></g>
<g><path style="opacity:0.927" fill="#000000" d="M 65.5,312.5 C 87.0898,314.257 96.9231,325.923 95,347.5C 89.7334,363.736 78.5668,370.57 61.5,368C 44.8275,362.505 37.9942,351.005 41,333.5C 45.0908,321.565 53.2575,314.565 65.5,312.5 Z M 63.5,328.5 C 55.4756,333.412 53.6423,340.079 58,348.5C 65.7719,355.543 72.7719,354.877 79,346.5C 81.6395,333.964 76.4728,327.964 63.5,328.5 Z"/></g>
<g><path style="opacity:0.923" fill="#000000" d="M 143.5,312.5 C 164.106,313.937 173.94,324.937 173,345.5C 168.289,363.12 156.789,370.62 138.5,368C 121.4,361.639 114.9,349.472 119,331.5C 123.629,320.453 131.796,314.119 143.5,312.5 Z M 141.5,328.5 C 133.4,332.858 131.233,339.191 135,347.5C 143.145,355.921 150.478,355.254 157,345.5C 159.22,333.539 154.053,327.873 141.5,328.5 Z"/></g>
<g><path style="opacity:0.922" fill="#000000" d="M 218.5,322.5 C 238.188,321.738 249.021,331.071 251,350.5C 251.667,368.167 251.667,385.833 251,403.5C 249.68,420.82 240.347,430.153 223,431.5C 209.074,430.717 200.074,423.717 196,410.5C 195.333,388.167 195.333,365.833 196,343.5C 199.412,332.056 206.912,325.056 218.5,322.5 Z M 222.5,337.5 C 217.019,338.807 213.185,342.14 211,347.5C 210.333,367.167 210.333,386.833 211,406.5C 212.031,409.539 213.865,412.039 216.5,414C 224.616,417.627 230.783,415.461 235,407.5C 235.667,387.5 235.667,367.5 235,347.5C 232.785,341.79 228.618,338.457 222.5,337.5 Z"/></g>
<g><path style="opacity:0.919" fill="#000000" d="M 62.5,375.5 C 86.3367,375.168 97.1701,386.835 95,410.5C 89.7905,426.031 78.9572,432.865 62.5,431C 44.7726,425.731 37.606,413.898 41,395.5C 44.526,384.804 51.6926,378.137 62.5,375.5 Z M 67.5,390.5 C 55.4739,394.225 52.6406,401.558 59,412.5C 66.4785,417.806 73.1452,416.806 79,409.5C 82.0891,399.072 78.2557,392.738 67.5,390.5 Z"/></g>
<g><path style="opacity:0.922" fill="#000000" d="M 140.5,375.5 C 157.606,374.458 168.439,382.125 173,398.5C 174.525,415.624 167.025,426.457 150.5,431C 133.376,432.525 122.543,425.025 118,408.5C 116.591,391.292 124.091,380.292 140.5,375.5 Z M 144.5,390.5 C 134.062,393.71 130.895,400.377 135,410.5C 142,418.5 149,418.5 156,410.5C 160.25,399.342 156.416,392.676 144.5,390.5 Z"/></g>
</svg>
