<svg width="513" height="513" viewBox="0 0 513 513" fill="none" xmlns="http://www.w3.org/2000/svg">
<g clip-path="url(#clip0_221_88)">
<path d="M226.836 -0.0214452C227.636 -0.0290963 228.436 -0.0367475 229.26 -0.0446304C231.921 -0.0651421 234.581 -0.0573356 237.242 -0.0493688C239.158 -0.0580701 241.074 -0.0684388 242.99 -0.0803442C248.18 -0.107072 253.37 -0.108287 258.56 -0.103218C262.899 -0.101075 267.238 -0.110854 271.576 -0.120428C281.816 -0.142601 292.055 -0.143504 302.294 -0.1314C312.844 -0.119321 323.393 -0.143945 333.943 -0.18654C343.013 -0.221811 352.084 -0.233769 361.154 -0.227265C366.566 -0.223645 371.977 -0.228854 377.389 -0.256694C382.48 -0.281904 387.57 -0.277913 392.661 -0.251872C394.524 -0.247153 396.387 -0.252566 398.25 -0.269118C408.407 -0.352816 416.384 -0.415573 424.5 6.49995C425.049 6.94635 425.599 7.39275 426.165 7.85268C427.612 9.1016 428.973 10.4488 430.329 11.7958C431.08 12.5338 431.08 12.5338 431.846 13.2868C433.466 14.8844 435.072 16.4959 436.676 18.1093C437.815 19.2432 438.954 20.3765 440.095 21.5093C442.469 23.873 444.835 26.2439 447.197 28.6201C450.205 31.6456 453.233 34.6503 456.268 37.6496C458.621 39.9812 460.963 42.3245 463.302 44.6713C464.413 45.7834 465.528 46.8917 466.647 47.9958C474.285 55.5479 482.252 63.7655 482.616 75.128C482.617 76.6799 482.613 78.2318 482.604 79.7836C482.604 80.6386 482.603 81.4937 482.602 82.3746C482.599 85.2509 482.589 88.1271 482.578 91.0034C482.575 93.0615 482.572 95.1196 482.569 97.1778C482.564 101.617 482.556 106.057 482.546 110.496C482.533 117.523 482.535 124.551 482.541 131.578C482.542 133.357 482.542 133.357 482.543 135.172C482.546 138.825 482.55 142.479 482.553 146.133C482.566 161.267 482.568 176.401 482.524 191.535C482.493 202.568 482.489 213.6 482.519 224.633C482.533 230.469 482.534 236.305 482.5 242.141C482.468 247.639 482.473 253.136 482.507 258.634C482.513 260.644 482.505 262.654 482.482 264.664C482.348 277.46 483.626 285.228 491.5 295.5C493.03 298.172 494.386 300.897 495.688 303.687C496.016 304.39 496.344 305.093 496.682 305.817C510.241 335.974 509.991 371.15 499.062 402C498.649 403.176 498.649 403.176 498.226 404.375C496.436 409.063 494.511 412.285 490.5 415.5C486.542 416.125 484.491 416.11 481.062 414C478.915 410.565 479.083 407.413 479.5 403.5C480.672 400.141 480.672 400.141 482.25 396.75C493.165 371.25 492.374 341.112 482.325 315.462C470.565 287.48 449.302 266.453 421.5 254.5C393.605 243.129 363.191 244.051 335.5 255.5C321.472 261.789 305.2 271.45 296.5 284.5C296.172 287.195 296.172 287.195 296.185 290.291C296.167 291.5 296.148 292.708 296.129 293.953C296.118 295.294 296.108 296.635 296.098 297.977C296.081 299.388 296.063 300.799 296.044 302.21C295.986 306.848 295.951 311.486 295.918 316.125C295.912 316.915 295.906 317.705 295.9 318.519C295.844 325.977 295.795 333.435 295.766 340.893C295.728 350.418 295.653 359.941 295.526 369.465C295.44 376.169 295.396 382.872 295.384 389.577C295.375 393.577 295.348 397.576 295.276 401.575C295.208 405.345 295.194 409.112 295.219 412.882C295.219 414.91 295.165 416.936 295.109 418.963C295.202 425.337 295.785 429.419 300.265 434.21C302.575 436.446 304.991 438.492 307.5 440.5C308.438 441.252 309.376 442.003 310.343 442.777C334.631 461.56 363.424 469.22 393.843 466.273C415.372 463.504 434.844 454.161 451.5 440.5C452.546 439.647 452.546 439.647 453.613 438.777C456.325 436.507 458.669 434.305 461 431.625C463.5 429.5 463.5 429.5 467 428.875C470.5 429.5 470.5 429.5 473.5 431.562C475.5 434.5 475.5 434.5 475.75 437.812C470.496 453.311 449.398 464.036 435.562 471.25C405.279 485.883 369.455 488.049 337.637 477.066C324 472.055 311.951 465.397 300.5 456.5C299.168 455.498 297.835 454.498 296.5 453.5C296.48 454.356 296.46 455.213 296.44 456.095C296.361 459.32 296.274 462.544 296.183 465.768C296.145 467.155 296.11 468.541 296.078 469.928C295.48 495.811 295.48 495.811 285.574 505.355C278.155 511.19 271.764 512.948 262.487 512.881C260.998 512.888 260.998 512.888 259.479 512.895C256.161 512.907 252.843 512.898 249.526 512.888C247.144 512.892 244.761 512.898 242.379 512.904C236.586 512.916 230.792 512.915 224.998 512.906C220.288 512.899 215.578 512.898 210.867 512.901C210.196 512.902 209.525 512.902 208.833 512.903C207.47 512.904 206.106 512.905 204.743 512.906C191.964 512.914 179.185 512.904 166.407 512.888C155.451 512.875 144.495 512.877 133.54 512.891C120.808 512.907 108.075 512.913 95.343 512.904C93.9842 512.903 92.6254 512.902 91.2667 512.901C90.5982 512.901 89.9297 512.901 89.2409 512.9C84.5388 512.897 79.8366 512.902 75.1345 512.909C68.8004 512.918 62.4664 512.911 56.1323 512.894C53.8088 512.89 51.4852 512.891 49.1617 512.898C45.9876 512.906 42.8141 512.896 39.6401 512.881C38.264 512.891 38.264 512.891 36.8601 512.901C27.0814 512.812 20.8287 509.624 13.707 502.918C8.68425 497.415 6.37868 491.26 6.36577 483.849C6.36131 482.665 6.35684 481.48 6.35225 480.26C6.35243 478.953 6.35262 477.646 6.35281 476.299C6.34951 474.901 6.34579 473.503 6.34167 472.105C6.33165 468.255 6.32794 464.404 6.32529 460.554C6.32139 456.404 6.3118 452.255 6.30307 448.105C6.2833 438.079 6.27324 428.053 6.26434 418.026C6.25996 413.305 6.2546 408.584 6.24936 403.863C6.23235 388.169 6.21784 372.474 6.2106 356.78C6.20869 352.707 6.20677 348.633 6.20482 344.559C6.20433 343.547 6.20385 342.534 6.20335 341.491C6.19506 325.092 6.16972 308.694 6.13724 292.295C6.10416 275.46 6.08616 258.625 6.08296 241.79C6.0808 232.337 6.07205 222.885 6.04649 213.432C6.02478 205.381 6.01674 197.33 6.02646 189.279C6.031 185.172 6.02912 181.066 6.0097 176.959C5.99206 173.196 5.99308 169.432 6.00861 165.669C6.0121 163.671 5.99597 161.673 5.979 159.676C6.05388 149.184 8.2044 141.025 15.5 133.258C22.2127 127.358 28.6917 125.373 37.4728 125.38C38.1745 125.379 38.8762 125.378 39.5992 125.377C41.9499 125.375 44.3006 125.381 46.6514 125.386C48.3367 125.387 50.0219 125.387 51.7072 125.386C56.2833 125.386 60.8594 125.392 65.4354 125.399C70.2174 125.405 74.9993 125.405 79.7813 125.407C88.837 125.41 97.8928 125.418 106.948 125.428C117.258 125.439 127.567 125.445 137.877 125.45C159.085 125.46 180.292 125.478 201.5 125.5C201.49 123.535 201.49 123.535 201.48 121.53C201.419 109.171 201.374 96.8116 201.345 84.4524C201.329 78.0987 201.308 71.7452 201.274 65.3915C201.241 59.2578 201.223 53.1241 201.215 46.9903C201.21 44.6523 201.199 42.3144 201.183 39.9766C201.161 36.6971 201.158 33.4181 201.159 30.1386C201.149 29.1762 201.138 28.2138 201.127 27.2222C201.16 20.0178 202.306 13.4009 207.187 7.74995C207.624 7.21885 208.061 6.68776 208.512 6.14057C214.124 1.50989 219.672 -0.0953643 226.836 -0.0214452ZM219.5 18.4999C217.422 21.6169 217.251 22.2766 217.259 25.809C217.257 26.6882 217.254 27.5673 217.251 28.4732C217.258 29.4349 217.266 30.3966 217.273 31.3874C217.273 32.4022 217.272 33.417 217.272 34.4626C217.273 37.8228 217.289 41.1828 217.305 44.5429C217.308 46.8703 217.311 49.1978 217.313 51.5252C217.321 57.6556 217.341 63.786 217.363 69.9164C217.383 76.1701 217.392 82.4239 217.402 88.6777C217.424 100.952 217.459 113.226 217.5 125.5C224.43 125.5 231.36 125.5 238.5 125.5C238.537 122.682 238.575 119.864 238.613 116.961C238.66 114.22 238.711 111.48 238.762 108.74C238.796 106.841 238.824 104.942 238.846 103.042C238.88 100.306 238.932 97.5714 238.988 94.8359C238.995 93.9919 239.001 93.1479 239.008 92.2784C239.131 87.2984 239.756 83.8166 242.5 79.4999C247.387 75.0901 250.466 74.3283 256.887 74.2617C257.99 74.2496 257.99 74.2496 259.115 74.2372C260.674 74.2234 262.233 74.2126 263.793 74.2048C266.161 74.1876 268.528 74.1438 270.896 74.0996C272.414 74.0894 273.932 74.0809 275.449 74.0742C276.151 74.0567 276.852 74.0391 277.574 74.0211C283.069 74.045 286.077 75.4806 290.5 78.4999C294.565 83.7844 294.625 89.1879 294.658 95.669C294.666 96.7351 294.666 96.7351 294.673 97.8227C294.688 100.198 294.697 102.573 294.705 104.948C294.715 106.654 294.725 108.359 294.735 110.064C294.762 114.689 294.783 119.315 294.803 123.941C294.825 128.776 294.853 133.611 294.879 138.447C294.929 147.602 294.974 156.756 295.017 165.911C295.067 176.334 295.122 186.758 295.177 197.181C295.291 218.62 295.398 240.06 295.5 261.5C296.043 261.082 296.587 260.664 297.147 260.234C297.863 259.689 298.579 259.144 299.316 258.583C300.379 257.77 300.379 257.77 301.463 256.942C303.5 255.5 303.5 255.5 306.436 254.178C309.737 252.677 311.35 251.459 313.5 248.5C315.288 241.188 314.626 233.337 314.438 225.875C314.396 222.763 314.369 219.653 314.357 216.541C314.346 214.61 314.316 212.678 314.264 210.748C314.195 205.859 314.188 202.42 317.5 198.5C319.438 197.906 319.438 197.906 321.5 198C322.181 198.01 322.861 198.021 323.562 198.031C326.047 198.632 326.887 199.538 328.5 201.5C328.831 204.434 328.989 207.167 329.012 210.105C329.039 211.364 329.039 211.364 329.066 212.648C329.12 215.328 329.154 218.008 329.188 220.687C329.221 222.505 329.255 224.322 329.291 226.139C329.376 230.592 329.443 235.046 329.5 239.5C330.048 239.33 330.596 239.16 331.16 238.984C338.903 236.617 346.657 234.591 354.5 232.5C354.5 191.91 354.5 151.32 354.5 109.5C346.25 109.5 338 109.5 329.5 109.5C329.48 111.423 329.46 113.346 329.44 115.327C329.372 121.678 329.295 128.028 329.212 134.378C329.163 138.229 329.116 142.079 329.078 145.93C329.041 149.645 328.995 153.36 328.942 157.076C328.923 158.494 328.908 159.912 328.897 161.33C328.88 163.315 328.85 165.3 328.819 167.284C328.806 168.415 328.792 169.545 328.778 170.71C328.5 173.5 328.5 173.5 326.5 176.5C323.188 177.5 323.188 177.5 319.5 177.5C316.309 175.013 314.703 173.489 313.879 169.478C313.881 168.356 313.883 167.233 313.885 166.077C313.871 164.159 313.871 164.159 313.857 162.203C313.872 160.815 313.889 159.427 313.906 158.039C313.908 156.606 313.908 155.172 313.906 153.739C313.908 150.738 313.926 147.737 313.958 144.736C313.998 140.904 314.002 137.073 313.995 133.241C313.991 130.281 314.004 127.321 314.021 124.361C314.028 122.949 314.031 121.537 314.03 120.125C314.044 104.625 314.044 104.625 319.438 98.1874C325.447 93.2702 332.108 94.1278 339.516 94.1293C341.795 94.125 344.071 94.0887 346.35 94.0507C347.812 94.0449 349.275 94.0409 350.738 94.039C351.411 94.0246 352.085 94.0103 352.778 93.9955C357.965 94.0448 361.583 95.2024 365.5 98.4999C370.162 104.688 370.079 111.333 370.046 118.791C370.056 120.002 370.067 121.212 370.077 122.459C370.102 125.757 370.108 129.053 370.107 132.35C370.111 135.804 370.136 139.258 370.159 142.712C370.2 149.243 370.22 155.773 370.233 162.304C370.249 169.743 370.288 177.182 370.328 184.62C370.41 199.914 370.464 215.207 370.5 230.5C376.77 230.5 383.04 230.5 389.5 230.5C389.514 226.276 389.514 226.276 389.528 221.966C389.562 212.658 389.618 203.35 389.684 194.043C389.723 188.4 389.756 182.757 389.771 177.114C389.786 171.667 389.821 166.221 389.868 160.774C389.883 158.697 389.891 156.62 389.892 154.543C389.894 151.631 389.921 148.721 389.954 145.81C389.947 144.524 389.947 144.524 389.939 143.212C390.032 137.835 390.956 134.783 394.5 130.5C400.478 125.247 407.567 126.279 415.069 126.26C417.294 126.25 419.519 126.219 421.744 126.187C423.169 126.181 424.594 126.176 426.02 126.172C427.31 126.162 428.6 126.153 429.929 126.144C435.071 126.657 438.313 128.217 441.812 132C444.138 135.446 444.623 137.958 444.571 142.014C444.562 142.939 444.553 143.864 444.543 144.817C444.529 145.83 444.514 146.843 444.499 147.887C444.476 150.102 444.454 152.318 444.432 154.533C444.413 156.298 444.413 156.298 444.394 158.099C444.323 165.632 444.317 173.165 444.3 180.698C444.281 187.32 444.239 193.94 444.147 200.561C444.059 206.965 444.035 213.366 444.053 219.771C444.049 222.208 444.022 224.646 443.971 227.083C443.173 239.167 443.173 239.167 446.717 250.338C450.123 253.755 454.158 255.466 458.5 257.5C461.14 259.48 463.78 261.46 466.5 263.5C466.5 201.79 466.5 140.08 466.5 76.4999C452.31 76.1699 438.12 75.8399 423.5 75.4999C412.23 69.8649 412.23 69.8649 409.938 65.4374C409.482 64.6008 409.027 63.7642 408.559 62.9023C406.988 59.3371 406.379 56.1667 406.295 52.2822C406.275 51.4616 406.255 50.6411 406.234 49.7957C406.209 48.4814 406.209 48.4814 406.184 47.1406C406.163 46.2362 406.142 45.3318 406.121 44.4C406.055 41.5167 405.996 38.6334 405.938 35.7499C405.894 33.7929 405.851 31.8359 405.807 29.8789C405.7 25.086 405.598 20.293 405.5 15.4999C382.135 15.4299 358.769 15.377 335.404 15.3445C324.555 15.329 313.706 15.3079 302.857 15.2736C293.401 15.2437 283.946 15.2244 274.49 15.2177C269.483 15.2138 264.477 15.2046 259.47 15.1828C254.757 15.1624 250.044 15.1561 245.331 15.1606C243.602 15.1598 241.872 15.1538 240.143 15.1423C237.78 15.1274 235.418 15.131 233.055 15.1392C232.372 15.1304 231.689 15.1217 230.986 15.1127C226.447 15.1551 223.341 16.0895 219.5 18.4999ZM421.5 27.4999C421.354 31.8746 421.266 36.2486 421.188 40.6249C421.146 41.8624 421.104 43.0999 421.061 44.3749C420.794 51.6349 420.794 51.6349 423.125 58.3437C426.838 61.8028 432.135 61.1011 436.893 61.0273C438.186 60.977 439.48 60.9267 440.812 60.8749C442.125 60.8479 443.438 60.8208 444.791 60.7929C448.029 60.7223 451.264 60.6237 454.5 60.4999C450.605 55.8416 446.563 51.4139 442.262 47.1289C441.695 46.5617 441.129 45.9945 440.546 45.4101C439.363 44.2267 438.179 43.0445 436.994 41.8635C435.171 40.0462 433.354 38.2235 431.537 36.4003C430.383 35.247 429.229 34.094 428.074 32.9414C427.529 32.3946 426.985 31.8478 426.423 31.2845C424.315 28.6772 424.315 28.6772 421.5 27.4999ZM254.5 89.4999C254.5 101.38 254.5 113.26 254.5 125.5C259.78 125.83 265.06 126.16 270.5 126.5C276 128.062 276 128.062 279.5 129.5C279.525 123.964 279.543 118.428 279.555 112.892C279.56 111.008 279.567 109.123 279.575 107.238C279.588 104.535 279.593 101.832 279.598 99.1289C279.603 98.2809 279.608 97.433 279.613 96.5594C279.613 94.5392 279.562 92.5192 279.5 90.4999C278.462 89.2381 278.462 89.2381 276.183 89.3864C274.683 89.3943 274.683 89.3943 273.152 89.4023C271.694 89.406 271.694 89.406 270.207 89.4099C268.341 89.4235 268.341 89.4235 266.438 89.4374C262.498 89.4581 258.559 89.4787 254.5 89.4999ZM25.1875 147.062C22.6672 150.703 22.3735 152.557 22.3658 156.961C22.3613 158.128 22.3568 159.296 22.3522 160.498C22.3524 161.792 22.3526 163.085 22.3528 164.418C22.3495 165.797 22.3458 167.176 22.3417 168.556C22.3316 172.359 22.3279 176.163 22.3253 179.966C22.3214 184.063 22.3118 188.16 22.3031 192.257C22.2833 202.157 22.2732 212.058 22.2643 221.959C22.26 226.618 22.2546 231.278 22.2494 235.937C22.2323 251.421 22.2178 266.905 22.2106 282.389C22.2087 286.409 22.2068 290.429 22.2048 294.449C22.2043 295.448 22.2039 296.447 22.2034 297.476C22.1951 313.668 22.1697 329.859 22.1372 346.05C22.1042 362.664 22.0862 379.277 22.083 395.891C22.0808 405.223 22.072 414.554 22.0465 423.886C22.0248 431.832 22.0167 439.779 22.0265 447.725C22.031 451.78 22.0291 455.835 22.0097 459.891C21.9921 463.603 21.993 467.315 22.0086 471.027C22.0121 473.007 21.9959 474.987 21.979 476.967C22.0151 485.547 22.015 485.547 26.5 492.5C31.1499 496.084 34.7283 497.623 40.5334 497.629C41.3312 497.632 42.1291 497.635 42.9511 497.638C43.8218 497.637 44.6926 497.635 45.5897 497.634C46.5192 497.636 47.4487 497.638 48.4064 497.641C51.5285 497.647 54.6506 497.646 57.7727 497.645C60.0082 497.648 62.2437 497.652 64.4792 497.655C70.5578 497.664 76.6363 497.667 82.7149 497.667C87.787 497.668 92.8591 497.672 97.9312 497.675C109.213 497.683 120.496 497.686 131.778 497.685C132.455 497.685 133.132 497.685 133.829 497.685C134.846 497.685 134.846 497.685 135.883 497.685C146.865 497.685 157.846 497.694 168.828 497.708C180.107 497.723 191.386 497.729 202.665 497.729C208.996 497.729 215.326 497.731 221.657 497.742C227.612 497.752 233.567 497.752 239.522 497.744C241.707 497.743 243.892 497.746 246.078 497.752C249.062 497.76 252.045 497.755 255.029 497.747C256.325 497.755 256.325 497.755 257.648 497.763C263.888 497.727 269.203 497.327 274.25 493.312C280.104 485.996 279.928 479.329 279.874 470.253C279.877 468.899 279.881 467.545 279.886 466.191C279.897 462.481 279.889 458.77 279.878 455.06C279.869 451.054 279.877 447.049 279.883 443.043C279.893 435.201 279.886 427.358 279.874 419.515C279.86 410.381 279.862 401.247 279.864 392.113C279.867 375.815 279.856 359.518 279.836 343.22C279.817 327.406 279.81 311.593 279.816 295.78C279.822 278.559 279.822 261.338 279.81 244.117C279.809 242.28 279.808 240.444 279.807 238.607C279.806 237.704 279.805 236.8 279.805 235.869C279.801 229.503 279.801 223.137 279.803 216.77C279.805 209.012 279.8 201.253 279.786 193.494C279.778 189.536 279.774 185.578 279.779 181.619C279.783 177.995 279.778 174.37 279.765 170.746C279.761 168.816 279.766 166.886 279.772 164.956C279.975 155.125 279.975 155.125 275.844 146.539C275.235 146.072 274.627 145.606 274 145.125C273.392 144.643 272.783 144.161 272.156 143.664C268.131 140.835 264.127 141.355 259.378 141.36C258.421 141.357 257.464 141.354 256.478 141.351C253.251 141.342 250.023 141.34 246.796 141.339C244.49 141.334 242.184 141.329 239.878 141.324C233.599 141.311 227.32 141.304 221.041 141.3C217.121 141.297 213.201 141.293 209.281 141.288C198.429 141.276 187.578 141.266 176.726 141.262C176.031 141.262 175.336 141.262 174.621 141.262C173.576 141.261 173.576 141.261 172.51 141.261C171.099 141.261 169.687 141.26 168.276 141.26C167.226 141.259 167.226 141.259 166.154 141.259C154.813 141.255 143.472 141.238 132.13 141.214C120.489 141.191 108.847 141.178 97.2059 141.177C90.6687 141.176 84.1315 141.17 77.5943 141.152C71.4449 141.136 65.2957 141.134 59.1464 141.142C56.8881 141.143 54.6298 141.139 52.3715 141.129C49.2907 141.116 46.2104 141.122 43.1296 141.132C42.234 141.124 41.3385 141.116 40.4158 141.108C34.0542 141.159 29.625 142.145 25.1875 147.062ZM405.5 141.5C405.5 171.53 405.5 201.56 405.5 232.5C417.449 236.187 417.449 236.187 429.5 239.5C429.5 207.16 429.5 174.82 429.5 141.5C421.58 141.5 413.66 141.5 405.5 141.5Z" fill="#053553"/>
<path d="M62.9064 166.353C64.0653 166.347 64.0653 166.347 65.2477 166.342C67.8509 166.331 70.454 166.327 73.0572 166.323C74.918 166.317 76.7789 166.31 78.6397 166.303C83.706 166.286 88.7723 166.275 93.8386 166.267C97.0029 166.262 100.167 166.256 103.332 166.249C113.229 166.23 123.127 166.216 133.024 166.208C144.454 166.198 155.884 166.172 167.314 166.131C176.145 166.101 184.976 166.086 193.806 166.083C199.082 166.081 204.358 166.072 209.634 166.047C214.599 166.023 219.563 166.019 224.528 166.029C226.349 166.03 228.17 166.023 229.991 166.01C232.481 165.992 234.969 165.999 237.458 166.012C238.176 166.001 238.893 165.99 239.633 165.979C245.072 166.048 248.098 167.541 252.5 170.5C257.076 175.745 257.622 182.047 257.645 188.724C257.651 189.959 257.658 191.194 257.664 192.467C257.666 193.807 257.667 195.148 257.668 196.488C257.671 197.874 257.674 199.261 257.678 200.647C257.684 203.549 257.686 206.452 257.685 209.354C257.685 213.056 257.699 216.758 257.716 220.459C257.727 223.322 257.729 226.185 257.729 229.048C257.73 230.412 257.734 231.776 257.742 233.14C257.828 249.887 257.828 249.887 253.687 256.312C247.801 262.199 242.125 262.622 234.088 262.64C232.982 262.645 232.982 262.645 231.854 262.649C229.389 262.658 226.925 262.66 224.46 262.661C222.69 262.666 220.921 262.671 219.152 262.676C214.348 262.689 209.544 262.696 204.74 262.7C201.737 262.703 198.734 262.707 195.731 262.712C186.33 262.725 176.929 262.735 167.528 262.739C156.685 262.743 145.843 262.761 135.001 262.79C126.613 262.812 118.226 262.822 109.838 262.823C104.832 262.824 99.8254 262.83 94.819 262.848C90.1076 262.864 85.3964 262.866 80.685 262.858C78.9601 262.857 77.2352 262.861 75.5103 262.871C55.8622 262.977 55.8622 262.977 49.3436 257.781C48.9001 257.193 48.4567 256.606 47.9998 256C47.5358 255.412 47.0717 254.824 46.5936 254.219C44.2101 250.473 44.3625 247.057 44.3387 242.737C44.3337 242.054 44.3288 241.37 44.3236 240.666C44.309 238.407 44.3022 236.147 44.2967 233.887C44.2909 232.314 44.2852 230.74 44.2794 229.167C44.2689 225.868 44.2631 222.568 44.2596 219.269C44.2541 215.049 44.2301 210.829 44.2016 206.609C44.183 203.359 44.1778 200.108 44.1762 196.857C44.1732 195.302 44.1652 193.747 44.1521 192.192C44.1349 190.011 44.1369 187.832 44.1434 185.651C44.1397 184.412 44.1361 183.173 44.1323 181.897C44.6085 177.495 45.9977 174.109 49.035 170.855C54.0326 167.034 56.7371 166.351 62.9064 166.353ZM60.4998 182.5C60.4767 190.697 60.4589 198.894 60.448 207.091C60.4428 210.897 60.4357 214.702 60.4244 218.508C60.4135 222.178 60.4075 225.848 60.4049 229.518C60.4031 230.921 60.3995 232.324 60.3941 233.727C60.3869 235.686 60.3864 237.644 60.3863 239.603C60.3841 240.72 60.3819 241.837 60.3796 242.988C60.2147 245.439 60.2147 245.439 61.4998 246.5C63.8034 246.597 66.11 246.622 68.4156 246.62C69.1474 246.621 69.8792 246.622 70.6332 246.623C73.1038 246.624 75.5744 246.619 78.045 246.614C79.8087 246.613 81.5723 246.613 83.336 246.614C88.1395 246.614 92.943 246.608 97.7465 246.601C102.761 246.595 107.775 246.595 112.789 246.593C122.291 246.59 131.793 246.582 141.295 246.572C152.11 246.561 162.925 246.555 173.74 246.55C195.993 246.54 218.246 246.522 240.5 246.5C241.848 243.803 241.627 241.709 241.629 238.689C241.634 236.862 241.634 236.862 241.639 234.999C241.637 233.664 241.635 232.33 241.633 230.996C241.633 229.634 241.634 228.271 241.636 226.909C241.637 224.053 241.635 221.198 241.63 218.342C241.624 214.674 241.628 211.007 241.634 207.339C241.637 204.526 241.636 201.713 241.634 198.9C241.633 197.547 241.634 196.194 241.636 194.842C241.639 192.955 241.634 191.068 241.629 189.181C241.628 188.106 241.628 187.031 241.627 185.923C241.773 183.551 241.773 183.551 240.5 182.5C238.172 182.402 235.874 182.37 233.546 182.38C232.442 182.378 232.442 182.378 231.316 182.377C228.832 182.375 226.347 182.381 223.863 182.386C222.089 182.387 220.316 182.387 218.542 182.386C213.712 182.386 208.882 182.392 204.051 182.399C199.009 182.405 193.967 182.405 188.925 182.407C179.369 182.41 169.814 182.418 160.259 182.428C149.384 182.439 138.508 182.445 127.633 182.45C105.255 182.46 82.8776 182.478 60.4998 182.5Z" fill="#053553"/>
<path d="M384.5 265.5C387.211 268.331 387.887 270.394 388.011 274.266C388.047 275.155 388.082 276.044 388.119 276.961C388.153 278.341 388.153 278.341 388.187 279.75C388.221 280.686 388.256 281.622 388.291 282.586C388.373 284.89 388.442 287.195 388.5 289.5C389.18 289.624 389.861 289.747 390.562 289.875C397.105 291.267 402.952 293.389 408.937 296.312C409.611 296.632 410.284 296.951 410.978 297.279C415.661 299.651 418.475 302.19 421.5 306.5C422.045 309.905 421.87 311.695 420.437 314.812C418.295 316.679 416.556 317.591 413.703 317.867C409.541 317.174 406.205 314.557 402.672 312.359C393.037 306.711 382.854 304.896 371.855 307.008C365.625 308.806 362.278 311.893 358.625 317.25C357.15 321.512 357.128 325.188 358.5 329.5C361.764 335.287 367.261 336.967 373.125 339.375C374.148 339.809 375.171 340.243 376.225 340.691C381.786 343.032 387.386 345.236 393.041 347.34C405.3 351.915 416.548 358.072 422.883 370.133C426.783 379.708 426.65 388.39 422.754 397.934C417.37 408.951 408.553 415.043 397.394 419.555C394.434 420.521 391.58 421.071 388.5 421.5C388.496 422.176 388.492 422.852 388.487 423.548C388.454 426.616 388.384 429.682 388.312 432.75C388.306 433.813 388.301 434.877 388.295 435.973C388.072 443.843 388.072 443.843 385.14 447.207C381.931 448.779 380.032 449.026 376.5 448.5C373.364 446.72 372.659 445.977 371.5 442.5C371.418 440.8 371.392 439.097 371.402 437.394C371.405 436.412 371.409 435.429 371.412 434.416C371.42 433.392 371.429 432.368 371.437 431.312C371.442 430.277 371.446 429.241 371.451 428.174C371.463 425.616 371.479 423.058 371.5 420.5C370.712 420.365 369.925 420.229 369.113 420.09C354.838 417.269 344.686 410.687 334.5 400.5C333.92 393.427 333.92 393.428 336.062 390C339.459 387.91 341.551 388.088 345.5 388.5C347.88 390.018 349.782 391.417 351.875 393.25C361.676 401.282 371.861 405.086 384.66 404.816C392.291 403.966 399.253 401.131 404.5 395.5C407.422 391.438 408.848 387.919 408.5 382.875C407.604 377.852 405.821 374.35 401.75 371.106C395.325 366.669 388.565 363.827 381.312 361C378.906 360.035 376.5 359.071 374.094 358.105C370.372 356.629 366.645 355.169 362.906 353.738C353.738 350.101 347.309 345.89 343.062 336.75C339.742 328.471 339.264 320.153 342.465 311.727C347.423 301.061 354.383 295.402 365.203 291.164C367.5 290.5 367.5 290.5 371.5 290.5C371.484 289.623 371.484 289.623 371.468 288.727C371.426 286.068 371.4 283.409 371.375 280.75C371.358 279.83 371.341 278.909 371.324 277.961C371.314 276.627 371.314 276.627 371.304 275.266C371.289 274.04 371.289 274.04 371.273 272.79C371.525 270.247 372.17 268.669 373.5 266.5C377.06 263.731 380.305 264.432 384.5 265.5Z" fill="#053553"/>
<path d="M63.4571 346.297C64.2377 346.291 65.0183 346.286 65.8225 346.28C67.4742 346.27 69.126 346.264 70.7777 346.26C73.2929 346.25 75.8073 346.219 78.3224 346.188C79.9298 346.181 81.5372 346.176 83.1446 346.172C84.2652 346.153 84.2652 346.153 85.4085 346.135C90.1965 346.155 93.4372 346.966 97.5001 349.5C103.021 355.469 102.738 360.698 102.813 368.438C102.842 369.44 102.871 370.442 102.9 371.475C102.964 378.817 102.964 378.817 100.695 382.156C97.4051 384.17 95.2784 384.097 91.5001 383.5C88.8347 381.513 86.8054 379.963 86.1014 376.59C86.0082 374.429 86.0631 372.348 86.1876 370.188C86.2907 367.651 86.3938 365.114 86.5001 362.5C77.9201 362.5 69.3401 362.5 60.5001 362.5C60.5001 394.84 60.5001 427.18 60.5001 460.5C69.0801 460.5 77.6601 460.5 86.5001 460.5C86.4653 456.877 86.4305 453.253 86.3946 449.52C86.3712 446.008 86.353 442.497 86.3353 438.985C86.3202 436.546 86.2997 434.106 86.2738 431.667C86.2374 428.159 86.2204 424.652 86.2071 421.145C86.1916 420.055 86.1762 418.965 86.1602 417.842C86.1581 408.316 86.1581 408.316 89.5001 404.5C92.3533 403.073 94.3346 403.19 97.5001 403.5C100.644 405.46 102.267 406.507 103.128 410.181C103.129 411.202 103.13 412.223 103.131 413.275C103.144 414.437 103.156 415.598 103.169 416.795C103.156 418.046 103.143 419.297 103.129 420.586C103.131 421.876 103.134 423.165 103.136 424.494C103.139 427.223 103.124 429.951 103.097 432.68C103.063 436.166 103.069 439.65 103.088 443.137C103.101 446.474 103.083 449.811 103.066 453.148C103.071 454.396 103.076 455.643 103.082 456.927C102.936 467.672 102.936 467.672 98.5001 472.5C93.8564 476.581 89.4967 476.67 83.5431 476.703C82.7625 476.709 81.9819 476.715 81.1777 476.72C79.526 476.73 77.8742 476.736 76.2225 476.74C73.7073 476.75 71.1929 476.781 68.6778 476.813C67.0704 476.819 65.463 476.824 63.8556 476.828C63.1085 476.841 62.3614 476.853 61.5917 476.866C56.8037 476.845 53.563 476.034 49.5001 473.5C45.7997 469.5 44.3801 466.49 44.3596 461.08C44.3539 460.175 44.3482 459.271 44.3423 458.34C44.3412 457.35 44.3401 456.36 44.339 455.341C44.334 454.296 44.329 453.252 44.3239 452.176C44.3093 448.715 44.3025 445.254 44.297 441.793C44.2912 439.39 44.2855 436.988 44.2797 434.585C44.2692 429.543 44.2633 424.502 44.2599 419.461C44.2544 413.001 44.2303 406.541 44.2019 400.082C44.1833 395.117 44.1781 390.153 44.1765 385.188C44.1735 382.807 44.1655 380.425 44.1523 378.044C44.1353 374.712 44.1372 371.38 44.1436 368.048C44.1344 367.064 44.1252 366.08 44.1157 365.067C44.1479 359.788 44.5095 356.049 47.5001 351.5C52.6193 346.765 56.7175 346.335 63.4571 346.297Z" fill="#053553"/>
<path d="M217.015 418.262C217.864 418.254 218.713 418.246 219.587 418.237C221.386 418.223 223.185 418.213 224.984 418.205C227.725 418.188 230.466 418.144 233.207 418.1C234.956 418.09 236.704 418.081 238.453 418.074C239.677 418.048 239.677 418.048 240.925 418.021C246.259 418.041 249.264 418.966 253.5 422.5C258.82 429.655 257.683 438.307 257.687 446.813C257.7 448.106 257.712 449.4 257.724 450.732C257.749 466.644 257.749 466.644 253.879 471.559C253.279 472.014 252.68 472.469 252.062 472.938C251.167 473.647 251.167 473.647 250.254 474.371C244.666 477.968 236.766 476.804 230.332 476.85C228.661 476.867 226.99 476.894 225.319 476.932C208.684 477.311 208.684 477.311 202.899 473.264C198.788 468.081 198.046 462.815 198.101 456.371C198.099 455.618 198.096 454.866 198.093 454.09C198.091 452.509 198.096 450.929 198.109 449.348C198.125 446.94 198.109 444.535 198.09 442.127C198.092 440.583 198.096 439.04 198.101 437.496C198.095 436.784 198.089 436.071 198.083 435.337C198.148 430.662 199.044 427.472 201.5 423.5C206.725 418.785 210.15 418.323 217.015 418.262ZM214.5 434.5C214.5 443.08 214.5 451.66 214.5 460.5C223.41 460.5 232.32 460.5 241.5 460.5C241.5 451.92 241.5 443.34 241.5 434.5C232.59 434.5 223.68 434.5 214.5 434.5Z" fill="#053553"/>
<path d="M216.762 275.262C217.998 275.25 217.998 275.25 219.259 275.237C221.006 275.223 222.754 275.213 224.502 275.205C227.16 275.188 229.817 275.144 232.475 275.1C234.175 275.09 235.874 275.081 237.574 275.074C238.758 275.048 238.758 275.048 239.965 275.021C245.603 275.043 248.855 276.272 253.5 279.5C258.635 286.176 257.686 294.28 257.685 302.31C257.688 304.362 257.706 306.413 257.725 308.465C257.727 309.773 257.729 311.082 257.731 312.43C257.735 313.618 257.739 314.806 257.743 316.031C257.424 320.58 256.846 324.906 253.844 328.461C253.235 328.928 252.627 329.394 252 329.875C251.087 330.598 251.087 330.598 250.156 331.336C246.408 333.97 242.89 333.696 238.457 333.738C237.655 333.746 236.853 333.755 236.027 333.763C234.327 333.777 232.626 333.787 230.926 333.795C228.34 333.812 225.755 333.856 223.17 333.9C221.516 333.911 219.861 333.919 218.207 333.926C217.44 333.943 216.673 333.961 215.883 333.979C210.306 333.957 207.088 332.705 202.5 329.5C197.226 322.611 197.923 314.578 198.034 306.273C198.063 303.874 198.054 301.477 198.041 299.078C198.047 297.539 198.056 296 198.067 294.461C198.064 293.751 198.061 293.042 198.058 292.311C198.145 287.654 199.057 284.459 201.5 280.5C206.652 275.851 209.993 275.324 216.762 275.262ZM214.5 291.5C214.5 300.08 214.5 308.66 214.5 317.5C223.41 317.5 232.32 317.5 241.5 317.5C241.5 308.92 241.5 300.34 241.5 291.5C232.59 291.5 223.68 291.5 214.5 291.5Z" fill="#053553"/>
<path d="M140.016 418.262C140.864 418.254 141.713 418.246 142.587 418.237C144.386 418.223 146.185 418.213 147.984 418.205C150.725 418.188 153.466 418.144 156.207 418.1C157.956 418.09 159.704 418.081 161.453 418.074C162.677 418.048 162.677 418.048 163.925 418.021C169.245 418.041 172.344 418.877 176.5 422.5C180.105 426.791 179.953 430.956 179.933 436.309C179.939 437.153 179.944 437.997 179.949 438.867C179.956 440.648 179.954 442.429 179.946 444.21C179.937 446.925 179.966 449.639 179.998 452.354C180 454.089 179.999 455.824 179.996 457.559C180.013 458.768 180.013 458.768 180.03 460.002C179.965 465.3 178.97 468.275 175.5 472.5C170.874 476.565 166.512 476.68 160.578 476.738C159.8 476.746 159.022 476.755 158.22 476.763C156.572 476.777 154.925 476.787 153.277 476.795C151.599 476.807 149.922 476.827 148.244 476.857C145.813 476.9 143.384 476.916 140.953 476.926C140.211 476.943 139.469 476.961 138.705 476.979C133.468 476.957 129.536 475.961 125.5 472.5C121.492 467.804 120.912 463.145 121.004 457.152C121.002 456.377 121.001 455.603 120.999 454.804C121.001 453.176 121.013 451.548 121.033 449.921C121.062 447.441 121.054 444.963 121.041 442.482C121.047 440.893 121.056 439.304 121.066 437.715C121.063 436.98 121.06 436.246 121.057 435.489C121.143 430.764 122.008 427.514 124.5 423.5C129.725 418.785 133.15 418.323 140.016 418.262ZM137.5 434.5C137.5 443.08 137.5 451.66 137.5 460.5C146.08 460.5 154.66 460.5 163.5 460.5C163.5 451.92 163.5 443.34 163.5 434.5C154.92 434.5 146.34 434.5 137.5 434.5Z" fill="#053553"/>
<path d="M139.762 275.262C140.998 275.25 140.998 275.25 142.259 275.237C144.006 275.223 145.754 275.213 147.502 275.205C150.16 275.188 152.817 275.144 155.474 275.1C157.174 275.09 158.874 275.081 160.574 275.074C161.757 275.048 161.757 275.048 162.964 275.021C168.605 275.043 171.95 276.086 176.5 279.5C179.842 284.236 179.954 288.599 179.933 294.188C179.939 295.008 179.944 295.829 179.949 296.675C179.956 298.403 179.954 300.131 179.946 301.858C179.937 304.492 179.966 307.124 179.998 309.758C179.999 311.443 179.999 313.128 179.996 314.813C180.013 315.985 180.013 315.985 180.03 317.18C179.964 322.405 178.905 325.328 175.5 329.5C170.856 333.581 166.496 333.67 160.543 333.703C159.762 333.709 158.982 333.715 158.177 333.72C156.526 333.73 154.874 333.736 153.222 333.74C150.707 333.75 148.193 333.781 145.678 333.813C144.07 333.819 142.463 333.824 140.855 333.828C140.108 333.841 139.361 333.853 138.591 333.866C133.803 333.845 130.563 333.034 126.5 330.5C121.765 325.381 121.335 321.283 121.297 314.543C121.291 313.762 121.285 312.982 121.279 312.178C121.27 310.526 121.263 308.874 121.26 307.222C121.25 304.707 121.219 302.193 121.187 299.678C121.181 298.07 121.176 296.463 121.172 294.856C121.159 294.108 121.147 293.361 121.134 292.592C121.154 287.804 121.961 284.56 124.5 280.5C129.651 275.851 132.993 275.324 139.762 275.262ZM137.5 291.5C137.5 300.08 137.5 308.66 137.5 317.5C146.08 317.5 154.66 317.5 163.5 317.5C163.5 308.92 163.5 300.34 163.5 291.5C154.92 291.5 146.34 291.5 137.5 291.5Z" fill="#053553"/>
<path d="M63.1873 274.969C64.0081 274.965 64.8288 274.961 65.6744 274.957C67.4024 274.954 69.1304 274.962 70.8582 274.979C73.4923 275 76.1237 274.979 78.7576 274.953C80.4425 274.956 82.1274 274.961 83.8123 274.969C84.9845 274.957 84.9845 274.957 86.1803 274.944C91.3902 275.033 94.4289 275.978 98.4998 279.5C102.677 284.329 103.094 288.084 103.031 294.188C103.035 295.008 103.039 295.829 103.043 296.675C103.045 298.403 103.038 300.131 103.021 301.858C103 304.492 103.021 307.124 103.047 309.758C103.044 311.443 103.039 313.128 103.031 314.812C103.039 315.594 103.047 316.375 103.056 317.18C102.967 322.398 101.898 325.333 98.4998 329.5C93.8561 333.581 89.4964 333.67 83.5428 333.703C82.7622 333.709 81.9816 333.715 81.1774 333.72C79.5257 333.73 77.874 333.736 76.2222 333.74C73.707 333.75 71.1926 333.781 68.6776 333.812C67.0701 333.819 65.4627 333.824 63.8553 333.828C63.1082 333.84 62.3611 333.853 61.5914 333.866C56.8034 333.845 53.5628 333.034 49.4998 330.5C44.7144 325.327 44.3265 321.134 44.2616 314.324C44.2535 313.521 44.2454 312.719 44.2371 311.892C44.2233 310.193 44.2125 308.494 44.2047 306.795C44.1875 304.207 44.1436 301.621 44.0994 299.033C44.0893 297.38 44.0808 295.727 44.0741 294.074C44.0565 293.305 44.039 292.536 44.021 291.744C44.0418 286.544 44.9837 283.564 48.4998 279.5C53.329 275.322 57.0836 274.906 63.1873 274.969ZM60.4998 291.5C60.4998 300.08 60.4998 308.66 60.4998 317.5C69.0798 317.5 77.6598 317.5 86.4998 317.5C86.4998 308.92 86.4998 300.34 86.4998 291.5C77.9198 291.5 69.3398 291.5 60.4998 291.5Z" fill="#053553"/>
<path d="M148.727 346.033C151.126 346.062 153.523 346.054 155.922 346.041C157.461 346.047 159 346.056 160.539 346.066C161.248 346.063 161.958 346.061 162.689 346.057C167.346 346.145 170.54 347.057 174.5 349.5C179.215 354.725 179.677 358.15 179.738 365.016C179.746 365.864 179.754 366.713 179.763 367.587C179.776 369.386 179.787 371.185 179.795 372.984C179.812 375.725 179.856 378.466 179.9 381.207C179.91 382.956 179.919 384.704 179.926 386.453C179.943 387.269 179.961 388.085 179.979 388.925C179.959 394.245 179.123 397.344 175.5 401.5C171.199 405.122 167.023 404.939 161.656 404.898C160.809 404.901 159.963 404.904 159.09 404.907C157.305 404.909 155.52 404.904 153.735 404.891C151.009 404.875 148.284 404.891 145.558 404.91C143.82 404.908 142.082 404.904 140.344 404.898C139.532 404.904 138.72 404.911 137.884 404.917C133.255 404.86 130.279 404.453 126.5 401.5C121.842 396.325 121.328 392.334 121.262 385.578C121.253 384.8 121.245 384.022 121.237 383.22C121.223 381.572 121.213 379.925 121.205 378.277C121.193 376.6 121.173 374.922 121.143 373.244C121.1 370.814 121.084 368.384 121.074 365.953C121.057 365.211 121.039 364.469 121.021 363.705C121.044 358.207 122.353 355.028 125.5 350.5C132.389 345.226 140.422 345.923 148.727 346.033ZM137.5 362.5C137.5 371.41 137.5 380.32 137.5 389.5C146.08 389.5 154.66 389.5 163.5 389.5C163.5 380.59 163.5 371.68 163.5 362.5C154.92 362.5 146.34 362.5 137.5 362.5Z" fill="#053553"/>
<path d="M225.728 346.033C228.126 346.063 230.523 346.054 232.922 346.041C234.461 346.047 236 346.056 237.539 346.066C238.249 346.063 238.958 346.061 239.689 346.058C245.535 346.167 249.604 347.604 253.75 351.75C258.492 359.202 257.834 367.313 257.813 375.875C257.829 377.151 257.845 378.427 257.861 379.742C257.865 386.66 257.793 393.253 254.5 399.5C249.496 404.382 245.733 404.678 238.984 404.738C238.136 404.746 237.287 404.754 236.413 404.763C234.614 404.777 232.815 404.787 231.016 404.795C228.275 404.812 225.534 404.856 222.793 404.9C221.044 404.911 219.296 404.919 217.547 404.926C216.731 404.943 215.915 404.961 215.075 404.979C209.733 404.959 206.757 404.013 202.5 400.5C198.496 395.943 198.321 391.682 198.262 385.832C198.254 385.078 198.246 384.325 198.237 383.548C198.223 381.952 198.213 380.356 198.205 378.76C198.193 377.137 198.173 375.515 198.143 373.892C197.824 356.413 197.824 356.413 202.5 350.5C208.606 344.776 217.925 345.93 225.728 346.033ZM214.5 362.5C214.5 371.41 214.5 380.32 214.5 389.5C223.41 389.5 232.32 389.5 241.5 389.5C241.5 380.59 241.5 371.68 241.5 362.5C232.59 362.5 223.68 362.5 214.5 362.5Z" fill="#053553"/>
<path d="M84.3711 220.066C85.5101 220.059 85.5101 220.059 86.6721 220.051C88.275 220.044 89.8779 220.045 91.4807 220.054C93.9262 220.062 96.3692 220.034 98.8145 220.002C100.375 220 101.936 220.001 103.496 220.004C104.587 219.987 104.587 219.987 105.7 219.97C110.575 220.036 113.098 221.006 116.5 224.5C117.963 227.975 117.613 229.221 116.188 232.75C114.5 235.5 114.5 235.5 112.5 236.5C109.775 236.635 107.078 236.713 104.352 236.738C103.543 236.746 102.734 236.754 101.9 236.763C100.187 236.777 98.4739 236.787 96.7607 236.795C94.142 236.812 91.5246 236.856 88.9062 236.9C87.2422 236.911 85.5781 236.919 83.9141 236.926C83.1317 236.943 82.3492 236.961 81.5431 236.979C77.9396 236.964 75.926 236.828 73.0288 234.594C71.4225 232.394 70.6645 231.214 70.5 228.5C71.2544 225.688 72.0505 223.959 74.0901 221.875C77.4512 219.957 80.6033 220.051 84.3711 220.066Z" fill="#053553"/>
</g>
<defs>
<clipPath id="clip0_221_88">
<rect width="512" height="512" fill="white" transform="translate(0.5 0.5)"/>
</clipPath>
</defs>
</svg>
