<svg width="513" height="513" viewBox="0 0 513 513" fill="none" xmlns="http://www.w3.org/2000/svg">
<g clip-path="url(#clip0_221_115)">
<path d="M23.8026 17.2372C24.5314 17.2331 25.2601 17.229 26.011 17.2247C28.4602 17.2134 30.9091 17.2163 33.3583 17.2191C35.1291 17.214 36.9 17.2079 38.6708 17.2011C43.5429 17.185 48.4149 17.1814 53.287 17.1799C58.5394 17.1762 63.7918 17.1611 69.0441 17.1477C80.5318 17.1205 92.0194 17.1084 103.507 17.0996C110.679 17.0941 117.851 17.0856 125.023 17.0766C144.878 17.0522 164.733 17.0316 184.587 17.0249C185.858 17.0244 187.129 17.024 188.439 17.0236C189.713 17.0231 190.986 17.0227 192.299 17.0222C194.881 17.0213 197.462 17.0204 200.044 17.0195C201.964 17.0189 201.964 17.0189 203.924 17.0182C224.674 17.0103 245.425 16.9754 266.175 16.9288C287.476 16.8814 308.777 16.8565 330.078 16.8541C342.039 16.8523 354 16.8408 365.961 16.8045C376.146 16.7737 386.331 16.7635 396.515 16.78C401.712 16.7878 406.907 16.7859 412.104 16.7579C416.863 16.7324 421.621 16.7348 426.381 16.759C428.1 16.763 429.819 16.7568 431.539 16.7394C440.978 16.6498 449.092 16.8125 456.5 23.5C461.796 30.0994 462.649 35.6524 462.654 43.9957C462.658 44.8613 462.662 45.7269 462.667 46.6188C462.68 49.5244 462.687 52.43 462.693 55.3357C462.701 57.4168 462.709 59.498 462.717 61.5791C462.744 68.416 462.759 75.2529 462.773 82.0899C462.779 84.4424 462.784 86.7949 462.789 89.1474C462.811 98.9295 462.83 108.712 462.841 118.494C462.857 132.522 462.89 146.549 462.947 160.577C462.986 170.437 463.006 180.297 463.011 190.157C463.015 196.049 463.027 201.94 463.059 207.832C463.089 213.372 463.095 218.911 463.084 224.451C463.083 226.485 463.092 228.52 463.109 230.554C463.132 233.329 463.124 236.102 463.108 238.877C463.122 239.685 463.136 240.493 463.15 241.325C463.092 245.379 462.681 247.269 460.149 250.5C457.5 252.5 457.5 252.5 454.5 253.125C451.5 252.5 451.5 252.5 446.5 247.5C446.5 197.34 446.5 147.18 446.5 95.5C304.27 95.5 162.04 95.5 15.4998 95.5C15.6442 144.237 15.7886 192.974 15.9373 243.188C15.9804 258.595 16.0235 274.003 16.0679 289.878C16.1112 303.649 16.1112 303.649 16.1557 317.42C16.1756 323.57 16.1927 329.72 16.2081 335.87C16.2258 342.958 16.2469 350.047 16.2722 357.135C16.285 360.763 16.2963 364.391 16.3033 368.019C16.3108 371.9 16.3258 375.78 16.3416 379.661C16.3426 380.798 16.3436 381.935 16.3446 383.106C16.35 384.148 16.3555 385.189 16.3612 386.262C16.3638 387.159 16.3665 388.057 16.3692 388.981C16.5036 391.573 16.9281 393.972 17.4998 396.5C20.4214 397.474 22.2939 397.629 25.3355 397.639C26.3378 397.644 27.34 397.65 28.3726 397.655C29.4766 397.656 30.5807 397.657 31.7182 397.658C33.4739 397.666 33.4739 397.666 35.2651 397.673C38.5192 397.686 41.7732 397.694 45.0273 397.701C48.5345 397.709 52.0416 397.722 55.5487 397.735C61.6268 397.757 67.7049 397.775 73.783 397.791C82.571 397.814 91.359 397.842 100.147 397.871C114.404 397.919 128.661 397.962 142.919 398.003C156.77 398.042 170.621 398.083 184.472 398.128C185.752 398.132 185.752 398.132 187.059 398.136C191.34 398.15 195.622 398.163 199.903 398.177C235.436 398.291 270.968 398.398 306.5 398.5C306.214 397.619 305.928 396.739 305.633 395.831C302.939 387.533 300.246 379.235 297.555 370.936C296.171 366.669 294.787 362.402 293.402 358.136C292.065 354.019 290.729 349.902 289.395 345.784C288.885 344.213 288.375 342.643 287.865 341.072C287.15 338.872 286.437 336.672 285.725 334.472C285.318 333.219 284.912 331.967 284.493 330.676C283.747 328.29 283.062 325.934 282.5 323.5C281.486 323.486 281.486 323.486 280.452 323.472C277.384 323.418 274.317 323.334 271.25 323.25C270.186 323.236 269.123 323.222 268.027 323.207C267.002 323.175 265.978 323.143 264.922 323.109C263.508 323.078 263.508 323.078 262.065 323.046C258.764 322.343 257.554 321.136 255.5 318.5C254.937 315.062 254.937 315.062 255.5 311.5C258.117 308.145 259.61 306.673 263.834 305.853C265.075 305.847 266.315 305.842 267.594 305.836C268.263 305.831 268.932 305.826 269.621 305.821C271.03 305.818 272.439 305.827 273.847 305.848C275.995 305.875 278.137 305.848 280.285 305.816C281.659 305.82 283.032 305.826 284.406 305.836C285.647 305.842 286.888 305.847 288.166 305.853C292.431 306.681 293.845 308.113 296.5 311.5C297.71 314.055 297.71 314.055 298.519 316.73C298.819 317.698 299.119 318.665 299.428 319.662C299.72 320.66 300.012 321.659 300.312 322.688C300.624 323.697 300.935 324.707 301.256 325.748C303.5 333.122 303.5 333.122 303.5 335.5C311.42 335.5 319.34 335.5 327.5 335.5C327.453 333.765 327.407 332.03 327.359 330.242C327.322 327.953 327.285 325.664 327.25 323.375C327.2 321.662 327.2 321.662 327.148 319.914C327.023 309.144 327.023 309.144 331.5 304.5C335.693 301.357 338.808 301.145 343.988 301.207C344.691 301.211 345.394 301.216 346.119 301.22C348.35 301.237 350.581 301.274 352.812 301.312C354.331 301.328 355.85 301.341 357.369 301.354C361.08 301.386 364.79 301.438 368.5 301.5C368.621 300.403 368.742 299.306 368.867 298.176C369.653 293.611 370.846 292.28 374.5 289.5C379.848 287.593 384.618 287.193 390.215 287.199C391.437 287.193 391.436 287.193 392.683 287.186C394.397 287.181 396.11 287.18 397.824 287.184C400.427 287.188 403.028 287.164 405.631 287.139C407.305 287.136 408.978 287.136 410.652 287.137C411.42 287.128 412.188 287.118 412.979 287.109C418.436 287.155 422.527 288.205 427.5 290.5C430.339 293.921 431.418 296.174 432.5 300.5C437.12 300.83 441.74 301.16 446.5 301.5C446.442 299.753 446.384 298.007 446.324 296.207C446.277 293.909 446.232 291.611 446.187 289.312C446.145 288.162 446.104 287.012 446.06 285.826C445.922 276.293 445.922 276.293 448.832 273.238C452.135 271.086 453.635 270.695 457.5 271.5C460.053 273.164 461.085 273.897 462.5 276.5C463.124 280.785 462.97 284.994 462.812 289.312C462.79 290.482 462.767 291.652 462.744 292.857C462.685 295.74 462.603 298.619 462.5 301.5C463.651 301.924 463.651 301.924 464.825 302.357C468.565 303.955 470.825 305.826 472.5 309.5C473.101 313.976 472.971 318.369 472.812 322.875C472.79 324.088 472.767 325.301 472.744 326.551C472.685 329.535 472.603 332.517 472.5 335.5C473.306 335.484 474.112 335.469 474.943 335.452C478.629 335.39 482.314 335.351 486 335.312C487.902 335.275 487.902 335.275 489.844 335.236C496.783 335.182 502.259 335.342 508.5 338.5C511.914 341.914 512.743 344.66 512.854 349.346C512.743 356.482 510.602 362.757 508.336 369.469C507.9 370.797 507.466 372.126 507.034 373.455C505.896 376.938 504.739 380.414 503.578 383.889C502.42 387.365 501.279 390.847 500.137 394.328C498.385 399.659 496.632 404.988 494.874 410.316C494.269 412.151 494.269 412.151 493.652 414.022C492.601 417.193 491.54 420.36 490.477 423.527C489.914 425.237 489.351 426.946 488.789 428.656C488.534 429.4 488.279 430.143 488.017 430.909C486.757 434.788 486.088 437.603 487.5 441.5C488.718 442.883 489.937 444.266 491.156 445.648C495.97 452.281 497.525 460.491 496.5 468.5C494.611 478.754 489.056 486.593 480.5 492.5C472.693 496.759 462.272 497.004 453.711 494.773C451.495 493.837 449.535 492.779 447.5 491.5C446.878 491.161 446.257 490.822 445.617 490.473C437.461 485.512 434.717 477.369 432.5 468.5C412.7 468.5 392.9 468.5 372.5 468.5C371.84 471.47 371.18 474.44 370.5 477.5C366.859 485.327 360.682 490.746 352.937 494.375C344.335 497.208 333.857 496.715 325.707 492.809C317.344 487.85 312.877 481.626 309.5 472.5C307.232 463.414 308.798 455.001 313.5 447C315.053 444.546 316.444 442.556 318.5 440.5C318.13 435.148 316.619 430.3 314.937 425.25C312.5 417.891 312.5 417.891 312.5 414.5C311.881 414.501 311.262 414.502 310.624 414.503C273.932 414.571 237.239 414.622 200.547 414.653C196.141 414.657 191.735 414.661 187.329 414.665C186.452 414.666 185.575 414.666 184.671 414.667C170.469 414.68 156.268 414.704 142.066 414.731C127.494 414.76 112.921 414.776 98.3482 414.782C89.3565 414.786 80.3648 414.799 71.3731 414.824C65.2067 414.84 59.0403 414.844 52.8739 414.841C49.3165 414.839 45.7592 414.842 42.2018 414.858C38.3422 414.875 34.4829 414.869 30.6232 414.861C29.5026 414.87 28.382 414.878 27.2274 414.887C19.4048 414.842 13.857 413.76 7.24982 409.312C-0.267246 401.625 -0.0762854 393.965 -0.00811433 383.735C-0.0127269 382.228 -0.0190827 380.721 -0.0270238 379.215C-0.0436915 375.087 -0.035483 370.959 -0.0230794 366.831C-0.0140207 362.374 -0.0280017 357.917 -0.0389981 353.46C-0.0567792 344.734 -0.0529456 336.008 -0.041348 327.282C-0.0323123 320.19 -0.0310898 313.098 -0.0354428 306.006C-0.0360558 304.996 -0.0366691 303.987 -0.0373006 302.947C-0.0385795 300.896 -0.039877 298.845 -0.0411916 296.793C-0.0525962 277.563 -0.039486 258.333 -0.0179906 239.103C-0.000119723 222.605 -0.00322428 206.107 -0.021666 189.609C-0.0430749 170.447 -0.051497 151.286 -0.0392156 132.124C-0.0379414 130.081 -0.0366834 128.037 -0.0354428 125.994C-0.0348257 124.989 -0.0342094 123.983 -0.0335736 122.947C-0.0301208 115.864 -0.0359488 108.781 -0.0453629 101.698C-0.0565844 93.0652 -0.0535382 84.4326 -0.0322385 75.7999C-0.0217301 71.3959 -0.0176022 66.9921 -0.0308347 62.588C-0.0427688 58.5551 -0.0361804 54.5226 -0.0149255 50.4897C-0.0104637 49.0322 -0.0127165 47.5746 -0.022429 46.1172C-0.0775898 37.1506 0.18412 30.5012 6.24591 23.4766C6.80408 23.0306 7.36224 22.5845 7.93732 22.125C8.49291 21.6635 9.04849 21.202 9.62091 20.7266C14.2821 17.6837 18.285 17.2478 23.8026 17.2372ZM17.6271 34.774C9.46583 47.2706 15.4998 64.5745 15.4998 79.5C157.73 79.5 299.96 79.5 446.5 79.5C449.307 54.8137 449.307 54.8137 442.5 33.5C439.203 32.7517 439.203 32.7517 435.41 32.8764C434.692 32.8697 433.974 32.8631 433.234 32.8562C430.816 32.8399 428.399 32.8594 425.98 32.8786C424.234 32.8742 422.488 32.8677 420.742 32.8592C415.934 32.8421 411.126 32.8564 406.318 32.8757C401.136 32.8911 395.955 32.8777 390.774 32.868C380.62 32.8534 370.466 32.8657 360.312 32.8871C348.497 32.9111 336.681 32.9094 324.866 32.9068C303.79 32.9031 282.714 32.9239 261.638 32.958C241.169 32.9911 220.7 33.0053 200.232 32.999C177.961 32.9923 155.691 32.9947 133.42 33.0144C131.655 33.016 131.655 33.016 129.854 33.0175C127.491 33.0196 125.127 33.0218 122.763 33.0239C114.52 33.0308 106.276 33.0314 98.0326 33.03C87.9925 33.0286 77.9525 33.0382 67.9125 33.0619C62.7861 33.0738 57.6598 33.0809 52.5334 33.0751C47.8462 33.07 43.1592 33.0785 38.472 33.0984C36.7709 33.1031 35.0698 33.1028 33.3686 33.097C31.0668 33.0899 28.7657 33.101 26.4639 33.1169C24.5414 33.1193 24.5414 33.1193 22.5801 33.1217C19.5528 33.2551 19.5528 33.2551 17.6271 34.774ZM384.5 303.5C384.5 314.06 384.5 324.62 384.5 335.5C395.06 335.5 405.62 335.5 416.5 335.5C416.5 324.94 416.5 314.38 416.5 303.5C405.94 303.5 395.38 303.5 384.5 303.5ZM343.5 317.5C343.5 323.44 343.5 329.38 343.5 335.5C351.75 335.5 360 335.5 368.5 335.5C368.5 329.56 368.5 323.62 368.5 317.5C360.25 317.5 352 317.5 343.5 317.5ZM432.5 317.5C432.5 323.44 432.5 329.38 432.5 335.5C440.42 335.5 448.34 335.5 456.5 335.5C456.5 329.56 456.5 323.62 456.5 317.5C448.58 317.5 440.66 317.5 432.5 317.5ZM308.5 351.5C312.79 365.03 317.08 378.56 321.5 392.5C326.973 409.868 326.973 409.868 329.012 416.366C329.751 418.722 330.492 421.078 331.234 423.434C331.451 424.126 331.667 424.818 331.89 425.531C333.01 429.088 333.01 429.088 334.5 432.5C336.767 432.656 339.04 432.722 341.312 432.75C349.826 433.098 356.966 435.488 363.469 441.242C366.581 444.675 368.447 448.352 370.5 452.5C378.723 452.755 386.945 452.951 395.171 453.07C398.991 453.127 402.809 453.205 406.628 453.33C410.318 453.45 414.005 453.515 417.696 453.544C419.1 453.564 420.504 453.603 421.907 453.663C426.312 453.843 430.277 453.824 434.5 452.5C437.001 449.896 438.48 447.467 440.033 444.216C443.122 438.495 449.52 435.533 455.5 433.5C458.128 433.211 460.679 432.996 463.312 432.875C464.005 432.836 464.698 432.798 465.412 432.758C467.107 432.664 468.804 432.581 470.5 432.5C477.251 412.49 483.848 392.437 490.25 372.312C490.563 371.328 490.877 370.344 491.2 369.33C492.088 366.539 492.974 363.748 493.859 360.957C494.127 360.114 494.396 359.271 494.672 358.402C495.94 355.013 495.94 355.012 496.5 351.5C434.46 351.5 372.42 351.5 308.5 351.5ZM328.625 453.188C325.722 457.712 324.044 461.402 324.844 466.836C326.419 472.481 328.693 475.227 333.5 478.5C337.477 480.489 342.176 480.031 346.5 479.5C350.278 477.865 352.698 475.379 355.437 472.375C357.139 467.77 357.134 463.342 356.5 458.5C354.189 453.612 351.257 451.018 346.5 448.5C339.271 446.492 333.988 448.174 328.625 453.188ZM453.75 451.812C449.655 456.704 447.914 459.868 448.148 466.289C448.9 471.014 451.656 473.757 455.125 476.812C459.781 480.121 463.895 480.121 469.5 479.5C473.925 477.288 476.695 474.552 479.5 470.5C481.054 465.837 481.044 462.012 479.375 457.375C476.274 452.621 472.96 449.705 467.562 448.062C462.049 446.968 458.052 448.195 453.75 451.812Z" fill="#053553"/>
<path d="M77.1544 119.226C78.037 119.221 78.9197 119.215 79.8291 119.21C82.7924 119.195 85.7555 119.194 88.7188 119.194C90.841 119.186 92.9632 119.178 95.0853 119.168C100.854 119.146 106.622 119.138 112.391 119.132C115.992 119.129 119.594 119.123 123.195 119.115C135.753 119.091 148.31 119.078 160.867 119.074C172.585 119.071 184.302 119.041 196.02 118.999C206.072 118.964 216.123 118.949 226.175 118.948C232.183 118.947 238.19 118.939 244.197 118.91C249.844 118.884 255.491 118.882 261.138 118.898C263.213 118.9 265.289 118.893 267.364 118.877C270.192 118.857 273.018 118.867 275.846 118.885C276.672 118.872 277.498 118.859 278.349 118.845C282.279 118.903 284.09 119.117 287.01 121.847C288.832 125.091 289.124 126.835 288.5 130.5C286.633 132.803 285.144 134.178 282.5 135.5C279.804 135.596 277.135 135.63 274.439 135.62C273.175 135.621 273.175 135.621 271.885 135.623C269.044 135.624 266.204 135.619 263.363 135.613C261.333 135.613 259.303 135.613 257.273 135.614C251.749 135.614 246.224 135.608 240.7 135.601C234.932 135.595 229.163 135.595 223.395 135.593C212.466 135.59 201.537 135.582 190.607 135.572C178.167 135.561 165.727 135.555 153.287 135.55C127.692 135.54 102.096 135.522 76.5001 135.5C76.5001 145.07 76.5001 154.64 76.5001 164.5C161.64 164.5 246.78 164.5 334.5 164.5C334.5 154.93 334.5 145.36 334.5 135.5C327.814 135.618 327.814 135.618 321.128 135.77C312.415 135.848 312.415 135.848 308.5 132.5C307.073 129.647 307.19 127.665 307.5 124.5C309.026 121.839 309.026 121.839 311.5 119.5C314.335 119.005 316.57 118.834 319.402 118.885C320.195 118.879 320.987 118.874 321.803 118.868C324.42 118.856 327.036 118.88 329.652 118.906C331.473 118.908 333.294 118.908 335.115 118.906C338.931 118.908 342.746 118.926 346.561 118.958C351.449 118.998 356.335 119.002 361.222 118.994C364.982 118.991 368.742 119.004 372.503 119.021C374.304 119.028 376.106 119.031 377.908 119.03C380.428 119.032 382.948 119.053 385.469 119.08C386.582 119.076 386.582 119.076 387.719 119.071C392.155 119.144 394.95 119.813 398.5 122.5C402.941 127.417 402.669 132.594 402.703 138.957C402.709 139.778 402.715 140.599 402.72 141.445C402.73 143.181 402.736 144.917 402.74 146.653C402.75 149.293 402.781 151.932 402.813 154.572C402.819 156.263 402.824 157.954 402.828 159.644C402.841 160.427 402.853 161.21 402.866 162.016C402.845 167.139 402.06 170.934 399.5 175.5C395.934 178.928 393.721 180 388.792 180.003C387.646 180.014 386.5 180.024 385.319 180.035C384.065 180.026 382.811 180.017 381.518 180.008C380.169 180.012 378.819 180.019 377.47 180.027C373.762 180.044 370.055 180.035 366.348 180.023C362.349 180.014 358.35 180.028 354.351 180.039C346.518 180.057 338.686 180.053 330.853 180.041C324.487 180.032 318.122 180.031 311.757 180.035C310.851 180.036 309.946 180.036 309.013 180.037C307.174 180.038 305.335 180.04 303.495 180.041C286.243 180.052 268.99 180.039 251.737 180.018C236.929 180 222.121 180.003 207.312 180.021C190.122 180.043 172.931 180.051 155.741 180.039C153.908 180.038 152.076 180.036 150.243 180.035C149.342 180.035 148.44 180.034 147.511 180.033C141.152 180.03 134.794 180.036 128.435 180.045C120.687 180.056 112.94 180.053 105.193 180.032C101.238 180.021 97.2847 180.017 93.3306 180.031C89.7121 180.043 86.0942 180.036 82.4758 180.015C80.5441 180.008 78.6124 180.021 76.6808 180.035C75.5349 180.024 74.3889 180.014 73.2082 180.003C72.2195 180.003 71.2308 180.002 70.2121 180.001C66.7342 179.358 65.0497 177.898 62.5001 175.5C60.6408 172.663 60.2435 170.464 60.2096 167.102C60.1968 166.241 60.184 165.38 60.1709 164.492C60.1687 163.569 60.1664 162.646 60.1642 161.695C60.1575 160.739 60.1508 159.782 60.144 158.796C60.1339 156.774 60.1292 154.751 60.1295 152.729C60.1251 149.643 60.0888 146.558 60.0509 143.473C60.045 141.505 60.041 139.538 60.0392 137.57C60.0248 136.651 60.0104 135.732 59.9956 134.786C60.0351 129.219 60.6456 125.831 64.5001 121.5C68.3218 118.776 72.6562 119.213 77.1544 119.226ZM350.5 135.5C350.5 145.07 350.5 154.64 350.5 164.5C362.38 164.5 374.26 164.5 386.5 164.5C386.5 154.93 386.5 145.36 386.5 135.5C374.62 135.5 362.74 135.5 350.5 135.5Z" fill="#053553"/>
<path d="M76.8497 306.353C77.4966 306.349 78.1435 306.345 78.81 306.342C80.9817 306.331 83.1533 306.327 85.325 306.323C86.8805 306.317 88.4361 306.31 89.9917 306.303C95.1037 306.282 100.216 306.272 105.328 306.262C107.088 306.258 108.848 306.254 110.609 306.249C118.879 306.23 127.149 306.216 135.419 306.208C144.963 306.198 154.507 306.172 164.052 306.131C171.43 306.101 178.808 306.086 186.187 306.083C190.593 306.081 194.999 306.072 199.405 306.047C203.552 306.023 207.698 306.019 211.845 306.029C213.364 306.03 214.884 306.023 216.403 306.01C230.843 305.886 230.843 305.886 236.5 310.5C239.661 315.772 239.944 320.504 239.898 326.469C239.903 327.727 239.903 327.727 239.907 329.012C239.909 330.776 239.903 332.541 239.891 334.306C239.875 336.992 239.891 339.677 239.91 342.363C239.908 344.086 239.904 345.809 239.898 347.531C239.904 348.326 239.91 349.121 239.917 349.94C239.851 355.181 238.939 358.84 236.5 363.5C232.105 367.62 227.648 367.659 221.895 367.693C221.122 367.701 220.349 367.709 219.553 367.718C216.996 367.742 214.44 367.759 211.883 367.773C211.009 367.779 210.135 367.784 209.235 367.79C204.613 367.816 199.991 367.836 195.368 367.85C191.543 367.863 187.717 367.891 183.892 367.932C179.272 367.981 174.652 368.006 170.032 368.013C168.272 368.02 166.512 368.035 164.752 368.059C162.289 368.091 159.827 368.091 157.364 368.084C156.275 368.108 156.275 368.108 155.165 368.133C151.278 368.085 149.628 367.602 146.547 365.151C144.5 362.5 144.5 362.5 143.875 359.5C144.724 355.425 146.276 354.091 149.5 351.5C152.91 350.899 152.91 350.899 156.86 350.932C157.583 350.932 158.305 350.931 159.05 350.93C161.426 350.934 163.8 350.972 166.176 351.012C167.827 351.021 169.479 351.028 171.131 351.033C175.47 351.052 179.808 351.101 184.147 351.157C188.577 351.208 193.008 351.231 197.439 351.256C206.126 351.309 214.813 351.397 223.5 351.5C223.5 341.93 223.5 332.36 223.5 322.5C174.99 322.5 126.48 322.5 76.4998 322.5C76.4998 332.07 76.4998 341.64 76.4998 351.5C79.618 351.442 82.7363 351.384 85.949 351.324C88.9739 351.285 91.9989 351.255 95.0239 351.225C97.124 351.2 99.224 351.166 101.324 351.123C104.345 351.062 107.365 351.034 110.386 351.012C111.323 350.986 112.26 350.96 113.225 350.934C117.81 350.932 119.837 350.998 123.593 353.843C125.5 356.5 125.5 356.5 126.125 359.5C125.245 363.721 123.978 364.928 120.5 367.5C116.677 368.229 112.912 368.153 109.031 368.094C107.361 368.094 107.361 368.094 105.658 368.094C103.308 368.089 100.958 368.071 98.6077 368.042C95.0126 368 91.4193 368.001 87.824 368.008C85.5388 367.997 83.2537 367.984 80.9685 367.969C79.8945 367.969 78.8204 367.968 77.7138 367.968C70.851 367.859 67.3717 367.101 62.2183 362.434C59.7197 358.168 59.9444 354.422 60.0037 349.563C60.0022 348.605 60.0008 347.647 59.9993 346.66C60.0009 344.64 60.0125 342.619 60.0332 340.599C60.0622 337.511 60.0538 334.424 60.0408 331.336C60.047 329.37 60.0554 327.404 60.0662 325.438C60.0632 324.517 60.0603 323.596 60.0573 322.647C60.1287 317.782 60.33 314.444 63.4998 310.5C67.7668 306.766 71.2945 306.373 76.8497 306.353Z" fill="#053553"/>
<path d="M143.5 195.5C146.175 197.161 146.52 198.557 147.563 201.563C147.492 206.031 146.764 206.749 144.188 210.188C142.376 212.664 142.376 212.664 141.5 215.5C142.501 218.99 143.968 221.66 145.879 224.738C150.339 232.336 149.485 243.393 147.852 251.863C144.386 263.283 137.316 272.813 127.051 278.969C115.446 285.082 103.504 286.446 90.7502 282.938C79.8642 279.155 70.1991 271.806 64.9299 261.399C60.1216 250.106 58.0503 237.42 62.1252 225.5C67.0567 214.102 74.6136 204.884 85.9103 199.508C92.1169 197.093 97.651 196.112 104.25 196.125C105.039 196.125 105.827 196.125 106.639 196.126C114.843 196.285 121.264 198.832 128.5 202.5C128.899 202.006 129.297 201.513 129.707 201.004C130.237 200.363 130.767 199.723 131.313 199.063C131.835 198.425 132.357 197.786 132.895 197.129C136.181 193.794 139.272 194.443 143.5 195.5ZM81.6799 222.949C80.2984 224.441 80.2984 224.441 80.5002 226.5C81.5933 226.314 82.6864 226.129 83.8127 225.938C90.4841 225.866 94.8436 231.314 99.5002 235.5C100.821 236.517 102.149 237.525 103.5 238.5C109.075 231.665 114.371 224.675 119.5 217.5C116.321 213.819 113.082 212.684 108.301 212.129C96.8022 211.91 89.6487 214.668 81.6799 222.949ZM129.5 229.5C128.554 230.691 127.653 231.918 126.77 233.156C125.935 234.32 125.935 234.32 125.084 235.508C124.5 236.33 123.915 237.153 123.313 238C122.174 239.594 121.035 241.188 119.895 242.781C119.335 243.566 118.775 244.351 118.198 245.16C116.052 248.118 113.824 251.01 111.573 253.889C110.315 255.455 110.315 255.455 110.5 257.5C104.942 258.723 102.367 258.387 97.5002 255.5C95.008 253.266 95.008 253.266 92.6252 250.75C88.9666 246.965 85.2396 243.434 81.1916 240.07C79.3552 238.365 77.9454 236.542 76.5002 234.5C75.8696 244.853 77.2068 251.682 83.7502 259.813C88.6286 265.079 94.5981 267.975 101.727 268.738C111.328 269.035 118.8 266.007 125.809 259.438C130.551 254.005 132.643 247.759 132.688 240.625C132.702 239.596 132.716 238.568 132.731 237.508C132.496 234.445 131.792 232.268 130.5 229.5C130.17 229.5 129.84 229.5 129.5 229.5Z" fill="#053553"/>
<path d="M173.547 253.233C174.269 253.228 174.99 253.223 175.734 253.219C178.159 253.206 180.584 253.208 183.009 253.209C184.745 253.203 186.482 253.197 188.218 253.189C192.939 253.171 197.66 253.167 202.381 253.165C206.32 253.164 210.259 253.156 214.198 253.149C223.49 253.133 232.782 253.128 242.074 253.129C251.664 253.131 261.254 253.109 270.845 253.078C279.074 253.052 287.303 253.041 295.533 253.042C300.45 253.043 305.366 253.037 310.283 253.016C314.908 252.997 319.532 252.996 324.156 253.011C325.854 253.013 327.551 253.008 329.249 252.996C331.566 252.981 333.882 252.99 336.199 253.005C338.144 253.004 338.144 253.004 340.129 253.002C344.072 253.584 345.715 254.7 348.5 257.5C349.963 260.974 349.613 262.221 348.187 265.75C346.5 268.5 346.5 268.5 344.5 269.5C342.165 269.601 339.828 269.635 337.491 269.64C336.396 269.645 336.396 269.645 335.279 269.649C332.821 269.658 330.363 269.66 327.905 269.661C326.147 269.666 324.39 269.671 322.633 269.676C317.85 269.689 313.067 269.696 308.284 269.7C305.298 269.703 302.311 269.707 299.325 269.712C289.989 269.725 280.653 269.735 271.316 269.739C260.527 269.743 249.738 269.761 238.948 269.79C230.616 269.811 222.284 269.822 213.952 269.823C208.972 269.824 203.992 269.83 199.012 269.848C194.328 269.864 189.645 269.866 184.962 269.858C183.241 269.857 181.521 269.861 179.8 269.871C177.454 269.884 175.109 269.878 172.763 269.867C171.449 269.869 170.136 269.87 168.782 269.872C165.308 269.478 163.909 268.987 161.5 266.5C160.326 262.899 160.172 261.221 161.75 257.75C165.269 253.225 168.089 253.247 173.547 253.233Z" fill="#053553"/>
<path d="M244.111 220.885C244.761 220.88 245.412 220.874 246.083 220.868C248.256 220.855 250.427 220.878 252.6 220.901C254.161 220.899 255.721 220.895 257.282 220.889C261.516 220.879 265.749 220.9 269.982 220.927C274.412 220.951 278.843 220.948 283.273 220.948C290.712 220.953 298.151 220.977 305.59 221.013C314.191 221.055 322.793 221.072 331.395 221.076C340.552 221.079 349.709 221.098 358.866 221.123C361.505 221.129 364.144 221.132 366.784 221.136C370.93 221.142 375.075 221.158 379.221 221.182C380.743 221.19 382.266 221.194 383.788 221.194C385.864 221.196 387.94 221.209 390.016 221.226C391.179 221.23 392.341 221.235 393.539 221.24C396.437 221.494 398.084 221.926 400.5 223.5C402.389 226.018 402.507 227.328 402.375 230.5C401.342 234.041 400.388 235.236 397.5 237.5C394.523 238.006 394.523 238.006 390.978 238.015C389.999 238.025 389.999 238.025 388.999 238.036C386.811 238.054 384.625 238.044 382.438 238.033C380.869 238.04 379.3 238.049 377.731 238.06C373.471 238.082 369.211 238.079 364.95 238.07C361.394 238.065 357.838 238.072 354.282 238.08C345.892 238.097 337.503 238.093 329.114 238.076C320.458 238.059 311.802 238.075 303.146 238.108C295.715 238.134 288.284 238.142 280.853 238.133C276.414 238.128 271.976 238.13 267.538 238.151C263.364 238.169 259.191 238.163 255.017 238.139C253.485 238.134 251.954 238.137 250.422 238.15C248.33 238.166 246.241 238.151 244.149 238.128C242.978 238.128 241.808 238.127 240.603 238.126C236.552 237.309 235.052 235.682 232.5 232.5C231.875 229.5 231.875 229.5 232.5 226.5C236.127 221.98 238.358 220.875 244.111 220.885Z" fill="#053553"/>
<path d="M171.205 221.241C172.597 221.232 172.597 221.232 174.016 221.222C175.509 221.228 175.509 221.228 177.031 221.234C178.573 221.232 178.573 221.232 180.147 221.229C182.319 221.227 184.491 221.231 186.663 221.239C189.987 221.25 193.312 221.239 196.637 221.227C198.747 221.228 200.858 221.231 202.969 221.234C203.964 221.23 204.958 221.226 205.984 221.222C206.911 221.228 207.839 221.235 208.795 221.241C210.016 221.244 210.016 221.244 211.262 221.246C213.8 221.534 215.37 222.092 217.5 223.5C219.331 227.639 219.839 229.584 218.25 233.875C216.5 236.5 216.5 236.5 214.5 237.5C212.949 237.61 211.393 237.659 209.838 237.677C208.386 237.696 208.386 237.696 206.905 237.716C205.332 237.727 205.332 237.727 203.727 237.738C202.651 237.746 201.576 237.754 200.468 237.763C198.19 237.777 195.912 237.787 193.634 237.795C190.146 237.812 186.659 237.856 183.172 237.9C180.961 237.911 178.75 237.919 176.539 237.926C175.494 237.943 174.449 237.961 173.373 237.979C166.143 237.957 166.143 237.957 162.865 235.626C161.252 233.114 160.646 231.488 160.5 228.5C161.248 225.575 161.698 224.006 164.288 222.372C166.757 221.399 168.557 221.246 171.205 221.241Z" fill="#053553"/>
<path d="M391.5 367.5C393.55 370.575 393.755 371.247 393.791 374.724C393.81 375.996 393.81 375.996 393.829 377.293C393.832 378.206 393.834 379.118 393.836 380.058C393.843 380.999 393.849 381.94 393.856 382.909C393.866 384.899 393.871 386.888 393.871 388.878C393.875 391.923 393.911 394.965 393.949 398.01C393.955 399.943 393.959 401.876 393.961 403.808C393.975 404.719 393.99 405.63 394.005 406.568C393.959 412.88 393.959 412.88 391.596 416.07C389.347 417.605 388.2 418.068 385.5 418.062C384.51 418.095 384.51 418.095 383.5 418.129C380.255 417.108 379.292 415.355 377.5 412.5C376.917 409.404 376.939 406.362 376.969 403.219C376.965 402.328 376.961 401.436 376.957 400.518C376.955 398.639 376.962 396.76 376.979 394.88C377 392.009 376.979 389.14 376.953 386.269C376.956 384.44 376.961 382.611 376.969 380.781C376.961 379.926 376.953 379.07 376.944 378.189C377.008 374.147 377.193 372.002 379.346 368.482C383.563 364.602 386.42 365.653 391.5 367.5Z" fill="#053553"/>
<path d="M358.5 367.5C361.232 369.981 361.713 372.091 361.904 375.638C361.931 377.32 361.939 379.002 361.934 380.684C361.939 381.576 361.944 382.469 361.95 383.388C361.956 385.274 361.955 387.159 361.946 389.044C361.938 391.924 361.966 394.802 361.998 397.682C362 399.516 361.999 401.35 361.996 403.184C362.013 404.471 362.013 404.471 362.03 405.785C361.983 409.889 361.821 411.987 359.594 415.543C357.335 417.654 356.537 418.163 353.5 418.063C352.84 418.064 352.18 418.065 351.5 418.066C348.437 417.199 347.413 416.074 345.5 413.5C344.893 410.285 344.94 407.107 344.969 403.844C344.965 402.904 344.961 401.965 344.957 400.997C344.955 399.014 344.962 397.03 344.979 395.046C345 392.011 344.979 388.977 344.953 385.941C344.956 384.013 344.961 382.085 344.969 380.156C344.961 379.249 344.953 378.342 344.944 377.407C345.038 371.137 345.038 371.137 347.346 367.959C351.63 365.058 353.889 365.483 358.5 367.5Z" fill="#053553"/>
<path d="M456.5 367.5C458.288 370.224 458.756 372.415 458.791 375.638C458.81 376.845 458.81 376.845 458.829 378.076C458.832 378.937 458.834 379.797 458.836 380.684C458.843 381.576 458.849 382.469 458.856 383.388C458.866 385.274 458.871 387.159 458.871 389.044C458.875 391.924 458.911 394.802 458.949 397.682C458.955 399.516 458.959 401.35 458.961 403.184C458.975 404.042 458.99 404.901 459.005 405.785C458.973 409.893 458.824 411.982 456.596 415.543C454.336 417.654 453.538 418.163 450.5 418.063C449.84 418.064 449.18 418.065 448.5 418.066C445.437 417.199 444.413 416.074 442.5 413.5C441.893 410.285 441.94 407.107 441.969 403.844C441.965 402.904 441.961 401.965 441.957 400.997C441.955 399.014 441.962 397.03 441.979 395.046C442 392.011 441.979 388.977 441.953 385.941C441.956 384.013 441.961 382.085 441.969 380.156C441.961 379.249 441.953 378.342 441.944 377.407C442.038 371.137 442.038 371.137 444.346 367.959C448.864 364.899 451.553 365.611 456.5 367.5Z" fill="#053553"/>
<path d="M423.5 367.5C426.942 371.741 426.925 375.889 426.863 381.125C426.864 381.95 426.864 382.774 426.865 383.624C426.863 385.362 426.853 387.1 426.836 388.838C426.813 391.491 426.816 394.144 426.822 396.797C426.817 398.49 426.81 400.182 426.801 401.875C426.802 403.06 426.802 403.06 426.804 404.268C426.735 409.641 426.381 413.619 422.5 417.5C415.508 418.177 415.508 418.177 412.402 416.091C409.493 412.129 409.946 408.384 410.004 403.59C410.003 402.626 410.001 401.662 410 400.669C410.001 398.634 410.013 396.599 410.034 394.564C410.063 391.445 410.054 388.328 410.041 385.209C410.047 383.232 410.056 381.255 410.067 379.277C410.064 378.343 410.061 377.409 410.058 376.446C410.07 375.578 410.083 374.71 410.096 373.816C410.102 373.053 410.107 372.29 410.113 371.504C410.602 368.973 411.519 368.098 413.5 366.5C417.205 364.839 419.926 365.827 423.5 367.5Z" fill="#053553"/>
<path d="M368.5 48.5001C371.063 50.7324 371.438 52.0806 371.938 55.4376C371.375 59.3751 370.537 60.9184 367.5 63.5001C364.677 64.2174 362.323 64.2174 359.5 63.5001C356.463 60.9184 355.625 59.3751 355.062 55.4376C355.546 52.1895 356.194 50.806 358.5 48.5001C362.295 47.2352 364.624 47.6002 368.5 48.5001Z" fill="#053553"/>
<path d="M395.5 48.5001C398.32 50.865 398.478 52.3281 398.937 56.0001C398.5 59.5001 398.5 59.5001 397 61.9376C393.97 63.8315 391.942 64.1461 388.41 63.9415C386.5 63.5001 386.5 63.5001 383.937 61.5001C382.274 58.0284 382.12 56.0378 382.832 52.3087C383.5 50.5001 383.5 50.5001 385.625 48.4376C389.377 47.2139 391.71 47.4473 395.5 48.5001Z" fill="#053553"/>
<path d="M398.5 254.5C400.937 256.625 400.937 256.625 402.5 259.5C402.5 263.279 402.333 265.507 399.875 268.438C396.523 269.937 394.13 269.954 390.5 269.5C388.062 267.938 388.062 267.938 386.5 265.5C386.031 261.747 385.969 259.462 387.812 256.125C391.184 252.879 394.249 253.286 398.5 254.5Z" fill="#053553"/>
<path d="M372.5 254.5C374.937 256.625 374.937 256.625 376.5 259.5C376.5 263.279 376.333 265.507 373.875 268.438C370.523 269.937 368.13 269.954 364.5 269.5C362.062 267.938 362.062 267.938 360.5 265.5C360.031 261.747 359.969 259.462 361.812 256.125C365.184 252.879 368.249 253.286 372.5 254.5Z" fill="#053553"/>
<path d="M422.5 48.4999C425.32 50.8648 425.479 52.328 425.938 55.9999C425.5 59.4999 425.5 59.4999 423.938 61.9374C420.582 64.0887 418.416 63.9894 414.5 63.4999C412.125 62.4374 412.125 62.4374 410.5 60.4999C409.627 57.071 409.171 54.6073 410.188 51.1874C413.635 46.7543 417.312 47.1793 422.5 48.4999Z" fill="#053553"/>
</g>
<defs>
<clipPath id="clip0_221_115">
<rect width="512" height="512" fill="white" transform="translate(0.5 0.5)"/>
</clipPath>
</defs>
</svg>
