<?xml version="1.0" encoding="UTF-8"?>
<!DOCTYPE svg PUBLIC "-//W3C//DTD SVG 1.1//EN" "http://www.w3.org/Graphics/SVG/1.1/DTD/svg11.dtd">
<svg xmlns="http://www.w3.org/2000/svg" version="1.1" width="512px" height="512px" style="shape-rendering:geometricPrecision; text-rendering:geometricPrecision; image-rendering:optimizeQuality; fill-rule:evenodd; clip-rule:evenodd" xmlns:xlink="http://www.w3.org/1999/xlink">
<g><path style="opacity:0.952" fill="#000000" d="M 378.5,-0.5 C 381.833,-0.5 385.167,-0.5 388.5,-0.5C 426.883,13.1285 465.55,26.2951 504.5,39C 507.266,40.371 509.599,42.2043 511.5,44.5C 511.5,81.5 511.5,118.5 511.5,155.5C 506.838,185.825 494.338,212.492 474,235.5C 449.462,262.345 420.629,283.179 387.5,298C 384.833,298.667 382.167,298.667 379.5,298C 271.487,247.322 230.321,162.822 256,44.5C 257.663,42.0833 259.829,40.25 262.5,39C 301.45,26.2951 340.117,13.1285 378.5,-0.5 Z M 380.5,22.5 C 382.527,22.3379 384.527,22.5045 386.5,23C 420.463,34.5988 454.463,46.0988 488.5,57.5C 488.833,73 489.167,88.5 489.5,104C 496.148,149.623 484.314,189.456 454,223.5C 433.69,244.987 410.19,261.987 383.5,274.5C 353.524,260.367 327.69,240.701 306,215.5C 290.662,196.506 281.329,174.84 278,150.5C 277.167,119.495 277.333,88.4946 278.5,57.5C 312.736,46.2 346.736,34.5334 380.5,22.5 Z"/></g>
<g><path style="opacity:0.955" fill="#000000" d="M -0.5,100.5 C -0.5,97.1667 -0.5,93.8333 -0.5,90.5C 1.04602,87.8001 3.37935,85.9668 6.5,85C 28.1667,84.3333 49.8333,84.3333 71.5,85C 94.9919,89.4902 109.825,103.324 116,126.5C 119.94,140.763 124.106,154.93 128.5,169C 154.167,169.333 179.833,169.667 205.5,170C 215.336,176.036 216.003,183.036 207.5,191C 183.167,191.333 158.833,191.667 134.5,192C 151.072,249.116 167.572,306.282 184,363.5C 189.674,375.587 199.174,382.087 212.5,383C 279.86,383.976 347.194,383.643 414.5,382C 423.001,379.829 429.501,374.996 434,367.5C 441.945,347.277 449.611,326.943 457,306.5C 463.333,299.833 469.667,299.833 476,306.5C 476.985,308.366 477.485,310.366 477.5,312.5C 470.685,336.112 462.185,359.112 452,381.5C 442.341,395.146 429.174,402.979 412.5,405C 344.167,405.667 275.833,405.667 207.5,405C 186.364,402.184 171.531,391.018 163,371.5C 140.131,292.559 117.464,213.559 95,134.5C 91.7974,119.297 82.6308,110.131 67.5,107C 47.1667,106.667 26.8333,106.333 6.5,106C 3.37935,105.033 1.04602,103.2 -0.5,100.5 Z"/></g>
<g><path style="opacity:0.94" fill="#000000" d="M 442.5,95.5 C 455.766,94.0452 460.599,99.7119 457,112.5C 430.805,139.028 404.305,165.195 377.5,191C 370.42,192.877 364.92,190.711 361,184.5C 347.333,167.167 333.667,149.833 320,132.5C 318.056,119.22 323.556,114.387 336.5,118C 349,133.167 361.5,148.333 374,163.5C 396.728,140.605 419.562,117.938 442.5,95.5 Z"/></g>
<g><path style="opacity:0.946" fill="#000000" d="M 243.5,511.5 C 237.167,511.5 230.833,511.5 224.5,511.5C 199.756,503.036 188.923,485.703 192,459.5C 198.039,438.464 212.039,427.131 234,425.5C 258.047,427.216 272.381,439.883 277,463.5C 278.068,488.235 266.901,504.235 243.5,511.5 Z M 233.5,447.5 C 249.24,449.739 256.073,458.739 254,474.5C 247.591,489.194 237.091,493.028 222.5,486C 212.425,477.073 210.925,466.907 218,455.5C 222.361,451.071 227.528,448.404 233.5,447.5 Z"/></g>
<g><path style="opacity:0.949" fill="#000000" d="M 392.5,511.5 C 386.5,511.5 380.5,511.5 374.5,511.5C 350.089,503.891 338.923,487.224 341,461.5C 348.601,434.246 366.434,422.746 394.5,427C 417.975,435.158 428.475,451.658 426,476.5C 421.753,494.912 410.586,506.578 392.5,511.5 Z M 377.5,448.5 C 392.992,446.829 401.992,453.662 404.5,469C 402.204,483.964 393.537,490.63 378.5,489C 367.434,485.031 362.268,477.197 363,465.5C 365.188,457.486 370.021,451.819 377.5,448.5 Z"/></g>
</svg>
