<?xml version="1.0" encoding="UTF-8"?>
<!DOCTYPE svg PUBLIC "-//W3C//DTD SVG 1.1//EN" "http://www.w3.org/Graphics/SVG/1.1/DTD/svg11.dtd">
<svg xmlns="http://www.w3.org/2000/svg" version="1.1" width="512px" height="512px" style="shape-rendering:geometricPrecision; text-rendering:geometricPrecision; image-rendering:optimizeQuality; fill-rule:evenodd; clip-rule:evenodd" xmlns:xlink="http://www.w3.org/1999/xlink">
<g><path style="opacity:0.945" fill="#000000" d="M 511.5,343.5 C 511.5,347.167 511.5,350.833 511.5,354.5C 502.337,381.991 493.337,409.658 484.5,437.5C 497.22,451.368 498.72,466.368 489,482.5C 478.118,494.726 464.952,497.893 449.5,492C 439.95,486.943 433.95,479.109 431.5,468.5C 411.511,467.5 391.511,467.167 371.5,467.5C 366.553,487.919 353.553,496.753 332.5,494C 317.065,489.493 308.732,479.16 307.5,463C 308.149,459.125 308.982,455.291 310,451.5C 312.597,446.629 315.431,441.962 318.5,437.5C 315.852,429.571 313.519,421.571 311.5,413.5C 213.499,413.667 115.499,413.5 17.5,413C 8.50305,411.161 2.50305,405.994 -0.5,397.5C -0.5,275.833 -0.5,154.167 -0.5,32.5C 2.31649,24.8517 7.64982,19.685 15.5,17C 158.833,16.3333 302.167,16.3333 445.5,17C 453.781,20.0559 458.948,25.8893 461,34.5C 461.667,105.167 461.667,175.833 461,246.5C 457.987,251.535 453.82,252.702 448.5,250C 447.299,249.097 446.465,247.931 446,246.5C 445.5,195.834 445.333,145.168 445.5,94.5C 301.833,94.5 158.167,94.5 14.5,94.5C 14.3333,193.167 14.5,291.834 15,390.5C 15.3917,393.455 16.8917,395.622 19.5,397C 114.833,397.5 210.166,397.667 305.5,397.5C 297.774,372.488 289.941,347.488 282,322.5C 274.246,321.683 266.412,321.183 258.5,321C 254.788,318.398 253.622,314.898 255,310.5C 255.833,308.333 257.333,306.833 259.5,306C 269.833,305.333 280.167,305.333 290.5,306C 292.667,306.833 294.167,308.333 295,310.5C 297.603,318.141 300.103,325.808 302.5,333.5C 310.472,334.498 318.472,334.831 326.5,334.5C 326.334,326.16 326.5,317.827 327,309.5C 328.5,305.333 331.333,302.5 335.5,301C 346.161,300.5 356.828,300.333 367.5,300.5C 367.513,294.65 370.18,290.484 375.5,288C 391.175,286.017 406.842,286.017 422.5,288C 427.666,290.315 430.666,294.315 431.5,300C 436.155,300.499 440.821,300.666 445.5,300.5C 445.057,291.392 445.557,282.392 447,273.5C 451.333,269.5 455.667,269.5 460,273.5C 461.113,282.419 461.946,291.419 462.5,300.5C 466.141,302.307 468.974,304.974 471,308.5C 471.5,317.16 471.666,325.827 471.5,334.5C 480.839,334.334 490.173,334.5 499.5,335C 505.187,335.659 509.187,338.492 511.5,343.5 Z M 18.5,32.5 C 159.5,32.3333 300.5,32.5 441.5,33C 443.049,34.214 444.215,35.714 445,37.5C 445.5,51.1626 445.667,64.8293 445.5,78.5C 301.833,78.5 158.167,78.5 14.5,78.5C 14.3334,65.4957 14.5001,52.4957 15,39.5C 15.1328,36.5958 16.2995,34.2624 18.5,32.5 Z M 349.5,134.5 C 361.5,134.5 373.5,134.5 385.5,134.5C 385.5,144.167 385.5,153.833 385.5,163.5C 373.5,163.5 361.5,163.5 349.5,163.5C 349.5,153.833 349.5,144.167 349.5,134.5 Z M 79.5,225.5 C 86.6074,213.953 96.9407,209.453 110.5,212C 113.446,212.806 116.112,214.139 118.5,216C 113.121,223.257 107.621,230.423 102,237.5C 97.9282,233.55 93.7616,229.717 89.5,226C 86.2467,224.18 82.9133,224.013 79.5,225.5 Z M 383.5,302.5 C 394.167,302.5 404.833,302.5 415.5,302.5C 415.5,313.167 415.5,323.833 415.5,334.5C 404.833,334.5 394.167,334.5 383.5,334.5C 383.5,323.833 383.5,313.167 383.5,302.5 Z M 342.5,316.5 C 350.833,316.5 359.167,316.5 367.5,316.5C 367.5,322.5 367.5,328.5 367.5,334.5C 359.167,334.5 350.833,334.5 342.5,334.5C 342.5,328.5 342.5,322.5 342.5,316.5 Z M 431.5,316.5 C 439.5,316.5 447.5,316.5 455.5,316.5C 455.5,322.5 455.5,328.5 455.5,334.5C 447.5,334.5 439.5,334.5 431.5,334.5C 431.5,328.5 431.5,322.5 431.5,316.5 Z M 307.5,351.5 C 369.999,350.335 432.665,350.168 495.5,351C 486.539,377.385 477.872,403.885 469.5,430.5C 452.888,429.304 440.888,436.138 433.5,451C 412.159,451.833 390.826,451.666 369.5,450.5C 365.474,440.975 358.474,434.809 348.5,432C 343.326,431.223 338.326,430.723 333.5,430.5C 325.2,403.933 316.533,377.6 307.5,351.5 Z M 338.5,446.5 C 354.749,449.665 359.249,458.665 352,473.5C 343.387,480.414 335.054,480.081 327,472.5C 321.244,459.674 325.077,451.007 338.5,446.5 Z M 462.5,446.5 C 477.201,449.245 482.035,457.578 477,471.5C 470.705,478.914 463.205,480.414 454.5,476C 444.946,466.646 445.28,457.646 455.5,449C 457.927,448.098 460.26,447.264 462.5,446.5 Z"/></g>
<g><path style="opacity:0.844" fill="#000000" d="M 360.5,46.5 C 368.168,46.3321 371.335,49.9988 370,57.5C 367.565,62.2238 363.731,63.7238 358.5,62C 352.731,55.8002 353.398,50.6335 360.5,46.5 Z"/></g>
<g><path style="opacity:0.848" fill="#000000" d="M 387.5,46.5 C 395.662,46.4983 398.828,50.4983 397,58.5C 394.045,62.2765 390.212,63.4432 385.5,62C 379.892,55.8976 380.559,50.731 387.5,46.5 Z"/></g>
<g><path style="opacity:0.861" fill="#000000" d="M 414.5,46.5 C 422.662,46.4983 425.828,50.4983 424,58.5C 419.7,63.4459 415.033,63.7793 410,59.5C 407.552,53.7403 409.052,49.407 414.5,46.5 Z"/></g>
<g><path style="opacity:0.962" fill="#000000" d="M 67.5,118.5 C 139.501,118.333 211.501,118.5 283.5,119C 289.33,125.006 288.663,130.006 281.5,134C 212.834,134.5 144.167,134.667 75.5,134.5C 75.5,144.167 75.5,153.833 75.5,163.5C 161.5,163.5 247.5,163.5 333.5,163.5C 333.5,153.833 333.5,144.167 333.5,134.5C 326.492,134.666 319.492,134.5 312.5,134C 305.337,130.006 304.67,125.006 310.5,119C 338.895,118.025 367.228,118.358 395.5,120C 398.754,122.342 400.588,125.509 401,129.5C 401.667,142.167 401.667,154.833 401,167.5C 400.444,172.389 397.944,175.889 393.5,178C 284.5,178.667 175.5,178.667 66.5,178C 63.2716,176.437 61.1049,173.937 60,170.5C 59.3333,155.833 59.3333,141.167 60,126.5C 61.3532,122.65 63.8532,119.983 67.5,118.5 Z M 349.5,134.5 C 349.5,144.167 349.5,153.833 349.5,163.5C 361.5,163.5 373.5,163.5 385.5,163.5C 385.5,153.833 385.5,144.167 385.5,134.5C 373.5,134.5 361.5,134.5 349.5,134.5 Z"/></g>
<g><path style="opacity:0.926" fill="#000000" d="M 136.5,193.5 C 143.808,193.639 146.974,197.305 146,204.5C 144.204,207.927 142.037,211.094 139.5,214C 148.305,227.663 149.805,242.163 144,257.5C 132.719,278.721 115.219,286.888 91.5,282C 67.3984,273.317 56.8984,256.151 60,230.5C 67.8161,204.338 85.3161,192.838 112.5,196C 118.074,197.204 123.241,199.371 128,202.5C 129.961,198.495 132.795,195.495 136.5,193.5 Z M 79.5,225.5 C 82.9133,224.013 86.2467,224.18 89.5,226C 93.7616,229.717 97.9282,233.55 102,237.5C 107.621,230.423 113.121,223.257 118.5,216C 116.112,214.139 113.446,212.806 110.5,212C 96.9407,209.453 86.6074,213.953 79.5,225.5 Z M 128.5,228.5 C 134.81,245.694 129.476,258.194 112.5,266C 97.4468,269.555 85.9468,264.722 78,251.5C 75.6825,245.693 75.0158,239.693 76,233.5C 76.6667,234.833 77.3333,236.167 78,237.5C 84.8025,243.301 91.3025,249.468 97.5,256C 100.742,258.325 104.076,258.658 107.5,257C 115.096,247.909 122.096,238.409 128.5,228.5 Z"/></g>
<g><path style="opacity:0.919" fill="#000000" d="M 165.5,220.5 C 181.17,220.333 196.837,220.5 212.5,221C 219.955,225.561 220.288,230.561 213.5,236C 197.167,236.667 180.833,236.667 164.5,236C 157.861,230.425 158.195,225.259 165.5,220.5 Z"/></g>
<g><path style="opacity:0.93" fill="#000000" d="M 236.5,220.5 C 289.501,220.333 342.501,220.5 395.5,221C 403.052,225.535 403.385,230.535 396.5,236C 343.167,236.667 289.833,236.667 236.5,236C 231.465,232.987 230.298,228.82 233,223.5C 234.145,222.364 235.312,221.364 236.5,220.5 Z"/></g>
<g><path style="opacity:0.932" fill="#000000" d="M 165.5,252.5 C 224.501,252.333 283.501,252.5 342.5,253C 348.152,256.441 349.318,260.941 346,266.5C 345.25,267.126 344.416,267.626 343.5,268C 283.833,268.667 224.167,268.667 164.5,268C 157.789,262.523 158.122,257.357 165.5,252.5 Z"/></g>
<g><path style="opacity:0.857" fill="#000000" d="M 365.5,252.5 C 373.832,253.321 376.665,257.654 374,265.5C 371.005,268.265 367.505,269.098 363.5,268C 359.788,265.487 358.622,261.987 360,257.5C 361.107,254.887 362.94,253.22 365.5,252.5 Z"/></g>
<g><path style="opacity:0.857" fill="#000000" d="M 391.5,252.5 C 399.832,253.321 402.665,257.654 400,265.5C 397.005,268.265 393.505,269.098 389.5,268C 385.788,265.487 384.622,261.987 386,257.5C 387.107,254.887 388.94,253.22 391.5,252.5 Z"/></g>
<g><path style="opacity:0.933" fill="#000000" d="M 69.5,305.5 C 122.501,305.333 175.501,305.5 228.5,306C 234.076,307.319 237.243,310.819 238,316.5C 238.667,329.5 238.667,342.5 238,355.5C 237.285,361.215 234.118,364.715 228.5,366C 201.833,366.667 175.167,366.667 148.5,366C 143.465,362.987 142.298,358.82 145,353.5C 145.903,352.299 147.069,351.465 148.5,351C 173.164,350.5 197.831,350.333 222.5,350.5C 222.5,340.833 222.5,331.167 222.5,321.5C 173.5,321.5 124.5,321.5 75.5,321.5C 75.5,331.167 75.5,340.833 75.5,350.5C 90.1705,350.333 104.837,350.5 119.5,351C 124.535,354.013 125.702,358.18 123,363.5C 122.097,364.701 120.931,365.535 119.5,366C 101.434,366.959 83.4341,366.626 65.5,365C 63.2911,363.127 61.4578,360.96 60,358.5C 59.3333,343.833 59.3333,329.167 60,314.5C 61.7497,309.915 64.9164,306.915 69.5,305.5 Z"/></g>
<g><path style="opacity:0.918" fill="#000000" d="M 351.5,364.5 C 355.57,364.735 358.403,366.735 360,370.5C 360.667,384.167 360.667,397.833 360,411.5C 356.726,416.738 352.226,417.904 346.5,415C 345.874,414.25 345.374,413.416 345,412.5C 344.333,398.167 344.333,383.833 345,369.5C 346.563,366.977 348.73,365.31 351.5,364.5 Z"/></g>
<g><path style="opacity:0.918" fill="#000000" d="M 383.5,364.5 C 387.221,364.783 390.054,366.45 392,369.5C 392.667,383.833 392.667,398.167 392,412.5C 390.471,415.516 387.971,416.849 384.5,416.5C 380.823,416.664 378.323,414.997 377,411.5C 376.333,397.833 376.333,384.167 377,370.5C 378.436,367.558 380.603,365.558 383.5,364.5 Z"/></g>
<g><path style="opacity:0.92" fill="#000000" d="M 416.5,364.5 C 419.508,364.877 422.008,366.211 424,368.5C 425.113,375.759 425.613,383.092 425.5,390.5C 425.596,398.227 425.096,405.893 424,413.5C 420.281,416.902 416.114,417.402 411.5,415C 410.874,414.25 410.374,413.416 410,412.5C 409.333,397.833 409.333,383.167 410,368.5C 411.792,366.372 413.958,365.039 416.5,364.5 Z"/></g>
<g><path style="opacity:0.92" fill="#000000" d="M 448.5,364.5 C 452.671,364.664 455.505,366.664 457,370.5C 457.667,384.167 457.667,397.833 457,411.5C 454.565,416.224 450.731,417.724 445.5,416C 444.333,414.833 443.167,413.667 442,412.5C 441.333,398.167 441.333,383.833 442,369.5C 443.603,366.965 445.769,365.298 448.5,364.5 Z"/></g>
</svg>
