<svg width="513" height="513" viewBox="0 0 513 513" fill="none" xmlns="http://www.w3.org/2000/svg">
<path d="M82.3749 10.9375C86.3364 11.0197 88.9261 12.7664 92.2499 14.8125C102.388 21.0414 112.527 22.9933 124.316 21.0312C131.103 19.4094 139.462 16.5379 144.5 11.5C149.454 10.7621 151.925 11.5301 156.125 14.25C166.421 20.8331 177.792 23.3409 189.789 20.8047C195.324 19.2623 200.031 17.3469 204.875 14.25C209.027 11.6333 211.5 10.4286 216.5 11.5C218.969 12.8705 221.324 14.3775 223.703 15.8984C233.325 21.4081 243.99 23.0876 254.789 20.8047C260.324 19.2623 265.031 17.3469 269.875 14.25C274.027 11.6333 276.5 10.4286 281.5 11.5C284.092 12.871 286.543 14.3804 289.008 15.9688C298.275 21.6626 309.254 22.9917 319.82 20.8164C326.346 18.9574 331.595 16.3653 337.273 12.7031C340.635 10.8866 342.763 10.8771 346.5 11.5C349.2 14.2002 348.74 16.293 348.758 19.9612C348.752 20.8775 348.746 21.7938 348.74 22.7379C348.743 24.1922 348.743 24.1922 348.746 25.6759C348.749 28.9449 348.738 32.2138 348.727 35.4829C348.726 37.8182 348.727 40.1534 348.728 42.4886C348.728 48.8458 348.717 55.2029 348.703 61.56C348.691 67.5252 348.689 73.4905 348.687 79.4557C348.683 91.2732 348.67 103.091 348.651 114.908C348.632 126.39 348.618 137.871 348.61 149.353C348.609 150.06 348.609 150.767 348.608 151.496C348.606 155.045 348.603 158.594 348.601 162.142C348.58 191.595 348.544 221.047 348.5 250.5C350.162 250.489 350.162 250.489 351.858 250.478C354.747 250.495 356.982 250.649 359.742 251.348C360.863 251.631 360.863 251.631 362.007 251.921C362.788 252.132 363.57 252.344 364.375 252.562C365.204 252.787 366.032 253.011 366.886 253.241C398.121 262.009 426.102 282.274 442.657 310.47C445.188 315.036 447.408 319.719 449.5 324.5C449.782 325.14 450.064 325.78 450.355 326.44C463.578 357.132 463.184 392.452 451.187 423.477C438.723 454.006 414.533 478.859 384.246 491.973C378.103 494.52 371.898 496.681 365.5 498.5C363.829 498.981 363.829 498.981 362.125 499.473C342.213 504.167 318.025 503.498 298.5 497.5C297.779 497.286 297.057 497.071 296.314 496.851C273.224 489.836 251.744 476.354 236.5 457.5C233.649 458.832 231.256 460.341 228.785 462.285C227.755 463.081 227.755 463.081 226.705 463.893C225.277 465.005 223.853 466.123 222.432 467.244C215.38 472.67 215.38 472.67 211.5 472.5C209.153 471.34 207.113 470.169 204.937 468.75C193.681 461.891 182.422 459.856 169.5 462.625C164.3 464.022 160.193 466.241 155.68 469.125C152.961 470.84 150.69 471.992 147.5 472.5C145.466 471.572 143.469 470.56 141.5 469.5C128.201 462.447 117.076 459.078 102.242 463.512C96.7194 465.502 91.5687 468.121 86.6874 471.375C84.4999 472.5 84.4999 472.5 81.8124 472.312C79.4999 471.5 79.4999 471.5 77.4999 469.5C77.3029 467.009 77.2322 464.63 77.2482 462.138C77.2453 461.366 77.2424 460.595 77.2394 459.8C77.2321 457.187 77.2391 454.574 77.2459 451.961C77.2436 450.08 77.2405 448.199 77.2365 446.318C77.2281 441.127 77.2323 435.936 77.2385 430.746C77.243 425.156 77.236 419.566 77.2305 413.977C77.2216 403.018 77.2235 392.059 77.2293 381.101C77.2338 372.198 77.2345 363.296 77.2323 354.393C77.232 353.128 77.2317 351.864 77.2314 350.561C77.2307 347.992 77.2301 345.423 77.2294 342.854C77.2239 319.427 77.2296 295.999 77.2401 272.572C77.2496 251.17 77.2487 229.767 77.2392 208.365C77.2285 184.339 77.2242 160.312 77.2304 136.286C77.231 133.726 77.2317 131.167 77.2323 128.607C77.2326 127.347 77.2329 126.088 77.2332 124.79C77.2349 115.893 77.232 106.996 77.2273 98.0997C77.2217 87.2646 77.2232 76.4296 77.2339 65.5946C77.2392 60.0612 77.2412 54.528 77.2346 48.9947C77.2287 43.9368 77.2318 38.879 77.2425 33.8211C77.2448 31.984 77.2436 30.1469 77.2388 28.3098C77.2328 25.8271 77.2389 23.3447 77.2482 20.862C77.2435 20.1363 77.2389 19.4105 77.234 18.6628C77.2698 13.9657 77.367 11.9173 82.3749 10.9375ZM141.437 27.9375C140.453 28.5369 139.468 29.1363 138.453 29.7539C126.508 36.8165 111.344 35.6495 98.4023 32.3516C95.4123 31.4743 92.456 30.4854 89.4999 29.5C89.4999 169.42 89.4999 309.34 89.4999 453.5C92.7999 452.51 96.0999 451.52 99.4999 450.5C113.032 447.161 128.792 446.951 141.281 454.09C142.472 454.85 142.472 454.85 143.687 455.625C145.94 457.027 145.94 457.027 148.5 457.5C152.114 456.456 155.134 455.002 158.422 453.184C170.264 446.706 184.166 447.485 196.941 450.434C202.793 452.187 208.026 454.763 213.5 457.5C218.12 453.54 222.74 449.58 227.5 445.5C226.053 441.883 224.522 438.528 222.733 435.085C218.604 427.101 215.066 419.139 212.5 410.5C212.304 409.854 212.108 409.208 211.906 408.542C206.238 389.087 204.686 361.229 212.453 342.16C213.5 340.5 213.5 340.5 215.875 339.625C218.802 339.486 219.985 340.12 222.5 341.5C222.66 346.368 222.544 350.702 221.512 355.465C220.266 362.07 220.156 368.543 220.187 375.25C220.192 376.488 220.197 377.725 220.202 379.001C220.316 387.882 220.986 395.942 223.5 404.5C223.829 405.698 224.157 406.895 224.496 408.129C229.009 423.104 236.567 436.463 246.5 448.5C247.146 449.298 247.792 450.096 248.457 450.918C266.541 472.316 294.473 485.945 322.137 488.887C352.518 491.351 381.739 482.757 405.5 463.5C406.463 462.72 407.426 461.94 408.418 461.137C429.542 442.932 442.444 416.889 446.5 389.5C447.433 373.871 447.269 358.491 442.5 343.5C442.291 342.826 442.082 342.152 441.867 341.458C437.01 326.231 429.347 312.279 418.5 300.5C418.02 299.978 417.541 299.456 417.047 298.918C398.175 278.611 371.591 263.914 343.51 262.332C311.471 261.179 284.267 269.066 259.5 289.5C258.977 289.923 258.454 290.347 257.916 290.783C255.09 293.091 252.495 295.414 250.125 298.188C249.249 299.199 249.249 299.199 248.355 300.23C247.02 301.863 245.737 303.539 244.488 305.238C243.473 306.605 243.473 306.605 242.437 308C241.523 309.284 241.523 309.284 240.59 310.594C238.5 312.5 238.5 312.5 235.375 312.848C232.5 312.5 232.5 312.5 230.562 311.438C228.759 308.15 229.498 306.037 230.5 302.5C231.954 300.504 233.502 298.75 235.223 296.98C236.718 295.574 236.718 295.574 236.5 293.5C217.69 293.17 198.88 292.84 179.5 292.5C177.5 286.5 177.5 286.5 178.375 284.125C178.932 283.321 178.932 283.321 179.5 282.5C180.779 282.511 180.779 282.511 182.083 282.523C190.159 282.585 198.234 282.604 206.311 282.575C210.462 282.562 214.612 282.565 218.763 282.606C222.777 282.646 226.789 282.641 230.804 282.606C232.327 282.601 233.85 282.61 235.373 282.637C244.955 282.79 251.023 281.664 258.253 274.709C258.995 273.98 259.736 273.251 260.5 272.5C263.163 270.603 265.913 268.935 268.75 267.312C269.474 266.895 270.198 266.478 270.944 266.048C277.877 262.144 284.932 258.996 292.5 256.5C293.192 256.269 293.884 256.039 294.598 255.801C308.699 251.257 321.338 250.713 336.5 249.5C336.5 176.9 336.5 104.3 336.5 29.5C333.53 30.49 330.56 31.48 327.5 32.5C314.081 36.3604 300.511 35.2272 287.5 30.5C285.754 29.4875 284.022 28.4483 282.312 27.375C280.014 25.9902 280.014 25.9902 277.5 25.5C274.248 26.554 271.577 28.0643 268.629 29.7891C255.56 36.9352 240.038 35.5589 226.187 31.7461C222.811 30.6053 220.245 29.2615 217.25 27.375C214.984 25.9908 214.984 25.9908 212.5 25.5C209.221 26.551 206.53 28.0553 203.559 29.7891C191.535 36.515 176.681 35.7875 163.684 32.5898C160.176 31.3891 157.179 29.7296 153.937 27.9375C148.751 25.3943 146.559 25.2169 141.437 27.9375Z" fill="#053553"/>
<path d="M289.974 292.951C291.004 292.94 292.034 292.93 293.096 292.92C296.489 292.892 299.881 292.894 303.273 292.898C305.641 292.891 308.008 292.882 310.376 292.872C315.333 292.857 320.291 292.858 325.249 292.869C331.59 292.88 337.93 292.846 344.27 292.8C349.159 292.77 354.047 292.769 358.935 292.775C361.272 292.774 363.609 292.763 365.946 292.743C369.221 292.719 372.493 292.732 375.767 292.755C376.724 292.74 377.681 292.725 378.668 292.709C385.69 292.818 390.292 294.752 395.5 299.5C400.597 305.646 400.08 311.993 400.049 319.728C400.058 321.064 400.068 322.4 400.08 323.736C400.107 327.35 400.108 330.964 400.103 334.578C400.101 337.602 400.111 340.626 400.12 343.65C400.142 350.789 400.143 357.927 400.131 365.066C400.119 372.414 400.144 379.761 400.186 387.109C400.222 393.433 400.234 399.756 400.227 406.08C400.224 409.851 400.229 413.62 400.257 417.39C400.282 420.938 400.278 424.485 400.252 428.033C400.245 429.943 400.267 431.854 400.291 433.764C400.197 441.534 399 446.811 393.5 452.5C388.324 457.122 382.691 457.084 376.026 457.049C374.481 457.065 374.481 457.065 372.904 457.08C369.511 457.108 366.119 457.106 362.727 457.102C360.359 457.109 357.992 457.118 355.624 457.127C350.666 457.142 345.709 457.142 340.751 457.131C334.41 457.12 328.07 457.154 321.73 457.2C316.841 457.23 311.953 457.231 307.065 457.225C304.728 457.226 302.391 457.236 300.054 457.257C296.779 457.281 293.507 457.268 290.233 457.245C289.276 457.26 288.319 457.275 287.332 457.291C280.309 457.182 275.708 455.247 270.5 450.5C265.403 444.354 265.92 438.007 265.951 430.272C265.942 428.936 265.932 427.6 265.92 426.263C265.893 422.65 265.892 419.036 265.897 415.422C265.899 412.398 265.889 409.374 265.88 406.35C265.857 399.211 265.856 392.072 265.869 384.934C265.881 377.586 265.856 370.239 265.813 362.891C265.778 356.567 265.766 350.243 265.773 343.92C265.776 340.149 265.771 336.38 265.743 332.609C265.718 329.061 265.722 325.515 265.748 321.967C265.755 320.057 265.733 318.146 265.709 316.236C265.803 308.466 267 303.189 272.5 297.5C277.676 292.878 283.309 292.916 289.974 292.951ZM298.5 305.5C298.5 351.7 298.5 397.9 298.5 445.5C311.762 445.541 325.024 445.582 338.687 445.625C342.871 445.643 347.054 445.661 351.364 445.68C355.123 445.687 355.123 445.687 358.881 445.691C360.552 445.694 362.223 445.701 363.893 445.711C366.428 445.726 368.962 445.728 371.497 445.727C372.608 445.738 372.608 445.738 373.742 445.749C378.617 445.729 382.368 445.175 386.25 442.125C388.713 438.923 388.626 435.337 388.634 431.421C388.638 430.396 388.642 429.371 388.647 428.316C388.646 427.197 388.646 426.078 388.645 424.926C388.649 423.743 388.652 422.561 388.655 421.343C388.663 418.103 388.667 414.863 388.667 411.624C388.668 409.599 388.67 407.574 388.673 405.549C388.682 398.482 388.686 391.416 388.685 384.349C388.685 377.765 388.695 371.182 388.711 364.598C388.724 358.942 388.729 353.286 388.729 347.63C388.729 344.253 388.731 340.877 388.742 337.5C388.752 333.735 388.749 329.969 388.743 326.203C388.748 325.087 388.754 323.97 388.76 322.82C388.756 321.792 388.751 320.765 388.747 319.706C388.748 318.816 388.748 317.926 388.749 317.009C388.394 313.434 387.347 310.578 385.125 307.75C381.219 304.745 376.317 305.364 371.61 305.386C370.807 305.386 370.004 305.386 369.176 305.386C366.581 305.387 363.986 305.394 361.391 305.402C359.786 305.404 358.182 305.405 356.578 305.405C350.635 305.411 344.692 305.425 338.75 305.437C325.467 305.458 312.185 305.479 298.5 305.5ZM281.375 308.25C278.408 311.811 278.375 315.05 278.366 319.579C278.362 320.604 278.358 321.629 278.353 322.684C278.354 323.803 278.354 324.921 278.355 326.074C278.351 327.256 278.348 328.439 278.344 329.657C278.337 332.897 278.333 336.137 278.333 339.376C278.332 341.401 278.33 343.426 278.327 345.451C278.318 352.518 278.314 359.584 278.315 366.651C278.315 373.235 278.305 379.818 278.289 386.402C278.276 392.058 278.27 397.714 278.271 403.37C278.271 406.747 278.269 410.123 278.258 413.5C278.248 417.265 278.251 421.031 278.257 424.797C278.251 425.913 278.246 427.03 278.24 428.18C278.244 429.208 278.248 430.235 278.253 431.294C278.252 432.184 278.252 433.074 278.251 433.991C278.61 437.611 279.676 440.461 281.937 443.312C283.571 444.802 283.571 444.802 286.5 444.5C286.5 398.96 286.5 353.42 286.5 306.5C283.427 306.182 283.427 306.182 281.375 308.25Z" fill="#053553"/>
<path d="M141.5 319.5C142.5 320.5 142.5 320.5 142.562 324.313C142.717 326.51 142.717 326.51 143.5 328.5C145.392 329.909 147.257 330.691 149.437 331.582C154.594 333.877 157.699 338.798 160.5 343.5C161.398 346.373 161.689 349.059 161.75 352.063C161.776 352.827 161.801 353.591 161.828 354.379C161.413 357.065 160.672 357.906 158.5 359.5C155 359.938 155 359.938 151.5 359.5C148.776 357.246 148.294 354.822 147.562 351.5C146.74 347.788 145.564 345.894 142.5 343.5C139.256 341.878 136.006 341.947 132.5 342.5C129.088 344.423 127.07 345.841 125.769 349.625C125.054 353.817 125.28 356.035 127.125 359.938C130.802 363.905 134.647 364.641 139.875 365.375C148.964 366.983 154.089 371.042 159.5 378.5C162.664 384.553 162.478 392.487 160.883 399.031C158.315 405.667 153.541 410.166 147.437 413.692C145.5 414.5 145.5 414.5 142.5 414.5C142.552 415.422 142.552 415.422 142.605 416.363C142.632 417.172 142.659 417.98 142.687 418.813C142.74 420.013 142.74 420.013 142.793 421.238C142.5 423.5 142.5 423.5 141.176 425.27C138.589 427.169 136.61 426.889 133.5 426.5C131.824 425.27 131.824 425.27 130.5 423.5C130.207 421.238 130.207 421.238 130.312 418.813C130.339 418.004 130.367 417.196 130.394 416.363C130.429 415.749 130.464 415.134 130.5 414.5C129.799 414.418 129.097 414.335 128.375 414.25C122.125 412.62 118.211 408.615 114.5 403.5C111.703 398.388 110.356 393.287 111.5 387.5C113.038 385.629 114.18 384.649 116.375 383.625C119.732 383.428 120.968 384.293 123.5 386.5C124.386 388.726 125.027 390.97 125.683 393.274C127.107 397.156 129.852 399.676 133.5 401.5C138.507 401.726 141.669 401.195 145.562 397.938C148.43 392.851 148.177 389.333 146.812 383.625C145.071 380.805 143.619 380.534 140.5 379.5C138.569 379.165 136.631 378.875 134.687 378.625C126.603 377.326 120.863 374.977 115.754 368.406C111.468 361.891 110.513 355.208 111.5 347.5C113.953 338.968 118.995 334.068 126.5 329.5C127.49 329.17 128.48 328.84 129.5 328.5C129.593 326.613 129.593 326.613 129.687 324.688C130.101 321.453 130.254 320.739 132.687 318.375C136.322 317.244 138.087 317.949 141.5 319.5Z" fill="#053553"/>
<path d="M121.395 130.119C122.209 130.114 123.022 130.11 123.859 130.105C126.593 130.093 129.327 130.102 132.061 130.112C134.017 130.108 135.973 130.102 137.929 130.096C143.249 130.082 148.569 130.088 153.889 130.097C159.449 130.105 165.009 130.098 170.569 130.093C179.907 130.087 189.245 130.095 198.584 130.109C209.389 130.125 220.195 130.12 231.001 130.103C240.268 130.09 249.535 130.088 258.802 130.096C264.342 130.1 269.881 130.101 275.421 130.091C280.628 130.083 285.835 130.088 291.042 130.106C292.956 130.11 294.871 130.109 296.785 130.102C299.392 130.094 301.998 130.104 304.605 130.119C305.75 130.109 305.75 130.109 306.918 130.099C311.993 130.156 311.993 130.156 314.47 131.836C316.095 134.462 315.876 136.495 315.5 139.5C314.47 141.164 314.47 141.164 312.5 142.5C309.792 142.795 307.314 142.905 304.605 142.881C303.792 142.886 302.979 142.89 302.141 142.895C299.407 142.907 296.673 142.898 293.94 142.888C291.983 142.892 290.027 142.898 288.071 142.904C282.751 142.918 277.431 142.913 272.111 142.903C266.551 142.895 260.991 142.902 255.431 142.907C246.093 142.913 236.755 142.905 227.417 142.891C216.611 142.875 205.805 142.88 194.999 142.897C185.732 142.91 176.465 142.912 167.198 142.904C161.658 142.9 156.119 142.899 150.58 142.909C145.372 142.918 140.166 142.912 134.958 142.894C133.044 142.89 131.13 142.891 129.215 142.898C126.608 142.906 124.002 142.896 121.395 142.881C120.632 142.888 119.868 142.894 119.082 142.901C114.008 142.844 114.008 142.844 111.53 141.164C109.905 138.538 110.124 136.506 110.5 133.5C113.025 129.422 117.098 130.081 121.395 130.119Z" fill="#053553"/>
<path d="M121.395 100.119C122.209 100.114 123.022 100.11 123.859 100.105C126.593 100.093 129.327 100.102 132.061 100.112C134.017 100.108 135.973 100.102 137.929 100.096C143.249 100.082 148.569 100.088 153.889 100.097C159.449 100.105 165.009 100.098 170.569 100.093C179.907 100.087 189.245 100.095 198.584 100.109C209.389 100.125 220.195 100.12 231.001 100.103C240.268 100.09 249.535 100.088 258.802 100.096C264.342 100.1 269.881 100.101 275.421 100.091C280.628 100.083 285.835 100.088 291.042 100.106C292.956 100.11 294.871 100.109 296.785 100.102C299.392 100.094 301.998 100.104 304.605 100.119C305.75 100.109 305.75 100.109 306.918 100.099C311.993 100.156 311.993 100.156 314.47 101.836C316.095 104.462 315.876 106.495 315.5 109.5C314.47 111.164 314.47 111.164 312.5 112.5C309.792 112.795 307.314 112.905 304.605 112.881C303.792 112.886 302.979 112.89 302.141 112.895C299.407 112.907 296.673 112.898 293.94 112.888C291.983 112.892 290.027 112.898 288.071 112.904C282.751 112.918 277.431 112.913 272.111 112.903C266.551 112.895 260.991 112.902 255.431 112.907C246.093 112.913 236.755 112.905 227.417 112.891C216.611 112.875 205.805 112.88 194.999 112.897C185.732 112.91 176.465 112.912 167.198 112.904C161.658 112.9 156.119 112.899 150.58 112.909C145.372 112.918 140.166 112.912 134.958 112.894C133.044 112.89 131.13 112.891 129.215 112.898C126.608 112.906 124.002 112.896 121.395 112.881C120.632 112.888 119.868 112.894 119.082 112.901C114.008 112.844 114.008 112.844 111.53 111.164C109.905 108.538 110.124 106.506 110.5 103.5C113.025 99.4223 117.098 100.081 121.395 100.119Z" fill="#053553"/>
<path d="M121.395 69.1191C122.209 69.1144 123.022 69.1097 123.859 69.1049C126.593 69.0929 129.327 69.1024 132.061 69.1119C134.017 69.1078 135.973 69.1025 137.929 69.0959C143.249 69.0822 148.569 69.0876 153.889 69.0971C159.449 69.1046 165.009 69.0976 170.569 69.0929C179.907 69.0874 189.245 69.0947 198.584 69.1089C209.389 69.1253 220.195 69.12 231.001 69.1034C240.268 69.0898 249.535 69.0879 258.802 69.0958C264.342 69.1005 269.881 69.101 275.421 69.0912C280.628 69.0825 285.835 69.0885 291.042 69.1058C292.956 69.1098 294.871 69.1086 296.785 69.1021C299.392 69.0939 301.998 69.1041 304.605 69.1191C305.75 69.1091 305.75 69.1091 306.918 69.0988C311.993 69.1557 311.993 69.1557 314.47 70.8364C316.095 73.4616 315.876 75.4945 315.5 78.5C314.47 80.1637 314.47 80.1637 312.5 81.5C309.792 81.7948 307.314 81.9047 304.605 81.881C303.792 81.8857 302.979 81.8904 302.141 81.8952C299.407 81.9072 296.673 81.8976 293.94 81.8882C291.983 81.8923 290.027 81.8976 288.071 81.9042C282.751 81.9179 277.431 81.9125 272.111 81.903C266.551 81.8954 260.991 81.9025 255.431 81.9072C246.093 81.9126 236.755 81.9054 227.417 81.8912C216.611 81.8748 205.805 81.8801 194.999 81.8966C185.732 81.9102 176.465 81.9122 167.198 81.9043C161.658 81.8996 156.119 81.899 150.58 81.9089C145.372 81.9176 140.166 81.9116 134.958 81.8942C133.044 81.8903 131.13 81.8914 129.215 81.898C126.608 81.9062 124.002 81.896 121.395 81.881C120.632 81.8877 119.868 81.8944 119.082 81.9013C114.008 81.8443 114.008 81.8443 111.53 80.1637C109.905 77.5384 110.124 75.5056 110.5 72.5C113.025 68.4223 117.098 69.0814 121.395 69.1191Z" fill="#053553"/>
<path d="M57.375 97.2344C58.0762 97.2395 58.7775 97.2447 59.5 97.25C60.2012 97.2448 60.9025 97.2397 61.625 97.2344C63.5 97.5 63.5 97.5 65.5 99.5C65.7544 102.143 65.7544 102.143 65.7607 105.567C65.7678 106.861 65.7748 108.155 65.7821 109.489C65.7798 110.931 65.7773 112.374 65.7746 113.816C65.779 115.329 65.7842 116.841 65.7901 118.354C65.8035 122.47 65.8041 126.585 65.8016 130.701C65.8005 134.133 65.8054 137.565 65.8102 140.997C65.8213 149.092 65.8217 157.187 65.8156 165.282C65.8096 173.641 65.8219 182 65.8432 190.36C65.8608 197.529 65.8668 204.699 65.8636 211.868C65.8618 216.153 65.8644 220.438 65.8783 224.724C65.8908 228.753 65.889 232.782 65.8759 236.811C65.8735 238.292 65.8763 239.773 65.8845 241.253C65.8949 243.271 65.8851 245.289 65.8742 247.306C65.8744 248.437 65.8745 249.567 65.8747 250.731C65.5 253.5 65.5 253.5 64.1641 255.364C61.5638 257.139 59.5563 256.882 56.5 256.5C54.8359 255.364 54.8359 255.364 53.5 253.5C53.1252 250.731 53.1252 250.731 53.1257 247.306C53.1187 246.009 53.1117 244.712 53.1045 243.376C53.1119 241.935 53.1197 240.495 53.1277 239.054C53.1252 237.54 53.1215 236.026 53.1166 234.511C53.1072 230.396 53.1166 226.28 53.1299 222.165C53.1412 217.863 53.1371 213.561 53.1352 209.259C53.1343 202.035 53.1454 194.811 53.1638 187.588C53.185 179.228 53.1885 170.868 53.1822 162.508C53.1765 154.475 53.1822 146.442 53.1934 138.409C53.1981 134.986 53.1989 131.563 53.1968 128.14C53.1949 124.112 53.203 120.085 53.2189 116.057C53.2231 114.576 53.224 113.095 53.2212 111.614C53.218 109.598 53.2282 107.582 53.2393 105.567C53.2413 104.437 53.2434 103.307 53.2455 102.143C53.5449 99.0331 54.1336 97.6936 57.375 97.2344Z" fill="#053553"/>
<path d="M184.649 221.36C185.765 221.354 186.882 221.348 188.032 221.342C189.267 221.341 190.502 221.34 191.775 221.339C193.068 221.334 194.36 221.329 195.692 221.324C199.248 221.311 202.803 221.304 206.359 221.3C208.579 221.297 210.799 221.293 213.018 221.288C219.958 221.275 226.897 221.265 233.837 221.261C241.858 221.257 249.878 221.239 257.899 221.21C264.091 221.189 270.284 221.178 276.477 221.177C280.179 221.176 283.881 221.17 287.582 221.152C291.71 221.133 295.838 221.137 299.966 221.144C301.198 221.134 302.429 221.125 303.698 221.116C305.38 221.124 305.38 221.124 307.097 221.133C308.074 221.131 309.05 221.13 310.057 221.128C312.5 221.5 312.5 221.5 314.314 222.836C316.158 225.424 315.885 227.419 315.5 230.5C314.313 232.163 314.313 232.163 312.5 233.5C310.062 233.883 310.062 233.883 307.11 233.895C305.991 233.906 304.873 233.917 303.72 233.929C302.492 233.926 301.263 233.923 299.998 233.92C298.705 233.928 297.412 233.937 296.08 233.946C292.533 233.968 288.986 233.971 285.438 233.969C282.478 233.969 279.518 233.977 276.558 233.986C269.577 234.005 262.596 234.008 255.615 234.001C248.408 233.994 241.202 234.017 233.995 234.054C227.81 234.085 221.626 234.096 215.442 234.093C211.747 234.09 208.052 234.096 204.357 234.12C200.238 234.147 196.121 234.133 192.002 234.115C190.774 234.129 189.546 234.142 188.28 234.156C187.161 234.144 186.043 234.133 184.89 234.122C183.916 234.122 182.942 234.123 181.938 234.124C179.5 233.5 179.5 233.5 177.616 231.164C176.5 228.5 176.5 228.5 177.25 225.25C179.209 220.939 180.042 221.374 184.649 221.36Z" fill="#053553"/>
<path d="M184.649 172.36C185.765 172.354 186.882 172.348 188.032 172.342C189.267 172.341 190.502 172.34 191.775 172.339C193.068 172.334 194.36 172.329 195.692 172.324C199.248 172.311 202.803 172.304 206.359 172.3C208.579 172.297 210.799 172.293 213.018 172.288C219.958 172.275 226.897 172.265 233.837 172.261C241.858 172.257 249.878 172.239 257.899 172.21C264.091 172.189 270.284 172.178 276.477 172.177C280.179 172.176 283.881 172.17 287.582 172.152C291.71 172.133 295.838 172.137 299.966 172.144C301.198 172.134 302.429 172.125 303.698 172.116C305.38 172.124 305.38 172.124 307.097 172.133C308.074 172.131 309.05 172.13 310.057 172.128C312.5 172.5 312.5 172.5 314.314 173.836C316.158 176.424 315.885 178.419 315.5 181.5C314.313 183.163 314.313 183.163 312.5 184.5C310.062 184.883 310.062 184.883 307.11 184.895C305.991 184.906 304.873 184.917 303.72 184.929C302.492 184.926 301.263 184.923 299.998 184.92C298.705 184.928 297.412 184.937 296.08 184.946C292.533 184.968 288.986 184.971 285.438 184.969C282.478 184.969 279.518 184.977 276.558 184.986C269.577 185.005 262.596 185.008 255.615 185.001C248.408 184.994 241.202 185.017 233.995 185.054C227.81 185.085 221.626 185.096 215.442 185.093C211.747 185.09 208.052 185.096 204.357 185.12C200.238 185.147 196.121 185.133 192.002 185.115C190.774 185.129 189.546 185.142 188.28 185.156C187.161 185.144 186.043 185.133 184.89 185.122C183.916 185.122 182.942 185.123 181.938 185.124C179.5 184.5 179.5 184.5 177.616 182.164C176.5 179.5 176.5 179.5 177.25 176.25C179.209 171.939 180.042 172.374 184.649 172.36Z" fill="#053553"/>
<path d="M311.832 359.096C312.703 359.083 313.574 359.07 314.472 359.057C315.878 359.062 315.878 359.062 317.313 359.066C318.761 359.058 318.761 359.058 320.238 359.05C322.279 359.044 324.32 359.045 326.361 359.054C329.488 359.062 332.615 359.034 335.742 359.002C337.724 359 339.706 359.001 341.688 359.004C342.625 358.993 343.563 358.981 344.529 358.97C350.967 359.039 350.967 359.039 353.625 361.336C354.86 364.39 354.384 366.373 353.5 369.5C351.1 371.9 350.556 371.755 347.282 371.775C346.411 371.784 345.54 371.794 344.642 371.803C343.699 371.802 342.757 371.802 341.785 371.801C340.819 371.805 339.852 371.809 338.856 371.814C336.809 371.819 334.762 371.82 332.715 371.816C329.579 371.812 326.443 371.836 323.307 371.861C321.321 371.863 319.334 371.864 317.348 371.863C316.407 371.872 315.466 371.882 314.497 371.891C313.623 371.885 312.749 371.879 311.848 371.872C310.695 371.873 310.695 371.873 309.518 371.874C306.944 371.397 306.06 370.574 304.5 368.5C303.857 363.353 303.857 363.353 305.753 360.838C307.935 359.167 309.103 359.115 311.832 359.096Z" fill="#053553"/>
<path d="M336.649 340.112C337.48 340.102 338.311 340.093 339.167 340.083C340.06 340.089 340.954 340.095 341.875 340.102C342.796 340.099 343.717 340.096 344.666 340.093C346.612 340.091 348.559 340.096 350.506 340.109C353.489 340.125 356.47 340.109 359.453 340.09C361.344 340.092 363.235 340.096 365.125 340.102C366.019 340.096 366.913 340.09 367.834 340.083C369.08 340.097 369.08 340.097 370.352 340.112C371.447 340.115 371.447 340.115 372.565 340.119C375.076 340.613 375.966 341.481 377.5 343.5C378.144 348.653 378.144 348.653 376.236 351.163C374.104 352.806 373.021 352.88 370.352 352.888C369.105 352.902 369.105 352.902 367.834 352.917C366.94 352.911 366.046 352.905 365.125 352.899C363.744 352.903 363.744 352.903 362.335 352.907C360.388 352.909 358.441 352.904 356.494 352.891C353.511 352.875 350.53 352.891 347.547 352.91C345.656 352.908 343.766 352.904 341.875 352.899C340.981 352.905 340.088 352.911 339.167 352.917C338.336 352.907 337.505 352.898 336.649 352.888C335.918 352.886 335.188 352.884 334.435 352.881C331.924 352.387 331.035 351.519 329.5 349.5C328.856 344.347 328.856 344.347 330.764 341.837C332.897 340.195 333.98 340.121 336.649 340.112Z" fill="#053553"/>
<path d="M147.416 281.178C148.578 281.181 149.74 281.184 150.937 281.188C152.096 281.171 153.254 281.155 154.447 281.139C155.556 281.138 156.666 281.137 157.808 281.137C159.337 281.132 159.337 281.132 160.896 281.128C163.5 281.5 163.5 281.5 165.332 282.835C167.151 285.428 166.884 287.428 166.5 290.5C165.33 292.16 165.33 292.16 163.5 293.5C159.363 294.146 155.181 293.963 151 293.938C149.269 293.968 149.269 293.968 147.504 293.998C145.847 293.997 145.847 293.997 144.156 293.996C143.144 293.998 142.131 294 141.088 294.002C138.5 293.5 138.5 293.5 136.635 291.664C135.033 288.61 135.58 286.754 136.5 283.5C139.649 280.351 143.119 281.205 147.416 281.178Z" fill="#053553"/>
<path d="M147.416 221.178C148.578 221.181 149.74 221.184 150.937 221.188C152.096 221.171 153.254 221.155 154.447 221.139C155.556 221.138 156.666 221.137 157.808 221.137C159.337 221.132 159.337 221.132 160.896 221.128C163.5 221.5 163.5 221.5 165.332 222.835C167.151 225.428 166.884 227.428 166.5 230.5C165.33 232.16 165.33 232.16 163.5 233.5C159.363 234.146 155.181 233.963 151 233.938C149.269 233.968 149.269 233.968 147.504 233.998C145.847 233.997 145.847 233.997 144.156 233.996C143.144 233.998 142.131 234 141.088 234.002C138.5 233.5 138.5 233.5 136.635 231.664C135.033 228.61 135.58 226.754 136.5 223.5C139.649 220.351 143.119 221.205 147.416 221.178Z" fill="#053553"/>
<path d="M147.416 172.178C148.578 172.181 149.74 172.184 150.937 172.188C152.096 172.171 153.254 172.155 154.447 172.139C155.556 172.138 156.666 172.137 157.808 172.137C159.337 172.132 159.337 172.132 160.896 172.128C163.5 172.5 163.5 172.5 165.332 173.835C167.151 176.428 166.884 178.428 166.5 181.5C165.33 183.16 165.33 183.16 163.5 184.5C159.363 185.146 155.181 184.963 151 184.938C149.269 184.968 149.269 184.968 147.504 184.998C145.847 184.997 145.847 184.997 144.156 184.996C143.144 184.998 142.131 185 141.088 185.002C138.5 184.5 138.5 184.5 136.635 182.664C135.033 179.61 135.58 177.754 136.5 174.5C139.649 171.351 143.119 172.205 147.416 172.178Z" fill="#053553"/>
<path d="M315 340.125C316.015 340.108 316.015 340.108 317.051 340.09C319.963 340.107 322.008 340.162 324.446 341.836C326.106 344.456 325.877 346.483 325.5 349.5C324.446 351.164 324.446 351.164 322.5 352.5C319.9 352.799 317.593 352.919 315 352.875C314.323 352.887 313.647 352.898 312.949 352.91C310.037 352.893 307.993 352.838 305.555 351.164C303.895 348.544 304.123 346.517 304.5 343.5C307.004 339.549 310.775 340.053 315 340.125Z" fill="#053553"/>
<path d="M360.5 359.5C363.652 359.102 363.652 359.102 367.437 359.125C368.684 359.117 369.93 359.11 371.215 359.102C374.5 359.5 374.5 359.5 376.418 360.836C378.117 363.449 377.879 365.47 377.5 368.5C376.383 370.164 376.383 370.164 374.5 371.5C371.469 371.898 371.469 371.898 368 371.875C366.283 371.887 366.283 371.887 364.531 371.898C361.5 371.5 361.5 371.5 359.613 370.164C357.89 367.588 358.186 365.515 358.5 362.5C359.16 361.51 359.82 360.52 360.5 359.5Z" fill="#053553"/>
<path d="M62.5 76.5C63.49 77.16 64.48 77.82 65.5 78.5C65.9336 80.9961 65.9336 80.9961 65.9375 83.9375C65.9568 84.9056 65.9762 85.8737 65.9961 86.8711C65.5 89.5 65.5 89.5 63.668 91.3594C60.6116 92.9674 58.7584 92.4209 55.5 91.5C52.8883 88.8883 53.2018 87.628 53.1875 84C53.1707 83.0203 53.154 82.0406 53.1367 81.0313C53.2566 80.1959 53.3765 79.3606 53.5 78.5C56.97 76.1867 58.4251 76.1604 62.5 76.5Z" fill="#053553"/>
<path d="M118 281.125C118.774 281.117 119.547 281.11 120.344 281.102C123.007 281.594 123.894 282.348 125.5 284.5C126.143 289.639 126.143 289.639 124.258 292.164C122.038 293.852 120.765 293.903 118 293.875C117.227 293.883 116.453 293.89 115.656 293.898C112.993 293.406 112.106 292.652 110.5 290.5C109.858 285.361 109.858 285.361 111.742 282.836C113.963 281.148 115.235 281.097 118 281.125Z" fill="#053553"/>
<path d="M118 221.125C118.774 221.117 119.547 221.11 120.344 221.102C123.007 221.594 123.894 222.348 125.5 224.5C126.143 229.639 126.143 229.639 124.258 232.164C122.038 233.852 120.765 233.903 118 233.875C117.227 233.883 116.453 233.89 115.656 233.898C112.993 233.406 112.106 232.652 110.5 230.5C109.858 225.361 109.858 225.361 111.742 222.836C113.963 221.148 115.235 221.097 118 221.125Z" fill="#053553"/>
<path d="M118 172.125C118.774 172.117 119.547 172.11 120.344 172.102C123.007 172.594 123.894 173.348 125.5 175.5C126.143 180.639 126.143 180.639 124.258 183.164C122.038 184.852 120.765 184.903 118 184.875C117.227 184.883 116.453 184.89 115.656 184.898C112.993 184.406 112.106 183.652 110.5 181.5C109.858 176.361 109.858 176.361 111.742 173.836C113.963 172.148 115.235 172.097 118 172.125Z" fill="#053553"/>
</svg>
