<svg width="513" height="513" viewBox="0 0 513 513" fill="none" xmlns="http://www.w3.org/2000/svg">
<path d="M56.0585 7.9987C57.6535 7.9904 57.6535 7.9904 59.2807 7.98193C62.8437 7.96832 66.406 7.9833 69.969 7.9982C72.5233 7.99442 75.0776 7.98892 77.6319 7.98183C83.8493 7.9693 90.0664 7.97545 96.2837 7.9905C103.524 8.00737 110.765 8.00415 118.006 8.00041C130.925 7.99453 143.843 8.0087 156.762 8.03336C169.297 8.05728 181.833 8.06436 194.368 8.05386C208.021 8.04245 221.673 8.04052 235.325 8.05496C236.781 8.05649 238.236 8.05801 239.692 8.05952C240.408 8.06028 241.124 8.06104 241.862 8.06182C246.909 8.06656 251.957 8.06471 257.004 8.06046C263.796 8.05502 270.588 8.06577 277.38 8.08741C279.876 8.09299 282.371 8.09344 284.867 8.08846C288.268 8.08252 291.668 8.09498 295.068 8.11223C296.558 8.10321 296.558 8.10321 298.078 8.09402C303.025 8.13981 306.511 8.22532 310.5 11.4999C314.149 15.8392 313.91 20.0231 313.841 25.4211C313.841 26.3094 313.841 27.1977 313.842 28.1129C313.84 31.0403 313.816 33.9671 313.793 36.8944C313.787 38.9275 313.783 40.9606 313.78 42.9937C313.769 48.3384 313.739 53.6828 313.706 59.0274C313.675 64.4837 313.662 69.94 313.646 75.3964C313.614 86.0977 313.563 96.7988 313.5 107.5C315.037 107.448 315.037 107.448 316.605 107.394C317.966 107.366 319.327 107.339 320.688 107.312C321.361 107.287 322.035 107.262 322.729 107.236C327.222 107.17 329.922 107.772 333.5 110.5C337.583 114.923 338.638 118.138 338.598 124.047C338.594 124.891 338.591 125.735 338.588 126.605C338.579 127.478 338.571 128.351 338.562 129.25C338.558 130.138 338.553 131.026 338.549 131.941C338.537 134.128 338.521 136.314 338.5 138.5C339.747 138.493 340.994 138.487 342.278 138.48C354.076 138.419 365.874 138.374 377.672 138.344C383.736 138.329 389.801 138.308 395.865 138.274C401.726 138.241 407.588 138.223 413.449 138.215C415.676 138.21 417.903 138.199 420.13 138.183C444.018 138.015 465.215 141.623 483.531 158.437C497.78 173.364 504.841 191.193 505.031 211.609C504.384 215.133 503.263 216.294 500.5 218.5C498.034 219.733 496.425 219.623 493.666 219.62C492.135 219.622 492.135 219.622 490.572 219.624C489.448 219.621 488.324 219.617 487.166 219.613C485.985 219.614 484.805 219.614 483.588 219.614C480.347 219.613 477.105 219.608 473.864 219.601C470.478 219.595 467.092 219.594 463.706 219.593C457.292 219.59 450.878 219.582 444.465 219.572C437.164 219.561 429.863 219.555 422.562 219.55C407.541 219.54 392.521 219.522 377.5 219.5C377.503 220.631 377.506 221.762 377.508 222.928C377.575 250.489 377.624 278.049 377.655 305.61C377.671 318.939 377.692 332.267 377.726 345.595C377.756 357.216 377.776 368.837 377.782 380.457C377.786 386.607 377.795 392.757 377.817 398.906C377.838 404.703 377.844 410.499 377.839 416.295C377.84 418.415 377.846 420.534 377.858 422.654C377.981 446.534 373.492 466.711 356.812 484.75C343.107 497.638 325.724 504.822 307.003 504.774C305.983 504.779 304.962 504.785 303.91 504.79C300.509 504.805 297.108 504.806 293.707 504.806C291.26 504.814 288.814 504.822 286.367 504.832C279.732 504.853 273.098 504.862 266.463 504.867C262.312 504.871 258.161 504.877 254.01 504.884C242.494 504.904 230.979 504.92 219.463 504.923C218.727 504.923 217.991 504.924 217.233 504.924C215.742 504.924 214.25 504.925 212.759 504.925C211.649 504.925 211.649 504.925 210.516 504.925C209.404 504.926 209.404 504.926 208.27 504.926C196.277 504.93 184.284 504.957 172.291 504.994C159.948 505.032 147.604 505.051 135.261 505.052C128.343 505.052 121.425 505.061 114.507 505.09C107.993 505.117 101.479 505.118 94.965 505.102C92.5855 505.1 90.206 505.107 87.8266 505.123C65.2963 505.265 46.7378 501.942 29.8047 485.793C29.0441 485.036 28.2836 484.28 27.5 483.5C26.452 482.504 26.452 482.504 25.3828 481.488C12.4748 468.304 8.3288 450.919 7.90625 433.031C8.5 429.5 8.5 429.5 10.5938 426.531C14.3203 423.927 16.0321 423.731 20.5 424.5C23.0234 426.07 25.0333 427.52 27.25 429.437C27.8476 429.931 28.4453 430.424 29.061 430.933C30.2858 431.946 31.5048 432.967 32.7178 433.994C34.4139 435.427 36.1271 436.835 37.8516 438.234C40.4111 440.311 42.9594 442.4 45.5 444.5C51.1325 440.492 56.204 436.134 61.1982 431.372C64.9015 427.886 68.2506 424.95 73.3125 423.937C80.8854 425.274 86.6142 432.365 92.0898 437.375C95.0834 440.014 98.1931 442.271 101.5 444.5C102.248 443.813 102.995 443.126 103.766 442.418C104.76 441.508 105.755 440.597 106.75 439.687C107.241 439.236 107.732 438.784 108.238 438.318C112.274 434.632 112.274 434.632 114.642 433.245C116.778 431.588 116.778 431.588 117.008 428.648C117.013 426.893 117.013 426.893 117.019 425.103C117.026 424.451 117.034 423.799 117.042 423.128C117.062 420.939 117.054 418.752 117.046 416.564C117.055 414.997 117.065 413.43 117.077 411.863C117.105 407.605 117.108 403.347 117.108 399.089C117.111 394.641 117.136 390.192 117.159 385.744C117.2 377.319 117.22 368.893 117.233 360.468C117.249 350.877 117.288 341.286 117.328 331.694C117.411 311.963 117.465 292.232 117.5 272.5C116.656 272.51 116.656 272.51 115.794 272.52C109.922 272.587 104.049 272.632 98.1763 272.665C95.9861 272.68 93.796 272.7 91.606 272.726C88.4534 272.763 85.3012 272.78 82.1484 272.793C81.1732 272.808 80.198 272.824 79.1932 272.84C73.9127 272.841 69.9381 272.688 65.5 269.5C61.1519 264.64 60.9384 260.664 61.0459 254.465C61.0453 253.577 61.0447 252.688 61.0441 251.773C61.0469 248.851 61.078 245.93 61.1094 243.008C61.1168 240.976 61.1225 238.944 61.1265 236.913C61.1418 231.576 61.181 226.24 61.2253 220.904C61.2663 215.454 61.2845 210.004 61.3047 204.555C61.3475 193.87 61.4158 183.185 61.5 172.5C60.4146 172.546 59.3292 172.593 58.2109 172.641C56.7657 172.678 55.3203 172.714 53.875 172.75C53.1621 172.783 52.4493 172.817 51.7148 172.851C46.5331 172.947 43.4369 172.171 39.5 168.5C35.7275 161.574 36.0747 154.608 36.1118 146.867C36.1077 145.5 36.1024 144.132 36.0959 142.765C36.0823 139.07 36.0875 135.376 36.097 131.682C36.1047 127.805 36.0976 123.928 36.0929 120.05C36.0874 113.541 36.0946 107.031 36.1089 100.521C36.1252 93.0096 36.1199 85.498 36.1034 77.9862C36.0898 71.5214 36.0879 65.0567 36.0957 58.5919C36.1004 54.7374 36.1011 50.8831 36.0911 47.0287C36.0824 43.4039 36.0885 39.7794 36.1058 36.1546C36.1116 34.2001 36.1028 32.2455 36.0934 30.291C36.1408 23.6994 36.3129 18.3514 39.5 12.4999C44.7609 7.82751 49.377 7.93393 56.0585 7.9987ZM53.5 24.4999C53.5 67.7299 53.5 110.96 53.5 155.5C56.14 155.5 58.78 155.5 61.5 155.5C61.5014 154.233 61.5028 152.966 61.5043 151.661C61.521 139.728 61.5637 127.795 61.6321 115.862C61.6664 109.726 61.6915 103.591 61.6956 97.4562C61.6998 91.5362 61.7282 85.6167 61.7734 79.6969C61.7864 77.4375 61.7907 75.178 61.7862 72.9185C61.7813 69.7553 61.8073 66.5938 61.8406 63.4308C61.832 62.495 61.8233 61.5592 61.8144 60.5951C61.8935 56.1208 62.02 54.126 64.8147 50.4808C67.8827 48.2176 70.9787 46.9345 74.5 45.4999C77.8196 42.7772 78.899 39.4624 80.4375 35.5585C81.5 33.4999 81.5 33.4999 84.5 31.4999C86.9497 31.3007 89.2863 31.2173 91.7365 31.2258C92.8499 31.2179 92.8499 31.2179 93.9858 31.2099C96.48 31.1948 98.974 31.1942 101.468 31.1935C103.254 31.1859 105.039 31.1775 106.824 31.1683C111.68 31.1463 116.535 31.1375 121.391 31.1325C124.423 31.1288 127.455 31.1226 130.487 31.1155C141.062 31.091 151.636 31.0779 162.21 31.0744C172.073 31.0707 181.936 31.0408 191.799 30.999C200.262 30.9643 208.725 30.9488 217.188 30.9481C222.244 30.9473 227.301 30.9385 232.357 30.9101C237.113 30.884 241.868 30.8817 246.624 30.8978C248.37 30.8996 250.116 30.8929 251.862 30.877C254.245 30.8566 256.626 30.867 259.009 30.8852C259.701 30.872 260.393 30.8588 261.105 30.8452C264.93 30.9118 266.417 31.4314 269.408 33.905C271.313 36.2679 272.233 37.7475 273 40.6249C273.973 43.5053 274.302 44.3407 276.75 46.3124C278.885 47.2342 281.034 48.1237 283.188 48.9999C286.5 50.4999 286.5 50.4999 288.5 53.4999C288.778 55.9107 288.778 55.9107 288.819 58.7975C288.849 60.4189 288.849 60.4189 288.879 62.073C288.896 63.8215 288.896 63.8215 288.914 65.6054C288.943 67.3969 288.943 67.3969 288.973 69.2246C289.033 73.0455 289.079 76.8664 289.125 80.6874C289.163 83.2753 289.202 85.8632 289.242 88.4511C289.338 94.8006 289.423 101.15 289.5 107.5C291.81 107.5 294.12 107.5 296.5 107.5C296.5 80.1099 296.5 52.7199 296.5 24.4999C216.31 24.4999 136.12 24.4999 53.5 24.4999ZM89.8178 51.8819C89.4114 52.6966 89.0051 53.5113 88.5865 54.3507C87.1659 57.1608 85.4843 58.0844 82.6799 59.4106C79.3894 61.4097 79.3894 61.4097 77.719 64.7479C77.459 67.5172 77.4852 70.1518 77.6211 72.9296C77.6302 73.8082 77.6392 74.6868 77.6486 75.5919C77.6954 78.854 77.8211 82.1146 77.9375 85.3749C78.1231 92.6762 78.3087 99.9774 78.5 107.5C102.26 107.5 126.02 107.5 150.5 107.5C151.16 104.86 151.82 102.22 152.5 99.4999C154.062 97.4374 154.062 97.4374 156.5 96.4999C159.552 96.5737 162.497 96.9673 165.5 97.4999C165.902 98.8921 165.902 98.8921 166.312 100.312C167.659 104.03 167.659 104.03 170.5 106.5C175.833 108.197 178.718 106.891 183.5 104.5C183.087 102.491 183.087 102.491 181.5 100.5C178.717 99.49 176.11 98.6969 173.25 97.9999C165.283 96.0184 159.363 93.5239 154.5 86.4999C152.665 80.9959 152.406 74.6287 154.336 69.1093C156.962 64.4909 160.126 62.2582 164.707 59.7226C167.397 57.8885 168.261 55.4349 169.5 52.4999C173.08 50.1132 174.553 50.1482 178.656 50.7577C180.5 51.4999 180.5 51.4999 182 54.8124C182.495 56.0293 182.99 57.2462 183.5 58.4999C185.243 59.6354 185.243 59.6354 187.312 60.4374C192.238 62.5859 195.169 65.6509 197.5 70.4999C198.165 73.6625 198.243 76.3488 197.5 79.4999C195.352 82.2262 193.957 82.4221 190.562 82.9999C185.86 82.2322 183.981 79.228 181 75.7499C178.839 73.9493 177.299 73.6332 174.5 73.4999C171.717 74.8353 171.717 74.8353 169.5 76.4999C169.995 78.4799 169.995 78.4799 170.5 80.4999C171.478 80.7307 172.457 80.9614 173.465 81.1991C192.455 85.8454 192.455 85.8454 197 92.6874C199.226 97.2707 199.5 102.462 199.5 107.5C223.59 107.5 247.68 107.5 272.5 107.5C272.686 100.199 272.871 92.8974 273.062 85.3749C273.144 83.0802 273.226 80.7855 273.311 78.4213C273.337 76.5908 273.36 74.7602 273.379 72.9296C273.425 71.9887 273.471 71.0477 273.518 70.0783C273.522 67.2757 273.426 65.1481 272.5 62.4999C270.363 60.4602 268.27 59.1056 265.676 57.7021C261.455 55.3702 259.541 51.6873 257.5 47.4999C236.221 47.2897 214.942 47.131 193.662 47.0336C183.781 46.9872 173.901 46.9239 164.021 46.821C155.409 46.7313 146.798 46.6732 138.186 46.6531C133.626 46.6414 129.066 46.6138 124.507 46.5483C120.213 46.4872 115.922 46.4684 111.628 46.4819C110.054 46.4795 108.479 46.4616 106.905 46.4271C96.9787 45.9058 96.9787 45.9058 89.8178 51.8819ZM78.5 124.5C78.5 167.73 78.5 210.96 78.5 255.5C158.69 255.5 238.88 255.5 321.5 255.5C321.5 212.27 321.5 169.04 321.5 124.5C241.31 124.5 161.12 124.5 78.5 124.5ZM338.5 155.5C338.463 162.998 338.425 170.497 338.387 178.223C338.356 182.976 338.325 187.729 338.291 192.482C338.237 200.025 338.186 207.568 338.154 215.111C338.128 221.193 338.087 227.275 338.037 233.357C338.02 235.676 338.009 237.995 338.002 240.314C337.993 243.565 337.965 246.816 337.932 250.067C337.934 251.023 337.935 251.98 337.937 252.966C337.858 258.567 337.171 262.544 334.5 267.5C330.076 271.647 325.6 271.651 319.812 271.658C319.022 271.663 318.231 271.668 317.416 271.673C314.758 271.689 312.1 271.697 309.443 271.705C307.541 271.715 305.639 271.725 303.737 271.735C298.566 271.762 293.395 271.783 288.224 271.803C282.822 271.825 277.421 271.852 272.02 271.879C261.788 271.929 251.557 271.974 241.325 272.017C229.678 272.067 218.032 272.122 206.385 272.177C182.423 272.291 158.462 272.398 134.5 272.5C134.243 292.554 134.049 312.607 133.93 332.662C133.873 341.975 133.796 351.286 133.67 360.598C133.56 368.716 133.49 376.834 133.465 384.953C133.451 389.251 133.417 393.546 133.337 397.843C133.262 401.893 133.239 405.939 133.256 409.99C133.253 411.471 133.231 412.953 133.189 414.434C132.916 423.044 132.916 423.044 136.918 430.34C139.682 432.617 142.484 434.576 145.5 436.5C146.611 437.421 147.704 438.365 148.762 439.348C150.406 440.849 152.052 442.349 153.699 443.848C154.293 444.393 154.888 444.938 155.5 445.5C161.347 441.378 166.582 436.769 171.789 431.867C178.732 425.805 178.732 425.805 183.945 424.906C188.706 425.701 190.936 427.757 194.375 431C194.978 431.543 195.581 432.086 196.202 432.645C197.412 433.738 198.615 434.837 199.812 435.943C202.133 438.084 204.505 440.165 206.875 442.25C208.085 443.332 209.293 444.415 210.5 445.5C215.522 442.784 219.707 439.149 224.062 435.5C225.563 434.249 227.064 432.999 228.566 431.75C229.226 431.198 229.885 430.646 230.565 430.078C231.203 429.557 231.842 429.036 232.5 428.5C233.169 427.946 233.838 427.391 234.527 426.82C237.557 424.792 239.951 425.12 243.5 425.5C245.629 426.531 245.629 426.531 247.5 428.5C248.159 431.189 248.601 433.647 248.938 436.375C251.427 452.705 258.007 465.553 270.656 476.426C284.397 486.448 298.867 488.88 315.5 487.5C319.814 486.672 323.532 485.361 327.5 483.5C328.418 483.099 329.336 482.698 330.281 482.285C343.814 475.728 353.419 463.689 358.375 449.625C360.405 443.072 360.646 436.674 360.638 429.875C360.641 428.912 360.644 427.949 360.647 426.957C360.655 423.733 360.656 420.509 360.658 417.285C360.662 414.972 360.668 412.659 360.673 410.346C360.684 405.365 360.693 400.383 360.699 395.402C360.71 387.517 360.73 379.633 360.752 371.748C360.76 369.047 360.767 366.345 360.775 363.644C360.777 362.631 360.777 362.631 360.78 361.598C360.801 353.918 360.82 346.239 360.838 338.559C360.84 337.857 360.841 337.156 360.843 336.433C360.869 325.078 360.888 313.722 360.904 302.367C360.922 290.69 360.951 279.012 360.989 267.334C361.01 260.785 361.026 254.237 361.028 247.688C361.03 241.522 361.046 235.357 361.073 229.191C361.08 226.936 361.082 224.681 361.078 222.426C361.051 200.691 363.467 179.614 378.949 162.848C380.537 161.27 382.145 159.711 383.777 158.18C384.346 157.625 384.914 157.071 385.5 156.5C385.5 156.17 385.5 155.84 385.5 155.5C369.99 155.5 354.48 155.5 338.5 155.5ZM390.5 174.5C383.848 183.352 379.872 191.525 378.5 202.5C414.14 202.5 449.78 202.5 486.5 202.5C484.849 187.643 478.356 177.387 467.5 167.5C443.91 148.837 410.539 152.344 390.5 174.5ZM67 449.5C52.7646 462.745 52.7646 462.745 46.75 464.75C42.5236 464.425 40.8105 463.135 37.5 460.5C36.0438 459.414 34.5854 458.33 33.125 457.25C31.9155 456.335 30.7067 455.419 29.5 454.5C32.2071 465.058 40.0073 473.932 49.2085 479.541C64.6225 488.169 78.9564 488.652 96.1587 488.613C97.9335 488.613 99.7084 488.613 101.483 488.614C106.276 488.614 111.069 488.608 115.861 488.601C120.879 488.595 125.897 488.594 130.916 488.593C140.407 488.59 149.898 488.582 159.389 488.572C170.199 488.561 181.009 488.555 191.82 488.55C214.046 488.54 236.273 488.522 258.5 488.5C257.539 487.372 256.577 486.246 255.615 485.119C255.079 484.492 254.544 483.864 253.992 483.217C252.428 481.417 250.781 479.715 249.125 478C242.143 470.04 237.342 459.624 234.5 449.5C231.506 451.16 228.825 452.986 226.195 455.164C225.611 455.646 225.027 456.128 224.426 456.625C223.226 457.624 222.033 458.632 220.848 459.648C216.849 462.918 213.864 464.525 208.5 464.5C206.199 463.383 206.199 463.383 204.188 461.625C203.433 460.982 202.679 460.338 201.902 459.676C201.11 458.958 200.317 458.24 199.5 457.5C198.203 456.346 198.203 456.346 196.879 455.168C195.196 453.66 193.522 452.143 191.859 450.613C189.475 448.478 187.016 446.477 184.5 444.5C180.765 446.076 178.247 448.422 175.312 451.187C162.856 462.632 162.856 462.632 156.938 464.812C151.823 464.347 149.244 461.854 145.5 458.5C144.669 457.764 143.837 457.028 142.98 456.269C141.26 454.73 139.548 453.182 137.844 451.625C135.127 449.162 132.341 446.817 129.5 444.5C126.024 446.008 123.634 448.046 120.875 450.625C107.439 462.853 107.439 462.853 101.75 464.75C95.6198 464.278 91.4056 459.672 87.0625 455.625C86.1163 454.754 85.1702 453.882 84.1953 452.984C83.3059 452.164 82.4164 451.345 81.5 450.5C74.2629 443.911 74.2629 443.911 67 449.5Z" fill="#053553"/>
<path d="M117.976 129.112C119.074 129.104 119.074 129.104 120.194 129.096C122.635 129.082 125.076 129.089 127.517 129.096C129.272 129.09 131.027 129.083 132.781 129.075C137.54 129.057 142.298 129.058 147.056 129.064C151.03 129.067 155.003 129.061 158.977 129.055C168.351 129.041 177.726 129.043 187.1 129.054C196.769 129.065 206.438 129.051 216.107 129.025C224.412 129.002 232.717 128.996 241.022 129.002C245.981 129.005 250.94 129.003 255.899 128.985C260.561 128.97 265.223 128.974 269.885 128.993C271.595 128.996 273.305 128.993 275.015 128.983C277.352 128.97 279.687 128.981 282.023 128.999C283.33 128.999 284.636 128.999 285.983 128.999C290.115 129.587 292.286 130.882 295.5 133.5C296.644 135.937 296.644 135.937 297.312 138.5C298.617 142.305 298.617 142.305 301.57 144.863C303.893 145.836 303.893 145.836 306.183 146.488C309.484 147.93 311.205 149.725 313.5 152.5C314.115 155.884 314.115 155.884 314.099 159.797C314.103 160.513 314.107 161.229 314.111 161.967C314.118 164.324 314.089 166.679 314.058 169.035C314.054 170.678 314.052 172.32 314.051 173.962C314.045 177.4 314.023 180.836 313.987 184.274C313.942 188.678 313.927 193.081 313.923 197.485C313.919 200.875 313.903 204.264 313.884 207.654C313.875 209.278 313.869 210.901 313.864 212.525C313.855 214.795 313.833 217.063 313.806 219.332C313.796 220.623 313.785 221.914 313.774 223.243C313.518 226.289 313.203 228.001 311.5 230.5C309.476 231.66 309.476 231.66 307.125 232.562C301.345 234.669 301.345 234.669 297.742 239.324C297.261 240.693 296.814 242.073 296.406 243.465C295.168 246.244 293.899 247.601 291.5 249.5C288.894 249.893 286.709 250.041 284.105 250.008C283.358 250.014 282.611 250.02 281.841 250.027C279.336 250.043 276.831 250.03 274.326 250.018C272.531 250.023 270.735 250.03 268.94 250.039C264.062 250.057 259.184 250.05 254.306 250.037C249.203 250.027 244.101 250.037 238.998 250.043C230.428 250.05 221.857 250.041 213.287 250.021C203.377 250 193.467 250.007 183.557 250.029C175.051 250.047 166.546 250.049 158.041 250.039C152.959 250.033 147.878 250.032 142.797 250.045C138.019 250.057 133.242 250.049 128.464 250.026C126.71 250.02 124.956 250.022 123.202 250.031C120.808 250.042 118.415 250.028 116.022 250.008C115.327 250.017 114.632 250.026 113.916 250.035C109.193 249.959 106.822 248.823 103.5 245.5C102.207 243.211 102.207 243.211 101.312 240.875C100.227 238.095 99.6376 236.638 97.4998 234.5C95.5448 233.768 93.5702 233.171 91.5701 232.574C88.6132 231.04 87.3327 229.28 85.4998 226.5C85.0053 223.154 85.0053 223.154 85.014 219.295C85.0102 218.588 85.0064 217.882 85.0025 217.154C84.9951 214.83 85.0164 212.508 85.0389 210.184C85.0413 208.564 85.0422 206.944 85.0416 205.324C85.0448 201.934 85.0613 198.544 85.0882 195.154C85.1222 190.81 85.1298 186.467 85.1283 182.124C85.1288 178.78 85.1398 175.437 85.1543 172.094C85.1607 170.493 85.1646 168.891 85.1661 167.289C85.1704 165.051 85.1879 162.814 85.2093 160.576C85.2169 159.303 85.2245 158.03 85.2324 156.719C85.4849 153.679 85.8112 151.999 87.4998 149.5C90.3118 147.491 92.6605 146.454 95.9998 145.5C98.7545 144.405 99.4247 143.641 100.847 140.969C101.64 139.031 102.383 137.072 103.066 135.094C106.234 129.362 111.963 129.123 117.976 129.112ZM113.716 151.411C113.338 152.299 112.96 153.187 112.57 154.102C110.958 157.713 108.957 158.733 105.5 160.5C104.51 160.83 103.52 161.16 102.5 161.5C102.271 169.365 102.114 177.229 102.005 185.096C101.965 187.773 101.899 190.445 101.821 193.122C101.712 196.97 101.661 200.815 101.621 204.664C101.574 205.858 101.528 207.052 101.48 208.282C101.332 214.473 101.332 214.473 104.458 219.498C106.814 221.101 106.814 221.101 109.269 222.279C113.648 224.676 115.946 228.838 117.5 233.5C138.779 233.734 160.058 233.91 181.338 234.018C191.219 234.07 201.099 234.14 210.979 234.254C219.59 234.354 228.202 234.419 236.814 234.441C241.374 234.454 245.933 234.485 250.493 234.557C254.787 234.625 259.078 234.646 263.371 234.631C264.946 234.634 266.521 234.654 268.095 234.692C272.702 234.799 277.032 234.791 281.5 233.5C283.827 231.095 285.017 229.015 286.272 225.924C287.794 222.919 289.324 222.136 292.302 220.666C295.215 218.912 296.296 218.143 297.336 214.863C297.675 211.49 297.721 208.229 297.66 204.84C297.666 203.617 297.672 202.395 297.679 201.135C297.681 198.555 297.66 195.976 297.618 193.396C297.562 189.446 297.597 185.503 297.642 181.553C297.633 179.044 297.618 176.536 297.597 174.027C297.611 172.847 297.624 171.667 297.637 170.451C297.665 164.543 297.665 164.543 294.747 159.723C292.662 158.377 292.662 158.377 290.492 157.452C285.985 155.298 283.589 150.876 281.5 146.5C260.221 146.266 238.942 146.09 217.662 145.982C207.781 145.93 197.901 145.86 188.021 145.746C179.409 145.646 170.798 145.581 162.186 145.559C157.625 145.546 153.066 145.515 148.506 145.443C144.213 145.375 139.922 145.354 135.628 145.369C134.054 145.366 132.479 145.346 130.905 145.308C120.728 144.848 120.728 144.848 113.716 151.411Z" fill="#053553"/>
<path d="M169.205 338.359C170.233 338.355 170.233 338.355 171.281 338.35C173.582 338.342 175.882 338.34 178.183 338.339C179.83 338.334 181.478 338.329 183.125 338.324C187.605 338.311 192.084 338.304 196.563 338.3C199.361 338.297 202.159 338.293 204.956 338.288C213.707 338.275 222.458 338.265 231.208 338.261C241.315 338.257 251.421 338.239 261.527 338.21C269.336 338.188 277.145 338.178 284.954 338.177C289.619 338.176 294.285 338.17 298.95 338.152C303.338 338.136 307.726 338.133 312.114 338.142C313.724 338.143 315.335 338.139 316.945 338.129C319.144 338.116 321.342 338.122 323.541 338.132C324.771 338.131 326.002 338.129 327.269 338.128C330.816 338.536 332.685 339.335 335.5 341.5C337.158 344.816 337.737 346.571 336.812 350.187C335.474 352.546 334.665 353.88 332.5 355.5C329.474 355.88 329.474 355.88 325.681 355.888C324.635 355.896 324.635 355.896 323.568 355.904C321.226 355.918 318.884 355.911 316.541 355.904C314.864 355.91 313.187 355.917 311.51 355.925C306.95 355.943 302.39 355.941 297.83 355.936C294.026 355.933 290.221 355.939 286.416 355.945C277.441 355.959 268.465 355.957 259.489 355.946C250.226 355.934 240.963 355.949 231.7 355.975C223.751 355.997 215.802 356.004 207.853 355.998C203.104 355.995 198.355 355.997 193.605 356.014C189.138 356.03 184.672 356.026 180.205 356.007C178.566 356.004 176.926 356.007 175.287 356.017C173.048 356.03 170.811 356.019 168.573 356.001C167.32 356.001 166.068 356.001 164.777 356C160.909 355.41 159.242 354.24 156.5 351.5C155.401 347.8 156.007 344.415 157.812 341.062C161.187 337.938 164.836 338.37 169.205 338.359Z" fill="#053553"/>
<path d="M168.521 294.872C169.216 294.865 169.911 294.858 170.627 294.85C172.95 294.833 175.271 294.851 177.594 294.869C179.261 294.864 180.929 294.857 182.596 294.847C187.121 294.829 191.645 294.842 196.17 294.861C200.906 294.878 205.641 294.869 210.377 294.864C218.33 294.859 226.282 294.875 234.234 294.903C243.428 294.935 252.622 294.935 261.815 294.918C270.66 294.902 279.505 294.909 288.349 294.926C292.113 294.933 295.877 294.932 299.641 294.924C304.073 294.917 308.505 294.929 312.938 294.956C314.564 294.963 316.191 294.963 317.817 294.956C320.038 294.947 322.258 294.963 324.479 294.985C325.721 294.988 326.964 294.991 328.244 294.994C332.105 295.594 333.762 296.761 336.5 299.5C337.654 302.5 337.626 304.02 336.812 307.125C335.284 309.891 334.224 310.904 331.5 312.5C328.367 312.883 328.367 312.883 324.599 312.895C323.905 312.901 323.211 312.907 322.495 312.913C320.17 312.93 317.845 312.925 315.52 312.92C313.852 312.927 312.185 312.936 310.518 312.946C305.989 312.968 301.46 312.971 296.931 312.969C293.151 312.969 289.371 312.977 285.591 312.986C276.675 313.005 267.758 313.008 258.841 313.001C249.64 312.994 240.439 313.017 231.238 313.054C223.34 313.085 215.442 313.096 207.543 313.093C202.825 313.09 198.108 313.096 193.39 313.12C188.953 313.143 184.517 313.141 180.081 313.121C178.452 313.117 176.824 313.122 175.196 313.137C172.973 313.155 170.752 313.142 168.528 313.122C167.284 313.122 166.041 313.123 164.759 313.124C160.58 312.324 159.094 310.811 156.5 307.5C155.875 304 155.875 304 156.5 300.5C160.197 295.784 162.605 294.875 168.521 294.872Z" fill="#053553"/>
<path d="M171.205 381.359C171.878 381.356 172.551 381.354 173.244 381.35C175.498 381.342 177.752 381.34 180.005 381.339C181.622 381.334 183.238 381.329 184.855 381.324C189.245 381.311 193.636 381.304 198.026 381.3C200.77 381.297 203.513 381.293 206.256 381.288C214.84 381.275 223.423 381.265 232.007 381.261C241.914 381.257 251.822 381.239 261.729 381.21C269.389 381.188 277.048 381.178 284.708 381.177C289.282 381.176 293.856 381.17 298.431 381.152C302.733 381.136 307.036 381.133 311.338 381.142C312.916 381.143 314.494 381.139 316.072 381.129C318.229 381.116 320.385 381.122 322.541 381.132C323.747 381.131 324.954 381.129 326.196 381.128C329.935 381.549 332.328 382.493 335.5 384.5C337.063 387.812 337.063 387.812 337.5 391.5C335.455 397.023 335.455 397.023 332.5 398.5C330.254 398.603 328.005 398.639 325.757 398.647C325.055 398.651 324.354 398.654 323.632 398.658C321.27 398.669 318.909 398.673 316.547 398.677C314.859 398.683 313.171 398.69 311.482 398.697C306.887 398.714 302.292 398.725 297.697 398.733C294.828 398.738 291.96 398.744 289.091 398.751C280.121 398.77 271.151 398.784 262.18 398.792C251.815 398.802 241.45 398.828 231.084 398.869C223.079 398.899 215.074 398.914 207.069 398.917C202.284 398.919 197.5 398.928 192.716 398.953C188.216 398.977 183.717 398.981 179.217 398.971C177.564 398.97 175.911 398.976 174.259 398.99C172.004 399.008 169.752 399.001 167.497 398.988C166.235 398.99 164.973 398.992 163.673 398.995C159.935 398.412 158.764 397.471 156.5 394.5C155.772 391.758 155.931 389.272 156.5 386.5C160.379 381.097 164.963 381.375 171.205 381.359Z" fill="#053553"/>
<path d="M203.5 149.5C205.953 151.307 207.148 152.666 208.328 155.461C209.8 158.022 211.343 158.886 213.875 160.375C219.164 163.768 221.812 166.884 223.438 173.063C223.508 176.945 222.889 178.492 220.5 181.5C217.195 183.152 214.026 183.429 210.5 182.5C208.512 180.567 206.923 178.481 205.235 176.285C203.463 174.1 203.463 174.1 199.688 173.938C196.616 174.324 196.616 174.324 194.5 175.5C194.5 176.49 194.5 177.48 194.5 178.5C195.301 178.718 195.301 178.718 196.117 178.94C217.589 184.9 217.589 184.9 223.5 194.875C225.373 201.664 225.4 207.394 221.906 213.645C218.909 217.599 214.796 220.44 210.317 222.508C207.727 223.922 207.511 225.806 206.5 228.5C202.763 230.992 200.927 230.958 196.5 230.5C193.625 228.75 193.625 228.75 191.5 226.5C191.301 225.496 191.301 225.496 191.098 224.473C190.699 222.374 190.699 222.374 188.863 221.48C188.187 221.219 187.51 220.957 186.813 220.688C181.074 218.06 177.767 214.144 175.063 208.5C174.369 204.802 174.539 202.139 175.5 198.5C178.512 195.025 182.082 194.925 186.5 194.5C185.669 193.829 185.669 193.829 184.82 193.145C176.938 186.566 176.938 186.566 176.258 180.25C175.941 174.137 176.837 169.473 180.5 164.5C183.56 161.309 186.28 158.907 190.5 157.5C191.197 155.846 191.861 154.177 192.5 152.5C195.007 148.462 199.204 148.71 203.5 149.5ZM187.5 195.5C188.43 196.963 189.37 198.42 190.313 199.875C191.096 201.093 191.096 201.093 191.895 202.336C193.485 204.734 193.485 204.734 196.5 206.5C198.729 206.563 198.729 206.563 201.063 206.188C202.24 206.039 202.24 206.039 203.442 205.887C205.554 205.587 205.554 205.587 207.5 204.5C207.304 202.534 207.304 202.534 206.5 200.5C204.766 199.425 204.766 199.425 202.563 198.875C201.761 198.639 200.959 198.403 200.133 198.16C195.951 197.112 191.745 196.253 187.5 195.5Z" fill="#053553"/>
<path d="M106.5 81.5C109.161 83.6415 110.225 85.0687 110.871 88.4336C111.094 92.011 110.652 94.1885 109.063 97.4375C105.422 100.368 102.113 100.788 97.5 100.5C94.4811 99.2796 93.0802 98.3012 91.1875 95.6875C89.9152 91.6394 89.9909 88.6202 91.75 84.75C95.724 79.6407 100.641 79.866 106.5 81.5Z" fill="#053553"/>
<path d="M132.375 182.5C134.883 186.041 135.25 188.083 134.973 192.34C134.5 194.5 134.5 194.5 132.563 197.562C128.457 200.16 125.236 200.564 120.5 199.5C117.085 197.081 115.808 195.484 114.563 191.5C114.478 187.443 115.378 184.928 117.875 181.75C122.581 178.13 127.744 179.278 132.375 182.5Z" fill="#053553"/>
<path d="M279.5 180.5C282.97 183.601 284.334 185.448 285.063 190.062C284.415 194.024 283.312 195.688 280.5 198.5C277.298 200.101 273.974 199.999 270.5 199.5C267.69 197.706 265.991 196.481 264.5 193.5C264.062 185.604 264.062 185.604 266.5 182.5C271.071 179.417 274.216 178.867 279.5 180.5Z" fill="#053553"/>
<path d="M255.75 81.1249C258.445 83.2421 259.349 85.2906 260.5 88.4999C260.581 93.125 259.975 94.9301 257 98.4999C254.265 100.495 252.236 100.813 248.875 100.625C245.698 100.041 244.525 99.5204 241.937 97.4374C240.081 93.6438 239.645 90.6471 240.5 86.4999C244.406 80.38 248.649 79.1523 255.75 81.1249Z" fill="#053553"/>
</svg>
