<?xml version="1.0" encoding="UTF-8"?>
<!DOCTYPE svg PUBLIC "-//W3C//DTD SVG 1.1//EN" "http://www.w3.org/Graphics/SVG/1.1/DTD/svg11.dtd">
<svg xmlns="http://www.w3.org/2000/svg" version="1.1" width="512px" height="512px" style="shape-rendering:geometricPrecision; text-rendering:geometricPrecision; image-rendering:optimizeQuality; fill-rule:evenodd; clip-rule:evenodd" xmlns:xlink="http://www.w3.org/1999/xlink">
<g><path style="opacity:0.943" fill="#000000" d="M 78.5,10.5 C 80.8568,10.3367 83.1902,10.5034 85.5,11C 104.846,24.9981 124.179,24.9981 143.5,11C 145.833,10.3333 148.167,10.3333 150.5,11C 169.833,25 189.167,25 208.5,11C 210.833,10.3333 213.167,10.3333 215.5,11C 234.833,25 254.167,25 273.5,11C 275.833,10.3333 278.167,10.3333 280.5,11C 299.821,24.9981 319.154,24.9981 338.5,11C 341.669,10.0218 344.503,10.5218 347,12.5C 347.5,91.4993 347.667,170.499 347.5,249.5C 401.432,257.593 436.932,287.593 454,339.5C 466.802,392.501 452.969,437.001 412.5,473C 371.781,503.244 327.781,508.911 280.5,490C 262.714,481.707 247.381,470.207 234.5,455.5C 227.406,461.43 219.906,466.764 212,471.5C 206.769,468.801 201.602,465.968 196.5,463C 185.167,458.333 173.833,458.333 162.5,463C 157.468,465.847 152.468,468.681 147.5,471.5C 142.312,468.499 136.978,465.666 131.5,463C 121.284,458.878 110.951,458.545 100.5,462C 94.0759,464.78 87.9093,467.947 82,471.5C 80.018,471.01 78.3513,470.01 77,468.5C 76.3333,316.5 76.3333,164.5 77,12.5C 77.7172,11.9558 78.2172,11.2891 78.5,10.5 Z M 146.5,24.5 C 168.34,37.7675 190.174,37.7675 212,24.5C 233.667,37.8333 255.333,37.8333 277,24.5C 295.427,36.1619 314.594,37.4952 334.5,28.5C 335.5,101.83 335.833,175.164 335.5,248.5C 302.326,247.833 273.326,258.333 248.5,280C 225.167,280.333 201.833,280.667 178.5,281C 174.952,284.54 174.952,288.206 178.5,292C 197.509,292.167 216.509,292.667 235.5,293.5C 232.183,297.304 229.516,301.471 227.5,306C 227.738,310.404 230.072,312.571 234.5,312.5C 236.912,312.594 238.745,311.594 240,309.5C 270.981,269.389 311.481,254.555 361.5,265C 395.827,274.991 420.66,296.157 436,328.5C 455.543,380.824 444.71,425.657 403.5,463C 358.037,495.296 312.037,496.296 265.5,466C 231.361,439.203 216.194,404.037 220,360.5C 221.72,353.914 222.386,347.247 222,340.5C 218.284,336.695 214.618,336.695 211,340.5C 201.219,377.144 206.386,411.477 226.5,443.5C 221.841,447.99 217.008,452.323 212,456.5C 190.383,443.174 168.717,443.174 147,456.5C 128.58,444.891 109.413,443.558 89.5,452.5C 88.1667,311.167 88.1667,169.833 89.5,28.5C 105.257,35.8495 121.257,36.3495 137.5,30C 140.898,28.6429 143.898,26.8096 146.5,24.5 Z M 297.5,304.5 C 325.884,304.033 354.217,304.533 382.5,306C 385.268,307.762 386.768,310.262 387,313.5C 387.667,354.167 387.667,394.833 387,435.5C 386.768,438.738 385.268,441.238 382.5,443C 354.217,444.467 325.884,444.967 297.5,444.5C 297.5,397.833 297.5,351.167 297.5,304.5 Z M 282.5,305.5 C 283.5,305.5 284.5,305.5 285.5,305.5C 285.5,351.5 285.5,397.5 285.5,443.5C 281.146,442.644 278.646,439.978 278,435.5C 277.333,394.833 277.333,354.167 278,313.5C 278.451,310.222 279.951,307.556 282.5,305.5 Z"/></g>
<g><path style="opacity:0.992" fill="#000000" d="M 112.5,68.5 C 178.834,68.3333 245.168,68.5 311.5,69C 314.57,71.5692 315.237,74.7358 313.5,78.5C 312.975,79.1924 312.308,79.6924 311.5,80C 245.167,80.6667 178.833,80.6667 112.5,80C 108.555,76.1694 108.555,72.3361 112.5,68.5 Z"/></g>
<g><path style="opacity:0.887" fill="#000000" d="M 55.5,75.5 C 58.6021,75.154 61.4355,75.8207 64,77.5C 64.6667,81.1667 64.6667,84.8333 64,88.5C 60.3333,92.5 56.6667,92.5 53,88.5C 52.3333,84.8333 52.3333,81.1667 53,77.5C 53.9947,76.9341 54.828,76.2674 55.5,75.5 Z"/></g>
<g><path style="opacity:0.989" fill="#000000" d="M 54.5,96.5 C 58.0071,95.9935 61.1737,96.6602 64,98.5C 64.6667,149.833 64.6667,201.167 64,252.5C 61.4308,255.57 58.2642,256.237 54.5,254.5C 53.8076,253.975 53.3076,253.308 53,252.5C 52.3333,201.167 52.3333,149.833 53,98.5C 53.7172,97.9558 54.2172,97.2891 54.5,96.5 Z"/></g>
<g><path style="opacity:0.992" fill="#000000" d="M 112.5,99.5 C 178.834,99.3333 245.168,99.5 311.5,100C 314.57,102.569 315.237,105.736 313.5,109.5C 312.975,110.192 312.308,110.692 311.5,111C 245.167,111.667 178.833,111.667 112.5,111C 108.555,107.169 108.555,103.336 112.5,99.5 Z"/></g>
<g><path style="opacity:0.992" fill="#000000" d="M 112.5,129.5 C 178.834,129.333 245.168,129.5 311.5,130C 314.57,132.569 315.237,135.736 313.5,139.5C 312.975,140.192 312.308,140.692 311.5,141C 245.167,141.667 178.833,141.667 112.5,141C 108.555,137.169 108.555,133.336 112.5,129.5 Z"/></g>
<g><path style="opacity:0.877" fill="#000000" d="M 112.5,171.5 C 115.909,171.249 119.242,171.583 122.5,172.5C 124.681,175.263 125.015,178.263 123.5,181.5C 119.718,183.734 115.718,184.067 111.5,182.5C 108.673,178.482 109.006,174.815 112.5,171.5 Z"/></g>
<g><path style="opacity:0.933" fill="#000000" d="M 137.5,171.5 C 145.84,171.334 154.173,171.5 162.5,172C 166.5,175.667 166.5,179.333 162.5,183C 154.167,183.667 145.833,183.667 137.5,183C 133.581,179.173 133.581,175.339 137.5,171.5 Z"/></g>
<g><path style="opacity:0.988" fill="#000000" d="M 178.5,171.5 C 222.835,171.333 267.168,171.5 311.5,172C 314.57,174.569 315.237,177.736 313.5,181.5C 312.975,182.192 312.308,182.692 311.5,183C 267.167,183.667 222.833,183.667 178.5,183C 174.649,179.188 174.649,175.354 178.5,171.5 Z"/></g>
<g><path style="opacity:0.877" fill="#000000" d="M 112.5,220.5 C 115.909,220.249 119.242,220.583 122.5,221.5C 124.681,224.263 125.015,227.263 123.5,230.5C 119.718,232.734 115.718,233.067 111.5,231.5C 108.673,227.482 109.006,223.815 112.5,220.5 Z"/></g>
<g><path style="opacity:0.933" fill="#000000" d="M 137.5,220.5 C 145.84,220.334 154.173,220.5 162.5,221C 166.5,224.667 166.5,228.333 162.5,232C 154.167,232.667 145.833,232.667 137.5,232C 133.581,228.173 133.581,224.339 137.5,220.5 Z"/></g>
<g><path style="opacity:0.988" fill="#000000" d="M 178.5,220.5 C 222.835,220.333 267.168,220.5 311.5,221C 314.57,223.569 315.237,226.736 313.5,230.5C 312.975,231.192 312.308,231.692 311.5,232C 267.167,232.667 222.833,232.667 178.5,232C 174.649,228.188 174.649,224.354 178.5,220.5 Z"/></g>
<g><path style="opacity:0.877" fill="#000000" d="M 112.5,280.5 C 115.909,280.249 119.242,280.583 122.5,281.5C 124.681,284.263 125.015,287.263 123.5,290.5C 119.718,292.734 115.718,293.067 111.5,291.5C 108.673,287.482 109.006,283.815 112.5,280.5 Z"/></g>
<g><path style="opacity:0.933" fill="#000000" d="M 137.5,280.5 C 145.84,280.334 154.173,280.5 162.5,281C 166.5,284.667 166.5,288.333 162.5,292C 154.167,292.667 145.833,292.667 137.5,292C 133.581,288.173 133.581,284.339 137.5,280.5 Z"/></g>
<g><path style="opacity:0.986" fill="#000000" d="M 278.5,292.5 C 314.168,292.333 349.835,292.5 385.5,293C 391.667,295.167 395.833,299.333 398,305.5C 398.667,351.167 398.667,396.833 398,442.5C 395.833,448.667 391.667,452.833 385.5,455C 349.833,455.667 314.167,455.667 278.5,455C 272.333,452.833 268.167,448.667 266,442.5C 265.333,396.833 265.333,351.167 266,305.5C 268.353,299.315 272.52,294.982 278.5,292.5 Z M 297.5,304.5 C 297.5,351.167 297.5,397.833 297.5,444.5C 325.884,444.967 354.217,444.467 382.5,443C 385.268,441.238 386.768,438.738 387,435.5C 387.667,394.833 387.667,354.167 387,313.5C 386.768,310.262 385.268,307.762 382.5,306C 354.217,304.533 325.884,304.033 297.5,304.5 Z M 282.5,305.5 C 279.951,307.556 278.451,310.222 278,313.5C 277.333,354.167 277.333,394.833 278,435.5C 278.646,439.978 281.146,442.644 285.5,443.5C 285.5,397.5 285.5,351.5 285.5,305.5C 284.5,305.5 283.5,305.5 282.5,305.5 Z"/></g>
<g><path style="opacity:0.91" fill="#000000" d="M 134.5,316.5 C 136.991,316.829 139.157,317.829 141,319.5C 141.218,322.426 141.718,325.26 142.5,328C 155.631,332.474 161.464,341.64 160,355.5C 157.441,358.349 154.274,359.183 150.5,358C 148.3,353.708 146.467,349.208 145,344.5C 135.958,337.917 128.958,339.584 124,349.5C 123.083,354.505 124.583,358.672 128.5,362C 132.611,363.891 136.944,364.891 141.5,365C 158.739,371.68 164.239,383.847 158,401.5C 154.301,408.04 148.801,412.04 141.5,413.5C 141.665,416.518 141.498,419.518 141,422.5C 137.333,426.5 133.667,426.5 130,422.5C 129.502,419.518 129.335,416.518 129.5,413.5C 115.905,409.656 109.739,400.656 111,386.5C 115,381.167 119,381.167 123,386.5C 123.921,398.44 130.087,402.94 141.5,400C 149.974,391.799 149.308,384.465 139.5,378C 121.868,378.027 112.201,369.361 110.5,352C 111.381,339.792 117.548,331.625 129,327.5C 129.333,324.833 129.667,322.167 130,319.5C 131.409,318.219 132.909,317.219 134.5,316.5 Z"/></g>
<g><path style="opacity:0.921" fill="#000000" d="M 306.5,339.5 C 311.511,339.334 316.511,339.501 321.5,340C 325.5,343.667 325.5,347.333 321.5,351C 316.113,351.784 310.78,351.618 305.5,350.5C 302.673,346.482 303.006,342.815 306.5,339.5 Z"/></g>
<g><path style="opacity:0.963" fill="#000000" d="M 331.5,339.5 C 345.504,339.333 359.504,339.5 373.5,340C 376.287,342.167 377.12,345.001 376,348.5C 375.5,349.667 374.667,350.5 373.5,351C 359.5,351.667 345.5,351.667 331.5,351C 327.555,347.169 327.555,343.336 331.5,339.5 Z"/></g>
<g><path style="opacity:0.965" fill="#000000" d="M 306.5,358.5 C 321.17,358.333 335.837,358.5 350.5,359C 354.5,362.667 354.5,366.333 350.5,370C 335.833,370.667 321.167,370.667 306.5,370C 302.555,366.169 302.555,362.336 306.5,358.5 Z"/></g>
<g><path style="opacity:0.906" fill="#000000" d="M 359.5,358.5 C 364.565,358.219 369.565,358.552 374.5,359.5C 378.511,367.465 376.011,371.132 367,370.5C 357.675,370.857 355.175,366.857 359.5,358.5 Z"/></g>
</svg>
