<?xml version="1.0" encoding="UTF-8"?>
<!DOCTYPE svg PUBLIC "-//W3C//DTD SVG 1.1//EN" "http://www.w3.org/Graphics/SVG/1.1/DTD/svg11.dtd">
<svg xmlns="http://www.w3.org/2000/svg" version="1.1" width="512px" height="512px" style="shape-rendering:geometricPrecision; text-rendering:geometricPrecision; image-rendering:optimizeQuality; fill-rule:evenodd; clip-rule:evenodd" xmlns:xlink="http://www.w3.org/1999/xlink">
<g><path style="opacity:0.947" fill="#000000" d="M 44.5,7.5 C 131.167,7.33334 217.834,7.5 304.5,8C 308,9.5 310.5,12 312,15.5C 312.5,45.8315 312.667,76.1648 312.5,106.5C 317.511,106.334 322.511,106.501 327.5,107C 332.847,109.015 336.014,112.849 337,118.5C 337.5,124.825 337.666,131.158 337.5,137.5C 373.864,137.046 410.198,137.546 446.5,139C 474.123,145.713 492.29,162.546 501,189.5C 503.619,198.141 503.953,206.807 502,215.5C 500.581,216.46 499.081,217.293 497.5,218C 457.168,218.5 416.835,218.667 376.5,218.5C 376.982,294.531 376.482,370.531 375,446.5C 368.048,475.453 350.215,493.953 321.5,502C 236.202,503.653 150.869,503.987 65.5,503C 41.222,498.279 23.722,484.779 13,462.5C 8.29842,451.623 6.63176,440.289 8,428.5C 11.3662,423.391 15.8662,422.224 21.5,425C 29.3333,431.5 37.1667,438 45,444.5C 52.5818,436.914 60.7485,430.081 69.5,424C 73.7102,422.98 77.3768,423.98 80.5,427C 87,432.833 93.5,438.667 100,444.5C 105.333,439.833 110.667,435.167 116,430.5C 116.5,377.501 116.667,324.501 116.5,271.5C 101.163,271.667 85.8297,271.5 70.5,271C 65.7647,269.932 62.5981,267.099 61,262.5C 60.5,232.168 60.3334,201.835 60.5,171.5C 55.1563,171.666 49.8229,171.499 44.5,171C 39.3739,168.934 36.5406,165.1 36,159.5C 35.3333,112.833 35.3333,66.1667 36,19.5C 36.6589,13.8131 39.4922,9.81306 44.5,7.5 Z M 52.5,23.5 C 133.5,23.5 214.5,23.5 295.5,23.5C 295.5,51.1667 295.5,78.8333 295.5,106.5C 293.167,106.5 290.833,106.5 288.5,106.5C 288.667,88.4969 288.5,70.4969 288,52.5C 287.215,50.714 286.049,49.214 284.5,48C 281.05,46.9702 277.717,45.6369 274.5,44C 272.474,40.7317 270.974,37.2317 270,33.5C 268.786,31.9512 267.286,30.7845 265.5,30C 204.833,29.3333 144.167,29.3333 83.5,30C 79.1377,32.5434 76.6377,36.3768 76,41.5C 72.8468,44.7817 69.0134,46.9484 64.5,48C 62.9512,49.214 61.7845,50.714 61,52.5C 60.5,86.4984 60.3333,120.498 60.5,154.5C 57.8333,154.5 55.1667,154.5 52.5,154.5C 52.5,110.833 52.5,67.1667 52.5,23.5 Z M 92.5,46.5 C 147.171,46.1667 201.837,46.5 256.5,47.5C 259.5,53.8333 264.167,58.5 270.5,61.5C 271.499,76.4852 271.833,91.4852 271.5,106.5C 247.164,106.667 222.831,106.5 198.5,106C 200,94.678 195.333,87.0113 184.5,83C 179.469,81.7936 174.469,80.4603 169.5,79C 168.14,77.0624 168.473,75.3957 170.5,74C 171.872,73.5983 173.205,73.0983 174.5,72.5C 175.795,73.0983 177.128,73.5983 178.5,74C 180.5,77.3333 183.167,80 186.5,82C 195.716,82.7772 199.216,78.6105 197,69.5C 194.089,63.0819 189.256,59.0819 182.5,57.5C 181.462,49.5286 177.128,47.0286 169.5,50C 167.338,51.6454 166.005,53.8121 165.5,56.5C 153.115,62.6058 148.948,72.2725 153,85.5C 154.793,88.2953 156.96,90.7953 159.5,93C 165.51,96.0032 171.843,98.0032 178.5,99C 180.923,99.7319 182.09,101.232 182,103.5C 173.29,108.271 167.123,105.938 163.5,96.5C 154.231,93.0811 149.564,96.4144 149.5,106.5C 125.5,106.5 101.5,106.5 77.5,106.5C 77.1673,91.4852 77.5007,76.4852 78.5,61.5C 85.2502,58.4174 89.9169,53.4174 92.5,46.5 Z M 77.5,123.5 C 158.5,123.5 239.5,123.5 320.5,123.5C 320.5,167.167 320.5,210.833 320.5,254.5C 239.5,254.5 158.5,254.5 77.5,254.5C 77.5,210.833 77.5,167.167 77.5,123.5 Z M 116.5,145.5 C 171.171,145.167 225.837,145.5 280.5,146.5C 283.5,152.833 288.167,157.5 294.5,160.5C 295.666,179.158 295.833,197.824 295,216.5C 287.968,219.365 283.135,224.365 280.5,231.5C 225.837,232.5 171.171,232.833 116.5,232.5C 114.35,224.845 109.516,219.511 102,216.5C 101.5,197.836 101.333,179.17 101.5,160.5C 109.464,158.536 114.464,153.536 116.5,145.5 Z M 337.5,154.5 C 353.17,154.333 368.837,154.5 384.5,155C 370.417,167.33 362.251,182.83 360,201.5C 359.667,280.5 359.333,359.5 359,438.5C 351.292,472.947 329.792,488.78 294.5,486C 264.84,477.899 249.007,458.399 247,427.5C 243.95,423.87 240.117,422.703 235.5,424C 227.091,430.953 218.591,437.787 210,444.5C 202.463,437.294 194.629,430.46 186.5,424C 183.366,423.21 180.366,423.543 177.5,425C 169.907,431.382 162.407,437.882 155,444.5C 148.315,438.314 141.482,432.314 134.5,426.5C 133.5,374.838 133.167,323.171 133.5,271.5C 197.834,271.667 262.168,271.5 326.5,271C 332.447,269.387 335.947,265.553 337,259.5C 337.5,224.502 337.667,189.502 337.5,154.5 Z M 425.5,154.5 C 453.83,153.739 473.33,166.406 484,192.5C 484.953,195.432 485.453,198.432 485.5,201.5C 449.5,201.5 413.5,201.5 377.5,201.5C 382.987,175.012 398.987,159.345 425.5,154.5 Z M 186.5,194.5 C 191.445,195.819 196.445,196.986 201.5,198C 208.024,200.531 208.024,202.865 201.5,205C 197.207,206.202 193.707,205.035 191,201.5C 190.096,198.767 188.596,196.433 186.5,194.5 Z M 71.5,443.5 C 79.2339,449.057 86.5672,455.223 93.5,462C 97.8333,465.333 102.167,465.333 106.5,462C 113.352,455.647 120.352,449.481 127.5,443.5C 134.315,449.147 140.981,454.98 147.5,461C 151.903,465.148 156.569,465.481 161.5,462C 168.352,455.647 175.352,449.481 182.5,443.5C 188.981,448.813 195.314,454.313 201.5,460C 205.961,464.96 210.961,465.627 216.5,462C 221.724,457.141 227.224,452.641 233,448.5C 237.508,463.689 245.675,476.522 257.5,487C 194.147,487.963 130.813,487.63 67.5,486C 49.4607,481.658 36.4607,471.158 28.5,454.5C 28.6667,454.167 28.8333,453.833 29,453.5C 33.2139,457.382 37.7139,460.882 42.5,464C 44.1667,464.667 45.8333,464.667 47.5,464C 56.2801,458.051 64.2801,451.218 71.5,443.5 Z"/></g>
<g><path style="opacity:0.875" fill="#000000" d="M 96.5,79.5 C 106.503,79.0016 110.67,83.6683 109,93.5C 104.701,99.8585 99.2013,101.025 92.5,97C 87.6941,89.6393 89.0274,83.806 96.5,79.5 Z"/></g>
<g><path style="opacity:0.886" fill="#000000" d="M 245.5,79.5 C 256.304,79.1451 260.471,84.1451 258,94.5C 251.549,101.31 245.549,100.977 240,93.5C 238.268,87.3137 240.101,82.647 245.5,79.5 Z"/></g>
<g><path style="opacity:0.955" fill="#000000" d="M 109.5,128.5 C 169.168,128.333 228.834,128.5 288.5,129C 290.587,129.792 292.421,130.959 294,132.5C 295.266,136.644 297.099,140.477 299.5,144C 302.95,145.03 306.283,146.363 309.5,148C 310.701,148.903 311.535,150.069 312,151.5C 312.667,176.167 312.667,200.833 312,225.5C 311.226,227.939 309.726,229.773 307.5,231C 299.963,231.871 295.796,236.037 295,243.5C 293.833,245.333 292.333,246.833 290.5,248C 229.5,248.667 168.5,248.667 107.5,248C 103.133,245.445 100.633,241.612 100,236.5C 97.2847,233.269 93.7847,231.436 89.5,231C 87.6217,229.457 86.1217,227.624 85,225.5C 84.3333,201.167 84.3333,176.833 85,152.5C 87.6584,147.578 91.8251,144.744 97.5,144C 100.153,140.568 102.153,136.735 103.5,132.5C 105.29,130.684 107.29,129.351 109.5,128.5 Z M 116.5,145.5 C 114.464,153.536 109.464,158.536 101.5,160.5C 101.333,179.17 101.5,197.836 102,216.5C 109.516,219.511 114.35,224.845 116.5,232.5C 171.171,232.833 225.837,232.5 280.5,231.5C 283.135,224.365 287.968,219.365 295,216.5C 295.833,197.824 295.666,179.158 294.5,160.5C 288.167,157.5 283.5,152.833 280.5,146.5C 225.837,145.5 171.171,145.167 116.5,145.5 Z M 186.5,194.5 C 188.596,196.433 190.096,198.767 191,201.5C 193.707,205.035 197.207,206.202 201.5,205C 208.024,202.865 208.024,200.531 201.5,198C 196.445,196.986 191.445,195.819 186.5,194.5 Z"/></g>
<g><path style="opacity:0.926" fill="#000000" d="M 186.5,194.5 C 176.518,188.391 173.351,179.724 177,168.5C 179.752,162.747 184.085,158.747 190,156.5C 192.358,148.308 197.358,146.308 205,150.5C 206.039,152.746 207.206,154.913 208.5,157C 217.066,160.331 221.566,166.498 222,175.5C 219.646,181.095 215.479,182.928 209.5,181C 206.931,178.521 204.598,175.854 202.5,173C 200.167,172.333 197.833,172.333 195.5,173C 191.5,175 191.5,177 195.5,179C 205.759,179.743 214.259,183.91 221,191.5C 226.542,205.558 222.375,215.392 208.5,221C 207.211,224.197 205.211,226.863 202.5,229C 195.435,230.639 191.101,227.972 189.5,221C 179.345,217.829 174.179,210.996 174,200.5C 174.273,198.671 175.107,197.171 176.5,196C 179.688,194.684 183.022,194.184 186.5,194.5 Z M 186.5,194.5 C 188.596,196.433 190.096,198.767 191,201.5C 193.707,205.035 197.207,206.202 201.5,205C 208.024,202.865 208.024,200.531 201.5,198C 196.445,196.986 191.445,195.819 186.5,194.5 Z"/></g>
<g><path style="opacity:0.884" fill="#000000" d="M 122.5,178.5 C 131.898,179.281 135.398,184.281 133,193.5C 128.88,198.71 123.714,199.877 117.5,197C 113.721,193.01 112.888,188.51 115,183.5C 116.913,180.72 119.413,179.053 122.5,178.5 Z"/></g>
<g><path style="opacity:0.884" fill="#000000" d="M 271.5,178.5 C 280.301,179.131 284.134,183.798 283,192.5C 280.081,198.025 275.581,199.858 269.5,198C 263.258,194.184 261.925,189.017 265.5,182.5C 267.29,180.684 269.29,179.351 271.5,178.5 Z"/></g>
<g><path style="opacity:0.936" fill="#000000" d="M 160.5,294.5 C 217.168,294.333 273.834,294.5 330.5,295C 338.5,300.333 338.5,305.667 330.5,311C 273.833,311.667 217.167,311.667 160.5,311C 155.391,307.634 154.224,303.134 157,297.5C 158.145,296.364 159.312,295.364 160.5,294.5 Z"/></g>
<g><path style="opacity:0.936" fill="#000000" d="M 161.5,337.5 C 217.501,337.333 273.501,337.5 329.5,338C 335.468,340.391 337.302,344.558 335,350.5C 333.833,351.667 332.667,352.833 331.5,354C 274.5,354.667 217.5,354.667 160.5,354C 155.262,350.726 154.096,346.226 157,340.5C 158.409,339.219 159.909,338.219 161.5,337.5 Z"/></g>
<g><path style="opacity:0.937" fill="#000000" d="M 163.5,380.5 C 218.501,380.333 273.501,380.5 328.5,381C 335.854,383.726 337.687,388.56 334,395.5C 333.25,396.126 332.416,396.626 331.5,397C 274.167,397.667 216.833,397.667 159.5,397C 154.583,392.491 154.249,387.658 158.5,382.5C 160.336,381.972 162.003,381.306 163.5,380.5 Z"/></g>
</svg>
