<?xml version="1.0" encoding="UTF-8"?>
<!DOCTYPE svg PUBLIC "-//W3C//DTD SVG 1.1//EN" "http://www.w3.org/Graphics/SVG/1.1/DTD/svg11.dtd">
<svg xmlns="http://www.w3.org/2000/svg" version="1.1" width="512px" height="512px" style="shape-rendering:geometricPrecision; text-rendering:geometricPrecision; image-rendering:optimizeQuality; fill-rule:evenodd; clip-rule:evenodd" xmlns:xlink="http://www.w3.org/1999/xlink">
<g><path style="opacity:0.884" fill="#000000" d="M 190.5,11.5 C 204.97,10.3199 216.803,15.3199 226,26.5C 229.379,35.8774 235.546,42.7108 244.5,47C 251.754,48.5836 258.754,50.9169 265.5,54C 271.452,60.2579 274.785,67.7579 275.5,76.5C 287.838,76.3335 300.171,76.5001 312.5,77C 326.033,79.5331 334.866,87.3664 339,100.5C 340.645,143.121 340.978,185.787 340,228.5C 338.534,230.325 336.701,230.825 334.5,230C 332.974,187.347 331.807,144.513 331,101.5C 327.833,94.3333 322.667,89.1667 315.5,86C 302.894,84.58 290.228,84.08 277.5,84.5C 278.767,95.7258 274.101,103.226 263.5,107C 218.5,107.667 173.5,107.667 128.5,107C 119.638,103.278 114.972,96.6117 114.5,87C 116.141,77.6014 118.641,68.4348 122,59.5C 124.537,56.628 127.37,54.128 130.5,52C 142.674,50.6195 152.841,45.4529 161,36.5C 166.508,22.8596 176.342,14.5263 190.5,11.5 Z M 191.5,19.5 C 207.48,18.6631 218.313,25.6631 224,40.5C 232.533,51.1884 243.7,57.355 257.5,59C 259.624,60.1217 261.457,61.6217 263,63.5C 267.09,72.4229 269.09,81.7562 269,91.5C 266.677,96.9205 262.51,99.7538 256.5,100C 216.167,100.667 175.833,100.667 135.5,100C 128.073,99.0738 123.74,94.9071 122.5,87.5C 124.095,78.8818 126.595,70.5484 130,62.5C 131.579,60.9588 133.413,59.7922 135.5,59C 153.53,56.4126 166.363,46.9126 174,30.5C 178.914,25.1392 184.747,21.4725 191.5,19.5 Z M 191.5,47.5 C 205.102,46.9164 209.602,52.9164 205,65.5C 195.095,72.4721 188.262,70.1387 184.5,58.5C 185.595,53.9615 187.928,50.2949 191.5,47.5 Z"/></g>
<g><path style="opacity:0.853" fill="#000000" d="M 189.5,39.5 C 209.444,37.9405 217.611,46.9405 214,66.5C 207.866,76.7697 199.033,79.9363 187.5,76C 176.635,68.7062 174.135,59.2062 180,47.5C 182.772,44.2166 185.939,41.5499 189.5,39.5 Z M 191.5,47.5 C 187.928,50.2949 185.595,53.9615 184.5,58.5C 188.262,70.1387 195.095,72.4721 205,65.5C 209.602,52.9164 205.102,46.9164 191.5,47.5 Z"/></g>
<g><path style="opacity:0.861" fill="#000000" d="M 79.5,76.5 C 87.1739,76.3336 94.8406,76.5003 102.5,77C 105.054,79.3975 105.054,81.7309 102.5,84C 95.1667,84.3333 87.8333,84.6667 80.5,85C 70.4334,87.3998 63.9334,93.5664 61,103.5C 60.3333,206.5 60.3333,309.5 61,412.5C 63.7392,421.573 69.5725,427.74 78.5,431C 126.5,431.667 174.5,431.667 222.5,431C 220,426.5 217.5,422 215,417.5C 212.925,412.193 213.591,407.193 217,402.5C 224.147,395.93 231.48,389.597 239,383.5C 239.03,377.256 239.196,371.089 239.5,365C 239.333,363.167 239.167,361.333 239,359.5C 230.644,352.142 222.644,344.476 215,336.5C 213.682,333.594 213.348,330.594 214,327.5C 215.863,322.476 218.363,317.809 221.5,313.5C 200.841,312.667 180.175,312.167 159.5,312C 157.604,310.192 157.104,308.025 158,305.5C 180.761,304.672 203.594,304.172 226.5,304C 229.756,297.484 233.756,291.484 238.5,286C 241.155,284.559 243.988,283.726 247,283.5C 257.536,286.234 267.869,289.568 278,293.5C 284.163,288.673 290.829,284.673 298,281.5C 299.872,271.806 301.872,262.139 304,252.5C 306.04,247.124 309.873,243.957 315.5,243C 329.167,242.333 342.833,242.333 356.5,243C 361.612,243.633 365.445,246.133 368,250.5C 370.251,261.095 372.751,271.595 375.5,282C 382.577,284.951 389.077,288.785 395,293.5C 404.075,290.141 413.242,286.975 422.5,284C 428.163,282.888 432.996,284.388 437,288.5C 444,300.833 451,313.167 458,325.5C 459.041,330.44 458.374,335.106 456,339.5C 448.962,346.207 441.628,352.54 434,358.5C 433.333,366.833 433.333,375.167 434,383.5C 441.667,390.5 449.333,397.5 457,404.5C 458.939,409.473 458.939,414.473 457,419.5C 450.127,432.085 442.627,444.252 434.5,456C 430.106,458.374 425.44,459.041 420.5,458C 411.72,454.293 402.72,451.626 393.5,450C 387.306,454.261 380.973,458.261 374.5,462C 372.506,472.642 370.006,483.142 367,493.5C 365.062,496.106 362.562,497.939 359.5,499C 344.167,499.667 328.833,499.667 313.5,499C 309.814,497.911 306.981,495.745 305,492.5C 302.435,481.842 299.935,471.175 297.5,460.5C 290.444,457.222 283.61,453.556 277,449.5C 268.5,452.333 260,455.167 251.5,458C 244.676,459.945 239.176,458.112 235,452.5C 232.626,448.25 230.126,444.084 227.5,440C 177.5,439.667 127.5,439.333 77.5,439C 64.6754,435.509 56.5088,427.342 53,414.5C 52.3333,310.167 52.3333,205.833 53,101.5C 56.8875,87.8248 65.7208,79.4915 79.5,76.5 Z M 316.5,250.5 C 330.598,250.035 344.598,250.535 358.5,252C 359.701,252.903 360.535,254.069 361,255.5C 362.869,266.52 365.369,277.353 368.5,288C 377.573,291.952 386.239,296.452 394.5,301.5C 404.327,298.835 413.994,295.669 423.5,292C 426.497,291.245 428.997,292.078 431,294.5C 437.081,305.663 443.414,316.663 450,327.5C 450.667,329.5 450.667,331.5 450,333.5C 442.463,340.706 434.629,347.54 426.5,354C 425.282,355.438 424.615,357.105 424.5,359C 425.581,368.174 425.748,377.341 425,386.5C 432.704,393.873 440.704,400.873 449,407.5C 451.037,411.334 450.704,415.001 448,418.5C 441.876,429.251 435.376,439.751 428.5,450C 426.5,450.667 424.5,450.667 422.5,450C 413.134,446.434 403.634,443.267 394,440.5C 386.264,445.622 378.097,450.122 369.5,454C 368.299,454.903 367.465,456.069 367,457.5C 365.128,467.194 363.128,476.861 361,486.5C 360.426,488.492 359.259,489.992 357.5,491C 342.74,491.966 328.073,491.633 313.5,490C 312.283,488.352 311.45,486.519 311,484.5C 309.128,474.806 307.128,465.139 305,455.5C 296.288,451.562 288.122,446.729 280.5,441C 270.019,443.157 259.685,446.157 249.5,450C 247.029,450.706 244.695,450.373 242.5,449C 235.484,436.657 228.484,424.323 221.5,412C 222.716,408.779 224.716,406.112 227.5,404C 234.278,398.856 240.778,393.356 247,387.5C 246.804,376.735 246.804,366.069 247,355.5C 241.594,350.549 236.094,345.716 230.5,341C 226.938,337.942 223.938,334.442 221.5,330.5C 228,318.833 234.5,307.167 241,295.5C 242.439,293.552 244.272,292.219 246.5,291.5C 257.112,295.037 267.778,298.371 278.5,301.5C 286.654,296.888 294.987,292.388 303.5,288C 304.893,286.829 305.727,285.329 306,283.5C 307.872,273.806 309.872,264.139 312,254.5C 313.25,252.807 314.75,251.473 316.5,250.5 Z M 327.5,326.5 C 348.541,324.106 364.708,331.772 376,349.5C 386.556,374.153 381.056,394.319 359.5,410C 334.029,421.84 313.196,416.34 297,393.5C 286.304,370.124 290.804,350.29 310.5,334C 316.032,330.894 321.699,328.394 327.5,326.5 Z"/></g>
<g><path style="opacity:0.861" fill="#000000" d="M 316.5,119.5 C 318.467,119.261 320.301,119.594 322,120.5C 322.667,147.167 322.667,173.833 322,200.5C 319.667,203.167 317.333,203.167 315,200.5C 314.333,174.167 314.333,147.833 315,121.5C 315.717,120.956 316.217,120.289 316.5,119.5 Z"/></g>
<g><path style="opacity:0.821" fill="#000000" d="M 152.5,129.5 C 158.254,129.05 160.087,131.383 158,136.5C 143.5,151 129,165.5 114.5,180C 112.5,180.667 110.5,180.667 108.5,180C 102.333,173.833 96.1667,167.667 90,161.5C 88.5233,157.002 90.0233,154.835 94.5,155C 100.135,159.633 105.468,164.633 110.5,170C 111.167,170.667 111.833,170.667 112.5,170C 126.035,156.632 139.369,143.132 152.5,129.5 Z"/></g>
<g><path style="opacity:0.869" fill="#000000" d="M 158.5,151.5 C 206.505,151.167 254.505,151.5 302.5,152.5C 304.218,155.473 303.551,157.64 300.5,159C 253.833,159.667 207.167,159.667 160.5,159C 157.378,157.245 156.712,154.745 158.5,151.5 Z"/></g>
<g><path style="opacity:0.869" fill="#000000" d="M 71.5,189.5 C 73.7224,189.178 75.5557,189.845 77,191.5C 77.6667,250.5 77.6667,309.5 77,368.5C 74.3583,370.059 72.025,369.725 70,367.5C 69.3333,308.833 69.3333,250.167 70,191.5C 70.7172,190.956 71.2172,190.289 71.5,189.5 Z"/></g>
<g><path style="opacity:0.821" fill="#000000" d="M 153.5,205.5 C 158.319,205.972 159.819,208.306 158,212.5C 143.167,227.333 128.333,242.167 113.5,257C 111.365,257.635 109.365,257.301 107.5,256C 101.667,250.167 95.8333,244.333 90,238.5C 88.0868,232.906 89.9202,230.739 95.5,232C 100.667,237.167 105.833,242.333 111,247.5C 125.062,233.271 139.228,219.271 153.5,205.5 Z"/></g>
<g><path style="opacity:0.868" fill="#000000" d="M 159.5,227.5 C 206.835,227.333 254.168,227.5 301.5,228C 304.167,230.333 304.167,232.667 301.5,235C 253.833,235.667 206.167,235.667 158.5,235C 157.046,232.216 157.379,229.716 159.5,227.5 Z"/></g>
<g><path style="opacity:0.824" fill="#000000" d="M 152.5,282.5 C 158.254,282.05 160.087,284.383 158,289.5C 143.5,304 129,318.5 114.5,333C 112.37,334.564 110.37,334.564 108.5,333C 102.333,326.833 96.1667,320.667 90,314.5C 89.0523,308.74 91.2189,306.906 96.5,309C 101.167,313.667 105.833,318.333 110.5,323C 111.167,323.667 111.833,323.667 112.5,323C 126.035,309.632 139.369,296.132 152.5,282.5 Z"/></g>
<g><path style="opacity:0.855" fill="#000000" d="M 326.5,318.5 C 357.71,315.672 378.21,329.006 388,358.5C 392.786,391.109 379.619,412.609 348.5,423C 324.168,427.453 305.001,419.619 291,399.5C 277.468,372.766 281.635,349.266 303.5,329C 310.506,323.827 318.173,320.327 326.5,318.5 Z M 327.5,326.5 C 321.699,328.394 316.032,330.894 310.5,334C 290.804,350.29 286.304,370.124 297,393.5C 313.196,416.34 334.029,421.84 359.5,410C 381.056,394.319 386.556,374.153 376,349.5C 364.708,331.772 348.541,324.106 327.5,326.5 Z"/></g>
<g><path style="opacity:0.864" fill="#000000" d="M 154.5,358.5 C 158.664,359.533 159.831,361.866 158,365.5C 143.167,380.333 128.333,395.167 113.5,410C 111.833,410.667 110.167,410.667 108.5,410C 102.333,403.833 96.1667,397.667 90,391.5C 88.0868,385.906 89.9202,383.739 95.5,385C 100.5,390 105.5,395 110.5,400C 111.167,400.667 111.833,400.667 112.5,400C 126.395,385.938 140.395,372.104 154.5,358.5 Z"/></g>
<g><path style="opacity:0.844" fill="#000000" d="M 399.5,367.5 C 402.044,367.104 404.211,367.771 406,369.5C 405.596,399.483 392.096,421.316 365.5,435C 355.16,439.674 344.494,441.341 333.5,440C 332.167,438 332.167,436 333.5,434C 373.739,429.928 395.739,407.761 399.5,367.5 Z"/></g>
<g><path style="opacity:0.861" fill="#000000" d="M 159.5,380.5 C 180.169,380.333 200.836,380.5 221.5,381C 223.648,383.075 223.982,385.408 222.5,388C 201.167,388.667 179.833,388.667 158.5,388C 157.083,385.257 157.416,382.757 159.5,380.5 Z"/></g>
</svg>
