<svg width="512" height="512" viewBox="0 0 512 512" fill="none" xmlns="http://www.w3.org/2000/svg">
<path d="M176.671 39.839C177.439 39.834 178.207 39.829 178.998 39.8239C181.535 39.8093 184.072 39.8025 186.61 39.797C188.378 39.7912 190.147 39.7855 191.916 39.7797C195.625 39.7692 199.333 39.7633 203.042 39.7599C207.781 39.7544 212.519 39.7304 217.258 39.7019C220.913 39.6832 224.568 39.6781 228.222 39.6765C229.969 39.6735 231.715 39.6655 233.461 39.6523C235.911 39.6352 238.361 39.6372 240.812 39.6436C241.525 39.6344 242.238 39.6252 242.972 39.6157C249.406 39.6685 254.726 41.1909 259.75 45.1876C263.336 49.6705 265.75 54.3874 267 60.0001C268.733 60.3095 268.733 60.3095 270.5 60.6251C276.65 62.1461 281.507 65.7608 285 71.0001C285 71.9901 285 72.9801 285 74.0001C286.808 73.9765 286.808 73.9765 288.653 73.9525C293.146 73.898 297.639 73.8637 302.133 73.8353C304.074 73.8203 306.014 73.7998 307.955 73.7738C310.753 73.7372 313.55 73.7203 316.348 73.7071C317.208 73.6916 318.069 73.6762 318.956 73.6602C324.397 73.6587 328.207 74.3524 333 77.0001C335.432 80.6474 335.274 83.3224 335.241 87.536C335.242 88.3104 335.244 89.0847 335.246 89.8826C335.249 92.4852 335.238 95.0876 335.227 97.6903C335.227 99.5528 335.227 101.415 335.228 103.278C335.229 108.341 335.217 113.405 335.203 118.469C335.19 123.758 335.189 129.047 335.187 134.336C335.181 144.355 335.164 154.374 335.144 164.393C335.122 175.798 335.111 187.203 335.101 198.608C335.08 222.072 335.045 245.536 335 269C336.548 269.2 336.548 269.2 338.128 269.403C339.494 269.582 340.861 269.761 342.227 269.939C342.906 270.027 343.585 270.114 344.284 270.204C361.741 272.498 378.778 280.358 392 292C392.783 292.641 393.565 293.281 394.371 293.941C415.063 311.47 426.394 336.695 428.75 363.438C430.538 392.574 421.129 418.561 401.973 440.301C383.248 460.021 354.967 471.036 328 472C326.502 472.077 326.502 472.077 324.973 472.156C298.853 472.916 274.743 460.349 256 443C255.229 442.299 254.458 441.598 253.664 440.875C247.905 435.402 242.35 428.983 239.777 421.39C238.771 419.435 238.771 419.435 237 418C232.351 416.911 227.679 417.099 222.932 417.177C221.47 417.176 220.008 417.171 218.546 417.164C215.398 417.155 212.252 417.167 209.105 417.197C204.13 417.244 199.156 417.24 194.18 417.23C185.416 417.218 176.652 417.249 167.888 417.289C154.692 417.349 141.496 417.373 128.3 417.361C123.353 417.358 118.407 417.376 113.461 417.412C110.385 417.43 107.309 417.433 104.233 417.431C102.806 417.434 101.379 417.443 99.9521 417.46C98.0051 417.482 96.0579 417.478 94.1108 417.472C93.021 417.477 91.9311 417.483 90.8081 417.488C87.3053 416.879 86.1591 415.772 84.0001 413C82.9651 409.895 82.8738 407.762 82.8715 404.507C82.8683 403.358 82.865 402.209 82.8617 401.025C82.8633 399.757 82.8648 398.489 82.8664 397.183C82.8645 395.827 82.8622 394.471 82.8596 393.115C82.8534 389.38 82.8536 385.645 82.8547 381.911C82.8549 377.886 82.8494 373.861 82.8447 369.837C82.8364 361.949 82.8336 354.061 82.8331 346.172C82.8326 339.762 82.8306 333.352 82.8274 326.942C82.8186 308.779 82.814 290.616 82.8147 272.453C82.8147 271.474 82.8148 270.494 82.8148 269.484C82.8149 268.504 82.8149 267.523 82.8149 266.512C82.8154 250.611 82.8058 234.71 82.7917 218.809C82.7773 202.493 82.7704 186.177 82.7713 169.86C82.7716 160.696 82.7688 151.531 82.7581 142.367C82.749 134.564 82.7468 126.762 82.7536 118.959C82.7569 114.977 82.7569 110.995 82.7483 107.012C82.7404 103.368 82.7418 99.7238 82.7505 96.0795C82.7528 94.1338 82.7452 92.1881 82.7373 90.2425C82.7442 88.5113 82.7442 88.5113 82.7512 86.7451C82.751 85.7492 82.7508 84.7533 82.7506 83.7272C83.0198 80.7856 83.6929 78.6415 85.0001 76.0001C87.802 74.0276 90.1183 73.7536 93.4933 73.773C94.3739 73.7732 95.2545 73.7733 96.1618 73.7735C97.5745 73.789 97.5745 73.789 99.0158 73.8048C99.9867 73.8076 100.958 73.8104 101.958 73.8134C105.056 73.8245 108.153 73.8496 111.25 73.8751C113.352 73.8851 115.453 73.8942 117.555 73.9024C122.703 73.9245 127.852 73.959 133 74.0001C133.444 72.5716 133.444 72.5716 133.896 71.1143C135.567 66.4004 138.695 64.3489 143 62.0001C145.164 61.5665 145.164 61.5665 147.25 61.3126C151.12 60.4428 151.12 60.4428 152.215 57.6173C152.867 55.6545 153.488 53.6813 154.078 51.6993C155.91 46.3361 160.121 43.502 165 41.0001C168.813 39.7055 172.692 39.8451 176.671 39.839ZM167 59.0001C167 59.3301 167 59.6601 167 60.0001C194.72 60.0001 222.44 60.0001 251 60.0001C249.5 56.0001 249.5 56.0001 247 55.0001C244.611 54.8866 242.25 54.8323 239.86 54.8231C238.757 54.8132 238.757 54.8132 237.632 54.8032C235.195 54.7834 232.758 54.7718 230.32 54.7618C229.489 54.7577 228.657 54.7537 227.8 54.7495C223.4 54.7286 218.999 54.7143 214.598 54.7049C210.049 54.6939 205.501 54.6594 200.953 54.6198C197.458 54.5936 193.963 54.5852 190.468 54.5816C188.791 54.5768 187.114 54.5651 185.437 54.5466C183.09 54.5223 180.745 54.5232 178.399 54.5301C177.706 54.5173 177.013 54.5045 176.299 54.4913C171.789 54.5401 169.733 55.3864 167 59.0001ZM146 79.0001C145.516 81.9091 145.343 84.223 145.406 87.1251C145.406 87.909 145.406 88.6929 145.406 89.5006C145.412 91.1548 145.429 92.809 145.458 94.463C145.5 96.9918 145.499 99.5179 145.492 102.047C145.503 103.656 145.516 105.266 145.531 106.875C145.532 107.629 145.532 108.384 145.532 109.161C145.603 112.332 145.803 114.64 147.342 117.445C150.188 120.114 152.978 120.128 156.693 120.147C157.658 120.154 158.622 120.162 159.616 120.169C160.673 120.172 161.729 120.174 162.818 120.177C163.932 120.184 165.046 120.19 166.194 120.197C169.887 120.217 173.58 120.228 177.274 120.238C179.163 120.244 179.163 120.244 181.091 120.251C187.068 120.269 193.046 120.284 199.023 120.292C205.92 120.302 212.816 120.328 219.713 120.369C225.689 120.403 231.665 120.414 237.642 120.419C240.183 120.423 242.724 120.435 245.266 120.454C248.819 120.478 252.371 120.477 255.923 120.47C256.976 120.483 258.029 120.496 259.113 120.509C263.532 120.477 266.259 120.421 270.154 118.208C272.898 114.927 272.68 111.704 272.594 107.621C272.594 106.813 272.594 106.004 272.594 105.171C272.589 103.466 272.571 101.76 272.542 100.055C272.5 97.4428 272.501 94.8332 272.508 92.2208C272.497 90.5626 272.485 88.9044 272.469 87.2462C272.469 86.4649 272.468 85.6836 272.468 84.8786C272.397 80.7403 272.397 80.7403 270.721 77.0472C267.396 75.0237 264.049 74.8726 260.225 74.8529C258.789 74.8422 258.789 74.8422 257.323 74.8312C256.28 74.8285 255.236 74.8259 254.161 74.8231C253.056 74.8165 251.952 74.8099 250.814 74.8032C247.158 74.7835 243.503 74.7718 239.848 74.7618C238.6 74.7577 237.352 74.7537 236.067 74.7495C230.147 74.7308 224.227 74.7162 218.307 74.7078C211.48 74.6981 204.653 74.6717 197.825 74.6313C191.906 74.5975 185.987 74.5857 180.068 74.5816C177.551 74.5768 175.035 74.5651 172.519 74.5466C169.002 74.5223 165.486 74.5232 161.969 74.5301C160.927 74.5173 159.886 74.5045 158.812 74.4913C153.377 74.5306 149.734 74.5634 146 79.0001ZM98.0001 89.0001C98.0001 192.29 98.0001 295.58 98.0001 402C141.56 402 185.12 402 230 402C229.254 395.625 229.254 395.625 227.938 389.5C227.628 388.345 227.319 387.19 227 386C226.441 385.999 225.882 385.997 225.306 385.996C211.711 385.959 198.115 385.899 184.52 385.816C177.945 385.777 171.371 385.744 164.796 385.729C158.455 385.714 152.114 385.68 145.773 385.632C143.35 385.617 140.927 385.609 138.504 385.608C135.118 385.606 131.732 385.579 128.347 385.546C127.338 385.551 126.33 385.556 125.291 385.561C124.369 385.547 123.448 385.533 122.499 385.519C121.698 385.515 120.897 385.512 120.072 385.508C117.172 384.797 116.544 383.506 115 381C114.625 378.777 114.625 378.777 114.625 376.302C114.618 375.356 114.611 374.41 114.604 373.436C114.611 372.4 114.618 371.363 114.626 370.296C114.622 369.193 114.618 368.089 114.614 366.953C114.604 363.243 114.616 359.534 114.628 355.824C114.625 353.17 114.622 350.516 114.617 347.862C114.607 341.393 114.614 334.925 114.626 328.456C114.64 320.926 114.638 313.396 114.636 305.865C114.633 292.431 114.644 278.996 114.664 265.562C114.683 252.521 114.69 239.48 114.684 226.439C114.678 212.243 114.679 198.048 114.69 183.853C114.691 182.339 114.692 180.826 114.694 179.313C114.694 178.568 114.695 177.824 114.695 177.057C114.699 171.806 114.699 166.555 114.697 161.304C114.695 154.906 114.7 148.508 114.715 142.11C114.722 138.845 114.725 135.58 114.721 132.314C114.718 128.778 114.727 125.241 114.739 121.704C114.736 120.668 114.732 119.632 114.728 118.565C114.734 117.618 114.74 116.672 114.746 115.698C114.747 114.473 114.747 114.473 114.748 113.224C115.034 110.701 115.599 109.115 117 107C121.582 105.473 126.191 105.396 131 105C131 99.7201 131 94.4401 131 89.0001C120.11 89.0001 109.22 89.0001 98.0001 89.0001ZM287 89.0001C287 94.2801 287 99.5601 287 105C288.733 105.124 290.465 105.248 292.25 105.375C295.968 105.641 298.823 105.974 302 108C303.412 110.824 303.141 113.193 303.158 116.353C303.166 117.342 303.166 117.342 303.173 118.35C303.189 120.569 303.197 122.788 303.205 125.006C303.215 126.593 303.225 128.179 303.235 129.766C303.263 134.082 303.284 138.398 303.303 142.713C303.325 147.221 303.353 151.728 303.38 156.235C303.429 164.773 303.474 173.312 303.518 181.851C303.567 191.57 303.622 201.289 303.677 211.009C303.791 231.006 303.898 251.003 304 271C305.917 270.858 307.834 270.712 309.75 270.563C310.817 270.481 311.885 270.4 312.984 270.316C316.193 270.051 316.193 270.051 320 269C320 209.6 320 150.2 320 89.0001C309.11 89.0001 298.22 89.0001 287 89.0001ZM129 120C129 202.83 129 285.66 129 371C161.01 371 193.02 371 226 371C226.66 364.4 227.32 357.8 228 351C231.543 333.853 238.705 318.42 250 305C250.806 303.952 250.806 303.952 251.629 302.883C261.46 290.613 275.488 283.507 289 276C289 224.52 289 173.04 289 120C287.68 120.33 286.36 120.66 285 121C284.021 122.73 283.046 124.462 282.117 126.219C279.21 130.854 274.456 132.39 269.368 133.596C264.802 134.375 260.222 134.286 255.602 134.275C254.486 134.28 253.369 134.285 252.219 134.29C248.544 134.304 244.87 134.303 241.195 134.301C238.63 134.305 236.065 134.309 233.499 134.314C228.128 134.321 222.757 134.321 217.385 134.316C211.198 134.31 205.011 134.322 198.824 134.343C192.846 134.363 186.868 134.366 180.891 134.363C178.359 134.363 175.827 134.368 173.296 134.378C169.749 134.391 166.203 134.384 162.657 134.372C161.103 134.384 161.103 134.384 159.517 134.396C151.828 134.34 144.279 133.637 138.125 128.688C136 126 136 126 133.875 122.688C133.256 121.801 132.638 120.914 132 120C131.01 120 130.02 120 129 120ZM261 313C251.181 324.959 245.235 338.993 242 354C241.739 355.183 241.739 355.183 241.472 356.391C238.987 370.139 240.54 384.87 245 398C245.351 399.04 245.701 400.081 246.063 401.152C254.553 423.588 271.746 440.099 293.179 450.195C313.619 459.226 336.991 459.335 357.813 451.688C380.45 442.297 397.31 426.225 407.375 403.938C415.668 383.021 415.794 359.461 407.609 338.426C406.189 335.207 404.658 332.103 403 329C402.537 328.13 402.075 327.26 401.598 326.363C390.575 306.913 373.147 293.11 351.789 286.742C350.869 286.497 349.948 286.252 349 286C348.203 285.776 347.407 285.551 346.586 285.32C315.245 278.057 282.048 289.097 261 313Z" fill="#053553"/>
<path d="M386.254 320.652C391.341 322.901 394.369 326.134 397 331C398.667 336.001 398.777 340.2 396.707 344.996C391.878 353.493 383.784 360.306 376.937 367.187C376.182 367.948 375.426 368.708 374.648 369.491C370.479 373.648 366.207 377.599 361.749 381.442C359.439 383.499 357.411 385.735 355.375 388.062C350.167 393.859 344.756 399.457 339.285 405.003C338.312 405.992 337.343 406.984 336.378 407.98C323.764 420.983 323.764 420.983 314.937 421.437C305.079 420.342 300.058 414.653 293.324 407.855C292.308 406.842 291.292 405.83 290.275 404.817C288.153 402.701 286.038 400.578 283.928 398.45C281.231 395.729 278.515 393.027 275.794 390.33C273.695 388.245 271.605 386.15 269.517 384.053C268.52 383.053 267.52 382.056 266.516 381.062C265.114 379.67 263.726 378.263 262.339 376.856C261.547 376.061 260.755 375.267 259.94 374.448C256.226 369.761 255.393 364.865 256 359C258.172 352.534 261.835 348.082 268 345C270.504 344.691 270.504 344.691 273.562 344.562C274.554 344.502 275.545 344.441 276.566 344.379C287.112 346.286 294.891 356.54 302.062 363.875C303.225 365.053 304.389 366.23 305.553 367.406C308.377 370.263 311.191 373.129 314 376C317.849 374.418 320.258 371.971 323.164 369.031C323.916 368.275 323.916 368.275 324.683 367.503C325.768 366.411 326.85 365.316 327.931 364.219C329.641 362.483 331.358 360.754 333.077 359.025C336.723 355.356 340.362 351.678 344 348C348.216 343.737 352.435 339.477 356.663 335.225C358.353 333.522 360.037 331.813 361.721 330.103C362.759 329.058 363.797 328.013 364.836 326.969C365.739 326.055 366.642 325.142 367.572 324.201C373.055 319.23 379.186 318.607 386.254 320.652ZM375.446 337.233C374.408 338.281 373.378 339.338 372.354 340.4C371.79 340.974 371.225 341.548 370.643 342.139C369.416 343.388 368.191 344.641 366.97 345.896C365.035 347.883 363.09 349.859 361.142 351.832C355.602 357.445 350.08 363.074 344.571 368.717C341.202 372.166 337.819 375.601 334.426 379.026C333.136 380.334 331.853 381.648 330.575 382.968C328.784 384.816 326.976 386.645 325.163 388.47C324.641 389.019 324.119 389.567 323.582 390.131C319.914 393.77 317.145 394.846 312 395C310.067 394.076 310.067 394.076 308.453 392.469C307.45 391.496 307.45 391.496 306.428 390.504C305.626 389.678 304.825 388.851 304 388C302.936 386.925 301.872 385.851 300.807 384.777C296.457 380.375 292.12 375.959 287.825 371.503C285.973 369.584 284.105 367.682 282.234 365.781C281.668 365.186 281.101 364.59 280.517 363.976C278.757 362.146 278.757 362.146 276 360C273.848 360.281 273.848 360.281 272 361C272.506 365.295 273.73 367.223 276.785 370.239C277.586 371.04 278.387 371.84 279.212 372.665C280.082 373.514 280.951 374.363 281.848 375.238C282.734 376.119 283.62 377 284.534 377.907C286.886 380.241 289.246 382.565 291.611 384.886C294.025 387.258 296.427 389.642 298.83 392.025C303.543 396.694 308.267 401.351 313 406C318.074 404.513 320.932 401.475 324.534 397.806C325.169 397.172 325.804 396.538 326.458 395.884C328.548 393.792 330.627 391.689 332.707 389.586C334.156 388.131 335.607 386.676 337.057 385.223C340.87 381.399 344.673 377.566 348.475 373.731C352.357 369.818 356.248 365.913 360.139 362.008C367.767 354.347 375.387 346.676 383 339C382.01 337.02 382.01 337.02 381 335C377.811 334.671 377.811 334.671 375.446 337.233Z" fill="#053553"/>
<path d="M165.418 247.514C166.99 247.508 166.99 247.508 168.593 247.503C172.053 247.495 175.513 247.517 178.973 247.539C181.377 247.541 183.782 247.542 186.187 247.542C191.225 247.545 196.262 247.562 201.3 247.588C207.762 247.622 214.224 247.63 220.686 247.628C225.651 247.629 230.615 247.64 235.58 247.654C237.963 247.661 240.346 247.665 242.729 247.666C246.056 247.671 249.384 247.688 252.711 247.709C253.699 247.709 254.687 247.708 255.704 247.707C257.065 247.719 257.065 247.719 258.453 247.733C259.239 247.736 260.025 247.739 260.835 247.743C263.297 248.035 264.902 248.692 267 250C268.546 253.092 268.294 255.594 268 259C266.636 261.194 266.636 261.194 264 263C260.508 263.605 257.048 263.546 253.512 263.518C252.445 263.525 251.378 263.532 250.278 263.539C246.748 263.556 243.218 263.545 239.688 263.531C237.237 263.534 234.786 263.538 232.335 263.543C227.197 263.549 222.059 263.54 216.921 263.521C210.33 263.499 203.739 263.512 197.148 263.536C192.087 263.55 187.025 263.546 181.964 263.535C179.533 263.533 177.103 263.536 174.672 263.545C171.277 263.555 167.883 263.54 164.488 263.518C162.977 263.53 162.977 263.53 161.434 263.542C154.664 263.46 154.664 263.46 151.38 261.186C149.321 257.924 149.395 255.768 150 252C154.372 246.921 159.203 247.443 165.418 247.514Z" fill="#053553"/>
<path d="M160.351 208.86C161.685 208.851 161.685 208.851 163.045 208.842C164.017 208.841 164.99 208.84 165.992 208.839C167.531 208.832 167.531 208.832 169.102 208.824C172.503 208.809 175.904 208.802 179.305 208.797C181.665 208.791 184.025 208.785 186.386 208.78C191.337 208.769 196.289 208.763 201.24 208.76C207.588 208.754 213.935 208.73 220.283 208.702C225.159 208.683 230.035 208.678 234.911 208.677C237.252 208.673 239.592 208.665 241.932 208.652C245.205 208.635 248.477 208.637 251.75 208.644C252.718 208.634 253.687 208.625 254.685 208.616C260.104 208.649 263.967 208.967 268 213C268.466 219.167 268.466 219.167 266.772 222.199C265 224 265 224 262.89 224.503C261.661 224.506 261.661 224.506 260.408 224.508C259.465 224.519 258.523 224.531 257.553 224.542C256.521 224.534 255.489 224.526 254.426 224.518C252.794 224.528 252.794 224.528 251.129 224.539C247.523 224.557 243.918 224.545 240.313 224.531C237.813 224.534 235.313 224.538 232.814 224.543C227.572 224.549 222.329 224.541 217.087 224.522C211.025 224.5 204.964 224.507 198.903 224.529C193.072 224.549 187.242 224.547 181.412 224.535C178.931 224.533 176.449 224.536 173.968 224.545C170.503 224.555 167.039 224.54 163.574 224.518C162.027 224.53 162.027 224.53 160.448 224.542C159.035 224.525 159.035 224.525 157.593 224.508C156.773 224.507 155.954 224.505 155.11 224.503C153 224 153 224 151.237 222.191C149.438 219.004 149.609 216.59 150 213C152.622 209.254 156.017 208.876 160.351 208.86Z" fill="#053553"/>
<path d="M155.11 170.497C156.339 170.494 156.339 170.494 157.592 170.492C158.535 170.481 159.477 170.47 160.448 170.458C161.479 170.466 162.511 170.474 163.574 170.482C165.206 170.472 165.206 170.472 166.871 170.461C170.477 170.444 174.082 170.455 177.687 170.469C180.187 170.466 182.687 170.462 185.186 170.457C190.429 170.451 195.671 170.459 200.913 170.479C206.975 170.5 213.036 170.493 219.098 170.471C224.928 170.451 230.758 170.453 236.588 170.465C239.069 170.467 241.551 170.464 244.033 170.455C247.497 170.445 250.961 170.46 254.426 170.482C255.973 170.47 255.973 170.47 257.552 170.458C258.966 170.475 258.966 170.475 260.407 170.492C261.227 170.494 262.046 170.495 262.89 170.497C265 171 265 171 266.764 172.809C268.562 175.997 268.392 178.41 268 182C266.169 184.616 265.09 184.97 262 186C260.552 186.095 259.1 186.135 257.649 186.14C256.315 186.149 256.315 186.149 254.955 186.158C253.983 186.159 253.01 186.16 252.008 186.161C250.469 186.169 250.469 186.169 248.898 186.176C245.497 186.191 242.096 186.198 238.695 186.203C236.335 186.209 233.975 186.215 231.614 186.22C226.663 186.231 221.712 186.237 216.76 186.24C210.412 186.246 204.065 186.27 197.717 186.298C192.841 186.317 187.965 186.322 183.089 186.324C180.748 186.327 178.408 186.335 176.068 186.348C172.795 186.365 169.523 186.363 166.25 186.356C165.282 186.366 164.313 186.375 163.316 186.384C157.896 186.351 154.033 186.033 150 182C149.535 175.833 149.535 175.833 151.229 172.801C153 171 153 171 155.11 170.497Z" fill="#053553"/>
<path d="M161.108 286.498C162.169 286.49 162.169 286.49 163.252 286.482C165.587 286.469 167.92 286.486 170.254 286.504C171.878 286.504 173.501 286.502 175.125 286.499C178.526 286.498 181.926 286.511 185.326 286.533C189.686 286.562 194.046 286.559 198.407 286.546C201.758 286.539 205.11 286.547 208.462 286.56C210.07 286.564 211.678 286.564 213.286 286.561C215.531 286.558 217.776 286.574 220.022 286.596C221.939 286.604 221.939 286.604 223.895 286.612C227 287 227 287 228.885 288.377C230.427 290.622 230.806 292.284 231 295C229.936 298.813 229.375 299.75 226 302C222.933 302.267 222.933 302.267 219.113 302.291C218.417 302.297 217.721 302.304 217.004 302.311C214.701 302.33 212.4 302.334 210.098 302.336C208.497 302.342 206.897 302.349 205.296 302.356C201.941 302.368 198.587 302.372 195.232 302.371C190.933 302.37 186.635 302.398 182.336 302.432C179.03 302.454 175.725 302.458 172.42 302.457C170.835 302.46 169.25 302.469 167.665 302.484C165.448 302.504 163.233 302.498 161.016 302.486C159.124 302.49 159.124 302.49 157.194 302.494C154 302 154 302 151.593 300.188C149.267 296.993 149.45 294.851 150 291C153.183 286.613 155.859 286.499 161.108 286.498Z" fill="#053553"/>
<path d="M155.353 325.499C156.741 325.498 156.741 325.498 158.158 325.498C159.209 325.489 160.261 325.479 161.344 325.47C162.478 325.481 163.612 325.492 164.781 325.504C166.529 325.502 166.529 325.502 168.312 325.499C170.776 325.501 173.241 325.513 175.706 325.533C179.485 325.562 183.263 325.554 187.043 325.541C189.435 325.547 191.827 325.556 194.219 325.566C195.92 325.562 195.92 325.562 197.656 325.557C198.708 325.57 199.759 325.583 200.842 325.596C202.231 325.604 202.231 325.604 203.647 325.612C206.454 326.075 207.319 326.743 209 329C210.103 332.623 210.301 334.322 208.75 337.812C207 340 207 340 204 341C202.416 341.106 200.828 341.158 199.241 341.177C197.794 341.196 197.794 341.196 196.318 341.216C194.757 341.227 194.757 341.227 193.164 341.238C192.093 341.246 191.021 341.254 189.917 341.263C187.649 341.276 185.381 341.287 183.113 341.295C179.645 341.312 176.179 341.356 172.711 341.4C170.508 341.41 168.305 341.419 166.102 341.426C165.065 341.443 164.028 341.461 162.96 341.479C158.507 341.465 155.759 341.434 151.837 339.192C150 337 150 337 149.5 333.5C150.101 329.295 150.901 326.447 155.353 325.499Z" fill="#053553"/>
</svg>
