<?xml version="1.0" encoding="UTF-8"?>
<!DOCTYPE svg PUBLIC "-//W3C//DTD SVG 1.1//EN" "http://www.w3.org/Graphics/SVG/1.1/DTD/svg11.dtd">
<svg xmlns="http://www.w3.org/2000/svg" version="1.1" width="512px" height="512px" style="shape-rendering:geometricPrecision; text-rendering:geometricPrecision; image-rendering:optimizeQuality; fill-rule:evenodd; clip-rule:evenodd" xmlns:xlink="http://www.w3.org/1999/xlink">
<g><path style="opacity:0.944" fill="#000000" d="M 242.5,-0.5 C 251.833,-0.5 261.167,-0.5 270.5,-0.5C 315.615,9.11797 341.782,36.7846 349,82.5C 350.737,128.548 330.57,160.715 288.5,179C 246.617,191.478 211.45,181.311 183,148.5C 162.519,118.853 158.853,87.1867 172,53.5C 186.73,23.9235 210.23,5.92346 242.5,-0.5 Z M 254.5,16.5 C 256.199,16.3398 257.866,16.5065 259.5,17C 267.489,25.2596 272.655,35.0929 275,46.5C 275.996,50.8157 276.83,55.1491 277.5,59.5C 263.496,59.6666 249.496,59.4999 235.5,59C 237.774,45.1743 242.608,32.3409 250,20.5C 251.397,18.9297 252.897,17.5964 254.5,16.5 Z M 227.5,21.5 C 228.043,21.56 228.376,21.8933 228.5,22.5C 223.449,34.3708 220.116,46.7041 218.5,59.5C 208.494,59.6665 198.494,59.4998 188.5,59C 197.133,41.8651 210.133,29.3651 227.5,21.5 Z M 284.5,21.5 C 302.283,28.9465 315.616,41.2798 324.5,58.5C 314.522,59.4985 304.522,59.8319 294.5,59.5C 293.041,46.3281 289.707,33.6615 284.5,21.5 Z M 182.5,76.5 C 193.833,76.5 205.167,76.5 216.5,76.5C 216.5,88.1667 216.5,99.8333 216.5,111.5C 205.5,111.5 194.5,111.5 183.5,111.5C 181.308,99.8915 180.975,88.2248 182.5,76.5 Z M 233.5,76.5 C 248.833,76.5 264.167,76.5 279.5,76.5C 280.668,88.1564 280.668,99.823 279.5,111.5C 264.496,111.667 249.496,111.5 234.5,111C 233.512,99.5809 233.179,88.0809 233.5,76.5 Z M 296.5,76.5 C 307.838,76.3335 319.172,76.5001 330.5,77C 333.257,88.4072 332.924,99.7405 329.5,111C 318.505,111.5 307.505,111.667 296.5,111.5C 297.718,99.8219 297.718,88.1552 296.5,76.5 Z M 191.5,128.5 C 200.833,128.5 210.167,128.5 219.5,128.5C 220.941,139.598 223.941,150.265 228.5,160.5C 228.167,160.833 227.833,161.167 227.5,161.5C 211.627,154.623 199.627,143.623 191.5,128.5 Z M 236.5,128.5 C 249.833,128.5 263.167,128.5 276.5,128.5C 274.779,141.269 270.279,152.936 263,163.5C 260.435,167.134 257.268,167.967 253.5,166C 247.689,160.218 243.522,153.385 241,145.5C 239.34,139.858 237.84,134.192 236.5,128.5 Z M 294.5,128.5 C 303.839,128.334 313.173,128.5 322.5,129C 313.493,143.521 301.16,154.355 285.5,161.5C 288.995,150.961 291.995,139.961 294.5,128.5 Z"/></g>
<g><path style="opacity:0.934" fill="#000000" d="M 212.5,511.5 C 207.167,511.5 201.833,511.5 196.5,511.5C 184.791,507.124 177.791,498.791 175.5,486.5C 156.782,489.117 144.449,481.451 138.5,463.5C 110.148,463.337 98.4814,449.504 103.5,422C 83.6653,414.163 76.8319,399.996 83,379.5C 89.3841,370.11 96.8841,361.61 105.5,354C 104.392,350.961 103.725,347.794 103.5,344.5C 105.235,338.286 104.735,332.286 102,326.5C 96.3333,320.833 90.6667,315.167 85,309.5C 80.7564,314.415 75.9231,318.581 70.5,322C 65.3575,324.04 60.3575,323.707 55.5,321C 40,305.5 24.5,290 9,274.5C 5.67714,268.816 5.67714,263.15 9,257.5C 45.8054,219.694 82.9721,182.194 120.5,145C 127,140.853 133.667,140.519 140.5,144C 155.667,159.167 170.833,174.333 186,189.5C 188.835,195.019 189.169,200.686 187,206.5C 183.201,211.301 179.034,215.801 174.5,220C 179.742,226.775 186.409,231.275 194.5,233.5C 204.003,230.933 213.669,229.266 223.5,228.5C 230.726,228.722 237.726,230.055 244.5,232.5C 257.168,226.333 270.502,224.166 284.5,226C 293.833,228 303.167,230 312.5,232C 318.535,233.405 323.868,232.072 328.5,228C 331.167,225.333 333.833,222.667 336.5,220C 331.966,215.801 327.799,211.301 324,206.5C 321.831,200.686 322.165,195.019 325,189.5C 340.167,174.333 355.333,159.167 370.5,144C 377.333,140.519 384,140.853 390.5,145C 427,181.5 463.5,218 500,254.5C 504.599,260.814 505.266,267.48 502,274.5C 486.5,290 471,305.5 455.5,321C 448.98,324.526 442.647,324.193 436.5,320C 433,316.5 429.5,313 426,309.5C 420.333,315.167 414.667,320.833 409,326.5C 406.265,332.286 405.765,338.286 407.5,344.5C 407.29,355.967 403.623,366.133 396.5,375C 408.465,386.758 410.965,400.258 404,415.5C 396.32,427.016 385.487,432.35 371.5,431.5C 366.945,452.546 353.945,461.712 332.5,459C 326.868,478.606 313.868,486.94 293.5,484C 291.112,483.697 288.945,482.863 287,481.5C 280.373,499.403 267.54,506.903 248.5,504C 242.667,502.826 237.834,499.993 234,495.5C 228.297,503.068 221.131,508.401 212.5,511.5 Z M 130.5,159.5 C 144.581,172.078 158.248,185.245 171.5,199C 135.986,234.68 100.32,270.18 64.5,305.5C 51.014,292.514 37.6806,279.347 24.5,266C 60.0348,230.632 95.3681,195.132 130.5,159.5 Z M 378.5,159.5 C 414.916,194.415 450.916,229.915 486.5,266C 473.319,279.347 459.986,292.514 446.5,305.5C 410.68,270.18 375.014,234.68 339.5,199C 352.702,185.965 365.702,172.798 378.5,159.5 Z M 161.5,232.5 C 165.905,235.396 169.905,238.896 173.5,243C 179.344,247.28 185.844,249.78 193,250.5C 201.798,249.096 210.631,247.596 219.5,246C 222.167,245.333 224.833,245.333 227.5,246C 219,254.5 210.5,263 202,271.5C 197.295,280.062 196.295,289.062 199,298.5C 207,314.5 215,330.5 223,346.5C 228.317,353.088 235.15,355.255 243.5,353C 265.673,340.811 273.84,322.311 268,297.5C 273.289,293.88 278.289,289.88 283,285.5C 317.667,320.167 352.333,354.833 387,389.5C 393.08,399.301 391.246,407.135 381.5,413C 376.889,414.007 372.555,413.34 368.5,411C 351.862,395.362 335.529,379.362 319.5,363C 312.419,360.373 308.085,362.706 306.5,370C 306.542,371.967 307.042,373.801 308,375.5C 323.362,390.529 338.362,405.862 353,421.5C 356,432.501 352,439.501 341,442.5C 337.616,441.928 334.449,440.761 331.5,439C 314.167,423 296.833,407 279.5,391C 269.408,388.304 265.241,392.138 267,402.5C 282.032,417.2 297.365,431.533 313,445.5C 317.741,455.186 315.241,462.353 305.5,467C 300.889,468.007 296.555,467.34 292.5,465C 278.5,451 264.5,437 250.5,423C 242.925,419.582 238.259,421.915 236.5,430C 236.909,432.321 237.743,434.487 239,436.5C 248.667,446.167 258.333,455.833 268,465.5C 272.301,473.569 270.801,480.403 263.5,486C 254.775,489.594 248.108,487.428 243.5,479.5C 246.268,460.706 238.601,448.373 220.5,442.5C 221.349,424.333 213.349,412.167 196.5,406C 201.659,382.486 192.326,368.986 168.5,365.5C 166.241,365.532 164.075,365.866 162,366.5C 158.643,350.156 148.643,341.49 132,340.5C 128.048,340.79 124.215,341.29 120.5,342C 122.671,331.522 120.504,322.022 114,313.5C 108.5,308 103,302.5 97.5,297C 119.035,275.632 140.368,254.132 161.5,232.5 Z M 347.5,232.5 C 369.915,253.414 391.915,274.914 413.5,297C 405.928,303.901 399.095,311.401 393,319.5C 389.52,327.554 388.686,335.887 390.5,344.5C 390.002,351.165 387.835,357.165 384,362.5C 352.167,330.667 320.333,298.833 288.5,267C 285.2,265.121 281.866,265.121 278.5,267C 268.375,274.79 258.542,282.956 249,291.5C 248.306,297.432 249.306,303.099 252,308.5C 253.707,321.086 249.04,330.42 238,336.5C 228.818,321.136 220.984,305.136 214.5,288.5C 214.466,285.567 215.299,282.9 217,280.5C 225.833,271.667 234.667,262.833 243.5,254C 252.59,246.413 263.09,242.58 275,242.5C 286.63,243.893 298.13,246.059 309.5,249C 325.646,251.425 338.312,245.925 347.5,232.5 Z M 129.5,357.5 C 142.727,358.529 147.227,365.196 143,377.5C 135.167,386.667 126.667,395.167 117.5,403C 108.59,407.027 102.09,404.527 98,395.5C 97.0885,391.548 97.7552,387.881 100,384.5C 108.167,376.333 116.333,368.167 124.5,360C 126.315,359.243 127.981,358.41 129.5,357.5 Z M 165.5,382.5 C 174.759,382.117 180.092,386.45 181.5,395.5C 181.17,398.324 180.336,400.991 179,403.5C 165.833,416.667 152.667,429.833 139.5,443C 130.254,447.99 123.42,445.824 119,436.5C 118.035,432.218 118.702,428.218 121,424.5C 134.167,411.333 147.333,398.167 160.5,385C 162.315,384.243 163.981,383.41 165.5,382.5 Z M 187.5,422.5 C 200.447,424.403 204.613,431.403 200,443.5C 191.833,451.667 183.667,459.833 175.5,468C 166.579,471.973 160.079,469.473 156,460.5C 155.183,457.036 155.517,453.702 157,450.5C 165.835,439.489 176.002,430.156 187.5,422.5 Z M 209.5,459.5 C 224.421,458.9 229.588,465.567 225,479.5C 220.5,484 216,488.5 211.5,493C 204.861,495.745 199.028,494.579 194,489.5C 190.667,484.5 190.667,479.5 194,474.5C 199.062,469.269 204.229,464.269 209.5,459.5 Z"/></g>
</svg>
