<?xml version="1.0" encoding="UTF-8"?>
<!DOCTYPE svg PUBLIC "-//W3C//DTD SVG 1.1//EN" "http://www.w3.org/Graphics/SVG/1.1/DTD/svg11.dtd">
<svg xmlns="http://www.w3.org/2000/svg" version="1.1" width="512px" height="513px" style="shape-rendering:geometricPrecision; text-rendering:geometricPrecision; image-rendering:optimizeQuality; fill-rule:evenodd; clip-rule:evenodd" xmlns:xlink="http://www.w3.org/1999/xlink">
<g><path style="opacity:0.943" fill="#000000" d="M 283.5,-0.5 C 293.5,-0.5 303.5,-0.5 313.5,-0.5C 373.004,12.2931 405.004,49.1264 409.5,110C 407.045,157.603 384.378,191.603 341.5,212C 291.729,229.349 248.896,218.849 213,180.5C 182.797,139.453 179.797,96.4531 204,51.5C 222.841,22.4937 249.341,5.16035 283.5,-0.5 Z M 285.5,20.5 C 324.658,17.1643 354.824,31.831 376,64.5C 396.963,107.684 390.129,145.85 355.5,179C 319.527,205.093 282.86,206.093 245.5,182C 210.965,153.032 201.131,117.198 216,74.5C 230.023,44.6345 253.19,26.6345 285.5,20.5 Z"/></g>
<g><path style="opacity:0.936" fill="#000000" d="M 291.5,39.5 C 297.52,38.2202 302.353,39.8868 306,44.5C 307.217,50.101 307.717,55.7676 307.5,61.5C 313.544,63.3592 318.71,66.6925 323,71.5C 326.527,80.4458 323.694,86.1125 314.5,88.5C 312.058,87.9639 309.725,87.1306 307.5,86C 300.955,79.0211 294.455,78.8544 288,85.5C 286.345,90.9367 287.845,95.1034 292.5,98C 313.269,98.8617 324.936,109.528 327.5,130C 326.326,143.191 319.826,152.691 308,158.5C 307.986,164.695 306.986,170.695 305,176.5C 299.333,181.833 293.667,181.833 288,176.5C 286.014,170.695 285.014,164.695 285,158.5C 277.101,154.927 270.768,149.594 266,142.5C 264.667,131.502 269.5,127.002 280.5,129C 283.797,131.295 286.797,133.962 289.5,137C 294.768,140.641 299.602,140.141 304,135.5C 307.112,129.127 305.612,124.293 299.5,121C 273.246,118.282 262.746,104.116 268,78.5C 270.968,70.3653 276.468,64.6987 284.5,61.5C 285.279,55.8227 286.112,50.1561 287,44.5C 288.366,42.6383 289.866,40.9717 291.5,39.5 Z"/></g>
<g><path style="opacity:0.945" fill="#000000" d="M 511.5,238.5 C 511.5,247.833 511.5,257.167 511.5,266.5C 508.649,272.198 505.149,277.532 501,282.5C 471.624,316.874 442.624,351.541 414,386.5C 398.991,400.753 381.157,409.253 360.5,412C 311.167,412.333 261.833,412.667 212.5,413C 207.864,413.879 203.531,415.545 199.5,418C 195.134,422.701 190.467,427.034 185.5,431C 188.514,440.622 187.347,449.788 182,458.5C 163.938,476.729 145.772,494.729 127.5,512.5C 124.167,512.5 120.833,512.5 117.5,512.5C 79.2556,473.755 40.7556,435.089 2,396.5C 1.3918,394.934 0.558465,393.6 -0.5,392.5C -0.5,390.167 -0.5,387.833 -0.5,385.5C 17.2641,366.507 35.5974,348.007 54.5,330C 61.6765,326.291 69.3432,324.457 77.5,324.5C 103.006,282.651 140.506,261.651 190,261.5C 207.139,261.384 223.639,264.551 239.5,271C 279.167,271.333 318.833,271.667 358.5,272C 368.276,273.887 376.61,278.387 383.5,285.5C 404.987,263.846 426.321,242.012 447.5,220C 466.573,207.862 484.739,209.028 502,223.5C 505.851,228.16 509.018,233.16 511.5,238.5 Z M 469.5,232.5 C 487.958,234.106 494.791,243.773 490,261.5C 458.251,300.586 425.751,339.086 392.5,377C 382.626,384.185 371.626,388.851 359.5,391C 309.833,391.333 260.167,391.667 210.5,392C 195.416,394.626 182.916,401.793 173,413.5C 147.167,387.667 121.333,361.833 95.5,336C 111.978,306.578 136.978,289.245 170.5,284C 192.946,280.397 214.613,283.064 235.5,292C 276.893,292.017 318.226,292.683 359.5,294C 371.637,301.084 374.471,310.917 368,323.5C 365.736,326.433 362.902,328.6 359.5,330C 328.894,331.311 298.228,331.977 267.5,332C 262.564,333.679 259.898,337.179 259.5,342.5C 260.261,346.866 262.594,350.033 266.5,352C 298.881,352.971 331.214,352.637 363.5,351C 383.931,343.329 393.764,328.496 393,306.5C 415.5,283.333 438,260.167 460.5,237C 463.437,235.199 466.437,233.699 469.5,232.5 Z M 67.5,346.5 C 70.9783,346.184 74.3117,346.684 77.5,348C 106.667,377.167 135.833,406.333 165,435.5C 167,438.833 167,442.167 165,445.5C 151.5,459 138,472.5 124.5,486C 123.5,486.667 122.5,486.667 121.5,486C 89.3196,453.986 57.3196,421.82 25.5,389.5C 39.5212,375.146 53.5212,360.813 67.5,346.5 Z"/></g>
<g><path style="opacity:0.893" fill="#000000" d="M 226.5,329.5 C 235.321,329.486 239.488,333.819 239,342.5C 236.724,349.751 231.89,352.251 224.5,350C 218.891,346.723 217.058,341.89 219,335.5C 221.109,332.878 223.609,330.878 226.5,329.5 Z"/></g>
</svg>
