<svg width="513" height="513" viewBox="0 0 513 513" fill="none" xmlns="http://www.w3.org/2000/svg">
<g clip-path="url(#clip0_221_200)">
<path d="M507.5 1.50002C510 3.00002 510 3.00002 511.5 5.50002C512.22 9.42646 512.595 11.884 510.318 15.2454C504.613 21.4902 498.655 27.4725 492.66 33.4375C491.527 34.5693 490.393 35.7013 489.26 36.8335C486.302 39.7882 483.34 42.7399 480.378 45.691C477.346 48.7127 474.317 51.7374 471.287 54.7617C465.361 60.6773 459.432 66.5897 453.5 72.5C453.91 73.2644 454.32 74.0288 454.742 74.8164C459.025 83.3304 460.776 90.9479 461.5 100.5C461.574 101.418 461.648 102.337 461.724 103.283C462.368 111.381 462.911 119.484 463.445 127.59C463.622 130.224 463.798 132.858 463.975 135.492C464.343 140.997 464.707 146.504 465.069 152.01C465.483 158.307 465.906 164.603 466.334 170.9C466.705 176.366 467.069 181.832 467.429 187.299C467.643 190.537 467.859 193.775 468.08 197.012C468.931 209.526 469.668 222.037 469.855 234.58C469.896 235.996 469.896 235.996 469.938 237.44C470.018 255.316 458.715 267.212 446.894 279.24C445.236 280.908 443.575 282.573 441.912 284.235C440.989 285.162 440.066 286.088 439.116 287.043C436.583 289.586 434.047 292.126 431.51 294.665C428.764 297.415 426.021 300.168 423.277 302.92C416.669 309.548 410.057 316.17 403.443 322.792C400.322 325.918 397.202 329.044 394.081 332.169C383.7 342.568 373.317 352.965 362.931 363.359C360.243 366.048 357.555 368.738 354.868 371.428C354.2 372.096 353.532 372.764 352.844 373.453C342.014 384.292 331.192 395.139 320.374 405.989C309.247 417.149 298.112 428.302 286.971 439.447C280.723 445.697 274.478 451.95 268.242 458.211C262.935 463.54 257.621 468.862 252.299 474.175C249.586 476.883 246.877 479.594 244.177 482.313C241.243 485.268 238.293 488.208 235.342 491.146C234.08 492.424 234.08 492.424 232.793 493.728C221.76 504.643 209.631 511.81 193.875 511.938C170.829 511.598 157.378 495.525 142.15 480.326C140.729 478.913 139.309 477.499 137.889 476.085C133.261 471.479 128.638 466.866 124.016 462.254C122.417 460.659 120.818 459.064 119.219 457.469C111.711 449.981 104.206 442.49 96.7037 434.996C88.0662 426.368 79.4206 417.749 70.7679 409.136C64.0608 402.46 57.3614 395.775 50.6678 389.085C46.6775 385.097 42.684 381.112 38.6823 377.136C34.9207 373.397 31.1689 369.65 27.4241 365.895C26.053 364.523 24.6785 363.155 23.3003 361.79C16.3366 354.892 9.85244 348.424 5.50017 339.5C5.17922 338.847 4.85829 338.194 4.52761 337.521C-0.0705979 327.481 -0.334487 313.16 3.46892 302.754C9.32331 289.959 19.3072 280.544 29.133 270.72C30.0606 269.789 30.9882 268.858 31.9439 267.898C34.4902 265.342 37.0395 262.789 39.5894 260.236C42.3499 257.472 45.1076 254.704 47.8657 251.938C54.5075 245.276 61.1541 238.619 67.8014 231.963C70.9379 228.822 74.0739 225.681 77.21 222.54C87.6422 212.09 98.0756 201.642 108.513 191.198C111.213 188.496 113.914 185.793 116.615 183.09C117.286 182.419 117.957 181.747 118.648 181.055C129.534 170.161 140.412 159.258 151.286 148.352C162.468 137.136 173.658 125.929 184.855 114.728C191.134 108.447 197.411 102.162 203.678 95.8682C209.012 90.5131 214.352 85.1648 219.701 79.8253C222.428 77.1035 225.151 74.3787 227.865 71.6449C230.813 68.6763 233.776 65.7236 236.74 62.772C238.012 61.4836 238.012 61.4836 239.31 60.1692C249.263 50.3222 260.545 43.3303 274.799 43.2714C275.735 43.2787 276.671 43.286 277.635 43.2935C278.638 43.2981 279.641 43.3027 280.675 43.3074C293.36 43.437 306 44.3167 318.653 45.1797C321.294 45.3548 323.936 45.5294 326.577 45.7034C332.07 46.0664 337.562 46.4353 343.053 46.8081C349.354 47.2358 355.656 47.6548 361.957 48.069C368.093 48.4725 374.228 48.8814 380.364 49.2928C382.943 49.4654 385.523 49.6368 388.103 49.807C395.906 50.3236 403.704 50.8854 411.5 51.5C412.741 51.5902 412.741 51.5902 414.006 51.6822C423.959 52.4372 431.76 54.7408 440.5 59.5C441.21 58.7881 441.919 58.0763 442.651 57.3428C449.329 50.6447 456.009 43.9491 462.692 37.2562C466.128 33.8149 469.563 30.3728 472.996 26.9285C476.307 23.6066 479.621 20.2871 482.936 16.9693C484.202 15.701 485.468 14.4319 486.733 13.1619C488.5 11.3876 490.27 9.61643 492.041 7.84596C492.566 7.31657 493.092 6.78717 493.634 6.24173C498.07 1.81819 501.18 0.638186 507.5 1.50002ZM242.631 82.2222C241.681 83.169 240.73 84.1157 239.78 85.0621C237.197 87.6351 234.617 90.2111 232.038 92.7877C229.245 95.5768 226.449 98.363 223.654 101.15C216.924 107.86 210.199 114.575 203.475 121.29C200.302 124.458 197.13 127.625 193.957 130.792C183.407 141.325 172.858 151.86 162.312 162.398C159.584 165.125 156.855 167.852 154.126 170.579C153.448 171.257 152.77 171.934 152.071 172.632C141.066 183.63 130.052 194.618 119.034 205.603C107.708 216.896 96.3895 228.197 85.0784 239.505C78.733 245.848 72.3844 252.188 66.0273 258.519C60.6194 263.906 55.2184 269.299 49.8262 274.701C47.0763 277.455 44.3233 280.206 41.5614 282.949C39.0314 285.461 36.5109 287.982 33.9974 290.511C32.6595 291.853 31.3117 293.184 29.9635 294.516C22.9685 301.586 18.4195 308.326 18.1877 318.563C18.3522 328.489 20.9978 334.242 27.8041 341.434C28.3319 341.999 28.8598 342.563 29.4037 343.145C35.6054 349.737 41.9908 356.147 48.3876 362.549C49.7346 363.9 51.0813 365.252 52.4279 366.604C56.045 370.234 59.6654 373.861 63.2867 377.487C65.5547 379.758 67.8221 382.029 70.0894 384.301C77.2007 391.426 84.314 398.549 91.4302 405.669C99.6153 413.859 107.794 422.055 115.967 430.257C122.311 436.622 128.661 442.982 135.015 449.338C138.8 453.124 142.582 456.912 146.358 460.706C149.905 464.269 153.459 467.825 157.018 471.376C158.319 472.675 159.616 473.977 160.911 475.282C174.932 489.64 174.932 489.64 193.813 494.875C208.661 494.529 217.339 483.811 227.167 473.974C228.12 473.024 229.072 472.074 230.025 471.124C232.624 468.534 235.22 465.94 237.815 463.345C240.622 460.54 243.431 457.739 246.24 454.936C252.371 448.819 258.497 442.699 264.623 436.577C268.45 432.753 272.278 428.93 276.105 425.107C286.71 414.514 297.314 403.92 307.915 393.323C308.592 392.646 309.269 391.969 309.967 391.271C310.646 390.593 311.325 389.914 312.024 389.215C313.4 387.84 314.775 386.465 316.151 385.09C316.833 384.408 317.515 383.726 318.218 383.023C329.287 371.959 340.362 360.901 351.44 349.846C362.823 338.487 374.2 327.122 385.572 315.752C391.953 309.371 398.337 302.993 404.727 296.621C410.164 291.199 415.596 285.773 421.021 280.339C423.789 277.568 426.558 274.799 429.335 272.037C431.877 269.507 434.413 266.97 436.943 264.427C438.291 263.077 439.646 261.734 441.001 260.391C449.481 251.842 452.697 245.615 452.668 233.508C452.666 232.589 452.664 231.669 452.662 230.721C452.561 218.245 451.661 205.811 450.82 193.367C450.646 190.711 450.471 188.054 450.297 185.398C449.933 179.873 449.564 174.348 449.192 168.823C448.764 162.468 448.345 156.112 447.931 149.755C447.529 143.583 447.12 137.411 446.707 131.24C446.534 128.637 446.363 126.033 446.193 123.43C445.956 119.794 445.71 116.158 445.462 112.523C445.394 111.464 445.326 110.405 445.257 109.314C444.572 96.9794 444.572 96.9794 440.5 85.5C435.815 89.4252 431.342 93.4946 426.998 97.7932C426.391 98.3908 425.784 98.9884 425.158 99.604C423.175 101.557 421.196 103.514 419.219 105.473C418.54 106.145 417.861 106.817 417.162 107.51C413.58 111.059 410.003 114.612 406.428 118.167C403.47 121.107 400.503 124.039 397.529 126.963C393.929 130.504 390.343 134.058 386.768 137.624C385.405 138.979 384.036 140.328 382.663 141.673C380.75 143.547 378.857 145.439 376.967 147.336C376.395 147.889 375.822 148.441 375.233 149.01C373.482 150.724 373.482 150.724 371.5 153.5C371.462 156.209 371.462 156.209 372.5 158.5C372.873 159.759 372.873 159.759 373.254 161.043C373.654 162.352 373.654 162.352 374.063 163.688C376.843 173.995 375.672 182.65 371.5 192.5C366.595 201.014 358.89 206.88 349.586 209.969C338.664 212.75 328.575 211.226 318.715 205.836C310.869 201.103 306.861 194.784 303.188 186.563C300.461 174.416 301.364 163.85 307.735 153.012C313.386 144.972 321.827 139.862 331.387 137.82C339.53 136.586 345.883 137.955 353.617 140.723C356.649 141.54 357.627 141.523 360.5 140.5C362.091 139.346 362.091 139.346 363.525 137.836C364.094 137.271 364.663 136.706 365.25 136.124C365.862 135.501 366.474 134.878 367.105 134.236C367.759 133.582 368.413 132.929 369.087 132.255C371.247 130.093 373.397 127.92 375.547 125.746C377.043 124.245 378.539 122.744 380.036 121.244C383.975 117.293 387.905 113.334 391.833 109.373C395.843 105.332 399.862 101.3 403.879 97.2676C411.761 89.3534 419.634 81.4297 427.5 73.5C426.645 71.2564 426.645 71.2564 424.083 70.4386C419.454 69.2259 414.931 68.843 410.169 68.4829C409.158 68.4011 408.148 68.3192 407.107 68.2349C403.906 67.9796 400.703 67.7373 397.5 67.5C396.501 67.4258 395.501 67.3516 394.472 67.2752C387.251 66.7463 380.028 66.256 372.805 65.7735C371.683 65.6981 370.561 65.6227 369.404 65.545C363.48 65.1469 357.555 64.7515 351.631 64.3584C345.585 63.9569 339.54 63.5466 333.495 63.1344C328.773 62.814 324.051 62.4999 319.328 62.1874C317.101 62.039 314.875 61.8884 312.648 61.7353C301.763 60.9887 290.886 60.3553 279.973 60.2212C279.133 60.2016 278.292 60.1819 277.426 60.1617C261.732 60.1226 253.051 71.7994 242.631 82.2222ZM322.567 160.52C318.908 165.53 317.058 170.265 317.5 176.5C318.492 182.573 320.922 186.933 325.485 191.055C330.255 194.475 335.216 195.822 341.063 195.5C346.798 194.549 351.423 192.098 355.074 187.531C358.782 181.837 359.874 177.36 359.5 170.5C358.84 169.51 358.18 168.52 357.5 167.5C356.992 167.994 356.484 168.487 355.961 168.996C352.841 171.9 350.369 174.193 346.313 175.625C342.732 175.466 341.157 174.929 338.5 172.5C337.438 169.188 337.438 169.188 337.5 165.5C339.188 162.375 339.188 162.375 341.5 159.5C342.243 158.551 342.985 157.603 343.75 156.625C344.328 155.924 344.905 155.223 345.5 154.5C336.961 151.654 328.777 154.034 322.567 160.52Z" fill="#053553"/>
<path d="M227.267 185.639C231.559 189.216 235.47 193.176 239.417 197.126C240.385 198.088 241.353 199.05 242.322 200.011C244.932 202.604 247.536 205.202 250.137 207.803C251.767 209.431 253.399 211.058 255.03 212.685C260.734 218.37 266.433 224.06 272.126 229.756C277.417 235.047 282.719 240.328 288.026 245.604C292.598 250.15 297.162 254.703 301.721 259.263C304.436 261.979 307.155 264.692 309.881 267.397C312.446 269.942 315 272.496 317.547 275.058C318.919 276.433 320.302 277.799 321.684 279.164C329.173 286.729 334.03 293.445 334.75 304.25C334.495 317.829 324.772 326.528 315.766 335.524C314.793 336.504 313.82 337.484 312.847 338.464C310.223 341.105 307.594 343.739 304.962 346.372C303.315 348.021 301.669 349.671 300.024 351.321C294.275 357.089 288.521 362.851 282.762 368.608C277.408 373.962 272.065 379.326 266.727 384.695C262.129 389.319 257.523 393.935 252.912 398.546C250.164 401.293 247.419 404.044 244.682 406.802C242.109 409.395 239.526 411.978 236.935 414.554C235.542 415.944 234.158 417.344 232.775 418.745C225.757 425.693 218.99 430.553 208.813 430.75C193.387 430.456 184.8 418.945 174.524 408.701C173.573 407.757 172.623 406.813 171.672 405.869C168.593 402.811 165.519 399.747 162.445 396.684C161.379 395.621 160.312 394.558 159.245 393.496C154.24 388.509 149.237 383.52 144.236 378.529C138.489 372.791 132.733 367.062 126.97 361.339C122.495 356.894 118.028 352.441 113.566 347.983C110.909 345.328 108.249 342.678 105.581 340.035C102.61 337.091 99.6541 334.131 96.6997 331.17C95.8228 330.306 94.9458 329.441 94.0423 328.551C87.1934 321.643 82.4969 314.874 82.1875 304.875C82.4033 290.199 93.5071 281.345 103.164 271.659C104.118 270.699 105.071 269.739 106.024 268.779C109.126 265.656 112.233 262.539 115.34 259.422C116.415 258.342 117.491 257.263 118.566 256.183C123.616 251.114 128.668 246.048 133.723 240.985C139.538 235.16 145.345 229.327 151.145 223.486C155.645 218.956 160.153 214.433 164.667 209.916C167.356 207.225 170.041 204.53 172.719 201.828C175.236 199.287 177.762 196.757 180.296 194.233C181.658 192.872 183.011 191.5 184.363 190.128C197.156 177.443 212.483 174.239 227.267 185.639ZM189.849 208.779C188.897 209.728 187.946 210.676 186.993 211.623C184.422 214.185 181.861 216.755 179.302 219.328C176.616 222.025 173.923 224.714 171.23 227.405C166.713 231.921 162.202 236.444 157.694 240.97C152.487 246.198 147.272 251.417 142.052 256.631C137.021 261.656 131.996 266.686 126.974 271.72C124.84 273.858 122.704 275.995 120.567 278.13C118.051 280.644 115.54 283.163 113.032 285.687C111.675 287.05 110.313 288.408 108.951 289.767C108.141 290.584 107.331 291.401 106.496 292.243C105.441 293.301 105.441 293.301 104.364 294.381C101.587 297.538 99.6867 300.247 99.0625 304.437C100.183 312.282 107.551 317.833 112.887 323.145C113.847 324.108 114.806 325.071 115.766 326.035C118.36 328.638 120.961 331.236 123.563 333.831C126.289 336.553 129.011 339.279 131.733 342.005C136.303 346.578 140.876 351.146 145.452 355.713C150.741 360.991 156.023 366.276 161.3 371.565C165.837 376.11 170.377 380.652 174.921 385.191C177.633 387.899 180.343 390.609 183.05 393.323C185.593 395.872 188.141 398.416 190.693 400.956C192.075 402.334 193.451 403.716 194.828 405.099C195.652 405.917 196.476 406.736 197.325 407.579C198.039 408.292 198.753 409.005 199.488 409.74C202.299 412.199 204.585 413.334 208.25 414C216.641 412.709 223.354 403.938 229.081 398.193C230.004 397.275 230.927 396.358 231.878 395.412C234.389 392.915 236.893 390.411 239.396 387.906C241.491 385.809 243.59 383.715 245.689 381.621C250.64 376.682 255.585 371.737 260.527 366.789C265.617 361.692 270.716 356.606 275.82 351.523C280.214 347.147 284.602 342.765 288.985 338.379C291.598 335.764 294.213 333.151 296.834 330.545C299.753 327.64 302.66 324.724 305.566 321.807C306.431 320.949 307.296 320.092 308.187 319.209C315.103 312.37 315.103 312.37 317.779 303.265C315.758 297.314 311.44 293.605 307.042 289.266C306.038 288.253 305.034 287.239 304.032 286.224C301.312 283.476 298.574 280.748 295.83 278.024C292.959 275.168 290.103 272.298 287.244 269.43C282.441 264.616 277.625 259.815 272.803 255.02C267.231 249.481 261.681 243.921 256.142 238.349C251.382 233.561 246.61 228.786 241.828 224.02C238.974 221.175 236.124 218.326 233.285 215.467C230.614 212.779 227.929 210.106 225.233 207.444C224.247 206.466 223.266 205.483 222.291 204.495C216.733 198.799 216.733 198.799 209.798 195.159C201.096 196.059 195.697 202.88 189.849 208.779Z" fill="#053553"/>
<path d="M253.5 255.5C256 257 256 257 257.5 259.5C258.312 263.928 258.49 266.055 255.926 269.797C254.187 271.786 252.407 273.671 250.5 275.5C251.915 278.724 253.659 280.821 256.125 283.313C258.734 286.237 259.457 287.265 260.188 291.25C259.376 295.084 258.755 296.33 255.5 298.5C252.25 299.688 252.25 299.688 248.5 299.5C245.41 297.598 243.015 295.096 240.5 292.5C238.795 290.747 237.086 288.997 235.375 287.25C234.589 286.42 233.802 285.59 232.992 284.734C229.188 281.324 226.091 279.472 220.938 279.563C217.202 280.581 215.26 281.821 212.5 284.5C210.686 288.127 210.682 291.627 211.5 295.5C213.312 298.525 215.327 301.191 217.555 303.922C222.222 310.107 222.81 317.294 222.359 324.863C221.133 332.367 216.99 338.888 210.922 343.43C202.699 348.455 196.093 349.044 186.5 348.5C184.305 347.805 184.305 347.805 182.625 347.063C181.078 346.784 181.078 346.784 179.5 346.5C177.327 348.122 175.482 349.954 173.551 351.856C171.278 353.678 170.128 354.086 167.25 354.188C163.5 353.5 163.5 353.5 161 352C158.878 348.464 158.523 345.438 159.5 341.5C161.223 338.572 163.239 336.03 165.5 333.5C164.862 332.932 164.224 332.363 163.566 331.777C156.826 325.479 156.826 325.479 155.25 320.75C155.529 317.126 156.251 315.332 158.5 312.5C161.76 310.87 163.878 311.033 167.5 311.5C170.549 313.436 172.969 315.939 175.5 318.5C176.46 319.46 177.421 320.42 178.383 321.379C179.87 322.864 181.352 324.351 182.819 325.855C186.207 329.31 187.986 330.658 192.812 330.813C196.191 330.769 197.414 330.549 200.438 328.813C203.585 325.284 204.471 322.986 204.562 318.25C203.29 313.758 201.137 311.301 198.223 307.734C193.381 301.455 192.83 294.921 193.031 287.106C194.093 278.941 197.682 272.55 204.062 267.375C210.107 263.044 216.122 261.48 223.5 261.5C225.735 261.93 227.964 262.389 230.188 262.875C234.714 263.783 234.714 263.783 238.812 262.113C240.549 260.33 242.013 258.491 243.5 256.5C246.708 254.896 250.019 255.025 253.5 255.5Z" fill="#053553"/>
</g>
<defs>
<clipPath id="clip0_221_200">
<rect width="512" height="512" fill="white" transform="translate(0.5 0.5)"/>
</clipPath>
</defs>
</svg>
