<?xml version="1.0" encoding="UTF-8"?>
<!DOCTYPE svg PUBLIC "-//W3C//DTD SVG 1.1//EN" "http://www.w3.org/Graphics/SVG/1.1/DTD/svg11.dtd">
<svg xmlns="http://www.w3.org/2000/svg" version="1.1" width="512px" height="512px" style="shape-rendering:geometricPrecision; text-rendering:geometricPrecision; image-rendering:optimizeQuality; fill-rule:evenodd; clip-rule:evenodd" xmlns:xlink="http://www.w3.org/1999/xlink">
<g><path style="opacity:0.919" fill="#000000" d="M 498.5,0.5 C 509.063,-0.105443 512.563,4.56122 509,14.5C 489.833,33.6667 470.667,52.8333 451.5,72C 455.503,77.1738 458.003,83.0072 459,89.5C 463.241,141.112 466.241,192.779 468,244.5C 466.501,250.499 464.168,256.166 461,261.5C 382.527,340.973 303.694,420.139 224.5,499C 206.072,512.751 186.738,514.084 166.5,503C 114.361,451.861 62.5275,400.361 11,348.5C -3.27825,327.576 -2.94492,306.909 12,286.5C 90.8607,207.306 170.027,128.473 249.5,50C 261.927,42.8577 275.26,40.5244 289.5,43C 333.516,45.7788 377.516,48.7788 421.5,52C 427.993,52.9973 433.826,55.4973 439,59.5C 458.728,39.6045 478.562,19.9378 498.5,0.5 Z M 269.5,59.5 C 319.555,61.7535 369.555,64.9201 419.5,69C 422.032,69.6189 424.365,70.6189 426.5,72C 403.833,94.6667 381.167,117.333 358.5,140C 351.748,137.816 344.748,136.316 337.5,135.5C 309.968,139.229 297.801,154.896 301,182.5C 306.739,200.134 318.905,209.801 337.5,211.5C 360.523,209.143 373.19,196.477 375.5,173.5C 374.684,166.252 373.184,159.252 371,152.5C 393.667,129.833 416.333,107.167 439,84.5C 441.704,89.0885 443.038,94.0885 443,99.5C 446.581,146.801 449.248,194.134 451,241.5C 450.144,245.544 448.478,249.211 446,252.5C 367.5,331 289,409.5 210.5,488C 196.805,496.028 183.805,495.028 171.5,485C 123,436.5 74.5,388 26,339.5C 15.9265,327.212 14.9265,314.212 23,300.5C 101.5,222 180,143.5 258.5,65C 261.99,62.588 265.657,60.7547 269.5,59.5 Z M 333.5,152.5 C 337.273,152.263 340.94,152.763 344.5,154C 340.109,157.215 337.109,161.382 335.5,166.5C 336.442,172.949 340.109,175.782 346.5,175C 350.579,172.925 354.079,170.092 357,166.5C 359.768,182.238 353.268,191.572 337.5,194.5C 321.669,191.522 315.169,182.189 318,166.5C 321.049,159.407 326.215,154.74 333.5,152.5 Z M 205.5,194.5 C 207.927,194.523 210.26,195.023 212.5,196C 246.667,230.167 280.833,264.333 315,298.5C 317.072,303.221 316.406,307.555 313,311.5C 280.5,344 248,376.5 215.5,409C 210.76,413.179 205.76,413.512 200.5,410C 167.333,376.833 134.167,343.667 101,310.5C 97.4881,305.24 97.8215,300.24 102,295.5C 134.5,263 167,230.5 199.5,198C 201.432,196.541 203.432,195.375 205.5,194.5 Z"/></g>
<g><path style="opacity:0.929" fill="#000000" d="M 203.5,177.5 C 211.662,176.963 218.996,179.13 225.5,184C 259.333,217.833 293.167,251.667 327,285.5C 335.667,297.5 335.667,309.5 327,321.5C 292.833,355.667 258.667,389.833 224.5,424C 213.129,431.326 201.795,431.326 190.5,424C 156,389.5 121.5,355 87,320.5C 79.6667,309.167 79.6667,297.833 87,286.5C 121.5,252 156,217.5 190.5,183C 194.717,180.549 199.05,178.715 203.5,177.5 Z M 205.5,194.5 C 203.432,195.375 201.432,196.541 199.5,198C 167,230.5 134.5,263 102,295.5C 97.8215,300.24 97.4881,305.24 101,310.5C 134.167,343.667 167.333,376.833 200.5,410C 205.76,413.512 210.76,413.179 215.5,409C 248,376.5 280.5,344 313,311.5C 316.406,307.555 317.072,303.221 315,298.5C 280.833,264.333 246.667,230.167 212.5,196C 210.26,195.023 207.927,194.523 205.5,194.5 Z"/></g>
<g><path style="opacity:0.926" fill="#000000" d="M 244.5,254.5 C 253.657,253.489 257.49,257.489 256,266.5C 253.688,269.646 251.188,272.646 248.5,275.5C 251.854,279.019 255.02,282.686 258,286.5C 259.715,295.118 256.215,298.951 247.5,298C 240.5,291.667 233.5,285.333 226.5,279C 219.276,276.633 213.776,278.799 210,285.5C 209.333,288.5 209.333,291.5 210,294.5C 223.176,308.187 224.509,322.854 214,338.5C 203.647,348.027 191.981,350.027 179,344.5C 176.463,347.372 173.63,349.872 170.5,352C 160.667,354.167 156.833,350.333 159,340.5C 160.793,337.705 162.96,335.205 165.5,333C 161.631,329.466 158.131,325.633 155,321.5C 154.628,311.594 159.128,308.428 168.5,312C 174.531,318.366 180.864,324.366 187.5,330C 197.045,331.961 202.712,328.127 204.5,318.5C 203.279,313.731 200.779,309.731 197,306.5C 187.834,288.011 192.001,273.511 209.5,263C 217.699,259.834 225.866,260.001 234,263.5C 237.68,260.648 241.18,257.648 244.5,254.5 Z"/></g>
</svg>
