<?xml version="1.0" encoding="UTF-8"?>
<!DOCTYPE svg PUBLIC "-//W3C//DTD SVG 1.1//EN" "http://www.w3.org/Graphics/SVG/1.1/DTD/svg11.dtd">
<svg xmlns="http://www.w3.org/2000/svg" version="1.1" width="512px" height="512px" style="shape-rendering:geometricPrecision; text-rendering:geometricPrecision; image-rendering:optimizeQuality; fill-rule:evenodd; clip-rule:evenodd" xmlns:xlink="http://www.w3.org/1999/xlink">
<g><path style="opacity:0.97" fill="#000000" d="M 511.5,143.5 C 511.5,148.833 511.5,154.167 511.5,159.5C 498.83,212.661 486.33,265.994 474,319.5C 469.223,333.277 459.723,341.777 445.5,345C 345.167,345.333 244.833,345.667 144.5,346C 134.618,349.251 130.452,356.085 132,366.5C 134.052,373.219 138.552,377.052 145.5,378C 248.167,378.333 350.833,378.667 453.5,379C 463.858,384.071 466.691,391.904 462,402.5C 459.795,405.04 457.295,407.207 454.5,409C 464.532,434.491 459.199,456.157 438.5,474C 410.788,490.519 385.954,487.019 364,463.5C 352.73,446.642 350.563,428.642 357.5,409.5C 326.826,409.167 296.159,409.5 265.5,410.5C 275.451,441.161 266.451,464.328 238.5,480C 213.808,489.035 192.641,483.868 175,464.5C 162.993,447.457 160.826,429.29 168.5,410C 159.5,409.667 150.5,409.333 141.5,409C 121.615,405.783 108.448,394.617 102,375.5C 96.215,345.985 107.382,326.152 135.5,316C 138.513,315.498 141.513,314.998 144.5,314.5C 122.293,229.673 99.4597,145.006 76,60.5C 75.1667,59.6667 74.3333,58.8333 73.5,58C 52.5,57.6667 31.5,57.3333 10.5,57C 5.40601,55.4008 1.73934,52.2342 -0.5,47.5C -0.5,43.8333 -0.5,40.1667 -0.5,36.5C 1.73934,31.7658 5.40601,28.5992 10.5,27C 32.5,26.3333 54.5,26.3333 76.5,27C 90.8023,29.2332 100.636,37.0666 106,50.5C 112.327,73.4755 118.494,96.4755 124.5,119.5C 244.5,119.924 364.5,120.424 484.5,121C 498.241,122.914 507.241,130.414 511.5,143.5 Z M 133.5,150.5 C 155.5,150.5 177.5,150.5 199.5,150.5C 202.418,172.848 205.418,195.181 208.5,217.5C 189.497,217.667 170.497,217.5 151.5,217C 144.957,194.996 138.957,172.829 133.5,150.5 Z M 230.5,151.5 C 252.337,150.391 274.337,150.391 296.5,151.5C 296.5,173.5 296.5,195.5 296.5,217.5C 277.5,217.5 258.5,217.5 239.5,217.5C 237.041,195.29 234.041,173.29 230.5,151.5 Z M 327.5,151.5 C 349.169,151.333 370.836,151.5 392.5,152C 389.136,173.745 386.136,195.579 383.5,217.5C 364.833,217.5 346.167,217.5 327.5,217.5C 327.5,195.5 327.5,173.5 327.5,151.5 Z M 423.5,151.5 C 442.5,151.5 461.5,151.5 480.5,151.5C 475.829,173.187 470.995,194.853 466,216.5C 448.898,217.824 431.731,217.824 414.5,216.5C 417.745,194.877 420.745,173.21 423.5,151.5 Z M 159.5,248.5 C 177.167,248.5 194.833,248.5 212.5,248.5C 215.5,270.5 218.5,292.5 221.5,314.5C 207.829,314.667 194.163,314.5 180.5,314C 179.069,313.535 177.903,312.701 177,311.5C 171.009,290.537 165.176,269.537 159.5,248.5 Z M 243.5,249.5 C 260.992,248.503 278.659,248.17 296.5,248.5C 296.5,270.5 296.5,292.5 296.5,314.5C 281.833,314.5 267.167,314.5 252.5,314.5C 249.947,292.636 246.947,270.969 243.5,249.5 Z M 327.5,248.5 C 344.833,248.5 362.167,248.5 379.5,248.5C 376.5,270.5 373.5,292.5 370.5,314.5C 356.167,314.5 341.833,314.5 327.5,314.5C 327.5,292.5 327.5,270.5 327.5,248.5 Z M 410.5,248.5 C 426.514,248.167 442.514,248.501 458.5,249.5C 453.776,270.621 448.61,291.621 443,312.5C 442.25,313.126 441.416,313.626 440.5,314C 427.838,314.5 415.171,314.667 402.5,314.5C 405.002,292.482 407.669,270.482 410.5,248.5 Z M 211.5,409.5 C 230.333,408.832 239.166,417.832 238,436.5C 230.51,453.665 218.676,457.499 202.5,448C 191.412,435.738 192.078,424.072 204.5,413C 206.925,411.787 209.259,410.621 211.5,409.5 Z M 401.5,409.5 C 419.491,408.992 428.325,417.659 428,435.5C 424.178,448.16 415.678,453.994 402.5,453C 386.022,446.904 381.188,435.737 388,419.5C 391.555,414.763 396.055,411.43 401.5,409.5 Z"/></g>
</svg>
