<?xml version="1.0" encoding="UTF-8"?>
<!DOCTYPE svg PUBLIC "-//W3C//DTD SVG 1.1//EN" "http://www.w3.org/Graphics/SVG/1.1/DTD/svg11.dtd">
<svg xmlns="http://www.w3.org/2000/svg" version="1.1" width="512px" height="512px" style="shape-rendering:geometricPrecision; text-rendering:geometricPrecision; image-rendering:optimizeQuality; fill-rule:evenodd; clip-rule:evenodd" xmlns:xlink="http://www.w3.org/1999/xlink">
<g><path style="opacity:0.937" fill="#000000" d="M -0.5,85.5 C -0.5,75.5 -0.5,65.5 -0.5,55.5C 1.64984,49.8522 5.64984,46.0188 11.5,44C 36.5,43.3333 61.5,43.3333 86.5,44C 89.3616,44.9305 91.695,46.5971 93.5,49C 106.5,49.3333 119.5,49.6667 132.5,50C 144.406,53.5731 151.906,61.4064 155,73.5C 159.333,90.1667 163.667,106.833 168,123.5C 177.089,124.319 186.256,124.819 195.5,125C 199.749,128.377 200.582,132.543 198,137.5C 196.352,138.717 194.519,139.55 192.5,140C 176.5,140.333 160.5,140.667 144.5,141C 159.738,198.784 174.905,256.617 190,314.5C 192.205,317.04 194.705,319.207 197.5,321C 280.167,321.667 362.833,321.667 445.5,321C 448.295,319.207 450.795,317.04 453,314.5C 455.336,306.489 457.669,298.489 460,290.5C 465.033,286.221 469.7,286.554 474,291.5C 473.61,303.013 470.943,314.013 466,324.5C 461.585,330.571 455.752,334.738 448.5,337C 355.167,337.333 261.833,337.667 168.5,338C 155.732,341.44 151.899,349.273 157,361.5C 159.365,364.869 162.532,367.036 166.5,368C 271.556,368.006 376.556,368.673 481.5,370C 494.545,377.472 497.712,387.972 491,401.5C 487.908,405.928 483.741,408.761 478.5,410C 470.833,410.333 463.167,410.667 455.5,411C 465.758,431.906 461.425,449.239 442.5,463C 421.92,472.396 404.754,468.23 391,450.5C 383.914,437.401 383.748,424.234 390.5,411C 337.833,410.333 285.167,410.333 232.5,411C 241.882,430.203 238.549,446.869 222.5,461C 207.5,469.667 192.5,469.667 177.5,461C 161.45,446.883 158.117,430.216 167.5,411C 138.394,407.553 120.228,391.719 113,363.5C 109.486,333.019 121.653,311.519 149.5,299C 155.358,297.079 161.358,295.913 167.5,295.5C 150.64,227.725 133.306,160.058 115.5,92.5C 108.189,91.3354 100.856,91.1687 93.5,92C 90.9518,94.4416 87.9518,96.1083 84.5,97C 60.8333,97.6667 37.1667,97.6667 13.5,97C 7.13581,95.1274 2.46914,91.2941 -0.5,85.5 Z M 18.5,58.5 C 38.8361,58.3334 59.1694,58.5 79.5,59C 80.4162,59.3742 81.2496,59.8742 82,60.5C 82.8112,67.4143 82.6445,74.2476 81.5,81C 59.8333,81.6667 38.1667,81.6667 16.5,81C 15.8742,80.2496 15.3742,79.4162 15,78.5C 14.2944,72.1301 14.4611,65.7967 15.5,59.5C 16.791,59.7373 17.791,59.404 18.5,58.5 Z M 98.5,64.5 C 107.173,64.3336 115.84,64.5002 124.5,65C 129.57,65.4513 133.736,67.618 137,71.5C 142.143,88.739 146.977,106.072 151.5,123.5C 147.893,124.489 144.226,124.823 140.5,124.5C 136.827,109.476 132.994,94.4764 129,79.5C 127.833,78.3333 126.667,77.1667 125.5,76C 116.506,75.5002 107.506,75.3336 98.5,75.5C 98.5,71.8333 98.5,68.1667 98.5,64.5 Z M 164.5,311.5 C 167.167,311.5 169.833,311.5 172.5,311.5C 172.998,314.829 173.998,317.995 175.5,321C 150.674,321.49 138.507,333.99 139,358.5C 141.554,370.72 148.721,378.887 160.5,383C 265.465,384.323 370.465,384.989 475.5,385C 479.5,388 479.5,391 475.5,394C 458.099,394.986 440.766,394.486 423.5,392.5C 419.764,392.528 416.097,393.028 412.5,394C 345.5,394.667 278.5,394.667 211.5,394C 207.736,393.015 203.903,392.515 200,392.5C 186.183,394.807 172.35,394.974 158.5,393C 135.879,384.694 126.045,368.528 129,344.5C 134.312,326.35 146.146,315.35 164.5,311.5 Z M 195.5,408.5 C 213.819,408.317 222.319,417.317 221,435.5C 214.031,451.415 202.865,455.581 187.5,448C 178.267,440.133 176.101,430.633 181,419.5C 184.55,413.992 189.384,410.326 195.5,408.5 Z M 418.5,408.5 C 433.864,407.699 442.864,414.865 445.5,430C 440.827,449.504 429.16,455.504 410.5,448C 399.383,437.279 398.716,425.945 408.5,414C 411.767,411.87 415.1,410.037 418.5,408.5 Z"/></g>
<g><path style="opacity:0.932" fill="#000000" d="M 511.5,140.5 C 511.5,145.167 511.5,149.833 511.5,154.5C 502.05,189.631 492.883,224.964 484,260.5C 481.53,269.243 476.53,271.243 469,266.5C 468.042,264.801 467.542,262.967 467.5,261C 476.43,224.447 485.597,187.947 495,151.5C 496.227,147.409 495.394,143.909 492.5,141C 403.5,140.667 314.5,140.333 225.5,140C 217.579,136.395 216.579,131.395 222.5,125C 313.5,124.333 404.5,124.333 495.5,125C 503.35,127.685 508.684,132.852 511.5,140.5 Z"/></g>
<g><path style="opacity:0.923" fill="#000000" d="M 205.5,172.5 C 211.348,171.002 215.181,173.002 217,178.5C 224,206.833 231,235.167 238,263.5C 240.673,273.824 236.84,277.99 226.5,276C 224.513,274.681 223.346,272.848 223,270.5C 216,241.833 209,213.167 202,184.5C 200.593,179.556 201.759,175.556 205.5,172.5 Z"/></g>
<g><path style="opacity:0.928" fill="#000000" d="M 279.5,172.5 C 284.266,171.551 288.1,172.884 291,176.5C 294.329,208.448 296.663,240.448 298,272.5C 297.5,274.333 296.333,275.5 294.5,276C 288.663,277.992 284.829,276.158 283,270.5C 280.167,239.51 277.834,208.51 276,177.5C 276.997,175.677 278.164,174.01 279.5,172.5 Z"/></g>
<g><path style="opacity:0.927" fill="#000000" d="M 353.5,172.5 C 362.911,170.744 366.911,174.578 365.5,184C 363.471,211.51 361.305,239.01 359,266.5C 359.041,275.072 354.874,278.239 346.5,276C 343.833,274 342.5,271.333 342.5,268C 345.153,238.515 347.653,209.015 350,179.5C 350.133,176.596 351.3,174.262 353.5,172.5 Z"/></g>
<g><path style="opacity:0.921" fill="#000000" d="M 428.5,172.5 C 436.614,171.121 440.447,174.454 440,182.5C 432.667,212.5 425.333,242.5 418,272.5C 417.5,274.333 416.333,275.5 414.5,276C 403.663,276.883 400.163,272.049 404,261.5C 411.157,233.204 418.157,204.87 425,176.5C 425.69,174.65 426.856,173.316 428.5,172.5 Z"/></g>
</svg>
