<?xml version="1.0" encoding="UTF-8"?>
<!DOCTYPE svg PUBLIC "-//W3C//DTD SVG 1.1//EN" "http://www.w3.org/Graphics/SVG/1.1/DTD/svg11.dtd">
<svg xmlns="http://www.w3.org/2000/svg" version="1.1" width="256px" height="256px" style="shape-rendering:geometricPrecision; text-rendering:geometricPrecision; image-rendering:optimizeQuality; fill-rule:evenodd; clip-rule:evenodd" xmlns:xlink="http://www.w3.org/1999/xlink">
<g><path style="opacity:0.971" fill="#000000" d="M 255.5,123.5 C 255.5,128.833 255.5,134.167 255.5,139.5C 251.464,150.866 243.464,157.532 231.5,159.5C 231.667,177.836 231.5,196.17 231,214.5C 223.333,215.833 215.667,215.833 208,214.5C 207.5,196.17 207.333,177.836 207.5,159.5C 202.489,159.666 197.489,159.499 192.5,159C 191.167,156.667 191.167,154.333 192.5,152C 206.207,151.885 219.874,151.218 233.5,150C 244.14,145.221 248.307,137.054 246,125.5C 242.804,116.981 236.637,112.481 227.5,112C 194.167,111.833 160.833,111.667 127.5,111.5C 92.1345,111.353 56.8012,111.853 21.5,113C 10.8597,117.779 6.69299,125.946 9,137.5C 12.1959,146.019 18.3626,150.519 27.5,151C 79.1667,151.333 130.833,151.667 182.5,152C 183.833,154.333 183.833,156.667 182.5,159C 137.501,159.5 92.5012,159.667 47.5,159.5C 47.6666,177.836 47.4999,196.17 47,214.5C 39.3333,215.833 31.6667,215.833 24,214.5C 23.5001,196.17 23.3334,177.836 23.5,159.5C 11.5363,157.532 3.53631,150.866 -0.5,139.5C -0.5,134.167 -0.5,128.833 -0.5,123.5C 2.2461,116.517 6.57944,110.683 12.5,106C 11.8508,95.8655 11.5175,85.6988 11.5,75.5C 11.356,65.0724 11.856,54.739 13,44.5C 14.5429,42.6217 16.3762,41.1217 18.5,40C 37.8333,39.3333 57.1667,39.3333 76.5,40C 79.3333,41.5 81.5,43.6667 83,46.5C 83.6667,51.8333 83.6667,57.1667 83,62.5C 80.6667,63.8333 78.3333,63.8333 76,62.5C 75.6667,58.8333 75.3333,55.1667 75,51.5C 74.6258,50.5838 74.1258,49.7504 73.5,49C 68.964,47.6211 64.2973,47.1211 59.5,47.5C 59.6664,55.1739 59.4997,62.8406 59,70.5C 51.3333,71.8333 43.6667,71.8333 36,70.5C 35.5003,62.8406 35.3336,55.1739 35.5,47.5C 31.4862,47.3345 27.4862,47.5012 23.5,48C 21.6667,48.5 20.5,49.6667 20,51.5C 19.0297,68.2583 19.3631,84.925 21,101.5C 21.7504,102.126 22.5838,102.626 23.5,103C 31.5,103.167 39.5,103.333 47.5,103.5C 56.2638,103.639 64.9305,103.139 73.5,102C 74.1258,101.25 74.6258,100.416 75,99.5C 75.3333,90.5 75.6667,81.5 76,72.5C 78.3333,71.1667 80.6667,71.1667 83,72.5C 83.4998,82.828 83.6665,93.1613 83.5,103.5C 86.1667,103.5 88.8333,103.5 91.5,103.5C 91.0245,83.7408 91.5245,64.0742 93,44.5C 94.5429,42.6217 96.3762,41.1217 98.5,40C 117.833,39.3333 137.167,39.3333 156.5,40C 159.333,41.5 161.5,43.6667 163,46.5C 163.667,51.8333 163.667,57.1667 163,62.5C 160.667,63.8333 158.333,63.8333 156,62.5C 155.667,58.8333 155.333,55.1667 155,51.5C 154.626,50.5838 154.126,49.7504 153.5,49C 148.964,47.6211 144.297,47.1211 139.5,47.5C 139.666,55.1739 139.5,62.8406 139,70.5C 131.333,71.8333 123.667,71.8333 116,70.5C 115.5,62.8406 115.334,55.1739 115.5,47.5C 111.486,47.3345 107.486,47.5012 103.5,48C 101.667,48.5 100.5,49.6667 100,51.5C 99.0297,68.2583 99.3631,84.925 101,101.5C 101.75,102.126 102.584,102.626 103.5,103C 111.5,103.167 119.5,103.333 127.5,103.5C 136.264,103.639 144.93,103.139 153.5,102C 154.126,101.25 154.626,100.416 155,99.5C 155.333,90.5 155.667,81.5 156,72.5C 158.333,71.1667 160.667,71.1667 163,72.5C 163.5,82.828 163.666,93.1613 163.5,103.5C 166.167,103.5 168.833,103.5 171.5,103.5C 171.024,83.7408 171.524,64.0742 173,44.5C 174.543,42.6217 176.376,41.1217 178.5,40C 197.833,39.3333 217.167,39.3333 236.5,40C 239.333,41.5 241.5,43.6667 243,46.5C 243.667,51.8333 243.667,57.1667 243,62.5C 240.667,63.8333 238.333,63.8333 236,62.5C 235.667,58.8333 235.333,55.1667 235,51.5C 234.626,50.5838 234.126,49.7504 233.5,49C 228.964,47.6211 224.297,47.1211 219.5,47.5C 219.666,55.1739 219.5,62.8406 219,70.5C 211.333,71.8333 203.667,71.8333 196,70.5C 195.5,62.8406 195.334,55.1739 195.5,47.5C 191.486,47.3345 187.486,47.5012 183.5,48C 181.667,48.5 180.5,49.6667 180,51.5C 179.03,68.2583 179.363,84.925 181,101.5C 181.75,102.126 182.584,102.626 183.5,103C 199.5,103.667 215.5,103.667 231.5,103C 233.333,102.5 234.5,101.333 235,99.5C 235.333,90.5 235.667,81.5 236,72.5C 238.064,71.4086 240.231,71.2419 242.5,72C 243.815,83.2911 243.815,94.6244 242.5,106C 248.421,110.683 252.754,116.517 255.5,123.5 Z M 43.5,47.5 C 46.1667,47.5 48.8333,47.5 51.5,47.5C 51.5,52.8333 51.5,58.1667 51.5,63.5C 48.8333,63.5 46.1667,63.5 43.5,63.5C 43.5,58.1667 43.5,52.8333 43.5,47.5 Z M 123.5,47.5 C 126.167,47.5 128.833,47.5 131.5,47.5C 131.5,52.8333 131.5,58.1667 131.5,63.5C 128.833,63.5 126.167,63.5 123.5,63.5C 123.5,58.1667 123.5,52.8333 123.5,47.5 Z M 203.5,47.5 C 206.167,47.5 208.833,47.5 211.5,47.5C 211.5,52.8333 211.5,58.1667 211.5,63.5C 208.833,63.5 206.167,63.5 203.5,63.5C 203.5,58.1667 203.5,52.8333 203.5,47.5 Z M 42.5,123.5 C 45.8984,123.18 49.2317,123.513 52.5,124.5C 51.1667,129.167 51.1667,133.833 52.5,138.5C 49.1667,139.833 45.8333,139.833 42.5,138.5C 43.778,133.501 43.778,128.501 42.5,123.5 Z M 82.5,123.5 C 85.8984,123.18 89.2317,123.513 92.5,124.5C 91.1667,129.167 91.1667,133.833 92.5,138.5C 89.1667,139.833 85.8333,139.833 82.5,138.5C 83.778,133.501 83.778,128.501 82.5,123.5 Z M 122.5,123.5 C 125.898,123.18 129.232,123.513 132.5,124.5C 131.167,129.167 131.167,133.833 132.5,138.5C 129.167,139.833 125.833,139.833 122.5,138.5C 123.778,133.501 123.778,128.501 122.5,123.5 Z M 162.5,123.5 C 165.898,123.18 169.232,123.513 172.5,124.5C 171.167,129.167 171.167,133.833 172.5,138.5C 169.167,139.833 165.833,139.833 162.5,138.5C 163.778,133.501 163.778,128.501 162.5,123.5 Z M 202.5,123.5 C 205.898,123.18 209.232,123.513 212.5,124.5C 211.167,129.167 211.167,133.833 212.5,138.5C 209.167,139.833 205.833,139.833 202.5,138.5C 203.778,133.501 203.778,128.501 202.5,123.5 Z M 24.5,124.5 C 33.8504,124.365 36.517,128.532 32.5,137C 23.9562,140.322 20.1229,137.489 21,128.5C 21.6897,126.65 22.8564,125.316 24.5,124.5 Z M 64.5,124.5 C 73.8504,124.365 76.517,128.532 72.5,137C 63.9562,140.322 60.1229,137.489 61,128.5C 61.6897,126.65 62.8564,125.316 64.5,124.5 Z M 104.5,124.5 C 113.85,124.365 116.517,128.532 112.5,137C 103.956,140.322 100.123,137.489 101,128.5C 101.69,126.65 102.856,125.316 104.5,124.5 Z M 144.5,124.5 C 153.85,124.365 156.517,128.532 152.5,137C 143.956,140.322 140.123,137.489 141,128.5C 141.69,126.65 142.856,125.316 144.5,124.5 Z M 184.5,124.5 C 193.85,124.365 196.517,128.532 192.5,137C 183.956,140.322 180.123,137.489 181,128.5C 181.69,126.65 182.856,125.316 184.5,124.5 Z M 224.5,124.5 C 233.85,124.365 236.517,128.532 232.5,137C 223.956,140.322 220.123,137.489 221,128.5C 221.69,126.65 222.856,125.316 224.5,124.5 Z M 31.5,159.5 C 34.1667,159.5 36.8333,159.5 39.5,159.5C 39.5,175.5 39.5,191.5 39.5,207.5C 36.8333,207.5 34.1667,207.5 31.5,207.5C 31.5,191.5 31.5,175.5 31.5,159.5 Z M 215.5,159.5 C 218.167,159.5 220.833,159.5 223.5,159.5C 223.5,175.5 223.5,191.5 223.5,207.5C 220.833,207.5 218.167,207.5 215.5,207.5C 215.5,191.5 215.5,175.5 215.5,159.5 Z"/></g>
<g><path style="opacity:0.923" fill="#000000" d="M 52.5,87.5 C 57.1785,87.3342 61.8452,87.5008 66.5,88C 67.5914,90.0639 67.7581,92.2305 67,94.5C 62.2523,95.6349 57.419,95.8015 52.5,95C 51.2215,92.5024 51.2215,90.0024 52.5,87.5 Z"/></g>
<g><path style="opacity:0.923" fill="#000000" d="M 132.5,87.5 C 137.179,87.3342 141.845,87.5008 146.5,88C 147.591,90.0639 147.758,92.2305 147,94.5C 142.252,95.6349 137.419,95.8015 132.5,95C 131.221,92.5024 131.221,90.0024 132.5,87.5 Z"/></g>
<g><path style="opacity:0.923" fill="#000000" d="M 212.5,87.5 C 217.179,87.3342 221.845,87.5008 226.5,88C 227.591,90.0639 227.758,92.2305 227,94.5C 222.252,95.6349 217.419,95.8015 212.5,95C 211.221,92.5024 211.221,90.0024 212.5,87.5 Z"/></g>
<g><path style="opacity:0.937" fill="#000000" d="M 21.5,115.5 C 92.1675,115.333 162.834,115.5 233.5,116C 242.482,120.473 245.649,127.64 243,137.5C 241.167,142 238,145.167 233.5,147C 162.833,147.667 92.1667,147.667 21.5,147C 14.513,144.193 11.1797,139.027 11.5,131.5C 11.3021,123.885 14.6354,118.551 21.5,115.5 Z M 42.5,123.5 C 43.778,128.501 43.778,133.501 42.5,138.5C 45.8333,139.833 49.1667,139.833 52.5,138.5C 51.1667,133.833 51.1667,129.167 52.5,124.5C 49.2317,123.513 45.8984,123.18 42.5,123.5 Z M 82.5,123.5 C 83.778,128.501 83.778,133.501 82.5,138.5C 85.8333,139.833 89.1667,139.833 92.5,138.5C 91.1667,133.833 91.1667,129.167 92.5,124.5C 89.2317,123.513 85.8984,123.18 82.5,123.5 Z M 122.5,123.5 C 123.778,128.501 123.778,133.501 122.5,138.5C 125.833,139.833 129.167,139.833 132.5,138.5C 131.167,133.833 131.167,129.167 132.5,124.5C 129.232,123.513 125.898,123.18 122.5,123.5 Z M 162.5,123.5 C 163.778,128.501 163.778,133.501 162.5,138.5C 165.833,139.833 169.167,139.833 172.5,138.5C 171.167,133.833 171.167,129.167 172.5,124.5C 169.232,123.513 165.898,123.18 162.5,123.5 Z M 202.5,123.5 C 203.778,128.501 203.778,133.501 202.5,138.5C 205.833,139.833 209.167,139.833 212.5,138.5C 211.167,133.833 211.167,129.167 212.5,124.5C 209.232,123.513 205.898,123.18 202.5,123.5 Z M 24.5,124.5 C 22.8564,125.316 21.6897,126.65 21,128.5C 20.1229,137.489 23.9562,140.322 32.5,137C 36.517,128.532 33.8504,124.365 24.5,124.5 Z M 64.5,124.5 C 62.8564,125.316 61.6897,126.65 61,128.5C 60.1229,137.489 63.9562,140.322 72.5,137C 76.517,128.532 73.8504,124.365 64.5,124.5 Z M 104.5,124.5 C 102.856,125.316 101.69,126.65 101,128.5C 100.123,137.489 103.956,140.322 112.5,137C 116.517,128.532 113.85,124.365 104.5,124.5 Z M 144.5,124.5 C 142.856,125.316 141.69,126.65 141,128.5C 140.123,137.489 143.956,140.322 152.5,137C 156.517,128.532 153.85,124.365 144.5,124.5 Z M 184.5,124.5 C 182.856,125.316 181.69,126.65 181,128.5C 180.123,137.489 183.956,140.322 192.5,137C 196.517,128.532 193.85,124.365 184.5,124.5 Z M 224.5,124.5 C 222.856,125.316 221.69,126.65 221,128.5C 220.123,137.489 223.956,140.322 232.5,137C 236.517,128.532 233.85,124.365 224.5,124.5 Z"/></g>
</svg>
