<svg width="257" height="257" viewBox="0 0 257 257" fill="none" xmlns="http://www.w3.org/2000/svg">
<g clip-path="url(#clip0_221_24)">
<path d="M24.9561 40.307C26.0978 40.2909 27.2395 40.2749 28.4158 40.2583C33.6444 40.2139 38.8729 40.1723 44.1016 40.1497C46.8604 40.1364 49.6185 40.1086 52.377 40.0677C56.3503 40.0088 60.3232 39.9911 64.2969 39.9764C65.5284 39.9537 66.7598 39.9311 68.0286 39.9077C77.5736 39.9313 77.5736 39.9313 81.2628 42.9076C84.8766 47.0947 84.6528 50.2346 84.6251 55.5623C84.6289 56.3081 84.6328 57.0538 84.6368 57.8221C84.6267 63.3732 84.6267 63.3732 83.5001 64.4998C80.5001 64.6248 80.5001 64.6248 77.5001 64.4998C75.4081 62.4079 76.1187 57.9981 75.9766 55.1639C75.6795 52.5284 75.6795 52.5284 74.3477 50.6913C71.7009 48.9845 69.4341 48.9802 66.3126 48.8123C65.2259 48.7466 64.1392 48.6809 63.0196 48.6131C62.1882 48.5757 61.3567 48.5384 60.5001 48.4998C60.5053 49.1913 60.5105 49.8829 60.5159 50.5953C60.5366 53.7093 60.5497 56.8233 60.5626 59.9373C60.5709 61.026 60.5793 62.1146 60.588 63.2362C60.5912 64.2706 60.5944 65.3051 60.5977 66.3709C60.603 67.3293 60.6082 68.2876 60.6136 69.275C60.5001 71.4998 60.5001 71.4998 59.5001 72.4998C57.8775 72.599 56.2507 72.6306 54.6251 72.6327C53.6402 72.6339 52.6554 72.6352 51.6407 72.6366C50.6043 72.6327 49.5679 72.6288 48.5001 72.6248C46.9455 72.6306 46.9455 72.6306 45.3594 72.6366C44.3746 72.6353 43.3898 72.634 42.3751 72.6327C41.465 72.6315 40.5549 72.6304 39.6173 72.6292C37.5001 72.4998 37.5001 72.4998 36.5001 71.4998C36.4129 69.7921 36.3931 68.0809 36.4024 66.3709C36.4056 65.3365 36.4089 64.302 36.4122 63.2362C36.4247 61.6033 36.4247 61.6033 36.4376 59.9373C36.4421 58.8449 36.4466 57.7524 36.4512 56.6268C36.4631 53.9178 36.4796 51.2088 36.5001 48.4998C34.5617 48.587 32.6243 48.6952 30.6876 48.8123C29.0692 48.8994 29.0692 48.8994 27.418 48.9881C24.1783 49.5563 23.4451 49.9463 21.5001 52.4998C21.0468 54.713 21.0468 54.713 21.1119 57.1991C21.1024 58.1502 21.093 59.1012 21.0832 60.0811C21.0923 61.6187 21.0923 61.6187 21.1016 63.1873C21.0988 64.2414 21.0959 65.2954 21.0929 66.3814C21.0909 68.6107 21.0964 70.84 21.109 73.0692C21.125 76.4866 21.1091 79.9028 21.0899 83.3202C21.0919 85.4842 21.0957 87.6483 21.1016 89.8123C21.0956 90.8374 21.0895 91.8624 21.0832 92.9185C21.0927 93.8696 21.1021 94.8207 21.1119 95.8006C21.1143 96.6376 21.1167 97.4746 21.1191 98.337C21.3534 100.553 21.3534 100.553 22.7306 102.269C25.0198 103.861 26.4213 103.88 29.1993 103.888C30.1504 103.897 31.1015 103.907 32.0814 103.917C33.1064 103.911 34.1315 103.905 35.1876 103.898C36.2416 103.901 37.2957 103.904 38.3817 103.907C40.6109 103.909 42.8402 103.903 45.0694 103.891C48.4868 103.875 51.903 103.891 55.3204 103.91C57.4844 103.908 59.6485 103.904 61.8126 103.898C62.8376 103.904 63.8627 103.91 64.9188 103.917C65.8699 103.907 66.8209 103.898 67.8008 103.888C68.6379 103.886 69.4749 103.883 70.3372 103.881C73.0073 103.411 73.893 102.653 75.5001 100.5C75.9905 97.6147 75.9905 97.6147 75.9766 94.3358C76.0076 93.1318 76.0385 91.9278 76.0704 90.6873C76.0884 89.4292 76.1065 88.1711 76.1251 86.8748C76.1758 84.3826 76.2303 81.8904 76.2891 79.3983C76.3067 78.2915 76.3243 77.1846 76.3424 76.0443C76.5001 73.4998 76.5001 73.4998 77.5001 72.4998C80.5001 72.3748 80.5001 72.3748 83.5001 72.4998C84.5001 73.4998 84.5001 73.4998 84.6136 76.4591C84.6057 78.3993 84.6057 78.3993 84.5977 80.3788C84.5963 81.0654 84.5949 81.7521 84.5934 82.4595C84.5878 84.6605 84.5753 86.8614 84.5626 89.0623C84.5576 90.5513 84.553 92.0402 84.5489 93.5291C84.5378 97.1861 84.5206 100.843 84.5001 104.5C87.1401 104.5 89.7801 104.5 92.5001 104.5C92.489 103.799 92.4779 103.098 92.4664 102.376C92.366 95.756 92.29 89.136 92.241 82.5151C92.215 79.1116 92.1797 75.7087 92.1229 72.3055C92.0579 68.3886 92.0338 64.4719 92.0118 60.5545C91.986 59.3387 91.9602 58.1229 91.9336 56.8702C91.9305 47.4334 91.9305 47.4334 94.9056 43.7464C98.5417 40.5979 100.235 40.3672 104.956 40.307C106.098 40.2909 107.239 40.2749 108.416 40.2583C113.644 40.2139 118.873 40.1723 124.102 40.1497C126.86 40.1364 129.618 40.1086 132.377 40.0677C136.35 40.0088 140.323 39.9911 144.297 39.9764C146.144 39.9424 146.144 39.9424 148.029 39.9077C157.574 39.9313 157.574 39.9313 161.263 42.9076C164.877 47.0947 164.653 50.2346 164.625 55.5623C164.629 56.3081 164.633 57.0538 164.637 57.8221C164.627 63.3732 164.627 63.3732 163.5 64.4998C160.5 64.6248 160.5 64.6248 157.5 64.4998C155.408 62.4079 156.119 57.9981 155.977 55.1639C155.68 52.5284 155.68 52.5284 154.348 50.6913C151.701 48.9845 149.434 48.9802 146.313 48.8123C145.226 48.7466 144.139 48.6809 143.02 48.6131C141.772 48.5571 141.772 48.5571 140.5 48.4998C140.505 49.1913 140.511 49.8829 140.516 50.5953C140.537 53.7093 140.55 56.8233 140.563 59.9373C140.571 61.026 140.579 62.1146 140.588 63.2362C140.591 64.2706 140.594 65.3051 140.598 66.3709C140.603 67.3293 140.608 68.2876 140.614 69.275C140.5 71.4998 140.5 71.4998 139.5 72.4998C137.877 72.599 136.251 72.6306 134.625 72.6327C133.64 72.6339 132.655 72.6352 131.641 72.6366C130.604 72.6327 129.568 72.6288 128.5 72.6248C126.945 72.6306 126.945 72.6306 125.359 72.6366C124.375 72.6353 123.39 72.634 122.375 72.6327C121.465 72.6315 120.555 72.6304 119.617 72.6292C117.5 72.4998 117.5 72.4998 116.5 71.4998C116.413 69.7921 116.393 68.0809 116.402 66.3709C116.407 64.8192 116.407 64.8192 116.412 63.2362C116.425 61.6033 116.425 61.6033 116.438 59.9373C116.442 58.8449 116.447 57.7524 116.451 56.6268C116.463 53.9178 116.48 51.2088 116.5 48.4998C114.562 48.587 112.624 48.6952 110.688 48.8123C109.609 48.8704 108.53 48.9284 107.418 48.9881C104.178 49.5563 103.445 49.9463 101.5 52.4998C101.047 54.713 101.047 54.713 101.112 57.1991C101.098 58.6257 101.098 58.6257 101.083 60.0811C101.089 61.1062 101.095 62.1312 101.102 63.1873C101.099 64.2414 101.096 65.2954 101.093 66.3814C101.091 68.6107 101.096 70.84 101.109 73.0692C101.125 76.4866 101.109 79.9028 101.09 83.3202C101.092 85.4842 101.096 87.6483 101.102 89.8123C101.096 90.8374 101.089 91.8624 101.083 92.9185C101.093 93.8696 101.102 94.8207 101.112 95.8006C101.115 97.0561 101.115 97.0561 101.119 98.337C101.353 100.553 101.353 100.553 102.731 102.269C105.02 103.861 106.421 103.88 109.199 103.888C110.626 103.902 110.626 103.902 112.081 103.917C113.106 103.911 114.131 103.905 115.188 103.898C116.242 103.901 117.296 103.904 118.382 103.907C120.611 103.909 122.84 103.903 125.069 103.891C128.487 103.875 131.903 103.891 135.32 103.91C137.484 103.908 139.648 103.904 141.813 103.898C142.838 103.904 143.863 103.91 144.919 103.917C145.87 103.907 146.821 103.898 147.801 103.888C148.638 103.886 149.475 103.883 150.337 103.881C153.007 103.411 153.893 102.653 155.5 100.5C155.99 97.6147 155.99 97.6147 155.977 94.3358C156.008 93.1318 156.038 91.9278 156.07 90.6873C156.088 89.4292 156.106 88.1711 156.125 86.8748C156.176 84.3826 156.23 81.8904 156.289 79.3983C156.307 78.2915 156.324 77.1846 156.342 76.0443C156.5 73.4998 156.5 73.4998 157.5 72.4998C160.5 72.3748 160.5 72.3748 163.5 72.4998C164.5 73.4998 164.5 73.4998 164.614 76.4591C164.608 77.7526 164.603 79.0461 164.598 80.3788C164.596 81.4087 164.596 81.4087 164.593 82.4595C164.588 84.6605 164.575 86.8614 164.563 89.0623C164.558 90.5513 164.553 92.0402 164.549 93.5291C164.538 97.1861 164.521 100.843 164.5 104.5C167.14 104.5 169.78 104.5 172.5 104.5C172.489 103.799 172.478 103.098 172.466 102.376C172.366 95.756 172.29 89.136 172.241 82.5151C172.215 79.1116 172.18 75.7087 172.123 72.3055C172.058 68.3886 172.034 64.4719 172.012 60.5545C171.986 59.3387 171.96 58.1229 171.934 56.8702C171.93 47.4334 171.93 47.4334 174.906 43.7464C178.542 40.5979 180.235 40.3672 184.956 40.307C186.098 40.2909 187.239 40.2749 188.416 40.2583C193.644 40.2139 198.873 40.1723 204.102 40.1497C206.86 40.1364 209.618 40.1086 212.377 40.0677C216.35 40.0088 220.323 39.9911 224.297 39.9764C226.144 39.9424 226.144 39.9424 228.029 39.9077C237.574 39.9313 237.574 39.9313 241.263 42.9076C244.877 47.0947 244.653 50.2346 244.625 55.5623C244.629 56.3081 244.633 57.0538 244.637 57.8221C244.627 63.3732 244.627 63.3732 243.5 64.4998C240.5 64.6248 240.5 64.6248 237.5 64.4998C235.408 62.4079 236.119 57.9981 235.977 55.1639C235.68 52.5284 235.68 52.5284 234.348 50.6913C231.701 48.9845 229.434 48.9802 226.313 48.8123C225.226 48.7466 224.139 48.6809 223.02 48.6131C221.772 48.5571 221.772 48.5571 220.5 48.4998C220.505 49.1913 220.511 49.8829 220.516 50.5953C220.537 53.7093 220.55 56.8233 220.563 59.9373C220.571 61.026 220.579 62.1146 220.588 63.2362C220.591 64.2706 220.594 65.3051 220.598 66.3709C220.603 67.3293 220.608 68.2876 220.614 69.275C220.5 71.4998 220.5 71.4998 219.5 72.4998C217.877 72.599 216.251 72.6306 214.625 72.6327C213.64 72.6339 212.655 72.6352 211.641 72.6366C210.604 72.6327 209.568 72.6288 208.5 72.6248C206.945 72.6306 206.945 72.6306 205.359 72.6366C204.375 72.6353 203.39 72.634 202.375 72.6327C201.465 72.6315 200.555 72.6304 199.617 72.6292C197.5 72.4998 197.5 72.4998 196.5 71.4998C196.413 69.7921 196.393 68.0809 196.402 66.3709C196.406 65.3365 196.409 64.302 196.412 63.2362C196.421 62.1476 196.429 61.0589 196.438 59.9373C196.442 58.8449 196.447 57.7524 196.451 56.6268C196.463 53.9178 196.48 51.2088 196.5 48.4998C194.562 48.587 192.624 48.6952 190.688 48.8123C189.609 48.8704 188.53 48.9284 187.418 48.9881C184.178 49.5563 183.445 49.9463 181.5 52.4998C181.047 54.713 181.047 54.713 181.112 57.1991C181.098 58.6257 181.098 58.6257 181.083 60.0811C181.089 61.1062 181.095 62.1312 181.102 63.1873C181.099 64.2414 181.096 65.2954 181.093 66.3814C181.091 68.6107 181.096 70.84 181.109 73.0692C181.125 76.4866 181.109 79.9028 181.09 83.3202C181.092 85.4842 181.096 87.6483 181.102 89.8123C181.093 91.3499 181.093 91.3499 181.083 92.9185C181.093 93.8696 181.102 94.8207 181.112 95.8006C181.115 97.0561 181.115 97.0561 181.119 98.337C181.353 100.553 181.353 100.553 182.731 102.269C185.02 103.861 186.421 103.88 189.199 103.888C190.626 103.902 190.626 103.902 192.081 103.917C193.106 103.911 194.131 103.905 195.188 103.898C196.242 103.901 197.296 103.904 198.382 103.907C200.611 103.909 202.84 103.903 205.069 103.891C208.487 103.875 211.903 103.891 215.32 103.91C217.484 103.908 219.648 103.904 221.813 103.898C222.838 103.904 223.863 103.91 224.919 103.917C225.87 103.907 226.821 103.898 227.801 103.888C228.638 103.886 229.475 103.883 230.337 103.881C233.007 103.411 233.893 102.653 235.5 100.5C235.99 97.6147 235.99 97.6147 235.977 94.3358C236.008 93.1318 236.038 91.9278 236.07 90.6873C236.088 89.4292 236.106 88.1711 236.125 86.8748C236.176 84.3826 236.23 81.8904 236.289 79.3983C236.307 78.2915 236.324 77.1846 236.342 76.0443C236.5 73.4998 236.5 73.4998 237.5 72.4998C240.5 72.3748 240.5 72.3748 243.5 72.4998C244.5 73.4998 244.5 73.4998 244.503 76.731C244.455 78.1684 244.404 79.6056 244.352 81.0428C244.315 82.6072 244.28 84.1717 244.246 85.7362C244.191 88.2082 244.125 90.6778 244.027 93.1485C243.288 102.354 243.288 102.354 245.982 110.798C247.75 112.265 249.505 113.373 251.5 114.5C256.741 121.019 257.421 128.568 256.977 136.652C255.924 145.147 252.176 150.797 245.555 156.094C241.28 159.02 237.787 160.5 232.5 160.5C232.502 161.187 232.505 161.873 232.507 162.581C232.529 169.702 232.544 176.823 232.555 183.943C232.56 186.604 232.567 189.265 232.576 191.926C232.588 195.741 232.593 199.556 232.598 203.371C232.603 204.569 232.608 205.767 232.613 207.001C232.613 208.102 232.614 209.203 232.614 210.337C232.616 211.312 232.618 212.287 232.62 213.292C232.5 215.5 232.5 215.5 231.5 216.5C229.877 216.599 228.251 216.631 226.625 216.633C225.64 216.634 224.655 216.635 223.641 216.637C222.604 216.633 221.568 216.629 220.5 216.625C219.464 216.629 218.427 216.633 217.359 216.637C216.375 216.635 215.39 216.634 214.375 216.633C213.465 216.632 212.555 216.63 211.617 216.629C209.5 216.5 209.5 216.5 208.5 215.5C208.406 213.781 208.383 212.059 208.387 210.337C208.387 209.236 208.387 208.135 208.387 207.001C208.392 205.803 208.397 204.605 208.402 203.371C208.405 201.542 208.405 201.542 208.407 199.676C208.412 195.763 208.425 191.85 208.438 187.937C208.443 185.292 208.447 182.647 208.451 180.002C208.462 173.501 208.479 167 208.5 160.5C206.893 160.517 206.893 160.517 205.254 160.535C203.857 160.544 202.46 160.553 201.063 160.562C200.356 160.571 199.648 160.579 198.92 160.588C197.113 160.596 195.306 160.552 193.5 160.5C192.5 159.5 192.5 159.5 192.375 156.5C192.5 153.5 192.5 153.5 193.5 152.5C195.998 152.364 198.473 152.289 200.973 152.254C202.528 152.221 204.083 152.188 205.639 152.154C208.092 152.107 210.545 152.063 212.998 152.023C215.365 151.983 217.731 151.931 220.098 151.879C220.819 151.87 221.54 151.862 222.283 151.853C229.78 151.674 236.596 150.464 242.5 145.5C246.582 140.344 247.191 135.976 246.945 129.441C246.148 124.176 243.98 120.478 239.82 117.16C233.693 113.334 227.243 113.352 220.24 113.366C219.423 113.364 218.607 113.362 217.766 113.359C215.04 113.353 212.313 113.354 209.586 113.355C207.628 113.352 205.67 113.348 203.712 113.344C198.397 113.336 193.083 113.333 187.769 113.333C184.448 113.332 181.127 113.33 177.806 113.327C166.216 113.318 154.627 113.314 143.038 113.315C132.239 113.315 121.441 113.305 110.643 113.289C101.367 113.276 92.0911 113.27 82.8153 113.271C77.2775 113.271 71.7396 113.268 66.2017 113.258C60.9929 113.248 55.7842 113.248 50.5755 113.255C48.6663 113.256 46.7572 113.254 44.848 113.248C42.2368 113.24 39.6258 113.245 37.0145 113.253C36.2637 113.247 35.5129 113.242 34.7394 113.237C27.2162 113.286 20.4214 114.521 14.5001 119.5C10.4183 124.656 9.8094 129.024 10.0548 135.558C10.8518 140.823 13.0204 144.522 17.1798 147.84C22.8269 151.366 28.612 151.622 35.0993 151.651C37.0658 151.664 37.0658 151.664 39.072 151.677C40.5126 151.681 41.9532 151.685 43.3939 151.689C44.9202 151.697 46.4465 151.706 47.9729 151.714C51.2517 151.732 54.5304 151.747 57.8092 151.76C62.9894 151.78 68.1695 151.808 73.3496 151.837C85.2734 151.902 97.1972 151.958 109.121 152.013C120.064 152.064 131.007 152.117 141.95 152.177C147.104 152.206 152.259 152.229 157.414 152.249C160.611 152.263 163.808 152.28 167.004 152.299C168.492 152.306 169.98 152.312 171.468 152.317C173.491 152.323 175.513 152.335 177.536 152.348C178.67 152.354 179.804 152.359 180.973 152.364C183.5 152.5 183.5 152.5 184.5 153.5C184.625 156.5 184.625 156.5 184.5 159.5C183.5 160.5 183.5 160.5 181.269 160.623C179.777 160.622 179.777 160.622 178.255 160.62C177.117 160.621 175.98 160.623 174.808 160.624C172.92 160.619 172.92 160.619 170.994 160.613C169.677 160.614 168.36 160.614 167.003 160.614C163.382 160.614 159.76 160.608 156.138 160.601C152.357 160.595 148.576 160.594 144.795 160.593C137.631 160.59 130.466 160.582 123.301 160.572C115.147 160.561 106.992 160.555 98.8375 160.55C82.0583 160.54 65.2792 160.522 48.5001 160.5C48.5023 161.187 48.5045 161.873 48.5068 162.581C48.5288 169.702 48.544 176.823 48.555 183.943C48.56 186.604 48.5669 189.265 48.5755 191.926C48.5876 195.741 48.5933 199.556 48.5977 203.371C48.6029 204.569 48.608 205.767 48.6134 207.001C48.6134 208.102 48.6135 209.203 48.6136 210.337C48.6158 211.312 48.618 212.287 48.6203 213.292C48.5001 215.5 48.5001 215.5 47.5001 216.5C45.8775 216.599 44.2507 216.631 42.6251 216.633C41.6402 216.634 40.6554 216.635 39.6407 216.637C38.6043 216.633 37.5679 216.629 36.5001 216.625C35.4637 216.629 34.4273 216.633 33.3594 216.637C32.3746 216.635 31.3898 216.634 30.3751 216.633C29.465 216.632 28.5549 216.63 27.6173 216.629C25.5001 216.5 25.5001 216.5 24.5001 215.5C24.4065 213.781 24.3826 212.059 24.3865 210.337C24.3866 209.236 24.3867 208.135 24.3868 207.001C24.3919 205.803 24.3971 204.605 24.4024 203.371C24.4038 202.152 24.4052 200.932 24.4067 199.676C24.4123 195.763 24.4249 191.85 24.4376 187.937C24.4426 185.292 24.4471 182.647 24.4512 180.002C24.4623 173.501 24.4791 167 24.5001 160.5C23.3954 160.358 22.2908 160.216 21.1527 160.07C14.2679 158.995 9.27478 154.862 5.06257 149.437C-0.350079 141.897 -0.602304 133.461 0.500068 124.5C1.72485 120.219 3.24906 115.896 7.18703 113.454C9.44455 111.981 10.907 110.688 12.5001 108.5C13.4382 103.918 13.1957 99.4371 13.0079 94.7811C12.9821 93.4365 12.9602 92.0918 12.9419 90.747C12.887 87.217 12.7944 83.6892 12.6893 80.1603C12.5215 74.5136 12.3854 68.8672 12.2983 63.2186C12.2586 61.2539 12.1862 59.2899 12.1131 57.3261C11.923 47.384 11.923 47.384 14.8902 43.7049C18.5463 40.6159 20.2521 40.367 24.9561 40.307ZM44.5001 48.4998C44.5001 53.7798 44.5001 59.0598 44.5001 64.4998C47.1401 64.4998 49.7801 64.4998 52.5001 64.4998C52.5001 59.2198 52.5001 53.9398 52.5001 48.4998C49.8601 48.4998 47.2201 48.4998 44.5001 48.4998ZM124.5 48.4998C124.5 53.7798 124.5 59.0598 124.5 64.4998C127.14 64.4998 129.78 64.4998 132.5 64.4998C132.5 59.2198 132.5 53.9398 132.5 48.4998C129.86 48.4998 127.22 48.4998 124.5 48.4998ZM204.5 48.4998C204.5 53.7798 204.5 59.0598 204.5 64.4998C207.14 64.4998 209.78 64.4998 212.5 64.4998C212.5 59.2198 212.5 53.9398 212.5 48.4998C209.86 48.4998 207.22 48.4998 204.5 48.4998ZM32.5001 160.5C32.5001 176.34 32.5001 192.18 32.5001 208.5C35.1401 208.5 37.7801 208.5 40.5001 208.5C40.5001 192.66 40.5001 176.82 40.5001 160.5C37.8601 160.5 35.2201 160.5 32.5001 160.5ZM216.5 160.5C216.5 176.34 216.5 192.18 216.5 208.5C219.14 208.5 221.78 208.5 224.5 208.5C224.5 192.66 224.5 176.82 224.5 160.5C221.86 160.5 219.22 160.5 216.5 160.5Z" fill="#053553"/>
<path d="M31.2295 115.992C32.5294 115.983 32.5294 115.983 33.8556 115.973C36.753 115.957 39.6495 115.97 42.5469 115.983C44.6267 115.977 46.7065 115.97 48.7863 115.961C54.4308 115.943 60.0751 115.95 65.7197 115.963C71.6266 115.973 77.5335 115.964 83.4404 115.957C93.3601 115.95 103.28 115.96 113.199 115.979C124.668 116 136.136 115.993 147.605 115.971C157.452 115.953 167.298 115.951 177.145 115.961C183.026 115.967 188.906 115.968 194.787 115.955C200.316 115.943 205.845 115.951 211.374 115.975C213.403 115.98 215.433 115.978 217.462 115.969C220.232 115.959 223.001 115.972 225.771 115.992C226.574 115.983 227.377 115.974 228.205 115.965C233.424 116.038 236.332 117.098 240.5 120.5C244.128 124.319 244.81 127.383 245 132.5C244.81 137.617 244.128 140.681 240.5 144.5C235.491 148.589 231.964 149.077 225.771 149.008C224.904 149.014 224.037 149.021 223.144 149.027C220.247 149.043 217.351 149.03 214.453 149.018C212.373 149.023 210.294 149.03 208.214 149.039C202.569 149.057 196.925 149.05 191.28 149.037C185.373 149.027 179.466 149.037 173.56 149.043C163.64 149.05 153.72 149.041 143.801 149.022C132.332 149 120.864 149.007 109.395 149.029C99.5483 149.047 89.702 149.05 79.8555 149.039C73.9745 149.033 68.0936 149.032 62.2125 149.045C56.6835 149.057 51.1549 149.049 45.626 149.026C43.5967 149.02 41.5674 149.022 39.5381 149.031C36.7681 149.042 33.9994 149.028 31.2295 149.008C30.0245 149.021 30.0245 149.021 28.7952 149.035C23.5755 148.962 20.6679 147.902 16.5 144.5C12.8717 140.681 12.19 137.617 12 132.5C12.19 127.383 12.8717 124.319 16.5 120.5C21.5091 116.412 25.0356 115.923 31.2295 115.992ZM43.5 124.5C43.5 129.78 43.5 135.06 43.5 140.5C46.8 140.5 50.1 140.5 53.5 140.5C53.5 135.22 53.5 129.94 53.5 124.5C50.2 124.5 46.9 124.5 43.5 124.5ZM83.5 124.5C83.5 129.78 83.5 135.06 83.5 140.5C86.8 140.5 90.1 140.5 93.5 140.5C93.5 135.22 93.5 129.94 93.5 124.5C90.2 124.5 86.9 124.5 83.5 124.5ZM123.5 124.5C123.5 129.78 123.5 135.06 123.5 140.5C126.8 140.5 130.1 140.5 133.5 140.5C133.5 135.22 133.5 129.94 133.5 124.5C130.2 124.5 126.9 124.5 123.5 124.5ZM163.5 124.5C163.5 129.78 163.5 135.06 163.5 140.5C166.8 140.5 170.1 140.5 173.5 140.5C173.5 135.22 173.5 129.94 173.5 124.5C170.2 124.5 166.9 124.5 163.5 124.5ZM203.5 124.5C203.5 129.78 203.5 135.06 203.5 140.5C206.8 140.5 210.1 140.5 213.5 140.5C213.5 135.22 213.5 129.94 213.5 124.5C210.2 124.5 206.9 124.5 203.5 124.5ZM23.125 127.125C21.0129 130.212 20.888 131.828 21.5 135.5C23 138 23 138 25.5 139.5C29.1717 140.112 30.7881 139.987 33.875 137.875C35.9871 134.788 36.112 133.172 35.5 129.5C34 127 34 127 31.5 125.5C27.8283 124.888 26.2119 125.013 23.125 127.125ZM63.125 127.125C61.0129 130.212 60.8881 131.828 61.5 135.5C63 138 63 138 65.5 139.5C69.1717 140.112 70.7881 139.987 73.875 137.875C75.9871 134.788 76.112 133.172 75.5 129.5C74 127 74 127 71.5 125.5C67.8283 124.888 66.2119 125.013 63.125 127.125ZM103.125 127.125C101.013 130.212 100.888 131.828 101.5 135.5C103 138 103 138 105.5 139.5C109.172 140.112 110.788 139.987 113.875 137.875C115.987 134.788 116.112 133.172 115.5 129.5C114 127 114 127 111.5 125.5C107.828 124.888 106.212 125.013 103.125 127.125ZM143.125 127.125C141.013 130.212 140.888 131.828 141.5 135.5C143 138 143 138 145.5 139.5C149.172 140.112 150.788 139.987 153.875 137.875C155.987 134.788 156.112 133.172 155.5 129.5C154 127 154 127 151.5 125.5C147.828 124.888 146.212 125.013 143.125 127.125ZM183.125 127.125C181.013 130.212 180.888 131.828 181.5 135.5C183 138 183 138 185.5 139.5C189.172 140.112 190.788 139.987 193.875 137.875C195.987 134.788 196.112 133.172 195.5 129.5C194 127 194 127 191.5 125.5C187.828 124.888 186.212 125.013 183.125 127.125ZM223.125 127.125C221.013 130.212 220.888 131.828 221.5 135.5C223 138 223 138 225.5 139.5C229.172 140.112 230.788 139.987 233.875 137.875C235.987 134.788 236.112 133.172 235.5 129.5C234 127 234 127 231.5 125.5C227.828 124.888 226.212 125.013 223.125 127.125Z" fill="#053553"/>
<path d="M216.625 88.3672C217.904 88.3698 219.182 88.3723 220.5 88.375C221.779 88.3724 223.057 88.3698 224.375 88.3672C227.5 88.5 227.5 88.5 228.5 89.5C228.625 92.5 228.625 92.5 228.5 95.5C227.5 96.5 227.5 96.5 224.375 96.6328C223.096 96.6302 221.818 96.6277 220.5 96.625C219.221 96.6276 217.943 96.6302 216.625 96.6328C213.5 96.5 213.5 96.5 212.5 95.5C212.375 92.5 212.375 92.5 212.5 89.5C213.5 88.5 213.5 88.5 216.625 88.3672Z" fill="#053553"/>
<path d="M136.625 88.3672C137.904 88.3698 139.182 88.3723 140.5 88.375C141.779 88.3724 143.057 88.3698 144.375 88.3672C147.5 88.5 147.5 88.5 148.5 89.5C148.625 92.5 148.625 92.5 148.5 95.5C147.5 96.5 147.5 96.5 144.375 96.6328C143.096 96.6302 141.818 96.6277 140.5 96.625C139.221 96.6276 137.943 96.6302 136.625 96.6328C133.5 96.5 133.5 96.5 132.5 95.5C132.375 92.5 132.375 92.5 132.5 89.5C133.5 88.5 133.5 88.5 136.625 88.3672Z" fill="#053553"/>
<path d="M56.625 88.3672C57.9037 88.3698 59.1825 88.3723 60.5 88.375C61.7787 88.3724 63.0575 88.3698 64.375 88.3672C67.5 88.5 67.5 88.5 68.5 89.5C68.625 92.5 68.625 92.5 68.5 95.5C67.5 96.5 67.5 96.5 64.375 96.6328C63.0963 96.6302 61.8175 96.6277 60.5 96.625C59.2213 96.6276 57.9425 96.6302 56.625 96.6328C53.5 96.5 53.5 96.5 52.5 95.5C52.375 92.5 52.375 92.5 52.5 89.5C53.5 88.5 53.5 88.5 56.625 88.3672Z" fill="#053553"/>
</g>
<defs>
<clipPath id="clip0_221_24">
<rect width="256" height="256" fill="white" transform="translate(0.5 0.5)"/>
</clipPath>
</defs>
</svg>
