<?xml version="1.0" encoding="UTF-8"?>
<!DOCTYPE svg PUBLIC "-//W3C//DTD SVG 1.1//EN" "http://www.w3.org/Graphics/SVG/1.1/DTD/svg11.dtd">
<svg xmlns="http://www.w3.org/2000/svg" version="1.1" width="512px" height="512px" style="shape-rendering:geometricPrecision; text-rendering:geometricPrecision; image-rendering:optimizeQuality; fill-rule:evenodd; clip-rule:evenodd" xmlns:xlink="http://www.w3.org/1999/xlink">
<g><path style="opacity:0.954" fill="#000101" d="M 238.5,-0.5 C 249.833,-0.5 261.167,-0.5 272.5,-0.5C 274.144,0.316435 275.31,1.64977 276,3.5C 276.333,9.16667 276.667,14.8333 277,20.5C 277.5,21 278,21.5 278.5,22C 288.49,25.1603 298.157,28.9936 307.5,33.5C 312.159,31.3607 316.159,28.194 319.5,24C 322.366,22.5432 325.366,22.2099 328.5,23C 335.667,30.1667 342.833,37.3333 350,44.5C 351.967,47.9983 351.633,51.3316 349,54.5C 346,57.5 343,60.5 340,63.5C 339.333,64.8333 339.333,66.1667 340,67.5C 344.762,76.8028 348.929,86.3028 352.5,96C 357.833,96.3333 363.167,96.6667 368.5,97C 370.081,97.7065 371.581,98.5399 373,99.5C 374.6,110.761 374.933,122.094 374,133.5C 373.215,135.286 372.049,136.786 370.5,138C 364.833,138.333 359.167,138.667 353.5,139C 352.667,139.833 351.833,140.667 351,141.5C 347.839,151.315 344.006,160.815 339.5,170C 342.196,174.709 345.696,178.875 350,182.5C 352,185.5 352,188.5 350,191.5C 343.167,198.333 336.333,205.167 329.5,212C 325.666,214.037 321.999,213.704 318.5,211C 315.5,208 312.5,205 309.5,202C 308.167,201.333 306.833,201.333 305.5,202C 296.988,206.921 287.988,210.754 278.5,213.5C 278.192,214.308 277.692,214.975 277,215.5C 280.52,233.48 273.353,240.48 255.5,236.5C 237.647,240.48 230.48,233.48 234,215.5C 233.308,214.975 232.808,214.308 232.5,213.5C 223.012,210.754 214.012,206.921 205.5,202C 204.167,201.333 202.833,201.333 201.5,202C 197.753,206.418 193.42,210.084 188.5,213C 186.029,213.706 183.695,213.373 181.5,212C 174.667,205.167 167.833,198.333 161,191.5C 159,188.5 159,185.5 161,182.5C 165.304,178.875 168.804,174.709 171.5,170C 167.022,161.034 163.355,151.701 160.5,142C 159.728,140.779 158.728,139.779 157.5,139C 151.833,138.667 146.167,138.333 140.5,138C 138.951,136.786 137.785,135.286 137,133.5C 136.067,122.094 136.4,110.761 138,99.5C 139.171,98.1068 140.671,97.2735 142.5,97C 147.833,96.6667 153.167,96.3333 158.5,96C 162.071,86.3028 166.238,76.8028 171,67.5C 171.667,66.1667 171.667,64.8333 171,63.5C 166.582,59.7533 162.916,55.4199 160,50.5C 159.365,48.3646 159.699,46.3646 161,44.5C 168.167,37.3333 175.333,30.1667 182.5,23C 185.167,22.3333 187.833,22.3333 190.5,23C 194.171,27.5226 198.504,31.0226 203.5,33.5C 212.843,28.9936 222.51,25.1603 232.5,22C 233,21.5 233.5,21 234,20.5C 234.333,14.8333 234.667,9.16667 235,3.5C 235.69,1.64977 236.856,0.316435 238.5,-0.5 Z"/></g>
<g><path style="opacity:1" fill="#386771" d="M 249.5,13.5 C 253.5,13.5 257.5,13.5 261.5,13.5C 260.434,22.2976 263.434,29.4643 270.5,35C 281.49,37.7743 291.824,42.1077 301.5,48C 311.351,50.6549 319.184,47.8216 325,39.5C 328.016,42.3489 330.85,45.3489 333.5,48.5C 331.183,51.3174 328.683,53.9841 326,56.5C 325.541,60.3388 325.041,64.1721 324.5,68C 327.829,75.8321 331.329,83.6654 335,91.5C 335.209,97.2813 337.376,102.115 341.5,106C 343.833,107.667 346.167,109.333 348.5,111C 352.152,111.499 355.818,111.665 359.5,111.5C 359.5,115.833 359.5,120.167 359.5,124.5C 349.493,123.001 341.993,126.668 337,135.5C 335.535,140.894 333.869,146.228 332,151.5C 329.199,156.764 326.699,162.098 324.5,167.5C 325.082,171.155 325.582,174.822 326,178.5C 328.128,181.63 330.628,184.463 333.5,187C 330.616,190.586 327.283,193.252 323.5,195C 317.499,187.768 309.833,185.435 300.5,188C 291.572,193.755 281.906,197.755 271.5,200C 267.608,203.226 264.442,207.059 262,211.5C 261.502,214.817 261.335,218.15 261.5,221.5C 257.5,221.5 253.5,221.5 249.5,221.5C 249.665,218.15 249.498,214.817 249,211.5C 246.741,207.405 243.907,203.738 240.5,200.5C 229.047,197.85 218.381,193.35 208.5,187C 199.799,185.334 192.799,188 187.5,195C 183.717,193.252 180.384,190.586 177.5,187C 180.372,184.463 182.872,181.63 185,178.5C 185.418,174.822 185.918,171.155 186.5,167.5C 184.301,162.098 181.801,156.764 179,151.5C 176.928,145.118 174.762,138.785 172.5,132.5C 169.646,129.812 166.646,127.312 163.5,125C 159.514,124.501 155.514,124.334 151.5,124.5C 151.5,120.167 151.5,115.833 151.5,111.5C 155.182,111.665 158.848,111.499 162.5,111C 166.092,108.287 169.592,105.453 173,102.5C 175.426,91.321 179.759,80.9877 186,71.5C 187.804,62.4 185.138,55.0667 178,49.5C 179.471,45.6806 182.138,42.6806 186,40.5C 188.822,42.6525 191.656,44.8192 194.5,47C 199.455,48.2179 204.455,48.5512 209.5,48C 219.008,41.7473 229.341,37.414 240.5,35C 247.566,29.4643 250.566,22.2976 249.5,13.5 Z"/></g>
<g><path style="opacity:1" fill="#020303" d="M 203.5,129.5 C 205.451,130.282 206.951,131.616 208,133.5C 218.638,159.745 238.138,170.912 266.5,167C 291.4,159.369 304.4,142.536 305.5,116.5C 304.761,97.8532 296.427,83.6865 280.5,74C 255.237,61.9412 233.404,66.4412 215,87.5C 211.806,92.5545 209.139,97.8878 207,103.5C 206.184,104.823 205.017,105.489 203.5,105.5C 196.175,106.008 193.342,102.674 195,95.5C 209.719,63.5547 234.553,50.0547 269.5,55C 300.515,63.876 317.182,84.376 319.5,116.5C 318.934,144.822 305.934,164.989 280.5,177C 250.265,187.36 224.765,180.526 204,156.5C 198.151,149.486 195.151,141.486 195,132.5C 197.196,129.875 200.03,128.875 203.5,129.5 Z"/></g>
<g><path style="opacity:1" fill="#eafdfa" d="M 203.5,129.5 C 202.432,128.566 201.099,128.232 199.5,128.5C 198.65,121.201 198.317,113.868 198.5,106.5C 200.415,106.784 202.081,106.451 203.5,105.5C 205.017,105.489 206.184,104.823 207,103.5C 209.139,97.8878 211.806,92.5545 215,87.5C 233.404,66.4412 255.237,61.9412 280.5,74C 296.427,83.6865 304.761,97.8532 305.5,116.5C 304.4,142.536 291.4,159.369 266.5,167C 238.138,170.912 218.638,159.745 208,133.5C 206.951,131.616 205.451,130.282 203.5,129.5 Z"/></g>
<g><path style="opacity:0.978" fill="#010100" d="M 511.5,428.5 C 511.5,436.167 511.5,443.833 511.5,451.5C 503.807,483.86 483.807,503.86 451.5,511.5C 320.833,511.5 190.167,511.5 59.5,511.5C 24.544,502.604 4.54402,480.27 -0.5,444.5C -0.5,441.5 -0.5,438.5 -0.5,435.5C 5.45538,394.548 29.122,371.881 70.5,367.5C 70.3333,330.832 70.5,294.165 71,257.5C 72.3189,255.513 74.1523,254.346 76.5,254C 131.167,253.333 185.833,253.333 240.5,254C 243.276,254.066 245.442,255.232 247,257.5C 247.5,294.165 247.667,330.832 247.5,367.5C 252.833,367.5 258.167,367.5 263.5,367.5C 263.333,330.832 263.5,294.165 264,257.5C 265.558,255.232 267.724,254.066 270.5,254C 325.167,253.333 379.833,253.333 434.5,254C 436.848,254.346 438.681,255.513 440,257.5C 440.5,294.165 440.667,330.832 440.5,367.5C 468.108,368.709 488.942,381.043 503,404.5C 506.763,412.296 509.596,420.296 511.5,428.5 Z"/></g>
<g><path style="opacity:1" fill="#fecb65" d="M 232.5,268.5 C 232.5,301.5 232.5,334.5 232.5,367.5C 183.167,367.5 133.833,367.5 84.5,367.5C 84.5,334.5 84.5,301.5 84.5,268.5C 97.8333,268.5 111.167,268.5 124.5,268.5C 124.333,283.837 124.5,299.17 125,314.5C 128.68,320.664 133.18,321.164 138.5,316C 145.051,309.779 151.884,303.945 159,298.5C 167.155,305.32 175.322,312.153 183.5,319C 187.886,320.057 191.053,318.557 193,314.5C 193.5,299.17 193.667,283.837 193.5,268.5C 206.5,268.5 219.5,268.5 232.5,268.5 Z"/></g>
<g><path style="opacity:1" fill="#ef683c" d="M 138.5,268.5 C 152.167,268.5 165.833,268.5 179.5,268.5C 179.832,277.857 179.498,287.19 178.5,296.5C 173.649,291.815 168.649,287.315 163.5,283C 160.463,281.15 157.463,281.15 154.5,283C 149.333,287.5 144.167,292 139,296.5C 138.5,287.173 138.334,277.839 138.5,268.5 Z"/></g>
<g><path style="opacity:1" fill="#bf994c" d="M 278.5,268.5 C 278.5,301.5 278.5,334.5 278.5,367.5C 288.348,367.173 298.014,367.506 307.5,368.5C 297.5,368.5 287.5,368.5 277.5,368.5C 277.168,334.996 277.502,301.662 278.5,268.5 Z"/></g>
<g><path style="opacity:1" fill="#fdcb65" d="M 278.5,268.5 C 291.5,268.5 304.5,268.5 317.5,268.5C 317.333,283.837 317.5,299.17 318,314.5C 321.144,320.109 325.311,320.942 330.5,317C 337.383,310.446 344.55,304.279 352,298.5C 360.155,305.32 368.322,312.153 376.5,319C 380.886,320.057 384.053,318.557 386,314.5C 386.5,299.17 386.667,283.837 386.5,268.5C 399.833,268.5 413.167,268.5 426.5,268.5C 426.5,301.833 426.5,335.167 426.5,368.5C 416.161,368.334 405.828,368.5 395.5,369C 393.113,370.547 391.78,372.713 391.5,375.5C 383.559,376.081 375.892,375.414 368.5,373.5C 368.141,371.629 367.141,370.129 365.5,369C 356.833,368.333 348.167,368.333 339.5,369C 336.307,370.026 334.974,372.192 335.5,375.5C 327.833,375.5 320.167,375.5 312.5,375.5C 312.536,371.892 310.869,369.559 307.5,368.5C 298.014,367.506 288.348,367.173 278.5,367.5C 278.5,334.5 278.5,301.5 278.5,268.5 Z"/></g>
<g><path style="opacity:1" fill="#ef683c" d="M 331.5,268.5 C 345.167,268.5 358.833,268.5 372.5,268.5C 372.666,277.839 372.5,287.173 372,296.5C 366.833,292 361.667,287.5 356.5,283C 352.913,280.851 349.58,281.184 346.5,284C 341.684,287.981 337.018,292.148 332.5,296.5C 331.502,287.19 331.168,277.857 331.5,268.5 Z"/></g>
<g><path style="opacity:1" fill="#090704" d="M 183.5,336.5 C 196.504,336.333 209.504,336.5 222.5,337C 227.951,341.754 227.617,346.087 221.5,350C 209.167,350.667 196.833,350.667 184.5,350C 178.29,345.824 177.957,341.324 183.5,336.5 Z"/></g>
<g><path style="opacity:1" fill="#090704" d="M 376.5,336.5 C 389.504,336.333 402.504,336.5 415.5,337C 419.629,339.631 420.462,343.131 418,347.5C 417.097,348.701 415.931,349.535 414.5,350C 402.167,350.667 389.833,350.667 377.5,350C 371.304,345.873 370.97,341.373 376.5,336.5 Z"/></g>
<g><path style="opacity:1" fill="#ba954a" d="M 232.5,268.5 C 233.498,301.662 233.832,334.996 233.5,368.5C 183.664,368.832 133.997,368.499 84.5,367.5C 133.833,367.5 183.167,367.5 232.5,367.5C 232.5,334.5 232.5,301.5 232.5,268.5 Z"/></g>
<g><path style="opacity:1" fill="#020303" d="M 368.5,373.5 C 369.265,377.808 367.598,380.642 363.5,382C 355.5,382.667 347.5,382.667 339.5,382C 337.077,380.429 335.744,378.263 335.5,375.5C 334.974,372.192 336.307,370.026 339.5,369C 348.167,368.333 356.833,368.333 365.5,369C 367.141,370.129 368.141,371.629 368.5,373.5 Z"/></g>
<g><path style="opacity:1" fill="#386871" d="M 368.5,373.5 C 375.892,375.414 383.559,376.081 391.5,375.5C 391.84,378.675 393.507,380.841 396.5,382C 413.5,382.333 430.5,382.667 447.5,383C 473.548,387.712 490.048,402.879 497,428.5C 500.815,458.378 489.315,479.878 462.5,493C 457.323,494.961 451.99,496.294 446.5,497C 318.167,497.667 189.833,497.667 61.5,497C 26.4509,487.601 10.6176,464.768 14,428.5C 20.5126,404.654 35.6793,389.487 59.5,383C 142.167,382.667 224.833,382.333 307.5,382C 310.534,380.809 312.201,378.642 312.5,375.5C 320.167,375.5 327.833,375.5 335.5,375.5C 335.744,378.263 337.077,380.429 339.5,382C 347.5,382.667 355.5,382.667 363.5,382C 367.598,380.642 369.265,377.808 368.5,373.5 Z"/></g>
<g><path style="opacity:1" fill="#010202" d="M 61.5,400.5 C 189.834,400.333 318.167,400.5 446.5,401C 469.946,407.032 480.779,422.198 479,446.5C 474.935,463.565 464.435,474.399 447.5,479C 319.167,479.667 190.833,479.667 62.5,479C 42.952,473.073 32.6186,459.906 31.5,439.5C 32.6012,419.622 42.6012,406.622 61.5,400.5 Z"/></g>
<g><path style="opacity:1" fill="#3f4544" d="M 163.5,414.5 C 142.993,414.17 122.66,414.503 102.5,415.5C 101.957,415.44 101.624,415.107 101.5,414.5C 122.329,413.172 142.996,413.172 163.5,414.5 Z"/></g>
<g><path style="opacity:1" fill="#3f4544" d="M 347.5,414.5 C 368.004,413.172 388.671,413.172 409.5,414.5C 409.376,415.107 409.043,415.44 408.5,415.5C 388.34,414.503 368.007,414.17 347.5,414.5 Z"/></g>
<g><path style="opacity:1" fill="#64e3fc" d="M 63.5,414.5 C 86.5195,413.02 97.3529,423.687 96,446.5C 89.0981,463.365 76.9314,468.865 59.5,463C 47.2805,455.351 43.1139,444.518 47,430.5C 50.4126,422.919 55.9126,417.586 63.5,414.5 Z"/></g>
<g><path style="opacity:1" fill="#eafdfa" d="M 163.5,414.5 C 151.671,431.273 151.671,448.106 163.5,465C 142.833,465.667 122.167,465.667 101.5,465C 113.132,448.697 113.466,432.197 102.5,415.5C 122.66,414.503 142.993,414.17 163.5,414.5 Z"/></g>
<g><path style="opacity:1" fill="#64e3fc" d="M 187.5,414.5 C 209.989,413.488 220.489,424.155 219,446.5C 212.111,463.362 199.945,468.862 182.5,463C 170.289,455.38 166.122,444.546 170,430.5C 173.503,422.492 179.336,417.159 187.5,414.5 Z"/></g>
<g><path style="opacity:1" fill="#eafdfa" d="M 224.5,415.5 C 244.996,414.337 265.663,414.171 286.5,415C 276.694,427.685 274.86,441.518 281,456.5C 282.439,459.603 284.273,462.436 286.5,465C 265.833,465.667 245.167,465.667 224.5,465C 235.428,449.739 236.261,433.906 227,417.5C 226.292,416.619 225.458,415.953 224.5,415.5 Z"/></g>
<g><path style="opacity:1" fill="#64e3fc" d="M 309.5,414.5 C 332.499,413 343.332,423.666 342,446.5C 334.167,463.998 321.333,469.165 303.5,462C 290.945,452.581 288.112,440.748 295,426.5C 298.811,421.189 303.644,417.189 309.5,414.5 Z"/></g>
<g><path style="opacity:1" fill="#eafdfa" d="M 347.5,414.5 C 368.007,414.17 388.34,414.503 408.5,415.5C 397.534,432.197 397.868,448.697 409.5,465C 388.833,465.667 368.167,465.667 347.5,465C 359.388,448.114 359.388,431.28 347.5,414.5 Z"/></g>
<g><path style="opacity:1" fill="#64e3fc" d="M 432.5,414.5 C 454.52,412.694 465.353,422.694 465,444.5C 460.39,460.229 449.89,467.063 433.5,465C 414.602,456.643 409.768,443.143 419,424.5C 422.767,420.048 427.267,416.714 432.5,414.5 Z"/></g>
</svg>
