<?xml version="1.0" encoding="UTF-8"?>
<!DOCTYPE svg PUBLIC "-//W3C//DTD SVG 1.1//EN" "http://www.w3.org/Graphics/SVG/1.1/DTD/svg11.dtd">
<svg xmlns="http://www.w3.org/2000/svg" version="1.1" width="512px" height="512px" style="shape-rendering:geometricPrecision; text-rendering:geometricPrecision; image-rendering:optimizeQuality; fill-rule:evenodd; clip-rule:evenodd" xmlns:xlink="http://www.w3.org/1999/xlink">
<g><path style="opacity:0.982" fill="#000000" d="M 62.5,15.5 C 138.834,15.3333 215.167,15.5 291.5,16C 298.327,17.4133 304.327,20.4133 309.5,25C 325.667,41.1667 341.833,57.3333 358,73.5C 361.499,77.6717 364.166,82.3384 366,87.5C 367.642,126.12 367.976,164.787 367,203.5C 366.5,205.333 365.333,206.5 363.5,207C 360.833,207.667 358.167,207.667 355.5,207C 353.667,206.5 352.5,205.333 352,203.5C 351.794,167.484 351.294,131.484 350.5,95.5C 335.163,95.6666 319.83,95.4999 304.5,95C 296.333,92.1667 290.833,86.6667 288,78.5C 287.5,63.1703 287.333,47.837 287.5,32.5C 215.518,31.3493 143.518,31.1826 71.5,32C 57.6667,33.8333 49.8333,41.6667 48,55.5C 47.3333,172.833 47.3333,290.167 48,407.5C 49.8333,421.333 57.6667,429.167 71.5,431C 115.5,431.333 159.5,431.667 203.5,432C 206.516,433.529 207.849,436.029 207.5,439.5C 207.849,442.971 206.516,445.471 203.5,447C 156.5,447.667 109.5,447.667 62.5,447C 46.3333,442.833 36.1667,432.667 32,416.5C 31.3333,293.167 31.3333,169.833 32,46.5C 36.3489,30.3186 46.5156,19.9852 62.5,15.5 Z M 303.5,44.5 C 315.298,55.798 326.965,67.298 338.5,79C 329.5,79.6667 320.5,79.6667 311.5,79C 307,78.5 304.5,76 304,71.5C 303.5,62.5062 303.334,53.5062 303.5,44.5 Z"/></g>
<g><path style="opacity:0.929" fill="#000000" d="M 187.5,79.5 C 200.837,79.3334 214.171,79.5001 227.5,80C 228.416,80.3742 229.25,80.8742 230,81.5C 231.133,88.733 231.633,96.0664 231.5,103.5C 231.333,110.167 231.167,116.833 231,123.5C 229.471,126.516 226.971,127.849 223.5,127.5C 221.074,127.596 218.907,126.93 217,125.5C 215.761,119.944 215.094,114.278 215,108.5C 201.167,122.333 187.333,136.167 173.5,150C 169.5,152 165.5,152 161.5,150C 155.652,143.985 149.652,138.152 143.5,132.5C 129.347,146.153 115.347,159.986 101.5,174C 89.3333,177.833 85.1667,173.667 89,161.5C 105.167,145.333 121.333,129.167 137.5,113C 141.5,111 145.5,111 149.5,113C 155.167,118.667 160.833,124.333 166.5,130C 167.167,130.667 167.833,130.667 168.5,130C 179.833,118.667 191.167,107.333 202.5,96C 197.5,95.6667 192.5,95.3333 187.5,95C 186.584,94.6258 185.75,94.1258 185,93.5C 182.425,88.034 183.258,83.3673 187.5,79.5 Z"/></g>
<g><path style="opacity:0.95" fill="#000000" d="M 291.5,127.5 C 299.507,127.334 307.507,127.5 315.5,128C 317.333,128.5 318.5,129.667 319,131.5C 319.667,134.167 319.667,136.833 319,139.5C 318.5,141.333 317.333,142.5 315.5,143C 307.5,143.667 299.5,143.667 291.5,143C 288.484,141.471 287.151,138.971 287.5,135.5C 287.282,131.934 288.616,129.268 291.5,127.5 Z"/></g>
<g><path style="opacity:0.993" fill="#000000" d="M 211.5,143.5 C 224.837,143.333 238.171,143.5 251.5,144C 253.333,144.5 254.5,145.667 255,147.5C 255.667,176.833 255.667,206.167 255,235.5C 254.5,237.333 253.333,238.5 251.5,239C 238.167,239.667 224.833,239.667 211.5,239C 209.667,238.5 208.5,237.333 208,235.5C 207.333,206.167 207.333,176.833 208,147.5C 208.69,145.65 209.856,144.316 211.5,143.5 Z M 223.5,159.5 C 228.833,159.5 234.167,159.5 239.5,159.5C 239.5,180.833 239.5,202.167 239.5,223.5C 234.167,223.5 228.833,223.5 223.5,223.5C 223.5,202.167 223.5,180.833 223.5,159.5 Z"/></g>
<g><path style="opacity:0.991" fill="#000000" d="M 147.5,167.5 C 160.837,167.333 174.171,167.5 187.5,168C 188.416,168.374 189.25,168.874 190,169.5C 191.146,180.74 191.646,192.074 191.5,203.5C 191.333,214.167 191.167,224.833 191,235.5C 190.626,236.416 190.126,237.25 189.5,238C 182.267,239.133 174.934,239.633 167.5,239.5C 160.833,239.333 154.167,239.167 147.5,239C 146.584,238.626 145.75,238.126 145,237.5C 143.356,215.589 143.022,193.589 144,171.5C 144.69,169.65 145.856,168.316 147.5,167.5 Z M 159.5,183.5 C 164.833,183.5 170.167,183.5 175.5,183.5C 175.5,196.833 175.5,210.167 175.5,223.5C 170.167,223.5 164.833,223.5 159.5,223.5C 159.5,210.167 159.5,196.833 159.5,183.5 Z"/></g>
<g><path style="opacity:0.95" fill="#000000" d="M 291.5,175.5 C 299.507,175.334 307.507,175.5 315.5,176C 317.333,176.5 318.5,177.667 319,179.5C 319.667,182.167 319.667,184.833 319,187.5C 318.5,189.333 317.333,190.5 315.5,191C 307.5,191.667 299.5,191.667 291.5,191C 288.484,189.471 287.151,186.971 287.5,183.5C 287.282,179.934 288.616,177.268 291.5,175.5 Z"/></g>
<g><path style="opacity:0.988" fill="#000000" d="M 83.5,191.5 C 96.8375,191.333 110.171,191.5 123.5,192C 124.416,192.374 125.25,192.874 126,193.5C 127.133,200.733 127.633,208.066 127.5,215.5C 133.167,237.167 125.167,245.167 103.5,239.5C 96.8333,239.333 90.1667,239.167 83.5,239C 82.5838,238.626 81.7504,238.126 81,237.5C 79.3691,223.594 79.0358,209.594 80,195.5C 80.6897,193.65 81.8564,192.316 83.5,191.5 Z M 95.5,207.5 C 100.833,207.5 106.167,207.5 111.5,207.5C 111.5,212.833 111.5,218.167 111.5,223.5C 106.167,223.5 100.833,223.5 95.5,223.5C 95.5,218.167 95.5,212.833 95.5,207.5 Z"/></g>
<g><path style="opacity:0.95" fill="#000000" d="M 291.5,223.5 C 299.507,223.334 307.507,223.5 315.5,224C 317.333,224.5 318.5,225.667 319,227.5C 319.667,230.167 319.667,232.833 319,235.5C 318.5,237.333 317.333,238.5 315.5,239C 307.5,239.667 299.5,239.667 291.5,239C 288.484,237.471 287.151,234.971 287.5,231.5C 287.282,227.934 288.616,225.268 291.5,223.5 Z"/></g>
<g><path style="opacity:0.966" fill="#000000" d="M 355.5,223.5 C 414.915,224.429 454.748,252.762 475,308.5C 478.868,321.245 480.202,334.245 479,347.5C 478.626,348.416 478.126,349.25 477.5,350C 456.92,351.156 436.253,351.656 415.5,351.5C 395.5,351.333 375.5,351.167 355.5,351C 354.584,350.626 353.75,350.126 353,349.5C 351.345,308.917 351.012,268.251 352,227.5C 352.69,225.65 353.856,224.316 355.5,223.5 Z M 367.5,240.5 C 408.493,245.232 437.66,266.232 455,303.5C 459.078,313.812 461.578,324.479 462.5,335.5C 430.833,335.5 399.167,335.5 367.5,335.5C 367.5,303.833 367.5,272.167 367.5,240.5 Z"/></g>
<g><path style="opacity:0.949" fill="#000000" d="M 311.5,255.5 C 318.175,255.334 324.842,255.5 331.5,256C 333.333,256.5 334.5,257.667 335,259.5C 335.5,295.498 335.667,331.498 335.5,367.5C 371.502,367.333 407.502,367.5 443.5,368C 445.333,368.5 446.5,369.667 447,371.5C 447.564,423.552 424.73,461.385 378.5,485C 331.534,504.169 288.2,498.169 248.5,467C 215.266,436.304 202.099,398.47 209,353.5C 222.214,298.784 256.381,266.117 311.5,255.5 Z M 313.5,272.5 C 315.5,272.5 317.5,272.5 319.5,272.5C 319.013,308.92 319.513,345.253 321,381.5C 321.75,382.126 322.584,382.626 323.5,383C 359.165,383.5 394.832,383.667 430.5,383.5C 425.411,425.738 403.411,455.238 364.5,472C 317.887,486.972 278.387,476.139 246,439.5C 224.589,410.369 218.922,378.369 229,343.5C 243.959,304.036 272.126,280.369 313.5,272.5 Z"/></g>
<g><path style="opacity:0.989" fill="#000000" d="M 83.5,271.5 C 126.168,271.333 168.835,271.5 211.5,272C 214.516,273.529 215.849,276.029 215.5,279.5C 215.849,282.971 214.516,285.471 211.5,287C 168.833,287.667 126.167,287.667 83.5,287C 80.484,285.471 79.1506,282.971 79.5,279.5C 79.2824,275.934 80.6157,273.268 83.5,271.5 Z"/></g>
<g><path style="opacity:0.976" fill="#000000" d="M 83.5,319.5 C 102.17,319.333 120.836,319.5 139.5,320C 141.333,320.5 142.5,321.667 143,323.5C 143.667,326.167 143.667,328.833 143,331.5C 142.5,333.333 141.333,334.5 139.5,335C 120.833,335.667 102.167,335.667 83.5,335C 80.484,333.471 79.1506,330.971 79.5,327.5C 79.2824,323.934 80.6157,321.268 83.5,319.5 Z"/></g>
<g><path style="opacity:0.95" fill="#000000" d="M 163.5,319.5 C 171.507,319.334 179.507,319.5 187.5,320C 189.333,320.5 190.5,321.667 191,323.5C 191.667,326.167 191.667,328.833 191,331.5C 190.5,333.333 189.333,334.5 187.5,335C 179.5,335.667 171.5,335.667 163.5,335C 160.484,333.471 159.151,330.971 159.5,327.5C 159.282,323.934 160.616,321.268 163.5,319.5 Z"/></g>
<g><path style="opacity:0.985" fill="#000000" d="M 83.5,367.5 C 115.502,367.333 147.502,367.5 179.5,368C 182.516,369.529 183.849,372.029 183.5,375.5C 183.849,378.971 182.516,381.471 179.5,383C 147.5,383.667 115.5,383.667 83.5,383C 80.484,381.471 79.1506,378.971 79.5,375.5C 79.2824,371.934 80.6157,369.268 83.5,367.5 Z"/></g>
</svg>
