<?xml version="1.0" encoding="UTF-8"?>
<!DOCTYPE svg PUBLIC "-//W3C//DTD SVG 1.1//EN" "http://www.w3.org/Graphics/SVG/1.1/DTD/svg11.dtd">
<svg xmlns="http://www.w3.org/2000/svg" version="1.1" width="512px" height="512px" style="shape-rendering:geometricPrecision; text-rendering:geometricPrecision; image-rendering:optimizeQuality; fill-rule:evenodd; clip-rule:evenodd" xmlns:xlink="http://www.w3.org/1999/xlink">
<g><path style="opacity:0.953" fill="#000000" d="M 146.5,-0.5 C 251.833,-0.5 357.167,-0.5 462.5,-0.5C 464.97,1.08167 466.47,3.41501 467,6.5C 467.667,139.833 467.667,273.167 467,406.5C 466.5,411 464,413.5 459.5,414C 445.837,414.5 432.171,414.667 418.5,414.5C 418.667,428.171 418.5,441.837 418,455.5C 417.5,460 415,462.5 410.5,463C 396.837,463.5 383.171,463.667 369.5,463.5C 369.667,477.504 369.5,491.504 369,505.5C 368.196,508.146 366.696,510.146 364.5,511.5C 259.167,511.5 153.833,511.5 48.5,511.5C 46.0303,509.918 44.5303,507.585 44,504.5C 43.3333,371.167 43.3333,237.833 44,104.5C 44.5,100 47,97.5 51.5,97C 65.1626,96.5001 78.8293,96.3334 92.5,96.5C 92.3334,82.8293 92.5001,69.1626 93,55.5C 93.5,51 96,48.5 100.5,48C 114.163,47.5001 127.829,47.3334 141.5,47.5C 141.333,33.496 141.5,19.496 142,5.5C 142.804,2.85408 144.304,0.854084 146.5,-0.5 Z M 158.5,15.5 C 255.833,15.5 353.167,15.5 450.5,15.5C 450.5,142.833 450.5,270.167 450.5,397.5C 353.167,397.5 255.833,397.5 158.5,397.5C 158.5,270.167 158.5,142.833 158.5,15.5 Z M 222.5,48.5 C 223.83,54.2953 224.496,60.462 224.5,67C 224.333,73.1667 224.167,79.3333 224,85.5C 215.203,92.6281 206.703,100.128 198.5,108C 197.552,108.483 196.552,108.649 195.5,108.5C 186.085,80.0073 195.085,60.0073 222.5,48.5 Z M 241.5,48.5 C 258.049,52.7147 268.715,63.0481 273.5,79.5C 262.854,80.4987 252.187,80.832 241.5,80.5C 241.5,69.8333 241.5,59.1667 241.5,48.5 Z M 109.5,64.5 C 120.167,64.5 130.833,64.5 141.5,64.5C 141.006,179.89 141.506,295.223 143,410.5C 144.8,412.317 146.966,413.484 149.5,414C 233.499,414.5 317.499,414.667 401.5,414.5C 401.5,425.167 401.5,435.833 401.5,446.5C 304.167,446.5 206.833,446.5 109.5,446.5C 109.5,319.167 109.5,191.833 109.5,64.5 Z M 236.5,97.5 C 248.833,97.5 261.167,97.5 273.5,97.5C 265.406,123.887 247.739,134.387 220.5,129C 216.053,127.61 212.053,125.444 208.5,122.5C 217.853,114.144 227.187,105.811 236.5,97.5 Z M 60.5,113.5 C 71.1667,113.5 81.8333,113.5 92.5,113.5C 92.3333,227.5 92.5,341.5 93,455.5C 93.5,460 96,462.5 100.5,463C 184.499,463.5 268.499,463.667 352.5,463.5C 352.5,474.167 352.5,484.833 352.5,495.5C 255.167,495.5 157.833,495.5 60.5,495.5C 60.5,368.167 60.5,240.833 60.5,113.5 Z"/></g>
<g><path style="opacity:0.938" fill="#000000" d="M 226.5,30.5 C 261.434,30.0306 282.934,46.6973 291,80.5C 293.368,115.783 277.534,137.949 243.5,147C 211.347,150.35 189.18,137.183 177,107.5C 169.356,66.0898 185.856,40.4231 226.5,30.5 Z M 222.5,48.5 C 195.085,60.0073 186.085,80.0073 195.5,108.5C 196.552,108.649 197.552,108.483 198.5,108C 206.703,100.128 215.203,92.6281 224,85.5C 224.167,79.3333 224.333,73.1667 224.5,67C 224.496,60.462 223.83,54.2953 222.5,48.5 Z M 241.5,48.5 C 241.5,59.1667 241.5,69.8333 241.5,80.5C 252.187,80.832 262.854,80.4987 273.5,79.5C 268.715,63.0481 258.049,52.7147 241.5,48.5 Z M 236.5,97.5 C 227.187,105.811 217.853,114.144 208.5,122.5C 212.053,125.444 216.053,127.61 220.5,129C 247.739,134.387 265.406,123.887 273.5,97.5C 261.167,97.5 248.833,97.5 236.5,97.5 Z"/></g>
<g><path style="opacity:0.928" fill="#000000" d="M 306.5,59.5 C 342.502,59.3333 378.502,59.5 414.5,60C 419.609,63.3662 420.776,67.8662 418,73.5C 417.097,74.7014 415.931,75.5348 414.5,76C 378.5,76.6667 342.5,76.6667 306.5,76C 301.391,72.6338 300.224,68.1338 303,62.5C 304.145,61.3636 305.312,60.3636 306.5,59.5 Z"/></g>
<g><path style="opacity:0.986" fill="#000000" d="M 305.5,102.5 C 342.168,102.333 378.835,102.5 415.5,103C 420.833,108 420.833,113 415.5,118C 378.833,118.667 342.167,118.667 305.5,118C 300.221,112.836 300.221,107.669 305.5,102.5 Z"/></g>
<g><path style="opacity:0.927" fill="#000000" d="M 372.5,139.5 C 383.863,140.336 395.196,141.503 406.5,143C 410.689,145.213 412.356,148.713 411.5,153.5C 410.697,162.836 409.863,172.169 409,181.5C 407.839,185.826 405.005,188.159 400.5,188.5C 398.189,187.786 396.022,186.786 394,185.5C 392.785,180.949 392.119,176.282 392,171.5C 376.833,184.667 361.667,197.833 346.5,211C 344.194,212.986 341.528,214.153 338.5,214.5C 317.277,206.09 296.277,197.09 275.5,187.5C 255.646,204.521 235.646,221.355 215.5,238C 207.742,242.137 202.742,239.971 200.5,231.5C 201.095,229.143 202.095,226.977 203.5,225C 224.685,207.571 245.685,189.904 266.5,172C 268.71,170.261 271.21,169.094 274,168.5C 294.342,176.921 314.509,185.754 334.5,195C 335.833,195.667 337.167,195.667 338.5,195C 352.833,182.667 367.167,170.333 381.5,158C 377.853,157.226 374.186,156.559 370.5,156C 363.591,149.565 364.258,144.065 372.5,139.5 Z"/></g>
<g><path style="opacity:0.938" fill="#000000" d="M 381.5,197.5 C 386.152,196.984 389.652,198.651 392,202.5C 392.5,248.165 392.667,293.832 392.5,339.5C 400.174,339.334 407.841,339.5 415.5,340C 420.833,345 420.833,350 415.5,355C 414.5,355.333 413.5,355.667 412.5,356C 340.5,356.667 268.5,356.667 196.5,356C 190.533,354.357 188.366,350.524 190,344.5C 190.785,342.714 191.951,341.214 193.5,340C 202.16,339.5 210.827,339.334 219.5,339.5C 219.333,317.164 219.5,294.831 220,272.5C 221.384,265.46 225.551,262.96 232.5,265C 233.667,266.167 234.833,267.333 236,268.5C 236.5,292.164 236.667,315.831 236.5,339.5C 248.167,339.5 259.833,339.5 271.5,339.5C 271.333,301.499 271.5,263.499 272,225.5C 275.04,219.632 279.54,218.132 285.5,221C 286.701,221.903 287.535,223.069 288,224.5C 288.5,262.832 288.667,301.165 288.5,339.5C 300.167,339.5 311.833,339.5 323.5,339.5C 323.333,309.498 323.5,279.498 324,249.5C 325.123,245.181 327.956,243.181 332.5,243.5C 336.177,243.336 338.677,245.003 340,248.5C 340.5,278.832 340.667,309.165 340.5,339.5C 352.167,339.5 363.833,339.5 375.5,339.5C 375.333,294.165 375.5,248.832 376,203.5C 376.333,202.5 376.667,201.5 377,200.5C 378.652,199.601 380.152,198.601 381.5,197.5 Z"/></g>
</svg>
