<?xml version="1.0" encoding="UTF-8"?>
<!DOCTYPE svg PUBLIC "-//W3C//DTD SVG 1.1//EN" "http://www.w3.org/Graphics/SVG/1.1/DTD/svg11.dtd">
<svg xmlns="http://www.w3.org/2000/svg" version="1.1" width="512px" height="512px" style="shape-rendering:geometricPrecision; text-rendering:geometricPrecision; image-rendering:optimizeQuality; fill-rule:evenodd; clip-rule:evenodd" xmlns:xlink="http://www.w3.org/1999/xlink">
<g><path style="opacity:0.944" fill="#000000" d="M 217.5,-0.5 C 282.833,-0.5 348.167,-0.5 413.5,-0.5C 416.436,1.30787 419.436,3.1412 422.5,5C 440,22.5 457.5,40 475,57.5C 477.804,61.4432 479.804,65.7766 481,70.5C 481.333,140.833 481.667,211.167 482,281.5C 504.807,314.878 511.14,351.212 501,390.5C 498.99,398.541 495.824,406.041 491.5,413C 481.32,416.66 477.154,413.16 479,402.5C 496.907,360.191 491.907,320.858 464,284.5C 432.548,250.008 394.048,238.175 348.5,249C 327.207,255.322 309.374,266.822 295,283.5C 294.333,331.833 294.333,380.167 295,428.5C 328.887,464.083 369.387,474.583 416.5,460C 434.292,453.119 449.625,442.786 462.5,429C 473.442,428.053 476.608,432.553 472,442.5C 433.795,479.593 388.962,490.759 337.5,476C 321.682,470.514 307.515,462.347 295,451.5C 294.667,461.833 294.333,472.167 294,482.5C 292.707,497.126 285.207,506.793 271.5,511.5C 190.5,511.5 109.5,511.5 28.5,511.5C 17.1927,507.692 9.69271,500.025 6,488.5C 5.00797,373.79 5.3413,259.124 7,144.5C 11.1028,134.063 18.6028,127.563 29.5,125C 86.499,124.5 143.499,124.333 200.5,124.5C 200.333,89.1651 200.5,53.8318 201,18.5C 203.178,9.16343 208.678,2.8301 217.5,-0.5 Z M 224.5,14.5 C 284.5,14.5 344.5,14.5 404.5,14.5C 404.333,28.1707 404.5,41.8374 405,55.5C 406.82,65.6633 412.654,72.1633 422.5,75C 436.829,75.4999 451.163,75.6666 465.5,75.5C 465.667,137.834 465.5,200.168 465,262.5C 458.951,256.895 452.451,251.895 445.5,247.5C 444.667,210.505 444.167,173.505 444,136.5C 442.167,130.667 438.333,126.833 432.5,125C 421.833,124.333 411.167,124.333 400.5,125C 395.09,126.743 391.256,130.243 389,135.5C 388.667,166.833 388.333,198.167 388,229.5C 382,228.167 376,228.167 370,229.5C 369.984,187.107 369.317,144.774 368,102.5C 366.073,97.5723 362.573,94.4056 357.5,93C 346.5,92.3333 335.5,92.3333 324.5,93C 317.979,95.206 314.146,99.706 313,106.5C 312.333,128.167 312.333,149.833 313,171.5C 317.63,179.084 322.63,179.418 328,172.5C 328.5,151.169 328.667,129.836 328.5,108.5C 336.833,108.5 345.167,108.5 353.5,108.5C 353.5,149.5 353.5,190.5 353.5,231.5C 345.237,232.899 337.237,235.233 329.5,238.5C 328.667,225.846 328.167,213.18 328,200.5C 327.5,198.667 326.333,197.5 324.5,197C 318.663,195.008 314.829,196.842 313,202.5C 312.667,217.5 312.333,232.5 312,247.5C 305.764,251.067 300.097,255.4 295,260.5C 294.667,202.833 294.333,145.167 294,87.5C 293.136,80.2534 289.302,75.4201 282.5,73C 271.167,72.3333 259.833,72.3333 248.5,73C 243.243,75.2563 239.743,79.0896 238,84.5C 237.5,97.8292 237.333,111.163 237.5,124.5C 230.5,124.5 223.5,124.5 216.5,124.5C 216.333,89.8317 216.5,55.1651 217,20.5C 218.707,17.4096 221.207,15.4096 224.5,14.5 Z M 420.5,26.5 C 431.632,37.1312 442.632,47.9646 453.5,59C 444.167,59.6667 434.833,59.6667 425.5,59C 423.622,57.4571 422.122,55.6238 421,53.5C 420.5,44.5062 420.334,35.5062 420.5,26.5 Z M 253.5,88.5 C 261.507,88.3336 269.507,88.5003 277.5,89C 278.655,102.091 278.822,115.258 278,128.5C 275.457,126.646 272.624,125.479 269.5,125C 264.177,124.501 258.844,124.334 253.5,124.5C 253.5,112.5 253.5,100.5 253.5,88.5 Z M 32.5,140.5 C 110.834,140.333 189.167,140.5 267.5,141C 273.66,143.487 277.16,147.987 278,154.5C 278.667,263.833 278.667,373.167 278,482.5C 276.669,490.751 271.836,495.251 263.5,496C 187.5,496.667 111.5,496.667 35.5,496C 28.9511,495.116 24.4511,491.616 22,485.5C 21.3333,373.833 21.3333,262.167 22,150.5C 24.1059,145.557 27.6059,142.224 32.5,140.5 Z M 404.5,140.5 C 412.5,140.5 420.5,140.5 428.5,140.5C 428.833,173.173 428.5,205.84 427.5,238.5C 420.132,235.155 412.466,232.822 404.5,231.5C 404.5,201.167 404.5,170.833 404.5,140.5 Z M 59.5,181.5 C 119.501,181.333 179.501,181.5 239.5,182C 240.659,202.427 240.826,222.927 240,243.5C 210.213,244.829 180.213,245.496 150,245.5C 120.167,245.333 90.3333,245.167 60.5,245C 59.5065,223.909 59.1732,202.742 59.5,181.5 Z M 59.5,290.5 C 68.1667,290.5 76.8333,290.5 85.5,290.5C 85.5,299.167 85.5,307.833 85.5,316.5C 76.8333,316.5 68.1667,316.5 59.5,316.5C 59.5,307.833 59.5,299.167 59.5,290.5 Z M 136.5,290.5 C 145.167,290.5 153.833,290.5 162.5,290.5C 162.5,299.167 162.5,307.833 162.5,316.5C 153.833,316.5 145.167,316.5 136.5,316.5C 136.5,307.833 136.5,299.167 136.5,290.5 Z M 213.5,290.5 C 222.5,290.5 231.5,290.5 240.5,290.5C 240.5,299.167 240.5,307.833 240.5,316.5C 231.5,316.5 222.5,316.5 213.5,316.5C 213.5,307.833 213.5,299.167 213.5,290.5 Z M 136.5,361.5 C 145.167,361.5 153.833,361.5 162.5,361.5C 162.5,370.5 162.5,379.5 162.5,388.5C 153.833,388.5 145.167,388.5 136.5,388.5C 136.5,379.5 136.5,370.5 136.5,361.5 Z M 213.5,361.5 C 222.5,361.5 231.5,361.5 240.5,361.5C 240.5,370.5 240.5,379.5 240.5,388.5C 231.5,388.5 222.5,388.5 213.5,388.5C 213.5,379.5 213.5,370.5 213.5,361.5 Z M 136.5,433.5 C 145.167,433.5 153.833,433.5 162.5,433.5C 162.5,442.167 162.5,450.833 162.5,459.5C 153.833,459.5 145.167,459.5 136.5,459.5C 136.5,450.833 136.5,442.167 136.5,433.5 Z M 213.5,433.5 C 222.5,433.5 231.5,433.5 240.5,433.5C 240.5,442.167 240.5,450.833 240.5,459.5C 231.5,459.5 222.5,459.5 213.5,459.5C 213.5,450.833 213.5,442.167 213.5,433.5 Z"/></g>
<g><path style="opacity:0.937" fill="#000000" d="M 54.5,165.5 C 118.892,165.011 183.225,165.511 247.5,167C 252.809,170.324 255.642,175.158 256,181.5C 256.936,204.537 256.603,227.537 255,250.5C 252.045,256.564 247.212,260.064 240.5,261C 180.167,261.667 119.833,261.667 59.5,261C 51.669,260.172 46.5023,256.005 44,248.5C 43.3333,224.833 43.3333,201.167 44,177.5C 45.9363,172.068 49.4363,168.068 54.5,165.5 Z M 59.5,181.5 C 59.1732,202.742 59.5065,223.909 60.5,245C 90.3333,245.167 120.167,245.333 150,245.5C 180.213,245.496 210.213,244.829 240,243.5C 240.826,222.927 240.659,202.427 239.5,182C 179.501,181.5 119.501,181.333 59.5,181.5 Z"/></g>
<g><path style="opacity:0.915" fill="#000000" d="M 75.5,219.5 C 87.1714,219.333 98.8381,219.5 110.5,220C 116.152,223.441 117.318,227.941 114,233.5C 113.25,234.126 112.416,234.626 111.5,235C 99.1667,235.667 86.8333,235.667 74.5,235C 68.2769,229.631 68.6103,224.465 75.5,219.5 Z"/></g>
<g><path style="opacity:0.925" fill="#000000" d="M 376.5,263.5 C 380.794,263.198 383.961,264.864 386,268.5C 386.333,275.167 386.667,281.833 387,288.5C 397.271,290.369 406.771,294.203 415.5,300C 421.183,304.417 421.849,309.417 417.5,315C 415.863,315.601 414.197,316.101 412.5,316.5C 407.711,314.272 403.045,311.772 398.5,309C 385.91,302.69 373.576,303.023 361.5,310C 353.59,318.076 353.59,326.076 361.5,334C 375.005,340.057 388.672,345.724 402.5,351C 423.846,362.704 429.346,379.537 419,401.5C 410.975,412.183 400.308,418.516 387,420.5C 386.667,428.167 386.333,435.833 386,443.5C 382.491,447.613 378.324,448.446 373.5,446C 372.107,444.829 371.273,443.329 371,441.5C 370.831,434.144 370.331,426.811 369.5,419.5C 355.498,416.585 343.665,409.918 334,399.5C 332.154,388.84 336.32,385.34 346.5,389C 362.47,405.065 380.47,408.065 400.5,398C 411.167,388.333 411.167,378.667 400.5,369C 396.993,366.746 393.327,364.746 389.5,363C 377.006,358.391 364.673,353.391 352.5,348C 338.416,335.496 335.916,320.996 345,304.5C 351.254,295.786 359.754,290.786 370.5,289.5C 370.334,282.825 370.5,276.158 371,269.5C 372.021,266.65 373.854,264.65 376.5,263.5 Z"/></g>
<g><path style="opacity:0.936" fill="#000000" d="M 53.5,274.5 C 66.1711,274.333 78.8377,274.5 91.5,275C 96,276.833 99.1667,280 101,284.5C 101.667,297.167 101.667,309.833 101,322.5C 99.0732,327.428 95.5732,330.594 90.5,332C 78.5,332.667 66.5,332.667 54.5,332C 49,330.5 45.5,327 44,321.5C 43.3333,309.167 43.3333,296.833 44,284.5C 46.0223,279.98 49.189,276.647 53.5,274.5 Z M 59.5,290.5 C 59.5,299.167 59.5,307.833 59.5,316.5C 68.1667,316.5 76.8333,316.5 85.5,316.5C 85.5,307.833 85.5,299.167 85.5,290.5C 76.8333,290.5 68.1667,290.5 59.5,290.5 Z"/></g>
<g><path style="opacity:0.935" fill="#000000" d="M 130.5,274.5 C 143.171,274.333 155.838,274.5 168.5,275C 173.667,276.167 176.833,279.333 178,284.5C 178.667,297.167 178.667,309.833 178,322.5C 176.073,327.428 172.573,330.594 167.5,332C 155.5,332.667 143.5,332.667 131.5,332C 126,330.5 122.5,327 121,321.5C 120.333,309.5 120.333,297.5 121,285.5C 122.599,280.406 125.766,276.739 130.5,274.5 Z M 136.5,290.5 C 136.5,299.167 136.5,307.833 136.5,316.5C 145.167,316.5 153.833,316.5 162.5,316.5C 162.5,307.833 162.5,299.167 162.5,290.5C 153.833,290.5 145.167,290.5 136.5,290.5 Z"/></g>
<g><path style="opacity:0.933" fill="#000000" d="M 207.5,274.5 C 220.171,274.333 232.838,274.5 245.5,275C 251.737,277.281 255.237,281.781 256,288.5C 256.667,298.5 256.667,308.5 256,318.5C 255.16,325.013 251.66,329.513 245.5,332C 233.167,332.667 220.833,332.667 208.5,332C 202.59,330.421 199.09,326.588 198,320.5C 197.333,308.833 197.333,297.167 198,285.5C 199.599,280.406 202.766,276.739 207.5,274.5 Z M 213.5,290.5 C 213.5,299.167 213.5,307.833 213.5,316.5C 222.5,316.5 231.5,316.5 240.5,316.5C 240.5,307.833 240.5,299.167 240.5,290.5C 231.5,290.5 222.5,290.5 213.5,290.5 Z"/></g>
<g><path style="opacity:0.93" fill="#000000" d="M 54.5,345.5 C 66.5046,345.333 78.5046,345.5 90.5,346C 96,347.5 99.5,351 101,356.5C 101.667,363.833 101.667,371.167 101,378.5C 96.6997,383.446 92.033,383.779 87,379.5C 85.5899,373.621 85.0899,367.621 85.5,361.5C 76.8333,361.5 68.1667,361.5 59.5,361.5C 59.5,394.167 59.5,426.833 59.5,459.5C 68.1667,459.5 76.8333,459.5 85.5,459.5C 85.3334,442.497 85.5001,425.497 86,408.5C 88.4329,402.552 92.5996,401.052 98.5,404C 99.3333,404.833 100.167,405.667 101,406.5C 101.667,426.167 101.667,445.833 101,465.5C 99.0732,470.428 95.5732,473.594 90.5,475C 78.5,475.667 66.5,475.667 54.5,475C 49,473.5 45.5,470 44,464.5C 43.3333,428.5 43.3333,392.5 44,356.5C 45.6844,350.984 49.1844,347.318 54.5,345.5 Z"/></g>
<g><path style="opacity:0.945" fill="#000000" d="M 132.5,345.5 C 144.171,345.333 155.838,345.5 167.5,346C 172.573,347.406 176.073,350.572 178,355.5C 178.667,368.5 178.667,381.5 178,394.5C 176.5,398.667 173.667,401.5 169.5,403C 156.5,403.667 143.5,403.667 130.5,403C 125.6,401.098 122.433,397.598 121,392.5C 120.333,380.5 120.333,368.5 121,356.5C 122.754,350.577 126.588,346.911 132.5,345.5 Z M 136.5,361.5 C 136.5,370.5 136.5,379.5 136.5,388.5C 145.167,388.5 153.833,388.5 162.5,388.5C 162.5,379.5 162.5,370.5 162.5,361.5C 153.833,361.5 145.167,361.5 136.5,361.5 Z"/></g>
<g><path style="opacity:0.945" fill="#000000" d="M 209.5,345.5 C 221.171,345.333 232.838,345.5 244.5,346C 251.652,348.156 255.485,352.99 256,360.5C 256.883,371.883 256.55,383.217 255,394.5C 253.5,398.667 250.667,401.5 246.5,403C 233.5,403.667 220.5,403.667 207.5,403C 202.572,401.073 199.406,397.573 198,392.5C 197.333,380.833 197.333,369.167 198,357.5C 199.683,351.319 203.517,347.319 209.5,345.5 Z M 213.5,361.5 C 213.5,370.5 213.5,379.5 213.5,388.5C 222.5,388.5 231.5,388.5 240.5,388.5C 240.5,379.5 240.5,370.5 240.5,361.5C 231.5,361.5 222.5,361.5 213.5,361.5 Z"/></g>
<g><path style="opacity:0.935" fill="#000000" d="M 130.5,417.5 C 143.504,417.333 156.504,417.5 169.5,418C 173.667,419.5 176.5,422.333 178,426.5C 178.667,439.5 178.667,452.5 178,465.5C 176.073,470.428 172.573,473.594 167.5,475C 155.5,475.667 143.5,475.667 131.5,475C 126,473.5 122.5,470 121,464.5C 120.333,452.5 120.333,440.5 121,428.5C 122.599,423.406 125.766,419.739 130.5,417.5 Z M 136.5,433.5 C 136.5,442.167 136.5,450.833 136.5,459.5C 145.167,459.5 153.833,459.5 162.5,459.5C 162.5,450.833 162.5,442.167 162.5,433.5C 153.833,433.5 145.167,433.5 136.5,433.5 Z"/></g>
<g><path style="opacity:0.933" fill="#000000" d="M 207.5,417.5 C 220.504,417.333 233.504,417.5 246.5,418C 252.487,420.462 255.654,424.962 256,431.5C 256.667,441.167 256.667,450.833 256,460.5C 255.531,467.972 251.698,472.805 244.5,475C 232.5,475.667 220.5,475.667 208.5,475C 202.562,473.395 199.062,469.562 198,463.5C 197.333,451.833 197.333,440.167 198,428.5C 199.599,423.406 202.766,419.739 207.5,417.5 Z M 213.5,433.5 C 213.5,442.167 213.5,450.833 213.5,459.5C 222.5,459.5 231.5,459.5 240.5,459.5C 240.5,450.833 240.5,442.167 240.5,433.5C 231.5,433.5 222.5,433.5 213.5,433.5 Z"/></g>
</svg>
