<svg width="513" height="513" viewBox="0 0 513 513" fill="none" xmlns="http://www.w3.org/2000/svg">
<g clip-path="url(#clip0_221_58)">
<path d="M79.3921 -0.0281456C80.7064 -0.0365023 82.0208 -0.0448589 83.375 -0.0534688C87.0175 -0.0759741 90.6595 -0.073537 94.302 -0.0668995C98.2326 -0.0640244 102.163 -0.0840786 106.094 -0.101052C113.792 -0.130409 121.49 -0.137702 129.188 -0.136477C135.446 -0.135644 141.703 -0.141504 147.96 -0.152102C167.636 -0.184782 187.312 -0.193763 206.988 -0.185013C222.508 -0.17903 238.029 -0.209428 253.549 -0.256635C269.487 -0.304734 285.425 -0.326811 301.363 -0.321324C310.31 -0.318748 319.257 -0.326739 328.204 -0.362395C335.822 -0.392511 343.439 -0.398283 351.056 -0.372586C354.942 -0.360161 358.826 -0.358967 362.712 -0.388295C366.927 -0.419761 371.139 -0.396883 375.354 -0.368722C376.579 -0.386383 377.805 -0.404045 379.068 -0.422241C384.89 -0.338011 388.62 -0.0243528 393.122 3.86251C394.273 5.05148 395.401 6.26308 396.5 7.49998C397.558 8.52954 398.622 9.5535 399.695 10.5682C400.735 11.6026 401.773 12.6396 402.808 13.6789C403.671 14.5388 403.671 14.5388 404.551 15.4161C406.421 17.2814 408.287 19.1503 410.152 21.0195C411.461 22.3277 412.77 23.6356 414.079 24.9435C416.806 27.6693 419.532 30.3968 422.256 33.1257C425.752 36.6274 429.253 40.1246 432.754 43.6205C435.451 46.3132 438.145 49.0082 440.838 51.7041C442.129 52.9954 443.42 54.286 444.712 55.5759C446.51 57.3709 448.304 59.169 450.097 60.968C450.633 61.5015 451.168 62.035 451.72 62.5847C456.463 67.3546 456.463 67.3546 456.564 70.4642C456.537 71.2676 456.511 72.071 456.483 72.8987C456.342 78.0121 456.274 83.1218 456.234 88.237C456.203 90.4419 456.149 92.6466 456.072 94.8503C455.154 106.607 455.154 106.607 458.837 117.329C461.581 119.801 464.505 121.379 467.873 122.848C474.161 125.712 478.659 130.666 483.5 135.5C484.375 136.364 485.251 137.227 486.152 138.117C496.708 149.079 503.719 162.127 508.5 176.5C508.914 177.71 509.328 178.921 509.754 180.168C515.464 198.954 514.838 221.959 508.5 240.5C508.291 241.128 508.082 241.756 507.867 242.404C502.551 258.063 494.07 270.806 482.5 282.5C481.611 283.48 481.611 283.48 480.703 284.48C475.119 290.52 467.418 296.408 459.845 299.629C457.125 301.376 457.125 301.376 456.88 304.991C456.857 306.478 456.862 307.965 456.888 309.451C456.882 310.27 456.877 311.089 456.871 311.933C456.858 314.688 456.881 317.442 456.904 320.197C456.902 322.167 456.898 324.138 456.892 326.109C456.883 330.359 456.89 334.608 456.908 338.858C456.937 345.577 456.93 352.295 456.917 359.014C456.896 372.067 456.911 385.119 456.932 398.171C456.957 414.775 456.97 431.378 456.942 447.982C456.932 454.661 456.942 461.341 456.968 468.02C456.98 472.177 456.976 476.333 456.967 480.49C456.967 482.417 456.973 484.345 456.987 486.273C457.005 488.905 456.998 491.536 456.985 494.168C457.002 495.312 457.002 495.312 457.019 496.479C456.958 501.653 455.864 504.584 452.5 508.5C448.155 511.904 445.346 513 439.844 513.003C439.197 513.009 438.55 513.015 437.884 513.021C435.72 513.036 433.557 513.022 431.393 513.008C429.824 513.013 428.256 513.019 426.688 513.027C422.38 513.044 418.073 513.035 413.765 513.023C409.119 513.014 404.473 513.028 399.826 513.039C390.725 513.057 381.624 513.053 372.523 513.041C365.127 513.032 357.731 513.031 350.335 513.035C349.283 513.036 348.231 513.036 347.147 513.037C345.01 513.038 342.873 513.04 340.735 513.041C320.689 513.052 300.642 513.039 280.595 513.018C263.389 513 246.183 513.003 228.977 513.021C209.002 513.043 189.028 513.051 169.053 513.039C166.924 513.038 164.794 513.036 162.665 513.035C161.617 513.035 160.569 513.034 159.49 513.033C152.102 513.03 144.714 513.036 137.325 513.045C128.323 513.056 119.321 513.053 110.319 513.032C105.725 513.022 101.131 513.017 96.5371 513.031C92.3327 513.043 88.1288 513.036 83.9244 513.015C82.4023 513.01 80.8802 513.013 79.3581 513.022C77.2902 513.034 75.2239 513.022 73.1561 513.003C72.0073 513.003 70.8585 513.002 69.6749 513.001C64.5722 512.196 61.4856 509.63 58.1494 505.806C56.0235 501.545 55.9884 498.29 56.1094 493.602C56.115 492.767 56.1207 491.932 56.1265 491.071C56.1488 488.422 56.199 485.774 56.25 483.125C56.2701 481.322 56.2883 479.518 56.3047 477.715C56.3486 473.309 56.4176 468.905 56.5 464.5C55.8574 464.509 55.2148 464.518 54.5528 464.527C47.8696 464.615 41.1866 464.676 34.5029 464.72C32.0081 464.74 29.5133 464.767 27.0186 464.802C23.4341 464.85 19.8503 464.873 16.2656 464.891C15.1488 464.911 14.032 464.932 12.8814 464.953C11.3202 464.954 11.3202 464.954 9.72754 464.954C8.81265 464.963 7.89776 464.972 6.95514 464.981C3.73266 464.35 2.54311 463.01 0.5 460.5C-0.03125 458.5 -0.03125 458.5 0 456.5C-0.0103125 455.84 -0.020625 455.18 -0.03125 454.5C0.753972 451.544 2.12505 450.4 4.5 448.5C7.52441 448.046 7.52441 448.046 11.0156 448.109C12.266 448.122 13.5164 448.135 14.8047 448.148C16.7576 448.199 16.7576 448.199 18.75 448.25C20.0674 448.268 21.3848 448.286 22.7422 448.305C25.9955 448.352 29.2474 448.418 32.5 448.5C32.4911 447.536 32.4822 446.572 32.4731 445.579C32.3919 436.487 32.332 427.394 32.2928 418.301C32.2719 413.626 32.2436 408.952 32.1982 404.278C32.1547 399.765 32.1308 395.252 32.1205 390.739C32.1131 389.019 32.0987 387.299 32.0771 385.58C32.048 383.167 32.044 380.755 32.0459 378.341C32.0243 377.28 32.0243 377.28 32.0023 376.196C32.0542 369.928 34.5611 366.439 38.875 362.125C42.9097 360.316 45.3443 360.333 49.7266 360.398C51.6266 360.42 51.6266 360.42 53.5649 360.443C54.5335 360.462 55.5021 360.481 56.5 360.5C56.4985 359.762 56.497 359.023 56.4954 358.263C56.4059 314.523 56.3373 270.783 56.2957 227.043C56.2907 221.793 56.2856 216.543 56.2803 211.293C56.2792 210.248 56.2782 209.203 56.2771 208.126C56.2597 191.195 56.2281 174.263 56.1914 157.331C56.154 139.963 56.1318 122.594 56.1236 105.226C56.1182 94.5053 56.1008 83.7847 56.0683 73.0641C56.0472 65.7166 56.0408 58.3691 56.046 51.0216C56.0486 46.7798 56.0446 42.5383 56.0232 38.2966C56.0037 34.414 56.0027 30.5318 56.0164 26.6491C56.0181 25.2439 56.013 23.8386 56.0005 22.4335C55.911 11.7902 55.911 11.7902 58.1551 6.87442C64.9113 0.0331202 70.1104 -0.0800386 79.3921 -0.0281456ZM72.5 16.5C72.5 130.02 72.5 243.54 72.5 360.5C75.14 360.5 77.78 360.5 80.5 360.5C80.5093 359.865 80.5187 359.23 80.5283 358.576C80.5823 355.675 80.6659 352.775 80.75 349.875C80.7713 348.376 80.7713 348.376 80.793 346.848C80.9877 340.968 81.3597 337.026 85.5 332.5C90.1567 328.753 94.6924 329.048 100.402 329.066C101.358 329.061 102.313 329.056 103.297 329.051C105.314 329.044 107.33 329.045 109.346 329.054C112.424 329.062 115.499 329.034 118.576 329.002C120.539 329 122.502 329.001 124.465 329.004C125.381 328.993 126.296 328.981 127.24 328.97C132.824 329.03 136.088 329.742 140.5 333.5C143.462 337.381 143.645 339.37 144.5 344.5C155.06 344.5 165.62 344.5 176.5 344.5C176.526 341.249 176.552 337.998 176.578 334.648C176.617 331.491 176.662 328.334 176.708 325.176C176.736 322.986 176.757 320.796 176.771 318.606C176.792 315.453 176.839 312.301 176.891 309.148C176.892 308.173 176.893 307.198 176.894 306.193C177.016 300.5 177.528 296.904 181.5 292.5C185.958 288.635 190.79 289.048 196.402 289.066C197.358 289.061 198.313 289.056 199.297 289.051C201.314 289.044 203.33 289.045 205.346 289.054C208.424 289.062 211.499 289.034 214.576 289.002C216.539 289 218.502 289.001 220.465 289.004C221.381 288.993 222.296 288.981 223.24 288.97C228.8 289.03 232.182 289.652 236.5 293.5C239.304 297.358 239.879 300.06 239.899 304.796C239.911 306.065 239.924 307.334 239.937 308.641C239.936 310.04 239.934 311.439 239.932 312.837C239.941 314.316 239.952 315.794 239.963 317.273C239.991 321.281 240 325.288 240.006 329.296C240.015 333.487 240.042 337.678 240.066 341.868C240.11 349.801 240.138 357.734 240.161 365.667C240.188 374.7 240.232 383.733 240.278 392.765C240.371 411.343 240.442 429.922 240.5 448.5C241.332 448.515 242.165 448.529 243.023 448.544C246.115 448.605 249.206 448.679 252.298 448.762C254.293 448.812 256.288 448.846 258.283 448.881C259.537 448.916 260.79 448.952 262.082 448.988C263.239 449.014 264.397 449.041 265.589 449.068C268.5 449.5 268.5 449.5 270.376 450.911C271.78 452.897 271.902 454.083 271.875 456.5C271.883 457.181 271.89 457.861 271.898 458.562C271.352 461.222 270.724 461.909 268.5 463.5C265.823 463.8 263.377 463.916 260.698 463.899C259.895 463.905 259.092 463.912 258.265 463.919C255.566 463.938 252.867 463.935 250.167 463.932C248.236 463.941 246.304 463.952 244.373 463.963C239.121 463.991 233.87 464 228.618 464.006C223.132 464.015 217.647 464.042 212.162 464.066C201.771 464.11 191.38 464.138 180.989 464.161C169.161 464.188 157.333 464.232 145.505 464.278C121.17 464.371 96.8349 464.442 72.5 464.5C72.5 475.06 72.5 485.62 72.5 496.5C193.94 496.5 315.38 496.5 440.5 496.5C440.5 434.46 440.5 372.42 440.5 308.5C436.54 309.16 432.58 309.82 428.5 310.5C399.415 315.347 370.934 309.478 346.828 292.633C324.459 275.464 309.601 251.594 305.5 223.5C304.614 207.657 304.323 191.643 309.5 176.5C309.709 175.872 309.918 175.243 310.133 174.596C315.451 158.931 323.937 146.206 335.5 134.5C336.355 133.537 336.355 133.537 337.227 132.555C351.129 117.226 376.118 106.402 396.605 105.339C410.627 105.16 423.875 105 437.5 108.5C438.49 108.5 439.48 108.5 440.5 108.5C440.5 99.26 440.5 90.02 440.5 80.5C434.757 80.4613 434.757 80.4613 428.898 80.4219C425.185 80.3834 421.472 80.3383 417.758 80.2925C415.18 80.2643 412.602 80.243 410.024 80.229C406.315 80.2075 402.607 80.1609 398.898 80.1094C397.748 80.1081 396.598 80.1069 395.413 80.1056C389.346 79.9949 385.128 79.863 380.5 75.5C370.358 58.5972 376.865 36.2084 376.5 16.5C276.18 16.5 175.86 16.5 72.5 16.5ZM392.5 29.5C392.5 41.05 392.5 52.6 392.5 64.5C404.05 64.5 415.6 64.5 427.5 64.5C422.996 59.1776 422.996 59.1776 418.264 54.135C417.707 53.5749 417.151 53.0149 416.577 52.4379C415.709 51.5734 415.709 51.5734 414.824 50.6914C414.214 50.0798 413.603 49.4682 412.974 48.8381C411.697 47.5605 410.419 46.2842 409.139 45.009C407.172 43.0469 405.21 41.0793 403.248 39.1113C402.003 37.8668 400.758 36.6227 399.512 35.3789C398.923 34.7884 398.335 34.1979 397.728 33.5895C395.479 30.7958 395.479 30.7958 392.5 29.5ZM344.5 148.5C330.691 163.158 323.492 180.582 321.5 200.5C347.57 200.5 373.64 200.5 400.5 200.5C400.5 174.43 400.5 148.36 400.5 121.5C379.453 121.5 358.988 134.08 344.5 148.5ZM416.5 121.5C414.688 134.068 413.492 146.633 412.812 159.312C412.762 160.248 412.711 161.183 412.659 162.147C411.53 185.835 413.411 204.922 429.637 223.148C434.806 228.809 440.3 234.066 446 239.187C446.706 239.822 447.411 240.456 448.138 241.11C456.952 248.974 466.054 256.409 475.5 263.5C488.811 250.538 495.58 230.77 495.932 212.429C495.974 187.672 489.485 166.938 472.5 148.5C471.951 147.871 471.402 147.242 470.836 146.594C458.084 132.773 439.705 124.808 421.5 121.5C419.833 121.476 418.166 121.471 416.5 121.5ZM321.5 216.5C323.247 233.973 328.811 250.147 340.5 263.5C346.288 258.69 351.62 253.526 356.934 248.199C357.812 247.322 358.689 246.445 359.594 245.542C361.437 243.7 363.278 241.857 365.118 240.012C367.008 238.118 368.9 236.226 370.795 234.336C373.531 231.605 376.264 228.872 378.996 226.137C379.849 225.286 380.702 224.435 381.581 223.558C382.359 222.777 383.137 221.995 383.939 221.19C384.629 220.5 385.318 219.81 386.029 219.098C387.613 217.739 387.613 217.739 387.5 216.5C365.72 216.5 343.94 216.5 321.5 216.5ZM403.824 224.927C403.078 225.684 403.078 225.684 402.316 226.457C401.789 226.984 401.262 227.51 400.719 228.053C398.972 229.801 397.232 231.557 395.492 233.312C394.285 234.524 393.077 235.734 391.869 236.945C388.685 240.136 385.507 243.334 382.33 246.532C379.09 249.793 375.843 253.049 372.598 256.305C366.226 262.698 359.861 269.097 353.5 275.5C367.038 289.251 386.805 295.508 405.773 296.496C426.621 296.518 447.631 290.391 463.5 276.5C458.196 270.073 452.369 264.205 446.484 258.316C445.422 257.25 444.359 256.184 443.296 255.118C441.082 252.898 438.866 250.681 436.649 248.464C433.804 245.619 430.965 242.767 428.129 239.913C425.943 237.716 423.753 235.523 421.561 233.332C420.511 232.282 419.464 231.229 418.417 230.175C416.962 228.711 415.501 227.252 414.038 225.795C412.793 224.548 412.793 224.548 411.522 223.275C407.949 220.139 406.826 221.943 403.824 224.927ZM192.5 304.5C192.5 352.02 192.5 399.54 192.5 448.5C203.06 448.5 213.62 448.5 224.5 448.5C224.5 400.98 224.5 353.46 224.5 304.5C213.94 304.5 203.38 304.5 192.5 304.5ZM96.5 344.5C96.5 378.82 96.5 413.14 96.5 448.5C107.06 448.5 117.62 448.5 128.5 448.5C128.5 414.18 128.5 379.86 128.5 344.5C117.94 344.5 107.38 344.5 96.5 344.5ZM144.5 360.5C144.5 389.54 144.5 418.58 144.5 448.5C155.06 448.5 165.62 448.5 176.5 448.5C176.5 419.46 176.5 390.42 176.5 360.5C165.94 360.5 155.38 360.5 144.5 360.5ZM48.5 376.5C48.5 400.26 48.5 424.02 48.5 448.5C59.06 448.5 69.62 448.5 80.5 448.5C80.5 424.74 80.5 400.98 80.5 376.5C69.94 376.5 59.38 376.5 48.5 376.5Z" fill="#053553"/>
<path d="M114.725 127.992C116.003 127.981 117.282 127.97 118.599 127.958C120.014 127.966 121.429 127.974 122.844 127.982C124.335 127.977 125.827 127.97 127.319 127.961C131.368 127.943 135.417 127.95 139.467 127.963C143.704 127.973 147.941 127.963 152.178 127.957C159.293 127.95 166.408 127.959 173.523 127.979C181.751 128 189.978 127.993 198.206 127.971C205.268 127.953 212.331 127.95 219.393 127.961C223.612 127.967 227.831 127.968 232.05 127.955C236.016 127.943 239.982 127.951 243.948 127.974C245.404 127.98 246.86 127.978 248.316 127.969C250.302 127.958 252.289 127.975 254.275 127.992C255.943 127.994 255.943 127.994 257.645 127.997C261.152 128.615 262.328 129.735 264.5 132.5C265.031 134.5 265.031 134.5 265 136.5C265.015 137.49 265.015 137.49 265.031 138.5C264.249 141.444 262.852 142.596 260.5 144.5C257.645 145.003 257.645 145.003 254.275 145.008C252.997 145.019 251.718 145.03 250.401 145.042C248.986 145.034 247.571 145.026 246.156 145.018C244.665 145.023 243.173 145.03 241.681 145.039C237.632 145.057 233.583 145.05 229.533 145.037C225.296 145.027 221.059 145.037 216.822 145.043C209.707 145.05 202.592 145.041 195.477 145.021C187.249 145 179.022 145.007 170.794 145.029C163.732 145.047 156.669 145.05 149.607 145.039C145.388 145.033 141.169 145.032 136.95 145.045C132.984 145.057 129.018 145.049 125.052 145.026C123.596 145.02 122.14 145.022 120.684 145.031C118.698 145.042 116.711 145.025 114.725 145.008C113.057 145.006 113.057 145.006 111.355 145.003C107.848 144.385 106.672 143.265 104.5 140.5C103.969 138.5 103.969 138.5 104 136.5C103.985 135.51 103.985 135.51 103.969 134.5C105.457 128.898 109.501 127.999 114.725 127.992Z" fill="#053553"/>
<path d="M114.725 95.9921C116.003 95.9808 117.282 95.9695 118.599 95.9579C120.014 95.9657 121.429 95.9739 122.844 95.9824C124.335 95.977 125.827 95.9699 127.319 95.9612C131.368 95.9429 135.417 95.95 139.467 95.9627C143.704 95.9728 147.941 95.9634 152.178 95.9572C159.293 95.9499 166.408 95.9595 173.523 95.9785C181.751 96.0003 189.978 95.9932 198.206 95.9712C205.268 95.9531 212.331 95.9505 219.393 95.961C223.612 95.9672 227.831 95.968 232.05 95.9548C236.016 95.9433 239.982 95.9513 243.948 95.9744C245.404 95.9797 246.86 95.9782 248.316 95.9693C250.302 95.9584 252.289 95.9745 254.275 95.9921C255.943 95.9943 255.943 95.9943 257.645 95.9966C261.152 96.615 262.328 97.7352 264.5 100.5C265.031 102.5 265.031 102.5 265 104.5C265.015 105.49 265.015 105.49 265.031 106.5C264.249 109.444 262.852 110.596 260.5 112.5C257.645 113.003 257.645 113.003 254.275 113.008C252.997 113.019 251.718 113.03 250.401 113.042C248.986 113.034 247.571 113.026 246.156 113.018C244.665 113.023 243.173 113.03 241.681 113.039C237.632 113.057 233.583 113.05 229.533 113.037C225.296 113.027 221.059 113.037 216.822 113.043C209.707 113.05 202.592 113.041 195.477 113.021C187.249 113 179.022 113.007 170.794 113.029C163.732 113.047 156.669 113.05 149.607 113.039C145.388 113.033 141.169 113.032 136.95 113.045C132.984 113.057 129.018 113.049 125.052 113.026C123.596 113.02 122.14 113.022 120.684 113.031C118.698 113.042 116.711 113.025 114.725 113.008C113.057 113.006 113.057 113.006 111.355 113.003C107.848 112.385 106.672 111.265 104.5 108.5C103.969 106.5 103.969 106.5 104 104.5C103.985 103.51 103.985 103.51 103.969 102.5C105.457 96.8975 109.501 95.9992 114.725 95.9921Z" fill="#053553"/>
<path d="M145.51 207.992C146.519 207.981 147.529 207.97 148.569 207.958C149.67 207.966 150.771 207.974 151.906 207.982C153.071 207.975 154.235 207.968 155.435 207.961C159.29 207.944 163.145 207.955 167 207.969C169.675 207.966 172.35 207.962 175.025 207.957C180.634 207.95 186.243 207.959 191.852 207.979C198.334 208 204.816 207.993 211.299 207.971C216.867 207.953 222.434 207.951 228.002 207.961C231.327 207.967 234.651 207.966 237.976 207.955C241.682 207.945 245.388 207.96 249.094 207.982C250.195 207.974 251.297 207.966 252.431 207.958C253.946 207.975 253.946 207.975 255.49 207.992C256.366 207.994 257.242 207.995 258.145 207.997C261.279 208.667 262.494 210.059 264.5 212.5C265.031 214.5 265.031 214.5 265 216.5C265.015 217.49 265.015 217.49 265.031 218.5C264.26 221.402 262.782 222.591 260.5 224.5C258.145 225.003 258.145 225.003 255.49 225.008C254.481 225.019 253.471 225.031 252.431 225.042C251.33 225.034 250.229 225.026 249.094 225.018C247.929 225.025 246.765 225.032 245.565 225.039C241.71 225.056 237.855 225.045 234 225.031C231.325 225.034 228.65 225.038 225.975 225.043C220.366 225.05 214.757 225.041 209.148 225.022C202.666 225 196.184 225.007 189.701 225.029C184.133 225.047 178.566 225.05 172.998 225.039C169.673 225.033 166.349 225.034 163.024 225.045C159.318 225.055 155.612 225.04 151.906 225.018C150.805 225.026 149.703 225.034 148.569 225.042C147.054 225.025 147.054 225.025 145.51 225.008C144.634 225.006 143.758 225.005 142.855 225.003C139.721 224.334 138.506 222.941 136.5 220.5C135.969 218.5 135.969 218.5 136 216.5C135.985 215.51 135.985 215.51 135.969 214.5C137.274 209.588 140.764 208 145.51 207.992Z" fill="#053553"/>
<path d="M145.51 63.9921C146.519 63.9808 147.529 63.9695 148.569 63.9579C149.67 63.966 150.771 63.9741 151.906 63.9824C153.071 63.9754 154.235 63.9684 155.435 63.9612C159.29 63.9436 163.145 63.9553 167 63.9688C169.675 63.9661 172.35 63.9622 175.025 63.9572C180.634 63.9499 186.243 63.9595 191.852 63.9785C198.334 64.0003 204.816 63.9933 211.299 63.9712C216.867 63.9531 222.434 63.9505 228.002 63.961C231.327 63.9672 234.651 63.9665 237.976 63.9548C241.682 63.9447 245.388 63.9601 249.094 63.9824C250.195 63.9743 251.297 63.9662 252.431 63.9579C253.946 63.9748 253.946 63.9748 255.49 63.9921C256.366 63.9936 257.242 63.9951 258.145 63.9967C261.279 64.6665 262.494 66.0594 264.5 68.5C265.031 70.5 265.031 70.5 265 72.5C265.015 73.49 265.015 73.49 265.031 74.5C264.26 77.4022 262.782 78.5914 260.5 80.5C258.145 81.0034 258.145 81.0034 255.49 81.008C254.481 81.0192 253.471 81.0305 252.431 81.0421C251.33 81.034 250.229 81.0259 249.094 81.0176C247.929 81.0246 246.765 81.0316 245.565 81.0388C241.71 81.0565 237.855 81.0448 234 81.0313C231.325 81.034 228.65 81.0378 225.975 81.0429C220.366 81.0501 214.757 81.0406 209.148 81.0215C202.666 80.9997 196.184 81.0068 189.701 81.0288C184.133 81.047 178.566 81.0495 172.998 81.0391C169.673 81.0328 166.349 81.0336 163.024 81.0452C159.318 81.0553 155.612 81.0399 151.906 81.0176C150.805 81.0257 149.703 81.0338 148.569 81.0421C147.054 81.0252 147.054 81.0252 145.51 81.008C144.634 81.0064 143.758 81.0049 142.855 81.0034C139.721 80.3335 138.506 78.9407 136.5 76.5C135.969 74.5 135.969 74.5 136 72.5C135.985 71.51 135.985 71.51 135.969 70.5C137.274 65.588 140.764 64.0003 145.51 63.9921Z" fill="#053553"/>
<path d="M316.969 407.982C317.821 407.975 318.674 407.968 319.552 407.961C322.368 407.944 325.184 407.955 328 407.969C329.958 407.966 331.915 407.962 333.873 407.957C337.975 407.951 342.077 407.96 346.18 407.979C351.439 408.001 356.698 407.988 361.957 407.964C366 407.95 370.042 407.954 374.084 407.965C376.024 407.967 377.963 407.964 379.902 407.955C382.612 407.945 385.321 407.96 388.031 407.982C388.833 407.974 389.636 407.966 390.462 407.958C394.063 408.013 396.093 408.189 398.996 410.407C400.626 412.675 401.043 413.74 401 416.5C401.015 417.49 401.015 417.49 401.031 418.5C400.226 421.531 398.995 422.594 396.5 424.5C393.552 424.895 390.978 425.047 388.031 425.018C386.753 425.028 386.753 425.028 385.448 425.039C382.632 425.056 379.816 425.045 377 425.031C375.042 425.034 373.085 425.038 371.127 425.043C367.025 425.049 362.923 425.04 358.82 425.022C353.561 424.999 348.302 425.012 343.043 425.036C339 425.05 334.958 425.046 330.916 425.035C328.976 425.033 327.037 425.036 325.098 425.045C322.388 425.055 319.679 425.04 316.969 425.018C316.167 425.026 315.364 425.034 314.538 425.042C310.937 424.987 308.907 424.811 306.004 422.593C304.374 420.325 303.957 419.26 304 416.5C303.985 415.51 303.985 415.51 303.969 414.5C305.72 407.907 311.149 407.924 316.969 407.982Z" fill="#053553"/>
<path d="M316.969 375.982C317.821 375.975 318.674 375.968 319.552 375.961C322.368 375.944 325.184 375.955 328 375.969C329.958 375.966 331.915 375.962 333.873 375.957C337.975 375.951 342.077 375.96 346.18 375.979C351.439 376.001 356.698 375.988 361.957 375.964C366 375.95 370.042 375.954 374.084 375.965C376.024 375.967 377.963 375.964 379.902 375.955C382.612 375.945 385.321 375.96 388.031 375.982C388.833 375.974 389.636 375.966 390.462 375.958C394.063 376.013 396.093 376.189 398.996 378.407C400.626 380.675 401.043 381.74 401 384.5C401.015 385.49 401.015 385.49 401.031 386.5C400.226 389.531 398.995 390.594 396.5 392.5C393.552 392.895 390.978 393.047 388.031 393.018C386.753 393.028 386.753 393.028 385.448 393.039C382.632 393.056 379.816 393.045 377 393.031C375.042 393.034 373.085 393.038 371.127 393.043C367.025 393.049 362.923 393.04 358.82 393.022C353.561 392.999 348.302 393.012 343.043 393.036C339 393.05 334.958 393.046 330.916 393.035C328.976 393.033 327.037 393.036 325.098 393.045C322.388 393.055 319.679 393.04 316.969 393.018C316.167 393.026 315.364 393.034 314.538 393.042C310.937 392.987 308.907 392.811 306.004 390.593C304.374 388.325 303.957 387.26 304 384.5C303.985 383.51 303.985 383.51 303.969 382.5C305.72 375.907 311.149 375.924 316.969 375.982Z" fill="#053553"/>
<path d="M115.5 239.982C116.196 239.975 116.893 239.968 117.61 239.961C119.907 239.944 122.203 239.955 124.5 239.969C126.099 239.966 127.698 239.962 129.297 239.957C132.646 239.951 135.995 239.96 139.344 239.979C143.635 240.001 147.925 239.988 152.216 239.964C155.517 239.95 158.818 239.954 162.119 239.965C163.701 239.967 165.283 239.964 166.865 239.955C169.077 239.945 171.288 239.96 173.5 239.982C175.387 239.987 175.387 239.987 177.312 239.992C181.055 240.589 182.232 241.525 184.5 244.5C185.031 246.5 185.031 246.5 185 248.5C185.015 249.49 185.015 249.49 185.031 250.5C184.242 253.472 182.899 254.597 180.5 256.5C177.312 257.008 177.312 257.008 173.5 257.018C172.804 257.025 172.107 257.032 171.39 257.039C169.093 257.056 166.797 257.045 164.5 257.031C162.901 257.034 161.302 257.038 159.703 257.043C156.354 257.049 153.005 257.04 149.656 257.022C145.365 256.999 141.075 257.012 136.784 257.036C133.483 257.05 130.182 257.046 126.881 257.035C125.299 257.033 123.717 257.036 122.135 257.045C119.923 257.055 117.712 257.04 115.5 257.018C114.242 257.014 112.984 257.011 111.688 257.008C107.945 256.412 106.768 255.475 104.5 252.5C103.969 250.5 103.969 250.5 104 248.5C103.985 247.51 103.985 247.51 103.969 246.5C105.56 240.509 110.005 239.996 115.5 239.982Z" fill="#053553"/>
<path d="M115.5 159.982C116.196 159.975 116.893 159.968 117.61 159.961C119.907 159.944 122.203 159.955 124.5 159.969C126.099 159.966 127.698 159.962 129.297 159.957C132.646 159.951 135.995 159.96 139.344 159.979C143.635 160.001 147.925 159.988 152.216 159.964C155.517 159.95 158.818 159.954 162.119 159.965C163.701 159.967 165.283 159.964 166.865 159.955C169.077 159.945 171.288 159.96 173.5 159.982C175.387 159.987 175.387 159.987 177.312 159.992C181.055 160.589 182.232 161.525 184.5 164.5C185.031 166.5 185.031 166.5 185 168.5C185.015 169.49 185.015 169.49 185.031 170.5C184.242 173.472 182.899 174.597 180.5 176.5C177.312 177.008 177.312 177.008 173.5 177.018C172.804 177.025 172.107 177.032 171.39 177.039C169.093 177.056 166.797 177.045 164.5 177.031C162.901 177.034 161.302 177.038 159.703 177.043C156.354 177.049 153.005 177.04 149.656 177.022C145.365 176.999 141.075 177.012 136.784 177.036C133.483 177.05 130.182 177.046 126.881 177.035C125.299 177.033 123.717 177.036 122.135 177.045C119.923 177.055 117.712 177.04 115.5 177.018C114.242 177.014 112.984 177.011 111.688 177.008C107.945 176.412 106.768 175.475 104.5 172.5C103.969 170.5 103.969 170.5 104 168.5C103.985 167.51 103.985 167.51 103.969 166.5C105.56 160.509 110.005 159.996 115.5 159.982Z" fill="#053553"/>
<path d="M346.031 343.982C347.139 343.97 348.247 343.957 349.389 343.944C350.58 343.952 351.772 343.96 353 343.969C354.228 343.965 355.456 343.961 356.721 343.957C359.316 343.954 361.912 343.962 364.508 343.979C368.485 344 372.46 343.979 376.438 343.953C378.958 343.956 381.479 343.961 384 343.969C385.192 343.961 386.383 343.953 387.611 343.944C389.273 343.963 389.273 343.963 390.969 343.982C391.943 343.986 392.917 343.989 393.92 343.992C397.221 344.642 398.416 345.915 400.5 348.5C401.031 350.5 401.031 350.5 401 352.5C401.015 353.49 401.015 353.49 401.031 354.5C400.256 357.419 398.811 358.594 396.5 360.5C393.92 361.008 393.92 361.008 390.969 361.018C389.861 361.03 388.753 361.043 387.611 361.056C386.42 361.048 385.228 361.04 384 361.031C382.158 361.037 382.158 361.037 380.279 361.043C377.684 361.046 375.088 361.038 372.492 361.021C368.515 361 364.54 361.021 360.562 361.047C358.042 361.044 355.521 361.039 353 361.031C351.808 361.039 350.617 361.047 349.389 361.056C347.727 361.037 347.727 361.037 346.031 361.018C345.057 361.014 344.083 361.011 343.08 361.008C339.779 360.358 338.584 359.085 336.5 356.5C335.969 354.5 335.969 354.5 336 352.5C335.985 351.51 335.985 351.51 335.969 350.5C337.355 345.283 341.075 343.999 346.031 343.982Z" fill="#053553"/>
<path d="M317.5 439.969C318.373 439.965 319.245 439.961 320.145 439.957C321.987 439.954 323.829 439.962 325.672 439.979C328.49 440 331.306 439.979 334.125 439.953C335.917 439.956 337.708 439.961 339.5 439.969C340.342 439.961 341.184 439.953 342.051 439.944C347.887 440.038 347.887 440.038 351.029 442.408C352.621 444.673 353.043 445.761 353 448.5C353.01 449.16 353.021 449.82 353.031 450.5C352.22 453.554 351.03 454.591 348.5 456.5C345.503 457.101 342.549 457.061 339.5 457.031C338.627 457.035 337.755 457.039 336.855 457.043C335.013 457.046 333.171 457.038 331.328 457.021C328.51 457 325.694 457.021 322.875 457.047C321.083 457.044 319.292 457.039 317.5 457.031C316.658 457.039 315.816 457.047 314.949 457.056C309.113 456.962 309.113 456.962 305.971 454.592C304.379 452.327 303.957 451.239 304 448.5C303.985 447.51 303.985 447.51 303.969 446.5C305.809 439.571 311.55 439.912 317.5 439.969Z" fill="#053553"/>
<path d="M380.5 440.5C383 442 383 442 384.5 444.5C385.291 448.521 385.122 451.464 383 455C379.464 457.122 376.521 457.291 372.5 456.5C370 455 370 455 368.5 452.5C367.709 448.479 367.878 445.536 370 442C373.536 439.878 376.479 439.709 380.5 440.5Z" fill="#053553"/>
<path d="M212.5 240.5C215 242 215 242 216.5 244.5C217.291 248.521 217.122 251.464 215 255C211.464 257.122 208.521 257.291 204.5 256.5C202 255 202 255 200.5 252.5C199.709 248.479 199.878 245.536 202 242C205.536 239.878 208.479 239.709 212.5 240.5Z" fill="#053553"/>
<path d="M212.5 160.5C215 162 215 162 216.5 164.5C217.291 168.521 217.122 171.464 215 175C211.464 177.122 208.521 177.291 204.5 176.5C202 175 202 175 200.5 172.5C199.709 168.479 199.878 165.536 202 162C205.536 159.878 208.479 159.709 212.5 160.5Z" fill="#053553"/>
</g>
<defs>
<clipPath id="clip0_221_58">
<rect width="512" height="512" fill="white" transform="translate(0.5 0.5)"/>
</clipPath>
</defs>
</svg>
