<?xml version="1.0" encoding="UTF-8"?>
<!DOCTYPE svg PUBLIC "-//W3C//DTD SVG 1.1//EN" "http://www.w3.org/Graphics/SVG/1.1/DTD/svg11.dtd">
<svg xmlns="http://www.w3.org/2000/svg" version="1.1" width="512px" height="512px" style="shape-rendering:geometricPrecision; text-rendering:geometricPrecision; image-rendering:optimizeQuality; fill-rule:evenodd; clip-rule:evenodd" xmlns:xlink="http://www.w3.org/1999/xlink">
<g><path style="opacity:0.988" fill="#000000" d="M 82.5,4.5 C 156.167,4.33334 229.834,4.5 303.5,5C 305.725,5.56106 307.725,6.56106 309.5,8C 336.031,34.8631 362.197,62.0297 388,89.5C 389.485,135.44 389.985,181.44 389.5,227.5C 419.169,227.333 448.835,227.5 478.5,228C 488.364,230.843 495.197,237.009 499,246.5C 500.658,325.776 500.991,405.11 500,484.5C 496.833,495.667 489.667,502.833 478.5,506C 418.833,506.667 359.167,506.667 299.5,506C 293.482,504.331 288.482,501.164 284.5,496.5C 196.502,495.667 108.502,495.167 20.5,495C 15.6667,492.833 12.1667,489.333 10,484.5C 9.33333,347.5 9.33333,210.5 10,73.5C 11.4612,69.7403 13.9612,66.9069 17.5,65C 24.4112,63.6156 31.4112,63.1156 38.5,63.5C 38.3341,58.4889 38.5007,53.4889 39,48.5C 40.5,43 44,39.5 49.5,38C 56.8258,37.5003 64.1591,37.3337 71.5,37.5C 71.3336,29.8261 71.5003,22.1594 72,14.5C 74.1059,9.55732 77.6059,6.22399 82.5,4.5 Z M 88.5,16.5 C 157.167,16.5 225.833,16.5 294.5,16.5C 282.652,83.6518 310.319,111.652 377.5,100.5C 377.5,142.833 377.5,185.167 377.5,227.5C 351.498,227.333 325.498,227.5 299.5,228C 288.333,231.167 281.167,238.333 278,249.5C 277.667,269.5 277.333,289.5 277,309.5C 266.91,308.348 256.744,308.181 246.5,309C 242.5,312.667 242.5,316.333 246.5,320C 256.744,320.819 266.91,320.652 277,319.5C 277.5,332.829 277.667,346.163 277.5,359.5C 262.163,359.333 246.83,359.5 231.5,360C 228.833,363.667 228.833,367.333 231.5,371C 246.83,371.5 262.163,371.667 277.5,371.5C 277.5,389.5 277.5,407.5 277.5,425.5C 214.166,425.667 150.832,425.5 87.5,425C 86.5838,424.626 85.7504,424.126 85,423.5C 83.3385,289.556 83.0052,155.556 84,21.5C 84.3477,18.6576 85.8477,16.991 88.5,16.5 Z M 306.5,24.5 C 327.299,45.4669 347.966,66.6336 368.5,88C 355.462,88.8529 342.462,88.5196 329.5,87C 318.667,83.5 311.5,76.3333 308,65.5C 306.663,51.8707 306.163,38.204 306.5,24.5 Z M 55.5,49.5 C 60.8333,49.5 66.1667,49.5 71.5,49.5C 71.3333,175.5 71.5,301.5 72,427.5C 73.8333,432 77,435.167 81.5,437C 146.832,437.5 212.166,437.667 277.5,437.5C 277.5,443.833 277.5,450.167 277.5,456.5C 203.499,456.667 129.499,456.5 55.5,456C 54.0692,455.535 52.9025,454.701 52,453.5C 50.3369,320.58 50.0036,187.58 51,54.5C 51.3477,51.6576 52.8477,49.991 55.5,49.5 Z M 25.5,75.5 C 29.8333,75.5 34.1667,75.5 38.5,75.5C 38.3333,202.834 38.5,330.167 39,457.5C 41.1667,462.333 44.6667,465.833 49.5,468C 125.499,468.5 201.499,468.667 277.5,468.5C 277.5,473.5 277.5,478.5 277.5,483.5C 193.833,483.667 110.166,483.5 26.5,483C 25.0692,482.535 23.9025,481.701 23,480.5C 21.3369,347.247 21.0036,213.914 22,80.5C 22.2572,78.0935 23.4238,76.4268 25.5,75.5 Z M 225.5,76.5 C 245.567,76.0212 263.233,82.1879 278.5,95C 262.333,111.167 246.167,127.333 230,143.5C 217.304,124.97 204.804,106.303 192.5,87.5C 202.729,81.2013 213.729,77.5346 225.5,76.5 Z M 180.5,95.5 C 195.478,116.767 210.478,138.1 225.5,159.5C 252.122,160.491 278.789,160.824 305.5,160.5C 302.237,186.213 289.57,205.713 267.5,219C 227.751,237.186 194.251,229.353 167,195.5C 149.772,165.747 150.439,136.413 169,107.5C 172.364,102.971 176.197,98.9715 180.5,95.5 Z M 287.5,104.5 C 298.978,116.807 304.978,131.473 305.5,148.5C 285.164,148.667 264.831,148.5 244.5,148C 259.035,133.632 273.369,119.132 287.5,104.5 Z M 308.5,239.5 C 364.538,239.021 420.538,239.521 476.5,241C 482.333,242.833 486.167,246.667 488,252.5C 489.419,271.125 489.919,289.792 489.5,308.5C 422.833,308.5 356.167,308.5 289.5,308.5C 289.081,289.792 289.581,271.125 291,252.5C 294.507,244.802 300.34,240.468 308.5,239.5 Z M 318.5,264.5 C 365.833,264.5 413.167,264.5 460.5,264.5C 460.5,272.167 460.5,279.833 460.5,287.5C 413.167,287.5 365.833,287.5 318.5,287.5C 318.5,279.833 318.5,272.167 318.5,264.5 Z M 289.5,320.5 C 356.167,320.5 422.833,320.5 489.5,320.5C 489.667,372.168 489.5,423.834 489,475.5C 488.301,486.533 482.467,492.699 471.5,494C 417.167,494.667 362.833,494.667 308.5,494C 297.667,492.5 291.5,486.333 290,475.5C 289.5,423.834 289.333,372.168 289.5,320.5 Z M 329.5,340.5 C 340.229,339.927 345.062,344.927 344,355.5C 337.866,365.193 330.866,365.86 323,357.5C 320.353,349.934 322.52,344.268 329.5,340.5 Z M 386.5,340.5 C 398.199,340.592 402.699,346.259 400,357.5C 393.333,365.5 386.667,365.5 380,357.5C 377.353,349.934 379.52,344.268 386.5,340.5 Z M 443.5,340.5 C 453.479,339.98 458.312,344.647 458,354.5C 454.963,362.402 449.463,364.902 441.5,362C 433.101,353.965 433.768,346.799 443.5,340.5 Z M 329.5,393.5 C 340.319,392.818 345.153,397.818 344,408.5C 337.866,418.193 330.866,418.86 323,410.5C 320.353,402.934 322.52,397.268 329.5,393.5 Z M 386.5,393.5 C 398.199,393.592 402.699,399.259 400,410.5C 393.333,418.5 386.667,418.5 380,410.5C 377.353,402.934 379.52,397.268 386.5,393.5 Z M 443.5,393.5 C 453.479,392.98 458.312,397.647 458,407.5C 454.963,415.402 449.463,417.902 441.5,415C 433.101,406.965 433.768,399.799 443.5,393.5 Z M 329.5,446.5 C 340.319,445.818 345.153,450.818 344,461.5C 337.818,471.205 330.818,471.872 323,463.5C 320.353,455.934 322.52,450.268 329.5,446.5 Z M 386.5,446.5 C 393.35,445.672 398.183,448.339 401,454.5C 402.104,460.186 400.271,464.686 395.5,468C 386.164,471.009 380.498,467.676 378.5,458C 379.334,452.812 382.001,448.979 386.5,446.5 Z M 443.5,446.5 C 453.479,445.98 458.312,450.647 458,460.5C 454.963,468.402 449.463,470.902 441.5,468C 433.101,459.965 433.768,452.799 443.5,446.5 Z"/></g>
<g><path style="opacity:0.862" fill="#000000" d="M 104.5,45.5 C 107.505,45.253 110.005,46.253 112,48.5C 112.667,51.8333 112.667,55.1667 112,58.5C 108.333,62.5 104.667,62.5 101,58.5C 100.333,55.1667 100.333,51.8333 101,48.5C 102.145,47.3636 103.312,46.3636 104.5,45.5 Z"/></g>
<g><path style="opacity:0.919" fill="#000000" d="M 226.5,63.5 C 273.763,64.9487 303.93,88.282 317,133.5C 324.08,176.829 308.913,209.663 271.5,232C 229.306,250.332 192.473,242.832 161,209.5C 142.012,184.591 136.679,156.924 145,126.5C 155,95.8339 175.5,76.0006 206.5,67C 213.234,65.3845 219.901,64.2178 226.5,63.5 Z M 225.5,76.5 C 213.729,77.5346 202.729,81.2013 192.5,87.5C 204.804,106.303 217.304,124.97 230,143.5C 246.167,127.333 262.333,111.167 278.5,95C 263.233,82.1879 245.567,76.0212 225.5,76.5 Z M 180.5,95.5 C 176.197,98.9715 172.364,102.971 169,107.5C 150.439,136.413 149.772,165.747 167,195.5C 194.251,229.353 227.751,237.186 267.5,219C 289.57,205.713 302.237,186.213 305.5,160.5C 278.789,160.824 252.122,160.491 225.5,159.5C 210.478,138.1 195.478,116.767 180.5,95.5 Z M 287.5,104.5 C 273.369,119.132 259.035,133.632 244.5,148C 264.831,148.5 285.164,148.667 305.5,148.5C 304.978,131.473 298.978,116.807 287.5,104.5 Z"/></g>
<g><path style="opacity:0.982" fill="#000000" d="M 104.5,71.5 C 107.505,71.253 110.005,72.253 112,74.5C 112.667,103.5 112.667,132.5 112,161.5C 108.333,165.5 104.667,165.5 101,161.5C 100.333,132.5 100.333,103.5 101,74.5C 102.145,73.3636 103.312,72.3636 104.5,71.5 Z"/></g>
<g><path style="opacity:0.996" fill="#000000" d="M 308.5,252.5 C 362.834,252.333 417.168,252.5 471.5,253C 472,253.5 472.5,254 473,254.5C 473.667,268.833 473.667,283.167 473,297.5C 472.5,298 472,298.5 471.5,299C 417.167,299.667 362.833,299.667 308.5,299C 308,298.5 307.5,298 307,297.5C 306.333,283.167 306.333,268.833 307,254.5C 307.717,253.956 308.217,253.289 308.5,252.5 Z M 318.5,264.5 C 318.5,272.167 318.5,279.833 318.5,287.5C 365.833,287.5 413.167,287.5 460.5,287.5C 460.5,279.833 460.5,272.167 460.5,264.5C 413.167,264.5 365.833,264.5 318.5,264.5 Z"/></g>
<g><path style="opacity:0.901" fill="#000000" d="M 126.5,308.5 C 131.179,308.334 135.845,308.501 140.5,309C 144.5,312.667 144.5,316.333 140.5,320C 135.833,320.667 131.167,320.667 126.5,320C 123.875,316.168 123.875,312.335 126.5,308.5 Z"/></g>
<g><path style="opacity:0.976" fill="#000000" d="M 155.5,308.5 C 178.836,308.333 202.169,308.5 225.5,309C 229.5,312.667 229.5,316.333 225.5,320C 202.167,320.667 178.833,320.667 155.5,320C 151.555,316.169 151.555,312.336 155.5,308.5 Z"/></g>
<g><path style="opacity:0.912" fill="#000000" d="M 327.5,327.5 C 342.353,326.17 352.187,332.503 357,346.5C 358.655,364.182 350.655,374.182 333,376.5C 318.167,375 310,366.833 308.5,352C 309.416,339.589 315.749,331.423 327.5,327.5 Z M 329.5,340.5 C 322.52,344.268 320.353,349.934 323,357.5C 330.866,365.86 337.866,365.193 344,355.5C 345.062,344.927 340.229,339.927 329.5,340.5 Z"/></g>
<g><path style="opacity:0.91" fill="#000000" d="M 384.5,327.5 C 399.353,326.17 409.187,332.503 414,346.5C 414.985,366.514 405.485,376.348 385.5,376C 370.626,371.761 364.126,361.928 366,346.5C 369.017,336.984 375.184,330.651 384.5,327.5 Z M 386.5,340.5 C 379.52,344.268 377.353,349.934 380,357.5C 386.667,365.5 393.333,365.5 400,357.5C 402.699,346.259 398.199,340.592 386.5,340.5 Z"/></g>
<g><path style="opacity:0.91" fill="#000000" d="M 441.5,327.5 C 456.316,326.155 466.149,332.488 471,346.5C 471.985,366.514 462.485,376.348 442.5,376C 424.667,370.198 418.834,358.365 425,340.5C 428.962,334.019 434.462,329.686 441.5,327.5 Z M 443.5,340.5 C 433.768,346.799 433.101,353.965 441.5,362C 449.463,364.902 454.963,362.402 458,354.5C 458.312,344.647 453.479,339.98 443.5,340.5 Z"/></g>
<g><path style="opacity:0.954" fill="#000000" d="M 126.5,359.5 C 137.838,359.333 149.172,359.5 160.5,360C 164.5,363.667 164.5,367.333 160.5,371C 149.167,371.667 137.833,371.667 126.5,371C 123.875,367.168 123.875,363.335 126.5,359.5 Z"/></g>
<g><path style="opacity:0.958" fill="#000000" d="M 176.5,359.5 C 189.837,359.333 203.171,359.5 216.5,360C 220.5,363.667 220.5,367.333 216.5,371C 203.167,371.667 189.833,371.667 176.5,371C 172.555,367.169 172.555,363.336 176.5,359.5 Z"/></g>
<g><path style="opacity:0.913" fill="#000000" d="M 327.5,380.5 C 342.353,379.17 352.187,385.503 357,399.5C 358.623,417.209 350.623,427.209 333,429.5C 318.167,428 310,419.833 308.5,405C 309.446,392.565 315.779,384.398 327.5,380.5 Z M 329.5,393.5 C 322.52,397.268 320.353,402.934 323,410.5C 330.866,418.86 337.866,418.193 344,408.5C 345.153,397.818 340.319,392.818 329.5,393.5 Z"/></g>
<g><path style="opacity:0.909" fill="#000000" d="M 384.5,380.5 C 399.353,379.17 409.187,385.503 414,399.5C 414.985,419.514 405.485,429.348 385.5,429C 370.626,424.761 364.126,414.928 366,399.5C 369.017,389.984 375.184,383.651 384.5,380.5 Z M 386.5,393.5 C 379.52,397.268 377.353,402.934 380,410.5C 386.667,418.5 393.333,418.5 400,410.5C 402.699,399.259 398.199,393.592 386.5,393.5 Z"/></g>
<g><path style="opacity:0.91" fill="#000000" d="M 441.5,380.5 C 456.316,379.155 466.149,385.488 471,399.5C 471.985,419.514 462.485,429.348 442.5,429C 424.667,423.198 418.834,411.365 425,393.5C 428.962,387.019 434.462,382.686 441.5,380.5 Z M 443.5,393.5 C 433.768,399.799 433.101,406.965 441.5,415C 449.463,417.902 454.963,415.402 458,407.5C 458.312,397.647 453.479,392.98 443.5,393.5 Z"/></g>
<g><path style="opacity:0.911" fill="#000000" d="M 327.5,433.5 C 342.683,431.668 352.517,438.001 357,452.5C 358.623,470.209 350.623,480.209 333,482.5C 318.167,481 310,472.833 308.5,458C 309.446,445.565 315.779,437.398 327.5,433.5 Z M 329.5,446.5 C 322.52,450.268 320.353,455.934 323,463.5C 330.818,471.872 337.818,471.205 344,461.5C 345.153,450.818 340.319,445.818 329.5,446.5 Z"/></g>
<g><path style="opacity:0.91" fill="#000000" d="M 384.5,433.5 C 399.353,432.17 409.187,438.503 414,452.5C 414.985,472.514 405.485,482.348 385.5,482C 370.626,477.761 364.126,467.928 366,452.5C 369.017,442.984 375.184,436.651 384.5,433.5 Z M 386.5,446.5 C 382.001,448.979 379.334,452.812 378.5,458C 380.498,467.676 386.164,471.009 395.5,468C 400.271,464.686 402.104,460.186 401,454.5C 398.183,448.339 393.35,445.672 386.5,446.5 Z"/></g>
<g><path style="opacity:0.91" fill="#000000" d="M 441.5,433.5 C 456.353,432.17 466.187,438.503 471,452.5C 471.985,472.514 462.485,482.348 442.5,482C 427.626,477.761 421.126,467.928 423,452.5C 426.017,442.984 432.184,436.651 441.5,433.5 Z M 443.5,446.5 C 433.768,452.799 433.101,459.965 441.5,468C 449.463,470.902 454.963,468.402 458,460.5C 458.312,450.647 453.479,445.98 443.5,446.5 Z"/></g>
</svg>
