<?xml version="1.0" encoding="UTF-8"?>
<!DOCTYPE svg PUBLIC "-//W3C//DTD SVG 1.1//EN" "http://www.w3.org/Graphics/SVG/1.1/DTD/svg11.dtd">
<svg xmlns="http://www.w3.org/2000/svg" version="1.1" width="512px" height="512px" style="shape-rendering:geometricPrecision; text-rendering:geometricPrecision; image-rendering:optimizeQuality; fill-rule:evenodd; clip-rule:evenodd" xmlns:xlink="http://www.w3.org/1999/xlink">
<g><path style="opacity:0.979" fill="#000000" d="M 65.5,-0.5 C 172.833,-0.5 280.167,-0.5 387.5,-0.5C 409.772,21.2712 431.938,43.2712 454,65.5C 455.304,81.7417 455.971,98.0751 456,114.5C 486.564,131.978 505.064,157.978 511.5,192.5C 511.5,202.5 511.5,212.5 511.5,222.5C 505.065,257.02 486.565,283.02 456,300.5C 455.667,367.5 455.333,434.5 455,501.5C 452.978,506.02 449.811,509.353 445.5,511.5C 318.833,511.5 192.167,511.5 65.5,511.5C 61.189,509.353 58.0223,506.02 56,501.5C 55.5001,488.838 55.3334,476.171 55.5,463.5C 38.1635,463.667 20.8301,463.5 3.5,463C 1.64977,462.31 0.316435,461.144 -0.5,459.5C -0.5,456.833 -0.5,454.167 -0.5,451.5C 0.316435,449.856 1.64977,448.69 3.5,448C 12.8274,447.5 22.1607,447.334 31.5,447.5C 31.3334,421.498 31.5,395.498 32,369.5C 37.0483,360.104 44.8817,356.77 55.5,359.5C 55.3333,242.833 55.5,126.166 56,9.5C 58.0223,4.98004 61.189,1.6467 65.5,-0.5 Z M 71.5,15.5 C 172.833,15.5 274.167,15.5 375.5,15.5C 375.333,33.5031 375.5,51.5031 376,69.5C 377.833,74 381,77.1667 385.5,79C 403.497,79.4999 421.497,79.6666 439.5,79.5C 439.5,88.8333 439.5,98.1667 439.5,107.5C 394.672,95.9462 356.839,107.279 326,141.5C 301.258,175.142 296.592,211.476 312,250.5C 334.865,294.975 371.365,315.142 421.5,311C 427.552,310.023 433.552,308.856 439.5,307.5C 439.5,370.167 439.5,432.833 439.5,495.5C 316.833,495.5 194.167,495.5 71.5,495.5C 71.5,484.833 71.5,474.167 71.5,463.5C 136.834,463.667 202.168,463.5 267.5,463C 269.333,462.5 270.5,461.333 271,459.5C 271.929,455.756 271.429,452.256 269.5,449C 259.605,447.551 249.605,447.051 239.5,447.5C 239.667,397.499 239.5,347.499 239,297.5C 237.167,293 234,289.833 229.5,288C 214.833,287.333 200.167,287.333 185.5,288C 181,289.833 177.833,293 176,297.5C 175.5,312.83 175.333,328.163 175.5,343.5C 164.833,343.5 154.167,343.5 143.5,343.5C 143.823,335.981 140.49,330.814 133.5,328C 118.833,327.333 104.167,327.333 89.5,328C 85,329.833 81.8333,333 80,337.5C 79.5003,344.826 79.3337,352.159 79.5,359.5C 76.8333,359.5 74.1667,359.5 71.5,359.5C 71.5,244.833 71.5,130.167 71.5,15.5 Z M 391.5,28.5 C 403.298,39.798 414.965,51.298 426.5,63C 414.838,63.4999 403.171,63.6665 391.5,63.5C 391.5,51.8333 391.5,40.1667 391.5,28.5 Z M 394.5,120.5 C 396.167,120.5 397.833,120.5 399.5,120.5C 399.5,146.833 399.5,173.167 399.5,199.5C 373.167,199.5 346.833,199.5 320.5,199.5C 327.317,156.352 351.984,130.019 394.5,120.5 Z M 415.5,120.5 C 458.634,127.133 484.8,151.8 494,194.5C 497.303,219.964 490.97,242.631 475,262.5C 455.333,242.833 435.667,223.167 416,203.5C 415.5,175.835 415.333,148.169 415.5,120.5 Z M 320.5,215.5 C 342.503,215.333 364.503,215.5 386.5,216C 371,231.5 355.5,247 340,262.5C 328.729,248.865 322.229,233.198 320.5,215.5 Z M 406.5,220.5 C 425.582,238.08 444.248,256.246 462.5,275C 430.338,298.819 396.671,301.152 361.5,282C 358.5,279.667 355.5,277.333 352.5,275C 370.702,256.965 388.702,238.799 406.5,220.5 Z M 191.5,303.5 C 202.167,303.5 212.833,303.5 223.5,303.5C 223.5,351.5 223.5,399.5 223.5,447.5C 212.833,447.5 202.167,447.5 191.5,447.5C 191.5,399.5 191.5,351.5 191.5,303.5 Z M 95.5,343.5 C 106.167,343.5 116.833,343.5 127.5,343.5C 127.5,378.167 127.5,412.833 127.5,447.5C 116.833,447.5 106.167,447.5 95.5,447.5C 95.5,412.833 95.5,378.167 95.5,343.5 Z M 143.5,359.5 C 154.167,359.5 164.833,359.5 175.5,359.5C 175.5,388.833 175.5,418.167 175.5,447.5C 164.833,447.5 154.167,447.5 143.5,447.5C 143.5,418.167 143.5,388.833 143.5,359.5 Z M 47.5,375.5 C 58.1667,375.5 68.8333,375.5 79.5,375.5C 79.5,399.5 79.5,423.5 79.5,447.5C 68.8333,447.5 58.1667,447.5 47.5,447.5C 47.5,423.5 47.5,399.5 47.5,375.5 Z"/></g>
<g><path style="opacity:0.988" fill="#000000" d="M 139.5,63.5 C 179.501,63.3333 219.501,63.5 259.5,64C 262.516,65.5286 263.849,68.0286 263.5,71.5C 263.849,74.9714 262.516,77.4714 259.5,79C 219.5,79.6667 179.5,79.6667 139.5,79C 136.484,77.4714 135.151,74.9714 135.5,71.5C 135.282,67.9342 136.616,65.2675 139.5,63.5 Z"/></g>
<g><path style="opacity:0.99" fill="#000000" d="M 107.5,95.5 C 158.168,95.3333 208.834,95.5 259.5,96C 262.516,97.5286 263.849,100.029 263.5,103.5C 263.849,106.971 262.516,109.471 259.5,111C 208.833,111.667 158.167,111.667 107.5,111C 104.484,109.471 103.151,106.971 103.5,103.5C 103.282,99.9342 104.616,97.2675 107.5,95.5 Z"/></g>
<g><path style="opacity:0.99" fill="#000000" d="M 107.5,127.5 C 158.168,127.333 208.834,127.5 259.5,128C 262.516,129.529 263.849,132.029 263.5,135.5C 263.849,138.971 262.516,141.471 259.5,143C 208.833,143.667 158.167,143.667 107.5,143C 104.484,141.471 103.151,138.971 103.5,135.5C 103.282,131.934 104.616,129.268 107.5,127.5 Z"/></g>
<g><path style="opacity:0.981" fill="#000000" d="M 107.5,159.5 C 131.502,159.333 155.502,159.5 179.5,160C 181.333,160.5 182.5,161.667 183,163.5C 183.667,166.167 183.667,168.833 183,171.5C 182.5,173.333 181.333,174.5 179.5,175C 155.5,175.667 131.5,175.667 107.5,175C 104.484,173.471 103.151,170.971 103.5,167.5C 103.282,163.934 104.616,161.268 107.5,159.5 Z"/></g>
<g><path style="opacity:0.892" fill="#000000" d="M 203.5,159.5 C 214.86,158.71 218.193,163.543 213.5,174C 202.964,177.997 198.464,174.497 200,163.5C 200.69,161.65 201.856,160.316 203.5,159.5 Z"/></g>
<g><path style="opacity:0.988" fill="#000000" d="M 139.5,207.5 C 179.501,207.333 219.501,207.5 259.5,208C 262.516,209.529 263.849,212.029 263.5,215.5C 263.849,218.971 262.516,221.471 259.5,223C 219.5,223.667 179.5,223.667 139.5,223C 136.484,221.471 135.151,218.971 135.5,215.5C 135.282,211.934 136.616,209.268 139.5,207.5 Z"/></g>
<g><path style="opacity:0.981" fill="#000000" d="M 107.5,239.5 C 131.502,239.333 155.502,239.5 179.5,240C 181.333,240.5 182.5,241.667 183,243.5C 183.667,246.167 183.667,248.833 183,251.5C 182.5,253.333 181.333,254.5 179.5,255C 155.5,255.667 131.5,255.667 107.5,255C 104.484,253.471 103.151,250.971 103.5,247.5C 103.282,243.934 104.616,241.268 107.5,239.5 Z"/></g>
<g><path style="opacity:0.892" fill="#000000" d="M 203.5,239.5 C 214.86,238.71 218.193,243.543 213.5,254C 202.964,257.997 198.464,254.497 200,243.5C 200.69,241.65 201.856,240.316 203.5,239.5 Z"/></g>
<g><path style="opacity:0.976" fill="#000000" d="M 339.5,343.5 C 358.17,343.333 376.836,343.5 395.5,344C 397.333,344.5 398.5,345.667 399,347.5C 399.667,350.167 399.667,352.833 399,355.5C 398.5,357.333 397.333,358.5 395.5,359C 376.833,359.667 358.167,359.667 339.5,359C 336.484,357.471 335.151,354.971 335.5,351.5C 335.282,347.934 336.616,345.268 339.5,343.5 Z"/></g>
<g><path style="opacity:0.984" fill="#000000" d="M 307.5,375.5 C 336.835,375.333 366.169,375.5 395.5,376C 398.516,377.529 399.849,380.029 399.5,383.5C 399.849,386.971 398.516,389.471 395.5,391C 366.167,391.667 336.833,391.667 307.5,391C 304.484,389.471 303.151,386.971 303.5,383.5C 303.282,379.934 304.616,377.268 307.5,375.5 Z"/></g>
<g><path style="opacity:0.984" fill="#000000" d="M 307.5,407.5 C 336.835,407.333 366.169,407.5 395.5,408C 398.516,409.529 399.849,412.029 399.5,415.5C 399.849,418.971 398.516,421.471 395.5,423C 366.167,423.667 336.833,423.667 307.5,423C 304.484,421.471 303.151,418.971 303.5,415.5C 303.282,411.934 304.616,409.268 307.5,407.5 Z"/></g>
<g><path style="opacity:0.967" fill="#000000" d="M 307.5,439.5 C 320.837,439.333 334.171,439.5 347.5,440C 349.333,440.5 350.5,441.667 351,443.5C 351.667,446.167 351.667,448.833 351,451.5C 350.5,453.333 349.333,454.5 347.5,455C 334.167,455.667 320.833,455.667 307.5,455C 304.484,453.471 303.151,450.971 303.5,447.5C 303.282,443.934 304.616,441.268 307.5,439.5 Z"/></g>
<g><path style="opacity:0.892" fill="#000000" d="M 371.5,439.5 C 382.86,438.71 386.193,443.543 381.5,454C 370.964,457.997 366.464,454.497 368,443.5C 368.69,441.65 369.856,440.316 371.5,439.5 Z"/></g>
</svg>
