<svg width="40" height="41" viewBox="0 0 40 41" fill="none" xmlns="http://www.w3.org/2000/svg">
<path fill-rule="evenodd" clip-rule="evenodd" d="M0 20.8333C0 9.78756 8.9543 0.833252 20 0.833252C31.0457 0.833252 40 9.78756 40 20.8333C40 31.8789 31.0457 40.8333 20 40.8333C8.9543 40.8333 0 31.8789 0 20.8333ZM24.5927 22.4479C26.3936 23.4923 27.7539 25.1209 28.3536 27.0468C28.518 27.5741 28.4033 28.1413 28.0446 28.5797C27.6853 29.0181 27.1239 29.2751 26.5277 29.2751H13.3101C12.7141 29.2751 12.1531 29.0173 11.7937 28.5797C11.4352 28.1415 11.3199 27.5737 11.4843 27.0469C12.0961 25.0833 13.4993 23.4299 15.3531 22.3885C15.7116 22.1868 16.1703 22.2259 16.482 22.4849C17.4584 23.2957 18.6759 23.7802 20 23.7802C21.2986 23.7802 22.4946 23.314 23.4612 22.5308C23.7763 22.2753 24.2374 22.242 24.5927 22.4479ZM20 22.5849C22.6021 22.5849 24.7116 20.2926 24.7116 17.4651C24.7116 14.6376 22.6023 12.3459 20 12.3459C17.398 12.3459 15.2887 14.6375 15.2887 17.4651C15.2887 20.2926 17.398 22.5849 20 22.5849Z" fill="#053553"/>
</svg>
