<svg width="70" height="76" viewBox="0 0 70 76" fill="none" xmlns="http://www.w3.org/2000/svg">
<path fill-rule="evenodd" clip-rule="evenodd" d="M0.5 16.5C0.5 7.66344 7.66344 0.5 16.5 0.5H53.5C62.3366 0.5 69.5 7.66344 69.5 16.5V59.5C69.5 68.3366 62.3366 75.5 53.5 75.5H16.5C7.66344 75.5 0.5 68.3366 0.5 59.5V16.5ZM19.9982 34.5786C22.9191 34.5786 25.287 31.7819 25.287 28.3321C25.287 24.8826 22.9191 22.0862 19.9982 22.0862C17.0775 22.0862 14.7101 24.8826 14.7101 28.3321C14.7101 31.7819 17.0775 34.5786 19.9982 34.5786ZM26.557 37.765C26.8567 38.3026 26.5518 39.0268 26.0263 39.3472C23.1676 41.0921 20.0937 42.7408 16.7445 42.7408H12.4888C11.82 42.7408 11.1901 42.4261 10.7869 41.8924C10.3843 41.3581 10.2546 40.6644 10.4392 40.0224C11.1263 37.6264 12.7012 35.6092 14.7818 34.3381C15.1842 34.0924 15.6995 34.1402 16.0492 34.4561C17.145 35.4455 18.512 36.0367 19.9979 36.0367C21.4558 36.0367 22.7626 35.4256 23.8829 34.5123C24.4817 34.0244 25.287 34.0934 25.3866 34.6816C25.6442 35.8216 26.0352 36.8289 26.557 37.765ZM50.0018 34.5786C47.0809 34.5786 44.7132 31.7819 44.7132 28.3321C44.7132 24.8826 47.0809 22.0862 50.0018 22.0862C52.923 22.0862 55.2902 24.8826 55.2902 28.3321C55.2902 31.7819 52.923 34.5786 50.0018 34.5786ZM43.443 37.765C43.1432 38.3026 43.4482 39.0268 43.9737 39.3472C46.8325 41.0919 49.9063 42.7408 53.2554 42.7408H57.5118C58.1803 42.7408 58.8099 42.4261 59.2133 41.8924C59.6157 41.3581 59.7451 40.6644 59.5608 40.0224C58.8742 37.6264 57.2991 35.6092 55.2182 34.3381C54.8158 34.0924 54.3008 34.1402 53.9511 34.4561C52.855 35.4455 51.4878 36.0367 50.0021 36.0367C48.5442 36.0367 47.2376 35.4256 46.1174 34.5123C45.5186 34.0244 44.7132 34.0934 44.6134 34.6816C44.3558 35.8216 43.9648 36.8289 43.443 37.765ZM42.9225 41.0274C46.0289 42.9858 48.3754 46.0392 49.4099 49.6504C49.6936 50.6391 49.4957 51.7027 48.8769 52.5245C48.2571 53.3466 47.2887 53.8284 46.2603 53.8284H23.46C22.4319 53.8284 21.4642 53.3451 20.8442 52.5245C20.2256 51.7029 20.0268 50.6384 20.3104 49.6507C21.3659 45.9688 23.7863 42.8687 26.9842 40.916C27.6025 40.538 28.3938 40.6112 28.9315 41.0969C30.6158 42.6171 32.7159 43.5254 35 43.5254C37.24 43.5254 39.3032 42.6514 40.9705 41.1829C41.5141 40.7038 42.3096 40.6415 42.9225 41.0274ZM35 41.2844C39.4887 41.2844 43.1274 36.9862 43.1274 31.6848C43.1274 26.3831 39.4889 22.0862 35 22.0862C30.5116 22.0862 26.873 26.3829 26.873 31.6848C26.873 36.9862 30.5116 41.2844 35 41.2844Z" fill="#053553"/>
</svg>
