<svg width="105" height="91" viewBox="0 0 105 91" fill="none" xmlns="http://www.w3.org/2000/svg">
<path d="M52.3809 46.2922C54.2857 43.5433 55.6277 40.3614 56.2554 36.9632L64.8052 35.7727V29.3441L56.2554 28.1536C55.6277 24.7337 54.2857 21.5736 52.3809 18.8246L57.5758 11.9415L53.0303 7.39606L46.1472 12.5909C43.3983 10.6861 40.2164 9.34412 36.8182 8.71641L35.6277 0.166626H29.1991L27.987 8.71641C24.5671 9.34412 21.4069 10.6861 18.658 12.5909L11.7749 7.39606L7.22944 11.9415L12.4242 18.8246C10.5195 21.5736 9.17749 24.7554 8.54978 28.1536L0 29.3441V35.7727L8.54978 36.9632C9.17749 40.3831 10.5195 43.5433 12.4242 46.2922L7.22944 53.1753L11.7749 57.7207L18.658 52.5259C21.4069 54.4307 24.5887 55.7727 27.987 56.4004L29.1775 64.9502H35.6061L36.7965 56.4004C40.2164 55.7727 43.3766 54.4307 46.1255 52.5259L53.0087 57.7207L57.5541 53.1753L52.3809 46.2922ZM32.4026 49.0627C23.29 49.0627 15.8874 41.6601 15.8874 32.5476C15.8874 23.435 23.29 16.0324 32.4026 16.0324C41.5151 16.0324 48.9177 23.435 48.9177 32.5476C48.8961 41.6818 41.5151 49.0627 32.4026 49.0627Z" fill="#003658"/>
<path d="M104.697 63.3701L100.39 62.764C99.8701 59.9935 98.7879 57.4394 97.2511 55.2099L99.8701 51.7251C98.658 50.145 97.2294 48.7381 95.671 47.5259L92.2078 50.145C89.9783 48.6082 87.4026 47.5259 84.632 47.0065L84.026 42.6991C83.0519 42.5692 82.0563 42.5259 81.0606 42.5259C80.0649 42.5259 79.0693 42.5909 78.0952 42.6991L77.4892 47.0065C74.7186 47.5043 72.1645 48.6082 69.9351 50.145L66.4502 47.5259C64.8701 48.7381 63.4632 50.1666 62.2511 51.7251L64.8701 55.2099C63.3333 57.4394 62.2511 60.0151 61.7316 62.764L57.4242 63.3701C57.2944 64.3441 57.2294 65.3398 57.2294 66.3355C57.2294 67.3311 57.2944 68.3268 57.4242 69.3008L61.7316 69.9069C62.2294 72.6775 63.3333 75.2316 64.8701 77.4827L62.2511 80.9675C63.4632 82.5476 64.8701 83.9545 66.4502 85.1666L69.9351 82.5476C72.1645 84.0844 74.7403 85.1666 77.4892 85.6861L78.0952 89.9935C79.0693 90.1233 80.0649 90.1666 81.0606 90.1666C82.0779 90.1666 83.0519 90.1017 84.026 89.9935L84.632 85.6861C87.4026 85.1883 89.9783 84.0844 92.2078 82.5476L95.671 85.1666C97.2511 83.9545 98.658 82.5259 99.8701 80.9675L97.2511 77.4827C98.7879 75.2532 99.8701 72.6775 100.39 69.9069L104.697 69.3008C104.827 68.3268 104.892 67.3311 104.892 66.3355C104.892 65.3398 104.827 64.3441 104.697 63.3701ZM81.0606 80.1883C73.4199 80.1883 67.2294 73.9978 67.2294 66.3355C67.2294 58.6948 73.4199 52.5043 81.0606 52.5043C88.7013 52.5043 94.9134 58.6948 94.9134 66.3355C94.9134 73.9762 88.7229 80.1883 81.0606 80.1883Z" fill="#003658"/>
<path d="M32.4026 21.7034C26.4069 21.7034 21.5584 26.5519 21.5584 32.5476C21.5584 38.5433 26.4069 43.3917 32.4026 43.3917C38.3983 43.3917 43.2467 38.5433 43.2467 32.5476C43.2467 26.5519 38.3766 21.7034 32.4026 21.7034ZM31.9048 31.0324H32.8788C34.7836 31.0324 36.342 32.5909 36.342 34.4956C36.342 36.0541 35.303 37.3744 33.8961 37.8073V38.1969C33.8961 39.0411 33.2251 39.7121 32.381 39.7121C31.5368 39.7121 30.8658 39.0411 30.8658 38.1969V37.9588H29.9351C29.0909 37.9588 28.4199 37.2878 28.4199 36.4437C28.4199 35.5995 29.0909 34.9285 29.9351 34.9285H32.8788C33.1169 34.9285 33.3117 34.7337 33.3117 34.4956C33.3117 34.2575 33.1169 34.0627 32.8788 34.0627H31.9048C30 34.0627 28.4416 32.5043 28.4416 30.5995C28.4416 29.0411 29.4805 27.7207 30.8874 27.2878V26.8982C30.8874 26.0541 31.5584 25.3831 32.4026 25.3831C33.2467 25.3831 33.9177 26.0541 33.9177 26.8982V27.1363H34.8485C35.6926 27.1363 36.3636 27.8073 36.3636 28.6515C36.3636 29.4956 35.6926 30.1666 34.8485 30.1666H31.9048C31.6667 30.1666 31.4719 30.3614 31.4719 30.5995C31.4719 30.8376 31.6667 31.0324 31.9048 31.0324Z" fill="#003658"/>
<path d="M89.5022 59.7121H87.5974C86.9697 59.7121 86.4069 60.1017 86.1688 60.7078L85.1732 63.3917H73.3117C72.8138 63.3917 72.3377 63.6515 72.0563 64.0627C71.7749 64.474 71.7099 65.0151 71.9048 65.4697L74.7186 72.5043C74.9567 73.0887 75.4978 73.4567 76.1255 73.4567H83.6147C84.2424 73.4567 84.8052 73.0671 85.0433 72.461L87.6623 65.4264L88.6796 62.7424H89.5238C90.368 62.7424 91.0389 62.0714 91.0389 61.2272C91.0173 60.4047 90.3463 59.7121 89.5022 59.7121ZM82.5541 70.4264H77.1645L75.5628 66.422H84.0476L82.5541 70.4264Z" fill="#003658"/>
<path d="M79.2424 74.842C79.1991 74.7554 79.1558 74.6688 79.1125 74.5822C79.0476 74.4956 79.0043 74.4307 78.9177 74.3441C78.5714 73.9978 78.0519 73.8246 77.5541 73.9329C77.4675 73.9545 77.3593 73.9762 77.2727 74.0194C77.1861 74.0627 77.0996 74.106 77.013 74.171C76.9264 74.2359 76.8398 74.2792 76.7749 74.3658C76.7099 74.4307 76.645 74.5173 76.5801 74.6039C76.5151 74.6904 76.4719 74.777 76.4502 74.8636C76.4069 74.9502 76.3853 75.0584 76.3636 75.145C76.342 75.2316 76.342 75.3398 76.342 75.448C76.342 75.8376 76.5151 76.2272 76.7965 76.5303C77.0779 76.8117 77.4675 76.9632 77.8571 76.9632C78.2467 76.9632 78.658 76.79 78.9394 76.5303C79.2208 76.2489 79.3723 75.8593 79.3723 75.448C79.3723 75.3398 79.3723 75.2532 79.3506 75.145C79.3074 75.0368 79.2857 74.9502 79.2424 74.842Z" fill="#003658"/>
<path d="M83.1169 74.842C83.0736 74.7554 83.0303 74.6688 82.987 74.5822C82.9221 74.4956 82.8788 74.4307 82.7922 74.3441C82.7273 74.2792 82.6407 74.2142 82.5541 74.1493C82.4675 74.0844 82.3809 74.0411 82.2944 73.9978C82.2078 73.9545 82.0996 73.9329 82.013 73.9112C81.5151 73.8246 80.9957 73.9762 80.6493 74.3225C80.5844 74.3874 80.5195 74.474 80.4545 74.5606C80.3896 74.6471 80.3463 74.7337 80.3247 74.8203C80.2814 74.9069 80.2597 75.0151 80.2381 75.1017C80.2164 75.1883 80.2164 75.2965 80.2164 75.4047C80.2164 75.7943 80.368 76.1839 80.6493 76.487C80.7143 76.5519 80.8009 76.6168 80.8874 76.6818C80.974 76.7467 81.0606 76.79 81.1472 76.8117C81.2338 76.8549 81.342 76.8766 81.4286 76.8982C81.5368 76.9199 81.6234 76.9199 81.7316 76.9199C82.1212 76.9199 82.5108 76.7467 82.8138 76.487C83.0952 76.2056 83.2467 75.816 83.2467 75.4047C83.2467 75.2965 83.2467 75.2099 83.2251 75.1017C83.1818 75.0368 83.1602 74.9502 83.1169 74.842Z" fill="#003658"/>
</svg>
