<svg width="40" height="21" viewBox="0 0 40 21" fill="none" xmlns="http://www.w3.org/2000/svg">
<rect width="40" height="20" transform="translate(0 0.69043)" fill="#797979"/>
<path fill-rule="evenodd" clip-rule="evenodd" d="M16.6957 3.21635C15.3934 3.27511 14.2646 3.5935 13.3532 4.50111C12.4386 5.41348 12.1241 6.54672 12.0652 7.83547C12.0286 8.63985 11.8145 14.7168 12.4354 16.3104C12.8541 17.3856 13.6787 18.2123 14.7637 18.6323C15.27 18.8292 15.8479 18.9625 16.6957 19.0014C23.7843 19.3222 26.412 19.1476 27.5201 16.3104C27.7167 15.8054 27.852 15.228 27.8894 14.3823C28.2134 7.27552 27.8369 5.73507 26.6015 4.50111C25.6216 3.52362 24.4689 2.85823 16.6957 3.21635ZM16.761 17.5722C15.9848 17.5372 15.5637 17.4079 15.2827 17.2991C14.5759 17.0244 14.0449 16.4956 13.7719 15.7929C13.299 14.5819 13.4559 8.83056 13.4981 7.89992C13.5395 6.98834 13.7241 6.15522 14.3673 5.51204C15.1634 4.71798 16.1918 4.32882 23.1945 4.64486C24.1083 4.68615 24.9434 4.87044 25.5881 5.51204C26.3842 6.3061 26.779 7.34247 26.4574 14.3183C26.4224 15.0925 26.2926 15.5126 26.1836 15.7929C25.4632 17.639 23.8058 17.8953 16.761 17.5722ZM23.2717 6.86985C23.2717 7.39552 23.6992 7.82297 24.2269 7.82297C24.7547 7.82297 25.183 7.39552 25.183 6.86985C25.183 6.34419 24.7547 5.91712 24.2269 5.91712C23.6992 5.91712 23.2717 6.34419 23.2717 6.86985ZM15.8901 11.1085C15.8901 13.3605 17.7202 15.1862 19.9777 15.1862C22.2353 15.1862 24.0653 13.3605 24.0653 11.1085C24.0653 8.85656 22.2353 7.03196 19.9777 7.03196C17.7202 7.03196 15.8901 8.85656 15.8901 11.1085ZM17.3246 11.1085C17.3246 9.64745 18.5122 8.46203 19.9777 8.46203C21.4432 8.46203 22.6309 9.64745 22.6309 11.1085C22.6309 12.5704 21.4432 13.7562 19.9777 13.7562C18.5122 13.7562 17.3246 12.5704 17.3246 11.1085Z" fill="white"/>
</svg>
