<svg width="188" height="53" viewBox="0 0 188 53" fill="none" xmlns="http://www.w3.org/2000/svg">
<path d="M75.3317 30.769C75.5217 34.075 71.9877 36.07 68.0927 35.899C65.7747 35.823 63.4947 35.405 62.1647 34.816L61.7467 34.626L62.6017 31.662L62.7347 31.681L62.8107 32.004C63.3617 34.455 66.3447 35.386 68.2827 35.424C70.2207 35.481 73.1087 34.55 73.0897 32.061C73.0707 29.667 70.8287 29.496 68.5677 29.23L67.9407 29.154C65.2997 28.85 62.3357 28.09 62.4307 25.126C62.5257 21.801 65.8507 20.566 68.9287 20.547C70.4107 20.547 73.0707 21.079 74.3057 21.554L74.5907 21.668L73.8877 24.138L73.6027 24.043L73.4697 23.682C72.6717 21.706 70.6007 21.212 68.9287 21.155C66.4777 21.06 64.5397 22.124 64.5587 24.138C64.5777 26.247 66.8957 26.665 69.2517 26.912L69.7267 26.95C72.2917 27.216 75.1797 27.748 75.3317 30.769Z" fill="#f2faff"/>
<path d="M89.5882 30.104C89.3412 33.505 86.2442 35.804 82.8623 35.766C79.4043 35.709 76.5352 33.372 76.3262 30.009C76.1172 26.418 79.1003 23.53 82.9193 23.511C86.9092 23.511 89.8733 26.494 89.5882 30.104ZM86.9473 30.237C87.2132 27.33 85.7692 23.872 82.8242 23.891C79.6133 23.929 78.5683 27.178 78.7393 30.028C78.9293 32.669 80.1833 35.519 83.0143 35.386C86.0732 35.253 86.7002 32.973 86.9473 30.237Z" fill="#f2faff"/>
<path d="M98.2469 19.103L97.6959 21.117L97.4299 21.098C97.1449 20.243 96.3849 19.939 95.8149 19.939C94.4279 19.901 94.6369 22.732 94.6369 22.884L94.6749 24.214H97.0689L96.7649 24.993H94.7319L94.8839 33.125C94.9219 33.714 94.8839 34.284 95.1499 34.645C95.4349 35.006 95.7579 35.196 96.2139 35.253V35.519C96.2139 35.519 94.8079 35.386 93.9339 35.386C93.0409 35.386 92.5089 35.405 91.6159 35.5V35.253C92.0529 35.158 92.2429 34.949 92.4709 34.607C92.8319 34.151 92.7559 33.334 92.7559 33.125L92.7369 24.993H90.6279L90.9509 24.214H92.6989V23.416C92.6609 21.516 93.8959 20.395 94.1619 20.186C94.9219 19.616 96.4039 19.103 97.9239 19.103H98.2469Z" fill="#f2faff"/>
<path d="M104.774 24.537C104.774 25.012 104.489 24.955 104.204 24.955H102.323L102.57 33.125C102.589 33.999 103.216 34.626 103.349 34.759C103.691 35.101 103.881 35.139 104.242 35.253V35.5H103.938C102.589 35.5 101.202 35.671 100.841 35.063C100.708 34.835 100.442 34.493 100.423 33.125L100.385 25.05L98.4663 25.069V24.784C99.3023 24.461 99.7583 24.157 100.423 23.587C101.316 22.789 101.753 22.143 102.171 21.06L102.475 21.117C102.456 21.231 102.456 21.098 102.361 21.649C102.304 21.991 102.19 23.473 102.323 24.29H104.128C104.394 24.29 104.774 24.29 104.774 24.537Z" fill="#f2faff"/>
<path d="M126.626 33.904L126.379 34.075C124.783 35.196 122.826 35.899 120.014 36.07C115.473 36.336 110.856 33.524 110.875 28.318C110.875 23.796 115.074 20.414 119.615 20.566C122.218 20.661 124.688 21.44 125.695 21.991L125.942 22.143L125.201 24.86L124.954 24.841L124.84 24.48C124.27 22.77 123.016 21.174 119.615 21.098C115.568 21.022 113.706 24.537 113.649 28.109C113.554 31.909 115.967 35.633 120.033 35.519C122.37 35.462 124.726 34.683 125.505 32.061L125.619 31.681H125.885L126.626 33.904Z" fill="#f2faff"/>
<path d="M131.527 35.5C131.527 35.5 130.33 35.386 129.589 35.386C128.772 35.386 128.297 35.405 127.499 35.5V35.253C127.822 35.082 128.012 34.911 128.221 34.588C128.335 34.379 128.468 33.334 128.468 33.125L128.411 21.687C128.411 21.459 128.297 20.927 128.107 20.661C127.955 20.471 127.689 20.3 127.594 20.243V20.11C128.145 20.015 128.468 19.92 129.019 19.768C129.456 19.635 129.76 19.54 130.197 19.388L130.349 19.464C130.349 19.578 130.349 19.445 130.292 19.996C130.216 21.117 130.273 22.732 130.273 22.884L130.539 33.125C130.558 33.714 130.691 34.493 130.805 34.645C131.071 35.006 131.204 35.12 131.527 35.253V35.5Z" fill="#f2faff"/>
<path d="M144.969 31.111L144.874 31.453C144.152 33.942 142.233 35.709 139.041 35.842C135.944 35.975 132.353 33.98 132.296 29.648C132.239 25.981 135.26 23.34 139.003 23.473C141.359 23.53 144.19 25.335 144.532 27.311L144.665 28.09H134.88L134.823 28.622C134.5 32.422 136.267 35.329 139.345 35.31C141.53 35.291 143.886 33.695 144.513 31.187L144.57 30.902L144.969 31.111ZM141.91 27.387C141.986 25.715 140.447 23.929 138.585 23.872C135.982 23.796 135.07 26.893 134.994 27.311L134.918 27.653H141.91V27.387Z" fill="#f2faff"/>
<path d="M158.874 24.176C158.798 24.214 158.361 24.252 157.943 24.765C157.639 25.145 156.993 26.019 156.898 26.247L152.129 35.709H151.863L146.22 25.411C146.144 25.259 145.859 24.86 145.555 24.594C145.308 24.404 144.909 24.195 144.852 24.176V23.986C145.631 24.062 146.106 24.1 146.923 24.1C147.759 24.1 148.272 24.062 149.108 23.986V24.176C149.032 24.195 148.766 24.195 148.576 24.594C148.443 24.879 148.519 25.297 148.595 25.411L152.908 32.973L156.043 26.266C156.29 25.772 156.366 25.107 156.233 24.822C156.043 24.461 155.796 24.271 155.397 24.176L155.378 23.986C156.043 24.043 156.423 24.043 157.088 24.043C157.772 24.043 158.19 24.043 158.874 23.986V24.176Z" fill="#f2faff"/>
<path d="M171.326 31.111L171.231 31.453C170.509 33.942 168.59 35.709 165.398 35.842C162.301 35.975 158.71 33.98 158.653 29.648C158.596 25.981 161.617 23.34 165.36 23.473C167.716 23.53 170.547 25.335 170.889 27.311L171.022 28.09H161.237L161.18 28.622C160.857 32.422 162.624 35.329 165.702 35.31C167.887 35.291 170.243 33.695 170.87 31.187L170.927 30.902L171.326 31.111ZM168.267 27.387C168.343 25.715 166.804 23.929 164.942 23.872C162.339 23.796 161.427 26.893 161.351 27.311L161.275 27.653H168.267V27.387Z" fill="#f2faff"/>
<path d="M179.589 23.625L178.791 26.095L178.582 25.981C177.936 25.62 177.328 25.544 176.663 25.924C175.447 26.608 175.181 28.242 175.181 29.173L175.238 33.125C175.257 34.056 175.371 34.398 175.58 34.645C175.884 35.006 176.245 35.158 176.644 35.253V35.5C175.675 35.386 175.086 35.367 174.117 35.386C173.357 35.386 172.901 35.424 172.141 35.5V35.253C172.407 35.101 172.597 34.911 172.768 34.588C172.882 34.379 172.996 33.334 172.996 33.125L172.939 26.19C172.939 25.468 172.749 25.411 172.521 25.145C172.312 24.917 171.932 24.784 171.818 24.765V24.518C172.445 24.442 172.825 24.366 173.452 24.195C173.965 24.062 174.288 23.967 174.801 23.777L175.048 23.967C175.029 24.062 175.029 23.929 174.972 24.499C174.877 25.335 174.877 25.848 174.953 26.684L175.162 26.76L175.314 26.494C175.884 25.601 176.454 24.784 177.062 24.385C177.917 23.834 178.582 23.625 179.589 23.625Z" fill="#f2faff"/>
<path d="M183.739 22.545C179.095 22.545 179.095 15.579 183.739 15.579C188.383 15.579 188.383 22.545 183.739 22.545ZM183.739 22.176C187.879 22.176 187.879 15.957 183.739 15.957C179.59 15.957 179.59 22.176 183.739 22.176ZM185.611 20.979H185.566C185.449 20.97 185.377 20.961 185.251 20.961C185.134 20.961 185.062 20.97 184.945 20.979H184.873L183.352 19.017L183.37 18.927H183.568C184.063 18.954 184.63 18.603 184.585 18.081C184.558 17.73 184.387 17.442 183.964 17.379C183.694 17.334 183.334 17.397 183.244 17.415L183.172 17.442V20.502C183.172 20.583 183.181 20.655 183.235 20.718C183.316 20.808 183.478 20.799 183.541 20.799L183.676 20.817V20.97H183.577C183.523 20.97 183.172 20.934 182.911 20.934C182.641 20.934 182.326 20.97 182.227 20.97H182.128V20.808L182.281 20.799C182.362 20.79 182.479 20.799 182.56 20.718C182.623 20.655 182.632 20.583 182.632 20.502V17.64C182.632 17.487 182.623 17.469 182.56 17.388C182.506 17.325 182.236 17.316 182.191 17.316H182.128V17.154H182.227C182.281 17.154 182.65 17.172 182.911 17.172C183.307 17.181 183.874 17.154 183.928 17.154H184.027C184.405 17.127 184.918 17.262 185.08 17.685C185.251 18.144 185.044 18.558 184.63 18.846C184.45 18.963 184.18 19.026 184.117 19.044L184.072 19.062L185.305 20.673C185.305 20.682 185.377 20.745 185.44 20.781C185.476 20.799 185.566 20.817 185.584 20.817H185.611V20.979Z" fill="#f2faff"/>
<path d="M109.126 48.5C109.126 48.5 108.235 48.456 107.674 48.456C107.124 48.456 106.805 48.467 106.266 48.5V48.357C106.497 48.291 106.64 48.181 106.783 47.972C106.97 47.708 106.904 47.246 106.904 47.125V41.196C106.904 41.075 106.827 40.811 106.695 40.613C106.563 40.459 106.332 40.316 106.266 40.294V40.162H108.807V40.294C108.752 40.327 108.521 40.459 108.422 40.613C108.301 40.811 108.257 41.108 108.268 41.196L108.4 47.125C108.411 47.466 108.543 47.917 108.598 48.005C108.752 48.192 108.895 48.291 109.126 48.357V48.5Z" fill="#f2faff"/>
<path d="M116.851 48.5C116.411 48.456 116.147 48.434 115.718 48.434C115.256 48.434 114.97 48.445 114.508 48.5V48.357C114.706 48.247 114.816 48.159 114.926 47.972C114.992 47.851 115.08 47.246 115.08 47.125L115.003 44.221C114.97 43.132 114.431 42.043 113.287 41.999C111.89 41.944 111.23 43.495 111.241 44.947L111.285 47.125C111.285 47.466 111.362 47.917 111.428 48.005C111.593 48.214 111.659 48.269 111.857 48.357L111.879 48.5C111.439 48.456 111.164 48.434 110.724 48.434C110.251 48.434 109.976 48.445 109.514 48.5V48.357C109.712 48.247 109.822 48.159 109.943 47.972C110.009 47.851 110.086 47.246 110.086 47.125L110.009 43.231C109.998 42.857 109.899 42.725 109.789 42.582C109.701 42.461 109.547 42.362 109.492 42.34V42.252C109.811 42.186 110.009 42.142 110.306 42.054C110.57 41.988 110.735 41.933 110.999 41.834L111.087 41.867C111.087 41.933 111.076 41.856 111.054 42.186C111.032 42.626 111.065 43.253 111.065 43.352V43.55L111.23 43.275C111.516 42.802 111.835 41.768 113.551 41.647C114.838 41.548 116.18 42.527 116.202 44.089L116.268 47.125C116.279 47.466 116.356 47.917 116.422 48.005C116.587 48.214 116.653 48.269 116.851 48.357V48.5Z" fill="#f2faff"/>
<path d="M121.621 39.007L121.302 40.173L121.148 40.162C120.983 39.667 120.543 39.491 120.213 39.491C119.41 39.469 119.531 41.108 119.531 41.196L119.553 41.966H120.939L120.763 42.417H119.586L119.674 47.125C119.696 47.466 119.674 47.796 119.828 48.005C119.993 48.214 120.18 48.324 120.444 48.357V48.511C120.444 48.511 119.63 48.434 119.124 48.434C118.607 48.434 118.299 48.445 117.782 48.5V48.357C118.035 48.302 118.145 48.181 118.277 47.983C118.486 47.719 118.442 47.246 118.442 47.125L118.431 42.417H117.21L117.397 41.966H118.409V41.504C118.387 40.404 119.102 39.755 119.256 39.634C119.696 39.304 120.554 39.007 121.434 39.007H121.621Z" fill="#f2faff"/>
<path d="M129.03 45.376C128.887 47.345 127.094 48.676 125.136 48.654C123.134 48.621 121.473 47.268 121.352 45.321C121.231 43.242 122.958 41.57 125.169 41.559C127.479 41.559 129.195 43.286 129.03 45.376ZM127.501 45.453C127.655 43.77 126.819 41.768 125.114 41.779C123.255 41.801 122.65 43.682 122.749 45.332C122.859 46.861 123.585 48.511 125.224 48.434C126.995 48.357 127.358 47.037 127.501 45.453Z" fill="#f2faff"/>
<path d="M133.866 41.625L133.404 43.055L133.283 42.989C132.909 42.78 132.557 42.736 132.172 42.956C131.468 43.352 131.314 44.298 131.314 44.837L131.347 47.125C131.358 47.664 131.424 47.862 131.545 48.005C131.721 48.214 131.93 48.302 132.161 48.357V48.5C131.6 48.434 131.259 48.423 130.698 48.434C130.258 48.434 129.994 48.456 129.554 48.5V48.357C129.708 48.269 129.818 48.159 129.917 47.972C129.983 47.851 130.049 47.246 130.049 47.125L130.016 43.11C130.016 42.692 129.906 42.659 129.774 42.505C129.653 42.373 129.433 42.296 129.367 42.285V42.142C129.73 42.098 129.95 42.054 130.313 41.955C130.61 41.878 130.797 41.823 131.094 41.713L131.237 41.823C131.226 41.878 131.226 41.801 131.193 42.131C131.138 42.615 131.138 42.912 131.182 43.396L131.303 43.44L131.391 43.286C131.721 42.769 132.051 42.296 132.403 42.065C132.898 41.746 133.283 41.625 133.866 41.625Z" fill="#f2faff"/>
<path d="M146.638 48.5C146.198 48.456 145.945 48.434 145.505 48.434C145.032 48.434 144.757 48.445 144.295 48.5V48.357C144.493 48.247 144.603 48.159 144.713 47.972C144.79 47.851 144.867 47.235 144.867 47.125L144.812 43.924C144.779 42.923 144.119 42.054 143.151 41.867C141.864 41.647 141.039 43.341 141.05 44.496L141.094 47.125C141.094 47.466 141.182 47.917 141.248 48.005C141.413 48.214 141.479 48.269 141.677 48.357V48.5C141.237 48.456 140.973 48.434 140.544 48.434C140.082 48.434 139.796 48.445 139.334 48.5V48.357C139.532 48.247 139.642 48.159 139.752 47.972C139.818 47.851 139.906 47.246 139.906 47.125L139.884 44.221C139.873 43.132 139.246 42.021 138.102 41.966C136.705 41.911 136.078 43.495 136.089 44.947L136.111 47.125C136.111 47.466 136.188 47.917 136.254 48.005C136.419 48.214 136.485 48.269 136.683 48.357V48.5C136.243 48.456 135.99 48.434 135.55 48.434C135.077 48.434 134.802 48.445 134.34 48.5V48.357C134.538 48.247 134.648 48.159 134.769 47.972C134.835 47.851 134.912 47.246 134.912 47.125L134.791 43.308C134.78 42.934 134.725 42.725 134.615 42.582C134.527 42.461 134.373 42.362 134.318 42.34V42.252C134.637 42.186 134.835 42.142 135.132 42.054C135.396 41.988 135.561 41.933 135.825 41.834L135.913 41.867C135.913 41.933 135.902 41.856 135.88 42.186C135.858 42.626 135.869 43.253 135.891 43.352L135.935 43.528L136.056 43.308C136.309 42.846 136.595 41.746 138.377 41.647C139.664 41.57 140.456 42.153 140.841 43.11L140.94 43.341L141.083 43.055C141.611 42.076 142.403 41.504 143.503 41.537C145.076 41.581 146.044 42.516 146.044 43.814L146.066 47.125C146.066 47.466 146.143 47.917 146.209 48.005C146.374 48.214 146.44 48.269 146.638 48.357V48.5Z" fill="#f2faff"/>
<path d="M153.72 48.5H152.224C152.147 48.28 152.092 48.137 152.059 47.906C151.993 47.609 151.971 47.224 151.971 47.125L151.762 47.51C151.355 48.269 150.596 48.632 149.683 48.665C148.363 48.709 146.955 47.928 146.988 46.575C147.043 44.738 149.661 44.43 151.245 44.43H151.85V44.188C151.85 42.945 151.179 41.889 149.947 41.889C148.979 41.889 148.121 42.362 147.802 43.198L147.692 43.473H147.538L147.241 42.34L147.516 42.219C148.407 41.812 149.001 41.702 149.98 41.647C151.685 41.537 153.082 42.45 153.082 43.946V46.872C153.082 47.169 153.126 47.796 153.269 48.005C153.401 48.192 153.522 48.269 153.72 48.357V48.5ZM151.85 46.168V44.683H151.509C150.046 44.683 148.253 45.013 148.418 46.883C148.495 47.73 149.177 48.511 150.035 48.39C151.113 48.247 151.85 47.279 151.85 46.168ZM151.454 39.271L149.903 40.833H149.1L150.354 39.271H151.454Z" fill="#f2faff"/>
<path d="M157.679 42.153C157.679 42.428 157.514 42.395 157.349 42.395H156.26L156.403 47.125C156.414 47.631 156.777 47.994 156.854 48.071C157.052 48.269 157.162 48.291 157.371 48.357V48.5H157.195C156.414 48.5 155.611 48.599 155.402 48.247C155.325 48.115 155.171 47.917 155.16 47.125L155.138 42.45L154.027 42.461V42.296C154.511 42.109 154.775 41.933 155.16 41.603C155.677 41.141 155.93 40.767 156.172 40.14L156.348 40.173C156.337 40.239 156.337 40.162 156.282 40.481C156.249 40.679 156.183 41.537 156.26 42.01H157.305C157.459 42.01 157.679 42.01 157.679 42.153Z" fill="#f2faff"/>
<path d="M159.402 40.976C158.456 40.976 158.456 39.557 159.402 39.557C160.337 39.557 160.337 40.976 159.402 40.976ZM160.953 48.5C160.469 48.456 160.183 48.434 159.699 48.434C159.149 48.434 158.83 48.445 158.302 48.5V48.357C158.555 48.291 158.753 48.214 158.863 47.972C158.984 47.708 158.962 47.246 158.962 47.125L158.951 43.143C158.94 42.879 158.819 42.758 158.709 42.604C158.588 42.45 158.335 42.373 158.269 42.362V42.285C158.687 42.219 158.929 42.153 159.347 42.043C159.6 41.966 159.776 41.911 160.029 41.812L160.139 41.856C160.139 41.911 160.139 41.834 160.084 42.153C160.029 42.615 160.106 43.748 160.106 43.836L160.238 47.125C160.249 47.466 160.326 47.917 160.403 48.005C160.568 48.214 160.7 48.291 160.953 48.357V48.5Z" fill="#f2faff"/>
<path d="M168.199 46.762L168.122 46.905C167.495 48.06 166.549 48.621 165.24 48.665C163.194 48.753 161.258 47.345 161.335 44.969C161.401 42.857 163.062 41.449 165.207 41.515C166.219 41.548 166.934 41.713 167.88 42.23L167.99 42.296L167.638 43.517H167.517L167.473 43.341C167.264 42.428 166.296 41.812 165.24 41.779C163.469 41.724 162.787 43.407 162.754 44.969C162.732 46.663 163.612 48.401 165.504 48.357C166.626 48.346 167.319 47.73 167.935 46.784L168.023 46.663L168.199 46.762Z" fill="#f2faff"/>
<path d="M175.292 48.5H173.807C173.719 48.28 173.675 48.137 173.631 47.906C173.565 47.609 173.543 47.224 173.543 47.125L173.334 47.51C172.927 48.269 172.179 48.632 171.255 48.665C169.935 48.709 168.527 47.928 168.56 46.575C168.615 44.738 171.233 44.43 172.817 44.43H173.422V44.188C173.422 42.945 172.762 41.889 171.53 41.889C170.562 41.889 169.693 42.362 169.374 43.198L169.264 43.473H169.11L168.813 42.34L169.088 42.219C169.979 41.812 170.573 41.702 171.552 41.647C173.257 41.537 174.654 42.45 174.654 43.946V46.872C174.654 47.169 174.698 47.796 174.841 48.005C174.973 48.192 175.094 48.269 175.292 48.357V48.5ZM173.422 46.168V44.683H173.092C171.618 44.683 169.836 45.013 169.99 46.883C170.067 47.73 170.76 48.511 171.607 48.39C172.685 48.247 173.422 47.279 173.422 46.168Z" fill="#f2faff"/>
<path d="M60.8109 40H102.311V41H60.8109V40Z" fill="#f2faff"/>
<path fill-rule="evenodd" clip-rule="evenodd" d="M30.3109 0L42.4959 21.105C41.9647 21.0497 41.4086 21.022 40.8275 21.022C39.0882 21.022 37.5458 21.3203 36.2001 21.917C34.867 22.501 33.8197 23.3071 33.058 24.3354C32.3089 25.3638 31.8583 26.4365 31.7059 27.5537C31.5536 28.6582 31.4774 30.3213 31.4774 32.543V41.5503C31.4774 44.5718 31.725 46.8379 32.2201 48.3486C32.7152 49.8467 33.7245 51.021 35.2479 51.8716C35.6861 52.1162 36.1584 52.3257 36.6649 52.5H24.4443C24.7811 52.3827 25.1069 52.2494 25.4217 52.1001C26.8944 51.3892 27.8846 50.5132 28.3924 49.4722C28.9129 48.4312 29.1732 46.8125 29.1732 44.6162C29.1732 41.5947 28.7098 39.4048 27.7831 38.0464C26.8563 36.688 24.6092 34.9487 21.0418 32.8286C19.7977 32.0923 19.0423 31.4639 18.7757 30.9434C18.4964 30.4229 18.3568 29.6484 18.3568 28.6201C18.3568 27.8203 18.4774 27.2236 18.7186 26.8301C18.9725 26.4365 19.3407 26.2397 19.8231 26.2397C20.2674 26.2397 20.5848 26.3857 20.7752 26.6777C20.9657 26.9697 21.0609 27.6489 21.0609 28.7153V31.0005H28.5067V29.7817C28.5067 27.3315 28.2655 25.5986 27.7831 24.583C27.3133 23.5547 26.3421 22.7041 24.8695 22.0312C23.4095 21.3584 21.6385 21.022 19.5565 21.022C19.0651 21.022 18.5922 21.0427 18.138 21.0841L30.3109 0ZM11.2461 33.0212L0 52.5H16.0845C15.6257 52.3394 15.1898 52.149 14.7767 51.9287C13.266 51.1162 12.2757 50.0815 11.806 48.8247C11.3363 47.5679 11.1014 45.7842 11.1014 43.4736V41.4551H18.5472V45.2065C18.5472 46.3618 18.6488 47.1045 18.8519 47.4346C19.0677 47.7646 19.4422 47.9297 19.9754 47.9297C20.5086 47.9297 20.9022 47.7202 21.1561 47.3013C21.4227 46.8823 21.556 46.2603 21.556 45.4351C21.556 43.6196 21.3084 42.4326 20.8133 41.874C20.3055 41.3154 19.055 40.3823 17.0619 39.0747C15.0687 37.7544 13.7484 36.7959 13.1009 36.1992C12.4535 35.6025 11.9139 34.7773 11.4823 33.7236C11.3943 33.5024 11.3156 33.2682 11.2461 33.0212ZM50.4251 35.1138V34.8389L60.6218 52.5H45.0363C45.6503 52.2737 46.2215 51.988 46.7499 51.6431C48.2987 50.6401 49.2953 49.4722 49.7396 48.1392C50.1966 46.8062 50.4251 44.5464 50.4251 41.3599V40.1602H42.4081V44.0259C42.4081 45.7144 42.3128 46.7871 42.1224 47.2441C41.9447 47.7012 41.5575 47.9297 40.9608 47.9297C40.3387 47.9297 39.9388 47.7012 39.7611 47.2441C39.5834 46.7871 39.4945 45.8096 39.4945 44.3115V29.9912C39.4945 28.4297 39.5834 27.4141 39.7611 26.9443C39.9388 26.4746 40.3578 26.2397 41.0179 26.2397C41.6019 26.2397 41.9764 26.4365 42.1415 26.8301C42.3192 27.2109 42.4081 28.1821 42.4081 29.7437V35.1138H50.4251Z" fill="#f2faff"/>
</svg>
