<svg width="70" height="76" viewBox="0 0 70 76" fill="none" xmlns="http://www.w3.org/2000/svg">
<path d="M0.5 16.5C0.5 7.66344 7.66344 0.5 16.5 0.5H53.5C62.3366 0.5 69.5 7.66344 69.5 16.5V59.5C69.5 68.3366 62.3366 75.5 53.5 75.5H16.5C7.66344 75.5 0.5 68.3366 0.5 59.5V16.5Z" fill="#053553"/>
<path d="M49.1164 44.7932V26.1918C49.1164 24.4046 48.3415 22.7243 46.9346 21.4607C45.5268 20.1963 43.6555 19.5 41.6654 19.5C37.5568 19.5 34.2143 22.5019 34.2143 26.1918V50.3082C34.2143 51.5824 33.6618 52.7802 32.6588 53.6811C31.655 54.5827 30.3207 55.0791 28.902 55.0791C25.9727 55.0791 23.5898 52.9389 23.5898 50.3082L23.6042 31.5059C25.8681 31.0642 27.5695 29.2516 27.5695 27.0879V23.2426C27.5695 22.8567 27.3155 22.5249 26.9499 22.3722V20.4604C26.9499 19.93 26.4712 19.5 25.8805 19.5H19.189C18.5984 19.5 18.1196 19.93 18.1196 20.4604V22.3722C17.754 22.5248 17.5 22.8567 17.5 23.2426V27.0879C17.5 29.2516 19.2013 31.0642 21.4654 31.5059L21.4509 50.3082C21.4509 53.9981 24.7935 57 28.902 57C30.892 57 32.7634 56.3037 34.1712 55.0393C35.5782 53.7756 36.3531 52.0954 36.3531 50.3081V26.1918C36.3531 23.5611 38.7362 21.4209 41.6654 21.4209C43.0842 21.4209 44.4184 21.9173 45.4221 22.8189C46.4251 23.7197 46.9776 24.9175 46.9776 26.1917L46.9776 44.7932C44.7137 45.2349 43.0123 47.0476 43.0123 49.2112L43.0991 53.2574C43.0991 53.6433 43.353 53.9751 43.7186 54.1278V56.0396C43.7186 56.57 44.1973 57 44.788 57H51.4794C52.07 57 52.5488 56.57 52.5488 56.0396V54.1278C52.9144 53.9752 53.1684 53.6433 53.1684 53.2574L53.0817 49.2113C53.0818 47.0476 51.3805 45.2349 49.1164 44.7932ZM20.2584 21.4209H24.811V22.2822H20.2584V21.4209ZM19.6388 27.0879V24.2031H25.4306V27.0879C25.4306 28.522 24.1316 29.6887 22.5348 29.6887C20.9379 29.6887 19.6388 28.522 19.6388 27.0879ZM48.047 46.6105C49.6439 46.6105 50.943 47.7772 50.943 49.2113L51.0297 52.297H45.2379L45.1511 49.2113C45.1511 47.7772 46.4502 46.6105 48.047 46.6105ZM50.4101 55.0792H45.8575V54.2179H50.4101V55.0792Z" fill="white"/>
</svg>
