<svg width="19" height="18" viewBox="0 0 19 18" fill="none" xmlns="http://www.w3.org/2000/svg">
<path d="M8.28211 1.15935C8.51361 0.493433 8.62931 0.160483 8.80051 0.0682033C8.94861 -0.0116667 9.12691 -0.0116667 9.27511 0.0682033C9.44621 0.160483 9.56191 0.493433 9.79341 1.15935L11.3237 5.56174C11.3896 5.75127 11.4225 5.84603 11.4819 5.9166C11.5343 5.97894 11.6012 6.02753 11.6767 6.05813C11.7621 6.09278 11.8624 6.09482 12.063 6.09891L16.7228 6.19387C17.4277 6.20823 17.7801 6.21542 17.9208 6.34967C18.0425 6.46586 18.0976 6.63549 18.0674 6.80104C18.0326 6.99224 17.7521 7.20499 17.1909 7.63047L17.1899 7.63125L13.4758 10.447C13.3159 10.5683 13.236 10.6289 13.1872 10.7071C13.1441 10.7763 13.1186 10.8549 13.1128 10.9361C13.1063 11.0281 13.1353 11.1241 13.1934 11.3162L14.5431 15.7773C14.7472 16.4521 14.8493 16.7895 14.7651 16.9647C14.6922 17.1164 14.5479 17.2212 14.3811 17.2437C14.1884 17.2696 13.8991 17.0683 13.3204 16.6656L9.49471 14.0035C9.33001 13.8889 9.24771 13.8316 9.15821 13.8093C9.07911 13.7897 8.99641 13.7897 8.91741 13.8093C8.82791 13.8316 8.74551 13.8889 8.58081 14.0035L4.75516 16.6656C4.17648 17.0683 3.88714 17.2696 3.69444 17.2437C3.52767 17.2212 3.38337 17.1164 3.31048 16.9647C3.22626 16.7895 3.32834 16.4521 3.53249 15.7773L4.88214 11.3162C4.94024 11.1241 4.96929 11.0281 4.96275 10.9361C4.95697 10.8549 4.93143 10.7763 4.88834 10.7071C4.83957 10.6289 4.75962 10.5683 4.59973 10.447L0.884665 7.63048C0.323548 7.20499 0.0429684 6.99224 0.00811958 6.80104C-0.0220704 6.63549 0.0330497 6.46586 0.15478 6.34967C0.29542 6.21542 0.64785 6.20824 1.3527 6.19387L6.01251 6.09891C6.21311 6.09482 6.31342 6.09278 6.39888 6.05813C6.47437 6.02753 6.54125 5.97894 6.59368 5.9166C6.65304 5.84603 6.68598 5.75127 6.75186 5.56174L8.28211 1.15935Z" fill="#d1d5db"/>
</svg>
