<svg width="70" height="76" viewBox="0 0 70 76" fill="none" xmlns="http://www.w3.org/2000/svg">
<path d="M0.5 16.5C0.5 7.66344 7.66344 0.5 16.5 0.5H53.5C62.3366 0.5 69.5 7.66344 69.5 16.5V59.5C69.5 68.3366 62.3366 75.5 53.5 75.5H16.5C7.66344 75.5 0.5 68.3366 0.5 59.5V16.5Z" fill="#053553"/>
<path d="M35.1841 15.5C32.841 15.5 30.9347 17.4221 30.9347 19.7847C30.9347 22.1472 32.8411 24.0693 35.1841 24.0693C37.5272 24.0693 39.4336 22.1472 39.4336 19.7847C39.4336 17.4221 37.5273 15.5 35.1841 15.5Z" fill="white"/>
<path d="M42.0593 31.1303L40.256 25.6757C40.0457 25.0398 39.4556 24.6108 38.7907 24.6108H31.5777C30.9128 24.6108 30.3227 25.0397 30.1124 25.6757L28.3092 31.1303C27.9759 32.1383 28.7217 33.1801 29.7745 33.1801H40.594C41.6479 33.1801 42.3921 32.1373 42.0593 31.1303Z" fill="white"/>
<path d="M18.4553 29.16C16.1121 29.16 14.2058 31.0821 14.2058 33.4447C14.2058 35.8072 16.1122 37.7293 18.4553 37.7293C20.7983 37.7293 22.7047 35.8072 22.7047 33.4447C22.7047 31.0821 20.7984 29.16 18.4553 29.16Z" fill="white"/>
<path d="M25.3305 44.7903L23.5271 39.3358C23.3168 38.6999 22.7267 38.271 22.0618 38.271H14.8487C14.1838 38.271 13.5937 38.6999 13.3834 39.3359L11.5803 44.7903C11.247 45.7984 11.9929 46.8401 13.0456 46.8401H23.8651C24.9189 46.8401 25.6632 45.7973 25.3305 44.7903Z" fill="white"/>
<path d="M35.1843 42.8201C32.8411 42.8201 30.9348 44.7422 30.9348 47.1048C30.9348 49.4673 32.8411 51.3894 35.1843 51.3894C37.5274 51.3894 39.4337 49.4674 39.4337 47.1048C39.4337 44.7422 37.5274 42.8201 35.1843 42.8201Z" fill="white"/>
<path d="M42.0592 58.4501L40.256 52.9956C40.0457 52.3597 39.4556 51.9307 38.7907 51.9307H31.5777C30.9128 51.9307 30.3227 52.3596 30.1124 52.9956L28.3092 58.4501C27.9759 59.4582 28.7218 60.4999 29.7744 60.4999H40.594C41.6479 60.4998 42.3921 59.4571 42.0592 58.4501Z" fill="white"/>
<path d="M29.0508 21.598C28.6796 20.8235 27.7559 20.4992 26.9879 20.8735C24.5952 22.0397 22.4261 23.746 20.7154 25.8079C20.1681 26.4677 20.2548 27.4499 20.9091 28.0018C21.5633 28.5537 22.5374 28.4664 23.0849 27.8065C24.5166 26.0809 26.3311 24.6532 28.3324 23.6779C29.1003 23.3036 29.422 22.3724 29.0508 21.598Z" fill="white"/>
<path d="M51.913 29.16C49.5698 29.16 47.6635 31.0822 47.6635 33.4447C47.6635 35.8071 49.5698 37.7293 51.913 37.7293C54.2561 37.7293 56.1624 35.8072 56.1624 33.4447C56.1624 31.0821 54.2561 29.16 51.913 29.16Z" fill="white"/>
<path d="M58.7882 44.7904L56.985 39.3359C56.7747 38.7 56.1845 38.271 55.5197 38.271H48.3067C47.6418 38.271 47.0517 38.6999 46.8415 39.3358L45.0381 44.7903C44.7049 45.7984 45.4507 46.8402 46.5034 46.8402H57.3228C58.3767 46.8402 59.121 45.7974 58.7882 44.7904Z" fill="white"/>
<path d="M49.6528 25.8081C47.9421 23.7462 45.7731 22.0399 43.3803 20.8737C42.6121 20.4996 41.6887 20.8238 41.3174 21.5982C40.9463 22.3725 41.268 23.3036 42.0359 23.678C44.0371 24.6533 45.8516 26.0809 47.2833 27.8066C47.8308 28.4664 48.8049 28.5536 49.4591 28.0019C50.1134 27.45 50.2002 26.4678 49.6528 25.8081Z" fill="white"/>
<path d="M49.4592 47.9982C48.805 47.4463 47.8308 47.5336 47.2834 48.1935C45.8517 49.9192 44.0372 51.3469 42.036 52.3221C41.268 52.6964 40.9462 53.6276 41.3176 54.4021C41.6888 55.1767 42.6125 55.5006 43.3804 55.1265C45.7732 53.9604 47.9422 52.254 49.6529 50.1921C50.2003 49.5323 50.1135 48.5501 49.4592 47.9982Z" fill="white"/>
<path d="M28.3323 52.3221C26.3311 51.3467 24.5165 49.9191 23.0849 48.1935C22.5373 47.5337 21.5633 47.4464 20.9091 47.9981C20.2548 48.5501 20.1681 49.5322 20.7155 50.1919C22.4262 52.2539 24.5952 53.9601 26.988 55.1263C27.7565 55.5009 28.6797 55.176 29.0508 54.402C29.4219 53.6276 29.1002 52.6964 28.3323 52.3221Z" fill="white"/>
</svg>
