<svg width="70" height="76" viewBox="0 0 70 76" fill="none" xmlns="http://www.w3.org/2000/svg">
<path fill-rule="evenodd" clip-rule="evenodd" d="M0.5 16.5C0.5 7.66344 7.66344 0.5 16.5 0.5H53.5C62.3366 0.5 69.5 7.66344 69.5 16.5V59.5C69.5 68.3366 62.3366 75.5 53.5 75.5H16.5C7.66344 75.5 0.5 68.3366 0.5 59.5V16.5ZM42.9225 41.0274C46.0289 42.9858 48.3754 46.0392 49.4099 49.6504C49.6936 50.6391 49.4957 51.7027 48.8769 52.5245C48.2571 53.3466 47.2887 53.8284 46.2603 53.8284H23.46C22.4319 53.8284 21.4642 53.3451 20.8442 52.5245C20.2256 51.7029 20.0268 50.6384 20.3104 49.6507C21.3659 45.9688 23.7863 42.8687 26.9842 40.916C27.6025 40.538 28.3938 40.6112 28.9315 41.0969C30.6158 42.6171 32.7159 43.5254 35 43.5254C37.24 43.5254 39.3032 42.6514 40.9705 41.1829C41.5141 40.7038 42.3096 40.6415 42.9225 41.0274ZM35 41.2844C39.4887 41.2844 43.1274 36.9862 43.1274 31.6848C43.1274 26.3831 39.4889 22.0862 35 22.0862C30.5116 22.0862 26.873 26.3829 26.873 31.6848C26.873 36.9862 30.5116 41.2844 35 41.2844Z" fill="#053553"/>
</svg>
