<svg width="31" height="31" viewBox="0 0 31 31" fill="none" xmlns="http://www.w3.org/2000/svg">
<path d="M22.6984 17.7384C22.64 17.7104 20.4529 16.6334 20.0643 16.4935C19.9056 16.4365 19.7357 16.3809 19.5549 16.3809C19.2595 16.3809 19.0115 16.5281 18.8182 16.8172C18.5997 17.1419 17.9384 17.915 17.734 18.1459C17.7073 18.1764 17.6709 18.2129 17.6491 18.2129C17.6295 18.2129 17.291 18.0735 17.1886 18.029C14.8424 17.0098 13.0616 14.5591 12.8174 14.1458C12.7826 14.0864 12.7811 14.0594 12.7808 14.0594C12.7894 14.028 12.8683 13.9489 12.909 13.9081C13.0281 13.7902 13.1572 13.6348 13.282 13.4845C13.3412 13.4133 13.4004 13.342 13.4585 13.2748C13.6397 13.0641 13.7204 12.9004 13.8139 12.7109L13.8629 12.6124C14.0912 12.1588 13.8962 11.776 13.8332 11.6524C13.7814 11.549 12.858 9.3202 12.7598 9.08604C12.5237 8.52101 12.2117 8.25792 11.7782 8.25792C11.7379 8.25792 11.7782 8.25792 11.6095 8.26503C11.404 8.2737 10.2854 8.42097 9.79075 8.73276C9.26624 9.06344 8.3789 10.1175 8.3789 11.9713C8.3789 13.6397 9.43766 15.215 9.89224 15.8141C9.90354 15.8292 9.92429 15.8599 9.95439 15.9039C11.6953 18.4463 13.8655 20.3305 16.0655 21.2094C18.1835 22.0554 19.1865 22.1532 19.7567 22.1532C19.9963 22.1532 20.1882 22.1344 20.3574 22.1177L20.4647 22.1075C21.1964 22.0426 22.8043 21.2094 23.1701 20.1931C23.4582 19.3925 23.5342 18.5178 23.3425 18.2004C23.2112 17.9845 22.9849 17.8759 22.6984 17.7384Z" fill="#ffffff"/>
<path d="M15.7663 0.5C7.64134 0.5 1.03121 7.06046 1.03121 15.1243C1.03121 17.7325 1.7292 20.2855 3.05144 22.5199L0.520627 29.9853C0.473484 30.1245 0.508549 30.2784 0.611503 30.3832C0.685822 30.4591 0.786633 30.5 0.889588 30.5C0.929036 30.5 0.968776 30.4941 1.00754 30.4817L8.79196 28.0081C10.9222 29.1462 13.3297 29.747 15.7664 29.747C23.8905 29.7471 30.5 23.1873 30.5 15.1243C30.5 7.06046 23.8905 0.5 15.7663 0.5ZM15.7663 26.7007C13.4735 26.7007 11.2528 26.0387 9.34394 24.7861C9.27975 24.7439 9.20524 24.7223 9.13024 24.7223C9.09059 24.7223 9.05085 24.7283 9.01218 24.7406L5.11267 25.9801L6.3715 22.2663C6.41222 22.1461 6.39186 22.0135 6.31686 21.911C4.86322 19.9248 4.09481 17.5781 4.09481 15.1243C4.09481 8.74026 9.33059 3.54636 15.7662 3.54636C22.201 3.54636 27.4362 8.74026 27.4362 15.1243C27.4363 21.5076 22.2012 26.7007 15.7663 26.7007Z" fill="#ffffff"/>
</svg>
