<svg width="40" height="21" viewBox="0 0 40 21" fill="none" xmlns="http://www.w3.org/2000/svg">
<rect width="40" height="20" transform="translate(0 0.69043)" fill="#FF0000"/>
<path fill-rule="evenodd" clip-rule="evenodd" d="M18.1296 14.0737V7.66022C20.4064 8.73157 22.1698 9.76651 24.2554 10.8823C22.5352 11.8363 20.4064 12.9066 18.1296 14.0737ZM30.8183 4.47049C30.4255 3.95305 29.7562 3.55027 29.0435 3.41692C26.9489 3.01915 13.8811 3.01801 11.7876 3.41692C11.2161 3.52405 10.7072 3.783 10.2701 4.18533C8.42816 5.89493 9.00533 15.063 9.44931 16.548C9.63601 17.1909 9.87736 17.6545 10.1813 17.9588C10.5729 18.3611 11.1091 18.6381 11.725 18.7623C13.4497 19.1191 22.3349 19.3185 29.0071 18.8159C29.6218 18.7088 30.166 18.4228 30.5951 18.0034C32.2982 16.3006 32.1821 6.61774 30.8183 4.47049Z" fill="white"/>
</svg>
